{
    "asset" : {
        "generator" : "Khronos glTF Blender I/O v1.0.5",
        "version" : "2.0"
    },
    "scene" : 0,
    "scenes" : [
        {
            "name" : "Scene",
            "nodes" : [
                0
            ]
        }
    ],
    "nodes" : [
        {
            "mesh" : 0,
            "name" : "Text 1",
            "translation" : [
                0,
                0,
                -0.7334047555923462
            ]
        }
    ],
    "materials" : [
        {
            "doubleSided" : true,
            "name" : "Material.003",
            "pbrMetallicRoughness" : {
                "baseColorFactor" : [
                    0.07421360909938812,
                    0.03560132533311844,
                    0.012286489829421043,
                    1
                ],
                "metallicFactor" : 0,
                "roughnessFactor" : 0.5
            }
        }
    ],
    "meshes" : [
        {
            "name" : "Text.002",
            "primitives" : [
                {
                    "attributes" : {
                        "POSITION" : 0,
                        "NORMAL" : 1
                    },
                    "indices" : 2,
                    "material" : 0
                }
            ]
        }
    ],
    "accessors" : [
        {
            "bufferView" : 0,
            "componentType" : 5126,
            "count" : 31764,
            "max" : [
                3.235973834991455,
                0.05999999865889549,
                0.339478075504303
            ],
            "min" : [
                -3.2333481311798096,
                -0.05999999865889549,
                -0.5035886168479919
            ],
            "type" : "VEC3"
        },
        {
            "bufferView" : 1,
            "componentType" : 5126,
            "count" : 31764,
            "type" : "VEC3"
        },
        {
            "bufferView" : 2,
            "componentType" : 5123,
            "count" : 137448,
            "type" : "SCALAR"
        }
    ],
    "bufferViews" : [
        {
            "buffer" : 0,
            "byteLength" : 381168,
            "byteOffset" : 0
        },
        {
            "buffer" : 0,
            "byteLength" : 381168,
            "byteOffset" : 381168
        },
        {
            "buffer" : 0,
            "byteLength" : 274896,
            "byteOffset" : 762336
        }
    ],
    "buffers" : [
        {
            "byteLength" : 1037232,
            "uri" : "data:application/octet-stream;base64,"
        }
    ]
}
