{
    "asset" : {
        "generator" : "Khronos glTF Blender I/O v1.0.5",
        "version" : "2.0"
    },
    "scene" : 0,
    "scenes" : [
        {
            "name" : "Scene",
            "nodes" : [
                0
            ]
        }
    ],
    "nodes" : [
        {
            "mesh" : 0,
            "name" : "Text 2",
            "translation" : [
                0,
                0,
                0.7389185428619385
            ]
        }
    ],
    "materials" : [
        {
            "doubleSided" : true,
            "name" : "Material.004",
            "pbrMetallicRoughness" : {
                "baseColorFactor" : [
                    0.48514994978904724,
                    0.30946898460388184,
                    0.13843165338039398,
                    1
                ],
                "metallicFactor" : 0,
                "roughnessFactor" : 0.5
            }
        }
    ],
    "meshes" : [
        {
            "name" : "Text.003",
            "primitives" : [
                {
                    "attributes" : {
                        "POSITION" : 0,
                        "NORMAL" : 1
                    },
                    "indices" : 2,
                    "material" : 0
                }
            ]
        }
    ],
    "accessors" : [
        {
            "bufferView" : 0,
            "componentType" : 5126,
            "count" : 14168,
            "max" : [
                3.532472848892212,
                0.05999999865889549,
                0.3394779860973358
            ],
            "min" : [
                -3.5000879764556885,
                -0.05999999865889549,
                -0.5035886168479919
            ],
            "type" : "VEC3"
        },
        {
            "bufferView" : 1,
            "componentType" : 5126,
            "count" : 14168,
            "type" : "VEC3"
        },
        {
            "bufferView" : 2,
            "componentType" : 5123,
            "count" : 61668,
            "type" : "SCALAR"
        }
    ],
    "bufferViews" : [
        {
            "buffer" : 0,
            "byteLength" : 170016,
            "byteOffset" : 0
        },
        {
            "buffer" : 0,
            "byteLength" : 170016,
            "byteOffset" : 170016
        },
        {
            "buffer" : 0,
            "byteLength" : 123336,
            "byteOffset" : 340032
        }
    ],
    "buffers" : [
        {
            "byteLength" : 463368,
            "uri" : "data:application/octet-stream;base64,"
        }
    ]
}
