{
    "asset" : {
        "generator" : "Khronos glTF Blender I/O v1.0.5",
        "version" : "2.0"
    },
    "scene" : 0,
    "scenes" : [
        {
            "name" : "Scene",
            "nodes" : [
                0,
                1,
                2
            ]
        }
    ],
    "nodes" : [
        {
            "mesh" : 0,
            "name" : "Banana",
            "rotation" : [
                0.4842303693294525,
                -0.6666008830070496,
                0.5152872800827026,
                -0.23588824272155762
            ],
            "scale" : [
                0.08712057024240494,
                0.08712055534124374,
                0.08712056279182434
            ],
            "translation" : [
                -0.05000728741288185,
                0.48790591955184937,
                1.8893609046936035
            ]
        },
        {
            "mesh" : 1,
            "name" : "Orange",
            "rotation" : [
                0.7071068286895752,
                0,
                0,
                0.7071067094802856
            ],
            "scale" : [
                0.04817114397883415,
                0.04817114397883415,
                0.04817114397883415
            ],
            "translation" : [
                0.2148299217224121,
                0,
                -1.1814756393432617
            ]
        },
        {
            "mesh" : 2,
            "name" : "Apple",
            "rotation" : [
                0.7071068286895752,
                0,
                0,
                0.7071067094802856
            ],
            "scale" : [
                0.05594872683286667,
                0.05594872683286667,
                0.05594872683286667
            ],
            "translation" : [
                -0.9241527915000916,
                0,
                0.3735072612762451
            ]
        }
    ],
    "materials" : [
        {
            "doubleSided" : true,
            "name" : "Banana.001",
            "pbrMetallicRoughness" : {
                "baseColorFactor" : [
                    0.9720738530158997,
                    1,
                    0.0019808621145784855,
                    1
                ],
                "metallicFactor" : 0.12363635003566742,
                "roughnessFactor" : 0.5313059091567993
            }
        },
        {
            "doubleSided" : true,
            "name" : "Material.001",
            "pbrMetallicRoughness" : {
                "baseColorFactor" : [
                    0,
                    0,
                    0,
                    1
                ],
                "metallicFactor" : 0,
                "roughnessFactor" : 0.7545454502105713
            }
        },
        {
            "doubleSided" : true,
            "name" : "Orange",
            "pbrMetallicRoughness" : {
                "baseColorFactor" : [
                    0.7709650993347168,
                    0.19657061994075775,
                    0.002747132210060954,
                    1
                ],
                "metallicFactor" : 0.2945454716682434,
                "roughnessFactor" : 0.5385786294937134
            }
        },
        {
            "doubleSided" : true,
            "name" : "Material.003",
            "pbrMetallicRoughness" : {
                "baseColorFactor" : [
                    0.004130487330257893,
                    0.2018706500530243,
                    0,
                    1
                ],
                "metallicFactor" : 0,
                "roughnessFactor" : 0.4763636291027069
            }
        },
        {
            "doubleSided" : true,
            "name" : "Apple.001",
            "pbrMetallicRoughness" : {
                "baseColorFactor" : [
                    0.9517950415611267,
                    0.0023899597581475973,
                    0,
                    1
                ],
                "metallicFactor" : 0.22181816399097443,
                "roughnessFactor" : 0.4913059175014496
            }
        },
        {
            "doubleSided" : true,
            "name" : "Material.002",
            "pbrMetallicRoughness" : {
                "baseColorFactor" : [
                    0.004601159133017063,
                    0.2018706500530243,
                    0,
                    1
                ],
                "metallicFactor" : 0.24074074625968933,
                "roughnessFactor" : 0.7381818294525146
            }
        }
    ],
    "meshes" : [
        {
            "name" : "Mesh.059",
            "primitives" : [
                {
                    "attributes" : {
                        "POSITION" : 0,
                        "NORMAL" : 1,
                        "TEXCOORD_0" : 2
                    },
                    "indices" : 3,
                    "material" : 0
                },
                {
                    "attributes" : {
                        "POSITION" : 4,
                        "NORMAL" : 5,
                        "TEXCOORD_0" : 6
                    },
                    "indices" : 7,
                    "material" : 1
                }
            ]
        },
        {
            "name" : "Mesh.060",
            "primitives" : [
                {
                    "attributes" : {
                        "POSITION" : 8,
                        "NORMAL" : 9,
                        "TEXCOORD_0" : 10
                    },
                    "indices" : 11,
                    "material" : 2
                },
                {
                    "attributes" : {
                        "POSITION" : 12,
                        "NORMAL" : 13,
                        "TEXCOORD_0" : 14
                    },
                    "indices" : 15,
                    "material" : 3
                }
            ]
        },
        {
            "name" : "Mesh.061",
            "primitives" : [
                {
                    "attributes" : {
                        "POSITION" : 16,
                        "NORMAL" : 17,
                        "TEXCOORD_0" : 18
                    },
                    "indices" : 19,
                    "material" : 4
                },
                {
                    "attributes" : {
                        "POSITION" : 20,
                        "NORMAL" : 21,
                        "TEXCOORD_0" : 22
                    },
                    "indices" : 23,
                    "material" : 5
                }
            ]
        }
    ],
    "accessors" : [
        {
            "bufferView" : 0,
            "componentType" : 5126,
            "count" : 286,
            "max" : [
                17.55901336669922,
                6.0848002433776855,
                17.046871185302734
            ],
            "min" : [
                -12.867859840393066,
                -6.084798336029053,
                -20.79053497314453
            ],
            "type" : "VEC3"
        },
        {
            "bufferView" : 1,
            "componentType" : 5126,
            "count" : 286,
            "type" : "VEC3"
        },
        {
            "bufferView" : 2,
            "componentType" : 5126,
            "count" : 286,
            "type" : "VEC2"
        },
        {
            "bufferView" : 3,
            "componentType" : 5123,
            "count" : 1470,
            "type" : "SCALAR"
        },
        {
            "bufferView" : 4,
            "componentType" : 5126,
            "count" : 117,
            "max" : [
                7.729434013366699,
                1.9309921264648438,
                -18.766212463378906
            ],
            "min" : [
                2.932619333267212,
                -1.9309990406036377,
                -23.21997833251953
            ],
            "type" : "VEC3"
        },
        {
            "bufferView" : 5,
            "componentType" : 5126,
            "count" : 117,
            "type" : "VEC3"
        },
        {
            "bufferView" : 6,
            "componentType" : 5126,
            "count" : 117,
            "type" : "VEC2"
        },
        {
            "bufferView" : 7,
            "componentType" : 5123,
            "count" : 486,
            "type" : "SCALAR"
        },
        {
            "bufferView" : 8,
            "componentType" : 5126,
            "count" : 316,
            "max" : [
                15.592503547668457,
                15.592504501342773,
                14.817626953125
            ],
            "min" : [
                -15.592503547668457,
                -15.592504501342773,
                -12.283156394958496
            ],
            "type" : "VEC3"
        },
        {
            "bufferView" : 9,
            "componentType" : 5126,
            "count" : 316,
            "type" : "VEC3"
        },
        {
            "bufferView" : 10,
            "componentType" : 5126,
            "count" : 316,
            "type" : "VEC2"
        },
        {
            "bufferView" : 11,
            "componentType" : 5123,
            "count" : 1584,
            "type" : "SCALAR"
        },
        {
            "bufferView" : 12,
            "componentType" : 5126,
            "count" : 248,
            "max" : [
                10.27665901184082,
                5.001906394958496,
                -10.108207702636719
            ],
            "min" : [
                -3.4904849529266357,
                -2.959995985031128,
                -20.22804832458496
            ],
            "type" : "VEC3"
        },
        {
            "bufferView" : 13,
            "componentType" : 5126,
            "count" : 248,
            "type" : "VEC3"
        },
        {
            "bufferView" : 14,
            "componentType" : 5126,
            "count" : 248,
            "type" : "VEC2"
        },
        {
            "bufferView" : 15,
            "componentType" : 5123,
            "count" : 1176,
            "type" : "SCALAR"
        },
        {
            "bufferView" : 16,
            "componentType" : 5126,
            "count" : 351,
            "max" : [
                15.725625038146973,
                15.725625038146973,
                14.860140800476074
            ],
            "min" : [
                -15.725625038146973,
                -15.725625038146973,
                -17.827030181884766
            ],
            "type" : "VEC3"
        },
        {
            "bufferView" : 17,
            "componentType" : 5126,
            "count" : 351,
            "type" : "VEC3"
        },
        {
            "bufferView" : 18,
            "componentType" : 5126,
            "count" : 351,
            "type" : "VEC2"
        },
        {
            "bufferView" : 19,
            "componentType" : 5123,
            "count" : 1686,
            "type" : "SCALAR"
        },
        {
            "bufferView" : 20,
            "componentType" : 5126,
            "count" : 229,
            "max" : [
                4.199261665344238,
                3.4458072185516357,
                -11.230167388916016
            ],
            "min" : [
                -12.400531768798828,
                -4.269273281097412,
                -21.012557983398438
            ],
            "type" : "VEC3"
        },
        {
            "bufferView" : 21,
            "componentType" : 5126,
            "count" : 229,
            "type" : "VEC3"
        },
        {
            "bufferView" : 22,
            "componentType" : 5126,
            "count" : 229,
            "type" : "VEC2"
        },
        {
            "bufferView" : 23,
            "componentType" : 5123,
            "count" : 1098,
            "type" : "SCALAR"
        }
    ],
    "bufferViews" : [
        {
            "buffer" : 0,
            "byteLength" : 3432,
            "byteOffset" : 0
        },
        {
            "buffer" : 0,
            "byteLength" : 3432,
            "byteOffset" : 3432
        },
        {
            "buffer" : 0,
            "byteLength" : 2288,
            "byteOffset" : 6864
        },
        {
            "buffer" : 0,
            "byteLength" : 2940,
            "byteOffset" : 9152
        },
        {
            "buffer" : 0,
            "byteLength" : 1404,
            "byteOffset" : 12092
        },
        {
            "buffer" : 0,
            "byteLength" : 1404,
            "byteOffset" : 13496
        },
        {
            "buffer" : 0,
            "byteLength" : 936,
            "byteOffset" : 14900
        },
        {
            "buffer" : 0,
            "byteLength" : 972,
            "byteOffset" : 15836
        },
        {
            "buffer" : 0,
            "byteLength" : 3792,
            "byteOffset" : 16808
        },
        {
            "buffer" : 0,
            "byteLength" : 3792,
            "byteOffset" : 20600
        },
        {
            "buffer" : 0,
            "byteLength" : 2528,
            "byteOffset" : 24392
        },
        {
            "buffer" : 0,
            "byteLength" : 3168,
            "byteOffset" : 26920
        },
        {
            "buffer" : 0,
            "byteLength" : 2976,
            "byteOffset" : 30088
        },
        {
            "buffer" : 0,
            "byteLength" : 2976,
            "byteOffset" : 33064
        },
        {
            "buffer" : 0,
            "byteLength" : 1984,
            "byteOffset" : 36040
        },
        {
            "buffer" : 0,
            "byteLength" : 2352,
            "byteOffset" : 38024
        },
        {
            "buffer" : 0,
            "byteLength" : 4212,
            "byteOffset" : 40376
        },
        {
            "buffer" : 0,
            "byteLength" : 4212,
            "byteOffset" : 44588
        },
        {
            "buffer" : 0,
            "byteLength" : 2808,
            "byteOffset" : 48800
        },
        {
            "buffer" : 0,
            "byteLength" : 3372,
            "byteOffset" : 51608
        },
        {
            "buffer" : 0,
            "byteLength" : 2748,
            "byteOffset" : 54980
        },
        {
            "buffer" : 0,
            "byteLength" : 2748,
            "byteOffset" : 57728
        },
        {
            "buffer" : 0,
            "byteLength" : 1832,
            "byteOffset" : 60476
        },
        {
            "buffer" : 0,
            "byteLength" : 2196,
            "byteOffset" : 62308
        }
    ],
    "buffers" : [
        {
            "byteLength" : 64504,
            "uri" : "data:application/octet-stream;base64,"
        }
    ]
}
