{
    "asset" : {
        "generator" : "Khronos glTF Blender I/O v1.0.5",
        "version" : "2.0"
    },
    "scene" : 0,
    "scenes" : [
        {
            "name" : "Scene",
            "nodes" : [
                0
            ]
        }
    ],
    "nodes" : [
        {
            "mesh" : 0,
            "name" : "Text 1",
            "translation" : [
                0,
                0,
                -0.7334047555923462
            ]
        }
    ],
    "materials" : [
        {
            "doubleSided" : true,
            "name" : "Material.005",
            "pbrMetallicRoughness" : {
                "baseColorFactor" : [
                    0.6115555167198181,
                    0.6827743053436279,
                    0.0029417029581964016,
                    1
                ],
                "metallicFactor" : 0,
                "roughnessFactor" : 0.5
            }
        }
    ],
    "meshes" : [
        {
            "name" : "Text.000",
            "primitives" : [
                {
                    "attributes" : {
                        "POSITION" : 0,
                        "NORMAL" : 1
                    },
                    "indices" : 2,
                    "material" : 0
                }
            ]
        }
    ],
    "accessors" : [
        {
            "bufferView" : 0,
            "componentType" : 5126,
            "count" : 34499,
            "max" : [
                3.8808445930480957,
                0.05999999865889549,
                0.339478075504303
            ],
            "min" : [
                -3.8482277393341064,
                -0.05999999865889549,
                -0.3351013958454132
            ],
            "type" : "VEC3"
        },
        {
            "bufferView" : 1,
            "componentType" : 5126,
            "count" : 34499,
            "type" : "VEC3"
        },
        {
            "bufferView" : 2,
            "componentType" : 5123,
            "count" : 149187,
            "type" : "SCALAR"
        }
    ],
    "bufferViews" : [
        {
            "buffer" : 0,
            "byteLength" : 413988,
            "byteOffset" : 0
        },
        {
            "buffer" : 0,
            "byteLength" : 413988,
            "byteOffset" : 413988
        },
        {
            "buffer" : 0,
            "byteLength" : 298374,
            "byteOffset" : 827976
        }
    ],
    "buffers" : [
        {
            "byteLength" : 1126352,
            "uri" : "data:application/octet-stream;base64,"
        }
    ]
}
