{
    "asset" : {
        "generator" : "Khronos glTF Blender I/O v1.0.5",
        "version" : "2.0"
    },
    "scene" : 0,
    "scenes" : [
        {
            "name" : "Scene",
            "nodes" : [
                0
            ]
        }
    ],
    "nodes" : [
        {
            "mesh" : 0,
            "name" : "Text 2",
            "translation" : [
                0,
                0,
                0.7389185428619385
            ]
        }
    ],
    "materials" : [
        {
            "doubleSided" : true,
            "name" : "Material.006",
            "pbrMetallicRoughness" : {
                "baseColorFactor" : [
                    0.02648102678358555,
                    0.48514997959136963,
                    0.43685516715049744,
                    1
                ],
                "metallicFactor" : 0,
                "roughnessFactor" : 0.5
            }
        }
    ],
    "meshes" : [
        {
            "name" : "Text.001",
            "primitives" : [
                {
                    "attributes" : {
                        "POSITION" : 0,
                        "NORMAL" : 1
                    },
                    "indices" : 2,
                    "material" : 0
                }
            ]
        }
    ],
    "accessors" : [
        {
            "bufferView" : 0,
            "componentType" : 5126,
            "count" : 12207,
            "max" : [
                2.861588478088379,
                0.05999999865889549,
                0.339478075504303
            ],
            "min" : [
                -2.806652069091797,
                -0.05999999865889549,
                -0.3351013958454132
            ],
            "type" : "VEC3"
        },
        {
            "bufferView" : 1,
            "componentType" : 5126,
            "count" : 12207,
            "type" : "VEC3"
        },
        {
            "bufferView" : 2,
            "componentType" : 5123,
            "count" : 52800,
            "type" : "SCALAR"
        }
    ],
    "bufferViews" : [
        {
            "buffer" : 0,
            "byteLength" : 146484,
            "byteOffset" : 0
        },
        {
            "buffer" : 0,
            "byteLength" : 146484,
            "byteOffset" : 146484
        },
        {
            "buffer" : 0,
            "byteLength" : 105600,
            "byteOffset" : 292968
        }
    ],
    "buffers" : [
        {
            "byteLength" : 398568,
            "uri" : "data:application/octet-stream;base64,"
        }
    ]
}
