{
    "asset" : {
        "generator" : "Khronos glTF Blender I/O v1.0.5",
        "version" : "2.0"
    },
    "scene" : 0,
    "scenes" : [
        {
            "name" : "Scene",
            "nodes" : [
                0,
                1,
                2,
                3,
                4,
                5
            ]
        }
    ],
    "nodes" : [
        {
            "mesh" : 0,
            "name" : "Cube.135",
            "rotation" : [
                0,
                -0.6691306829452515,
                0,
                0.7431448101997375
            ],
            "scale" : [
                0.4501273036003113,
                0.014834601432085037,
                0.4501273036003113
            ],
            "translation" : [
                -39.840599060058594,
                -1.1171977519989014,
                1.7611019611358643
            ]
        },
        {
            "mesh" : 1,
            "name" : "Cylinder.141",
            "rotation" : [
                -0.593029797077179,
                -0.32101982831954956,
                0.3851177990436554,
                0.6300367116928101
            ],
            "scale" : [
                0.07542609423398972,
                1.0725460052490234,
                0.07542607933282852
            ],
            "translation" : [
                -39.840599060058594,
                -1.1171976327896118,
                1.7611019611358643
            ]
        },
        {
            "mesh" : 2,
            "name" : "Cylinder.140",
            "rotation" : [
                -0.6123725771903992,
                -0.3535534739494324,
                0.3535532057285309,
                0.6123723983764648
            ],
            "scale" : [
                0.07542610168457031,
                1.0725460052490234,
                0.07542607933282852
            ],
            "translation" : [
                -39.840599060058594,
                -1.1171976327896118,
                1.7611019611358643
            ]
        },
        {
            "mesh" : 3,
            "name" : "Cube.134",
            "rotation" : [
                0,
                -0.7071068286895752,
                0,
                0.7071067094802856
            ],
            "scale" : [
                0.4501273036003113,
                0.014834601432085037,
                0.4501273036003113
            ],
            "translation" : [
                -39.840599060058594,
                -1.1171977519989014,
                1.7611019611358643
            ]
        },
        {
            "mesh" : 4,
            "name" : "Cylinder.098",
            "rotation" : [
                -0.6061089634895325,
                -0.34281229972839355,
                0.36418673396110535,
                0.6184494495391846
            ],
            "scale" : [
                0.07542609423398972,
                1.0725460052490234,
                0.07542607933282852
            ],
            "translation" : [
                -39.840599060058594,
                -1.1171976327896118,
                1.7611017227172852
            ]
        },
        {
            "mesh" : 5,
            "name" : "Cube.092",
            "rotation" : [
                0,
                -0.6946584582328796,
                0,
                0.7193397879600525
            ],
            "scale" : [
                0.4501272737979889,
                0.014834601432085037,
                0.4501272737979889
            ],
            "translation" : [
                -39.840599060058594,
                -1.1171977519989014,
                1.7611017227172852
            ]
        }
    ],
    "materials" : [
        {
            "doubleSided" : true,
            "name" : "Material",
            "pbrMetallicRoughness" : {}
        },
        {
            "doubleSided" : true,
            "name" : "cell base",
            "pbrMetallicRoughness" : {}
        },
        {
            "doubleSided" : true,
            "name" : "Material.007",
            "pbrMetallicRoughness" : {}
        }
    ],
    "meshes" : [
        {
            "name" : "Cube.136",
            "primitives" : [
                {
                    "attributes" : {
                        "POSITION" : 0,
                        "NORMAL" : 1
                    },
                    "indices" : 2,
                    "material" : 0
                }
            ]
        },
        {
            "name" : "Cylinder.143",
            "primitives" : [
                {
                    "attributes" : {
                        "POSITION" : 3,
                        "NORMAL" : 4
                    },
                    "indices" : 5,
                    "material" : 1
                },
                {
                    "attributes" : {
                        "POSITION" : 6,
                        "NORMAL" : 7
                    },
                    "indices" : 8,
                    "material" : 2
                }
            ]
        },
        {
            "name" : "Cylinder.142",
            "primitives" : [
                {
                    "attributes" : {
                        "POSITION" : 9,
                        "NORMAL" : 10
                    },
                    "indices" : 5,
                    "material" : 1
                },
                {
                    "attributes" : {
                        "POSITION" : 11,
                        "NORMAL" : 12
                    },
                    "indices" : 8,
                    "material" : 2
                }
            ]
        },
        {
            "name" : "Cube.135",
            "primitives" : [
                {
                    "attributes" : {
                        "POSITION" : 13,
                        "NORMAL" : 14
                    },
                    "indices" : 2,
                    "material" : 0
                }
            ]
        },
        {
            "name" : "Cylinder.100",
            "primitives" : [
                {
                    "attributes" : {
                        "POSITION" : 15,
                        "NORMAL" : 16
                    },
                    "indices" : 17,
                    "material" : 1
                },
                {
                    "attributes" : {
                        "POSITION" : 18,
                        "NORMAL" : 19
                    },
                    "indices" : 8,
                    "material" : 2
                }
            ]
        },
        {
            "name" : "Cube.093",
            "primitives" : [
                {
                    "attributes" : {
                        "POSITION" : 20,
                        "NORMAL" : 21
                    },
                    "indices" : 22,
                    "material" : 0
                }
            ]
        }
    ],
    "accessors" : [
        {
            "bufferView" : 0,
            "componentType" : 5126,
            "count" : 723,
            "max" : [
                1.495941400527954,
                138.20469665527344,
                -92.56007385253906
            ],
            "min" : [
                -1.495941400527954,
                -0.9999972581863403,
                -95.55195617675781
            ],
            "type" : "VEC3"
        },
        {
            "bufferView" : 1,
            "componentType" : 5126,
            "count" : 723,
            "type" : "VEC3"
        },
        {
            "bufferView" : 2,
            "componentType" : 5123,
            "count" : 1176,
            "type" : "SCALAR"
        },
        {
            "bufferView" : 3,
            "componentType" : 5126,
            "count" : 2604,
            "max" : [
                311.1170654296875,
                1.7532737255096436,
                -470.8212585449219
            ],
            "min" : [
                295.166748046875,
                -1.7532460689544678,
                -474.29278564453125
            ],
            "type" : "VEC3"
        },
        {
            "bufferView" : 4,
            "componentType" : 5126,
            "count" : 2604,
            "type" : "VEC3"
        },
        {
            "bufferView" : 5,
            "componentType" : 5123,
            "count" : 4572,
            "type" : "SCALAR"
        },
        {
            "bufferView" : 6,
            "componentType" : 5126,
            "count" : 432,
            "max" : [
                317.65081787109375,
                1.7650420665740967,
                -470.6352233886719
            ],
            "min" : [
                288.5404052734375,
                -1.7650138139724731,
                -470.7842102050781
            ],
            "type" : "VEC3"
        },
        {
            "bufferView" : 7,
            "componentType" : 5126,
            "count" : 432,
            "type" : "VEC3"
        },
        {
            "bufferView" : 8,
            "componentType" : 5123,
            "count" : 648,
            "type" : "SCALAR"
        },
        {
            "bufferView" : 9,
            "componentType" : 5126,
            "count" : 2604,
            "max" : [
                311.1170654296875,
                1.7532737255096436,
                -470.8212585449219
            ],
            "min" : [
                295.166748046875,
                -1.7532460689544678,
                -474.29278564453125
            ],
            "type" : "VEC3"
        },
        {
            "bufferView" : 10,
            "componentType" : 5126,
            "count" : 2604,
            "type" : "VEC3"
        },
        {
            "bufferView" : 11,
            "componentType" : 5126,
            "count" : 432,
            "max" : [
                317.65081787109375,
                1.7650420665740967,
                -470.6352233886719
            ],
            "min" : [
                288.5404052734375,
                -1.7650138139724731,
                -470.7842102050781
            ],
            "type" : "VEC3"
        },
        {
            "bufferView" : 12,
            "componentType" : 5126,
            "count" : 432,
            "type" : "VEC3"
        },
        {
            "bufferView" : 13,
            "componentType" : 5126,
            "count" : 723,
            "max" : [
                1.495941400527954,
                138.20469665527344,
                -92.56007385253906
            ],
            "min" : [
                -1.495941400527954,
                -0.9999972581863403,
                -95.55195617675781
            ],
            "type" : "VEC3"
        },
        {
            "bufferView" : 14,
            "componentType" : 5126,
            "count" : 723,
            "type" : "VEC3"
        },
        {
            "bufferView" : 15,
            "componentType" : 5126,
            "count" : 2606,
            "max" : [
                277.5816650390625,
                1.7532720565795898,
                -412.7362365722656
            ],
            "min" : [
                261.63134765625,
                -1.7532477378845215,
                -416.207763671875
            ],
            "type" : "VEC3"
        },
        {
            "bufferView" : 16,
            "componentType" : 5126,
            "count" : 2606,
            "type" : "VEC3"
        },
        {
            "bufferView" : 17,
            "componentType" : 5123,
            "count" : 4572,
            "type" : "SCALAR"
        },
        {
            "bufferView" : 18,
            "componentType" : 5126,
            "count" : 432,
            "max" : [
                284.11541748046875,
                1.765040397644043,
                -412.5502014160156
            ],
            "min" : [
                255.00498962402344,
                -1.7650154829025269,
                -412.6991882324219
            ],
            "type" : "VEC3"
        },
        {
            "bufferView" : 19,
            "componentType" : 5126,
            "count" : 432,
            "type" : "VEC3"
        },
        {
            "bufferView" : 20,
            "componentType" : 5126,
            "count" : 723,
            "max" : [
                1.495941400527954,
                138.20469665527344,
                -81.32127380371094
            ],
            "min" : [
                -1.495941400527954,
                -0.9999972581863403,
                -84.31315612792969
            ],
            "type" : "VEC3"
        },
        {
            "bufferView" : 21,
            "componentType" : 5126,
            "count" : 723,
            "type" : "VEC3"
        },
        {
            "bufferView" : 22,
            "componentType" : 5123,
            "count" : 1176,
            "type" : "SCALAR"
        }
    ],
    "bufferViews" : [
        {
            "buffer" : 0,
            "byteLength" : 8676,
            "byteOffset" : 0
        },
        {
            "buffer" : 0,
            "byteLength" : 8676,
            "byteOffset" : 8676
        },
        {
            "buffer" : 0,
            "byteLength" : 2352,
            "byteOffset" : 17352
        },
        {
            "buffer" : 0,
            "byteLength" : 31248,
            "byteOffset" : 19704
        },
        {
            "buffer" : 0,
            "byteLength" : 31248,
            "byteOffset" : 50952
        },
        {
            "buffer" : 0,
            "byteLength" : 9144,
            "byteOffset" : 82200
        },
        {
            "buffer" : 0,
            "byteLength" : 5184,
            "byteOffset" : 91344
        },
        {
            "buffer" : 0,
            "byteLength" : 5184,
            "byteOffset" : 96528
        },
        {
            "buffer" : 0,
            "byteLength" : 1296,
            "byteOffset" : 101712
        },
        {
            "buffer" : 0,
            "byteLength" : 31248,
            "byteOffset" : 103008
        },
        {
            "buffer" : 0,
            "byteLength" : 31248,
            "byteOffset" : 134256
        },
        {
            "buffer" : 0,
            "byteLength" : 5184,
            "byteOffset" : 165504
        },
        {
            "buffer" : 0,
            "byteLength" : 5184,
            "byteOffset" : 170688
        },
        {
            "buffer" : 0,
            "byteLength" : 8676,
            "byteOffset" : 175872
        },
        {
            "buffer" : 0,
            "byteLength" : 8676,
            "byteOffset" : 184548
        },
        {
            "buffer" : 0,
            "byteLength" : 31272,
            "byteOffset" : 193224
        },
        {
            "buffer" : 0,
            "byteLength" : 31272,
            "byteOffset" : 224496
        },
        {
            "buffer" : 0,
            "byteLength" : 9144,
            "byteOffset" : 255768
        },
        {
            "buffer" : 0,
            "byteLength" : 5184,
            "byteOffset" : 264912
        },
        {
            "buffer" : 0,
            "byteLength" : 5184,
            "byteOffset" : 270096
        },
        {
            "buffer" : 0,
            "byteLength" : 8676,
            "byteOffset" : 275280
        },
        {
            "buffer" : 0,
            "byteLength" : 8676,
            "byteOffset" : 283956
        },
        {
            "buffer" : 0,
            "byteLength" : 2352,
            "byteOffset" : 292632
        }
    ],
    "buffers" : [
        {
            "byteLength" : 294984,
            "uri" : "data:application/octet-stream;base64,"
        }
    ]
}
