{
    "asset" : {
        "generator" : "Khronos glTF Blender I/O v1.0.5",
        "version" : "2.0"
    },
    "scene" : 0,
    "scenes" : [
        {
            "name" : "Scene",
            "nodes" : [
                0,
                1,
                2,
                3,
                4,
                5
            ]
        }
    ],
    "nodes" : [
        {
            "mesh" : 0,
            "name" : "Cube.135",
            "rotation" : [
                0,
                0.1469552367925644,
                0,
                0.9891431331634521
            ],
            "scale" : [
                0.4501273036003113,
                0.014834601432085037,
                0.4501273036003113
            ],
            "translation" : [
                -3.2776974876469467e-06,
                0,
                -2.4285277504532132e-06
            ]
        },
        {
            "mesh" : 1,
            "name" : "Cylinder.141",
            "rotation" : [
                -0.08065365254878998,
                0.2813979983329773,
                0.7024919986724854,
                0.6487026810646057
            ],
            "scale" : [
                0.07542609423398972,
                1.0725460052490234,
                0.07542607933282852
            ],
            "translation" : [
                0,
                0,
                4.882843768427847e-06
            ]
        },
        {
            "mesh" : 2,
            "name" : "Cylinder.140",
            "rotation" : [
                -0.11730878055095673,
                0.2470618188381195,
                0.6973081827163696,
                0.6625409126281738
            ],
            "scale" : [
                0.07542609423398972,
                1.072546124458313,
                0.07542607188224792
            ],
            "translation" : [
                -2.322171440027887e-06,
                0,
                0
            ]
        },
        {
            "mesh" : 3,
            "name" : "Cube.134",
            "rotation" : [
                0,
                0.09498601406812668,
                0,
                0.995478630065918
            ],
            "scale" : [
                0.4501272737979889,
                0.014834601432085037,
                0.4501272737979889
            ],
            "translation" : [
                -3.160639380439534e-06,
                0,
                -2.4510718503734097e-06
            ]
        },
        {
            "mesh" : 4,
            "name" : "Cylinder.098",
            "rotation" : [
                -0.1051211878657341,
                0.258587121963501,
                0.699249267578125,
                0.6581282019615173
            ],
            "scale" : [
                0.07542609423398972,
                1.0725460052490234,
                0.07542607933282852
            ],
            "translation" : [
                -2.322171440027887e-06,
                0,
                0
            ]
        },
        {
            "mesh" : 5,
            "name" : "Cube.092",
            "rotation" : [
                0,
                0.11234506219625473,
                0,
                0.9936692714691162
            ],
            "scale" : [
                0.45012733340263367,
                0.014834601432085037,
                0.45012733340263367
            ],
            "translation" : [
                -3.2776974876469467e-06,
                0,
                -2.4285277504532132e-06
            ]
        }
    ],
    "materials" : [
        {
            "doubleSided" : true,
            "name" : "Material",
            "pbrMetallicRoughness" : {}
        },
        {
            "doubleSided" : true,
            "name" : "cell base",
            "pbrMetallicRoughness" : {}
        },
        {
            "doubleSided" : true,
            "name" : "Material.007",
            "pbrMetallicRoughness" : {}
        }
    ],
    "meshes" : [
        {
            "name" : "Cube.136",
            "primitives" : [
                {
                    "attributes" : {
                        "POSITION" : 0,
                        "NORMAL" : 1
                    },
                    "indices" : 2,
                    "material" : 0
                }
            ]
        },
        {
            "name" : "Cylinder.143",
            "primitives" : [
                {
                    "attributes" : {
                        "POSITION" : 3,
                        "NORMAL" : 4
                    },
                    "indices" : 5,
                    "material" : 1
                },
                {
                    "attributes" : {
                        "POSITION" : 6,
                        "NORMAL" : 7
                    },
                    "indices" : 8,
                    "material" : 2
                }
            ]
        },
        {
            "name" : "Cylinder.142",
            "primitives" : [
                {
                    "attributes" : {
                        "POSITION" : 9,
                        "NORMAL" : 10
                    },
                    "indices" : 11,
                    "material" : 1
                },
                {
                    "attributes" : {
                        "POSITION" : 12,
                        "NORMAL" : 13
                    },
                    "indices" : 14,
                    "material" : 2
                }
            ]
        },
        {
            "name" : "Cube.135",
            "primitives" : [
                {
                    "attributes" : {
                        "POSITION" : 15,
                        "NORMAL" : 16
                    },
                    "indices" : 17,
                    "material" : 0
                }
            ]
        },
        {
            "name" : "Cylinder.100",
            "primitives" : [
                {
                    "attributes" : {
                        "POSITION" : 18,
                        "NORMAL" : 19
                    },
                    "indices" : 20,
                    "material" : 1
                },
                {
                    "attributes" : {
                        "POSITION" : 21,
                        "NORMAL" : 22
                    },
                    "indices" : 23,
                    "material" : 2
                }
            ]
        },
        {
            "name" : "Cube.093",
            "primitives" : [
                {
                    "attributes" : {
                        "POSITION" : 24,
                        "NORMAL" : 25
                    },
                    "indices" : 26,
                    "material" : 0
                }
            ]
        }
    ],
    "accessors" : [
        {
            "bufferView" : 0,
            "componentType" : 5126,
            "count" : 676,
            "max" : [
                -3.86480975151062,
                62.894432067871094,
                -4.1263427734375
            ],
            "min" : [
                -6.856692314147949,
                -76.31026458740234,
                -7.11822509765625
            ],
            "type" : "VEC3"
        },
        {
            "bufferView" : 1,
            "componentType" : 5126,
            "count" : 676,
            "type" : "VEC3"
        },
        {
            "bufferView" : 2,
            "componentType" : 5123,
            "count" : 1176,
            "type" : "SCALAR"
        },
        {
            "bufferView" : 3,
            "componentType" : 5126,
            "count" : 2598,
            "max" : [
                34.412506103515625,
                4.0030670166015625,
                -21.1787109375
            ],
            "min" : [
                18.462188720703125,
                0.49654698371887207,
                -24.650238037109375
            ],
            "type" : "VEC3"
        },
        {
            "bufferView" : 4,
            "componentType" : 5126,
            "count" : 2598,
            "type" : "VEC3"
        },
        {
            "bufferView" : 5,
            "componentType" : 5123,
            "count" : 4572,
            "type" : "SCALAR"
        },
        {
            "bufferView" : 6,
            "componentType" : 5126,
            "count" : 432,
            "max" : [
                40.946258544921875,
                4.014835357666016,
                -20.99267578125
            ],
            "min" : [
                11.835845947265625,
                0.4847792387008667,
                -21.14166259765625
            ],
            "type" : "VEC3"
        },
        {
            "bufferView" : 7,
            "componentType" : 5126,
            "count" : 432,
            "type" : "VEC3"
        },
        {
            "bufferView" : 8,
            "componentType" : 5123,
            "count" : 648,
            "type" : "SCALAR"
        },
        {
            "bufferView" : 9,
            "componentType" : 5126,
            "count" : 2538,
            "max" : [
                34.18603515625,
                0.11127173900604248,
                -20.786407470703125
            ],
            "min" : [
                18.2357177734375,
                -3.3952479362487793,
                -24.2579345703125
            ],
            "type" : "VEC3"
        },
        {
            "bufferView" : 10,
            "componentType" : 5126,
            "count" : 2538,
            "type" : "VEC3"
        },
        {
            "bufferView" : 11,
            "componentType" : 5123,
            "count" : 4572,
            "type" : "SCALAR"
        },
        {
            "bufferView" : 12,
            "componentType" : 5126,
            "count" : 432,
            "max" : [
                40.71978759765625,
                0.1230400800704956,
                -20.600372314453125
            ],
            "min" : [
                11.609375,
                -3.407015800476074,
                -20.749359130859375
            ],
            "type" : "VEC3"
        },
        {
            "bufferView" : 13,
            "componentType" : 5126,
            "count" : 432,
            "type" : "VEC3"
        },
        {
            "bufferView" : 14,
            "componentType" : 5123,
            "count" : 648,
            "type" : "SCALAR"
        },
        {
            "bufferView" : 15,
            "componentType" : 5126,
            "count" : 687,
            "max" : [
                5.408409118652344,
                62.894432067871094,
                -4.050445556640625
            ],
            "min" : [
                2.4165263175964355,
                -76.31026458740234,
                -7.042327880859375
            ],
            "type" : "VEC3"
        },
        {
            "bufferView" : 16,
            "componentType" : 5126,
            "count" : 687,
            "type" : "VEC3"
        },
        {
            "bufferView" : 17,
            "componentType" : 5123,
            "count" : 1176,
            "type" : "SCALAR"
        },
        {
            "bufferView" : 18,
            "componentType" : 5126,
            "count" : 2559,
            "max" : [
                0.404052734375,
                1.4086437225341797,
                37.725677490234375
            ],
            "min" : [
                -15.5462646484375,
                -2.0978760719299316,
                34.254150390625
            ],
            "type" : "VEC3"
        },
        {
            "bufferView" : 19,
            "componentType" : 5126,
            "count" : 2559,
            "type" : "VEC3"
        },
        {
            "bufferView" : 20,
            "componentType" : 5123,
            "count" : 4572,
            "type" : "SCALAR"
        },
        {
            "bufferView" : 21,
            "componentType" : 5126,
            "count" : 432,
            "max" : [
                6.93780517578125,
                1.4204120635986328,
                37.911712646484375
            ],
            "min" : [
                -22.172622680664062,
                -2.1096439361572266,
                37.762725830078125
            ],
            "type" : "VEC3"
        },
        {
            "bufferView" : 22,
            "componentType" : 5126,
            "count" : 432,
            "type" : "VEC3"
        },
        {
            "bufferView" : 23,
            "componentType" : 5123,
            "count" : 648,
            "type" : "SCALAR"
        },
        {
            "bufferView" : 24,
            "componentType" : 5126,
            "count" : 707,
            "max" : [
                2.31708025932312,
                62.894439697265625,
                7.2709808349609375
            ],
            "min" : [
                -0.6748024821281433,
                -76.31025695800781,
                4.2790985107421875
            ],
            "type" : "VEC3"
        },
        {
            "bufferView" : 25,
            "componentType" : 5126,
            "count" : 707,
            "type" : "VEC3"
        },
        {
            "bufferView" : 26,
            "componentType" : 5123,
            "count" : 1176,
            "type" : "SCALAR"
        }
    ],
    "bufferViews" : [
        {
            "buffer" : 0,
            "byteLength" : 8112,
            "byteOffset" : 0
        },
        {
            "buffer" : 0,
            "byteLength" : 8112,
            "byteOffset" : 8112
        },
        {
            "buffer" : 0,
            "byteLength" : 2352,
            "byteOffset" : 16224
        },
        {
            "buffer" : 0,
            "byteLength" : 31176,
            "byteOffset" : 18576
        },
        {
            "buffer" : 0,
            "byteLength" : 31176,
            "byteOffset" : 49752
        },
        {
            "buffer" : 0,
            "byteLength" : 9144,
            "byteOffset" : 80928
        },
        {
            "buffer" : 0,
            "byteLength" : 5184,
            "byteOffset" : 90072
        },
        {
            "buffer" : 0,
            "byteLength" : 5184,
            "byteOffset" : 95256
        },
        {
            "buffer" : 0,
            "byteLength" : 1296,
            "byteOffset" : 100440
        },
        {
            "buffer" : 0,
            "byteLength" : 30456,
            "byteOffset" : 101736
        },
        {
            "buffer" : 0,
            "byteLength" : 30456,
            "byteOffset" : 132192
        },
        {
            "buffer" : 0,
            "byteLength" : 9144,
            "byteOffset" : 162648
        },
        {
            "buffer" : 0,
            "byteLength" : 5184,
            "byteOffset" : 171792
        },
        {
            "buffer" : 0,
            "byteLength" : 5184,
            "byteOffset" : 176976
        },
        {
            "buffer" : 0,
            "byteLength" : 1296,
            "byteOffset" : 182160
        },
        {
            "buffer" : 0,
            "byteLength" : 8244,
            "byteOffset" : 183456
        },
        {
            "buffer" : 0,
            "byteLength" : 8244,
            "byteOffset" : 191700
        },
        {
            "buffer" : 0,
            "byteLength" : 2352,
            "byteOffset" : 199944
        },
        {
            "buffer" : 0,
            "byteLength" : 30708,
            "byteOffset" : 202296
        },
        {
            "buffer" : 0,
            "byteLength" : 30708,
            "byteOffset" : 233004
        },
        {
            "buffer" : 0,
            "byteLength" : 9144,
            "byteOffset" : 263712
        },
        {
            "buffer" : 0,
            "byteLength" : 5184,
            "byteOffset" : 272856
        },
        {
            "buffer" : 0,
            "byteLength" : 5184,
            "byteOffset" : 278040
        },
        {
            "buffer" : 0,
            "byteLength" : 1296,
            "byteOffset" : 283224
        },
        {
            "buffer" : 0,
            "byteLength" : 8484,
            "byteOffset" : 284520
        },
        {
            "buffer" : 0,
            "byteLength" : 8484,
            "byteOffset" : 293004
        },
        {
            "buffer" : 0,
            "byteLength" : 2352,
            "byteOffset" : 301488
        }
    ],
    "buffers" : [
        {
            "byteLength" : 303840,
            "uri" : "data:application/octet-stream;base64,"
        }
    ]
}
