{
    "asset" : {
        "generator" : "Khronos glTF Blender I/O v1.0.5",
        "version" : "2.0"
    },
    "scene" : 0,
    "scenes" : [
        {
            "name" : "Scene",
            "nodes" : [
                0
            ]
        }
    ],
    "nodes" : [
        {
            "mesh" : 0,
            "name" : "Text2",
            "translation" : [
                0,
                0,
                0.7389185428619385
            ]
        }
    ],
    "materials" : [
        {
            "doubleSided" : true,
            "name" : "Material.006",
            "pbrMetallicRoughness" : {
                "baseColorFactor" : [
                    0.14126315712928772,
                    0.6444798111915588,
                    0.7991030216217041,
                    1
                ],
                "metallicFactor" : 0,
                "roughnessFactor" : 0.5
            }
        }
    ],
    "meshes" : [
        {
            "name" : "Text.001",
            "primitives" : [
                {
                    "attributes" : {
                        "POSITION" : 0,
                        "NORMAL" : 1
                    },
                    "indices" : 2,
                    "material" : 0
                }
            ]
        }
    ],
    "accessors" : [
        {
            "bufferView" : 0,
            "componentType" : 5126,
            "count" : 19473,
            "max" : [
                4.793961048126221,
                0.05999999865889549,
                0.339478075504303
            ],
            "min" : [
                -4.761576175689697,
                -0.05999999865889549,
                -0.5035886168479919
            ],
            "type" : "VEC3"
        },
        {
            "bufferView" : 1,
            "componentType" : 5126,
            "count" : 19473,
            "type" : "VEC3"
        },
        {
            "bufferView" : 2,
            "componentType" : 5123,
            "count" : 84240,
            "type" : "SCALAR"
        }
    ],
    "bufferViews" : [
        {
            "buffer" : 0,
            "byteLength" : 233676,
            "byteOffset" : 0
        },
        {
            "buffer" : 0,
            "byteLength" : 233676,
            "byteOffset" : 233676
        },
        {
            "buffer" : 0,
            "byteLength" : 168480,
            "byteOffset" : 467352
        }
    ],
    "buffers" : [
        {
            "byteLength" : 635832,
            "uri" : "data:application/octet-stream;base64,"
        }
    ]
}
