{
    "asset" : {
        "generator" : "Khronos glTF Blender I/O v1.0.5",
        "version" : "2.0"
    },
    "scene" : 0,
    "scenes" : [
        {
            "name" : "Scene",
            "nodes" : [
                0
            ]
        }
    ],
    "nodes" : [
        {
            "mesh" : 0,
            "name" : "Text1",
            "translation" : [
                0,
                0,
                -0.7334047555923462
            ]
        }
    ],
    "materials" : [
        {
            "doubleSided" : true,
            "name" : "Material.005",
            "pbrMetallicRoughness" : {
                "baseColorFactor" : [
                    0.38642966747283936,
                    0.7083758115768433,
                    0.6866854429244995,
                    1
                ],
                "metallicFactor" : 0,
                "roughnessFactor" : 0.5
            }
        }
    ],
    "meshes" : [
        {
            "name" : "Text.000",
            "primitives" : [
                {
                    "attributes" : {
                        "POSITION" : 0,
                        "NORMAL" : 1
                    },
                    "indices" : 2,
                    "material" : 0
                }
            ]
        }
    ],
    "accessors" : [
        {
            "bufferView" : 0,
            "componentType" : 5126,
            "count" : 44192,
            "max" : [
                4.696818828582764,
                0.05999999865889549,
                0.33949559926986694
            ],
            "min" : [
                -4.645383358001709,
                -0.05999999865889549,
                -0.33510181307792664
            ],
            "type" : "VEC3"
        },
        {
            "bufferView" : 1,
            "componentType" : 5126,
            "count" : 44192,
            "type" : "VEC3"
        },
        {
            "bufferView" : 2,
            "componentType" : 5123,
            "count" : 198780,
            "type" : "SCALAR"
        }
    ],
    "bufferViews" : [
        {
            "buffer" : 0,
            "byteLength" : 530304,
            "byteOffset" : 0
        },
        {
            "buffer" : 0,
            "byteLength" : 530304,
            "byteOffset" : 530304
        },
        {
            "buffer" : 0,
            "byteLength" : 397560,
            "byteOffset" : 1060608
        }
    ],
    "buffers" : [
        {
            "byteLength" : 1458168,
            "uri" : "data:application/octet-stream;base64,"
        }
    ]
}
