{
    "asset" : {
        "generator" : "Khronos glTF Blender I/O v1.0.5",
        "version" : "2.0"
    },
    "scene" : 0,
    "scenes" : [
        {
            "name" : "Scene",
            "nodes" : [
                0,
                1,
                2
            ]
        }
    ],
    "nodes" : [
        {
            "mesh" : 0,
            "name" : "Windrad_01",
            "rotation" : [
                0.7071067690849304,
                0,
                0,
                0.7071067690849304
            ],
            "translation" : [
                -0.22108888626098633,
                14.603102684020996,
                1.5512349605560303
            ]
        },
        {
            "mesh" : 1,
            "name" : "Windrad_01.001",
            "rotation" : [
                0.7071067690849304,
                0,
                0,
                0.7071067690849304
            ],
            "translation" : [
                -38.684722900390625,
                14.603102684020996,
                -20.886547088623047
            ]
        },
        {
            "mesh" : 2,
            "name" : "Windrad_01.002",
            "rotation" : [
                0.7071067690849304,
                0,
                0,
                0.7071067690849304
            ],
            "translation" : [
                36.10533142089844,
                14.603102684020996,
                -12.151996612548828
            ]
        }
    ],
    "materials" : [
        {
            "doubleSided" : true,
            "name" : "Default OBJ",
            "pbrMetallicRoughness" : {
                "baseColorFactor" : [
                    0.5853394269943237,
                    0.5853394269943237,
                    0.5853394269943237,
                    1
                ],
                "metallicFactor" : 0.4399999976158142,
                "roughnessFactor" : 0.35818183422088623
            }
        },
        {
            "doubleSided" : true,
            "name" : "Default OBJ.001",
            "pbrMetallicRoughness" : {
                "baseColorFactor" : [
                    0.5853394269943237,
                    0.5853394269943237,
                    0.5853394269943237,
                    1
                ],
                "metallicFactor" : 0.4399999976158142,
                "roughnessFactor" : 0.35818183422088623
            }
        },
        {
            "doubleSided" : true,
            "name" : "Default OBJ.002",
            "pbrMetallicRoughness" : {
                "baseColorFactor" : [
                    0.5853394269943237,
                    0.5853394269943237,
                    0.5853394269943237,
                    1
                ],
                "metallicFactor" : 0.4399999976158142,
                "roughnessFactor" : 0.35818183422088623
            }
        }
    ],
    "meshes" : [
        {
            "name" : "Windrad_01",
            "primitives" : [
                {
                    "attributes" : {
                        "POSITION" : 0,
                        "NORMAL" : 1
                    },
                    "indices" : 2,
                    "material" : 0
                }
            ]
        },
        {
            "name" : "Windrad_01.001",
            "primitives" : [
                {
                    "attributes" : {
                        "POSITION" : 3,
                        "NORMAL" : 4
                    },
                    "indices" : 2,
                    "material" : 1
                }
            ]
        },
        {
            "name" : "Windrad_01.002",
            "primitives" : [
                {
                    "attributes" : {
                        "POSITION" : 5,
                        "NORMAL" : 6
                    },
                    "indices" : 2,
                    "material" : 2
                }
            ]
        }
    ],
    "accessors" : [
        {
            "bufferView" : 0,
            "componentType" : 5126,
            "count" : 4269,
            "max" : [
                19.056943893432617,
                4.6164398193359375,
                38.509765625
            ],
            "min" : [
                -19.372556686401367,
                -5.799560546875,
                -31.903732299804688
            ],
            "type" : "VEC3"
        },
        {
            "bufferView" : 1,
            "componentType" : 5126,
            "count" : 4269,
            "type" : "VEC3"
        },
        {
            "bufferView" : 2,
            "componentType" : 5123,
            "count" : 25086,
            "type" : "SCALAR"
        },
        {
            "bufferView" : 3,
            "componentType" : 5126,
            "count" : 4269,
            "max" : [
                19.056943893432617,
                4.6164398193359375,
                38.509765625
            ],
            "min" : [
                -19.372556686401367,
                -5.799560546875,
                -31.903732299804688
            ],
            "type" : "VEC3"
        },
        {
            "bufferView" : 4,
            "componentType" : 5126,
            "count" : 4269,
            "type" : "VEC3"
        },
        {
            "bufferView" : 5,
            "componentType" : 5126,
            "count" : 4269,
            "max" : [
                19.056943893432617,
                4.6164398193359375,
                38.509765625
            ],
            "min" : [
                -19.372556686401367,
                -5.799560546875,
                -31.903732299804688
            ],
            "type" : "VEC3"
        },
        {
            "bufferView" : 6,
            "componentType" : 5126,
            "count" : 4269,
            "type" : "VEC3"
        }
    ],
    "bufferViews" : [
        {
            "buffer" : 0,
            "byteLength" : 51228,
            "byteOffset" : 0
        },
        {
            "buffer" : 0,
            "byteLength" : 51228,
            "byteOffset" : 51228
        },
        {
            "buffer" : 0,
            "byteLength" : 50172,
            "byteOffset" : 102456
        },
        {
            "buffer" : 0,
            "byteLength" : 51228,
            "byteOffset" : 152628
        },
        {
            "buffer" : 0,
            "byteLength" : 51228,
            "byteOffset" : 203856
        },
        {
            "buffer" : 0,
            "byteLength" : 51228,
            "byteOffset" : 255084
        },
        {
            "buffer" : 0,
            "byteLength" : 51228,
            "byteOffset" : 306312
        }
    ],
    "buffers" : [
        {
            "byteLength" : 357540,
            "uri" : "data:application/octet-stream;base64,"
        }
    ]
}
