{
    "asset" : {
        "generator" : "Khronos glTF Blender I/O v1.0.5",
        "version" : "2.0"
    },
    "scene" : 0,
    "scenes" : [
        {
            "name" : "Scene",
            "nodes" : [
                0,
                1,
                2,
                3,
                4,
                5
            ]
        }
    ],
    "nodes" : [
        {
            "mesh" : 0,
            "name" : "3D Gold OBJ.obj",
            "rotation" : [
                0,
                -0.7071067690849304,
                -0.7071067690849304,
                -3.0908619663705394e-08
            ],
            "translation" : [
                0,
                -0.4290617108345032,
                1.974478840827942
            ]
        },
        {
            "mesh" : 1,
            "name" : "3D Gold OBJ.obj.001",
            "rotation" : [
                0,
                -0.7071067690849304,
                -0.7071067690849304,
                -3.0908619663705394e-08
            ],
            "translation" : [
                0,
                -0.4290617108345032,
                -0.05328688770532608
            ]
        },
        {
            "mesh" : 2,
            "name" : "3D Gold OBJ.obj.002",
            "rotation" : [
                0,
                -0.7071067690849304,
                -0.7071067690849304,
                -3.0908619663705394e-08
            ],
            "translation" : [
                0,
                0.5236659646034241,
                1.0115402936935425
            ]
        },
        {
            "mesh" : 3,
            "name" : "3D Gold OBJ.obj.003",
            "rotation" : [
                0,
                -0.7071067690849304,
                -0.7071067690849304,
                -3.0908619663705394e-08
            ],
            "translation" : [
                0,
                -0.4290617108345032,
                -2.070988893508911
            ]
        },
        {
            "mesh" : 4,
            "name" : "3D Gold OBJ.obj.004",
            "rotation" : [
                0,
                -0.7071067690849304,
                -0.7071067690849304,
                -3.0908619663705394e-08
            ],
            "translation" : [
                0,
                0.5236659646034241,
                -1.0639779567718506
            ]
        },
        {
            "mesh" : 5,
            "name" : "3D Gold OBJ.obj.005",
            "rotation" : [
                0,
                -0.7071067690849304,
                -0.7071067690849304,
                -3.0908619663705394e-08
            ],
            "translation" : [
                0,
                1.4628382921218872,
                -0.03977261483669281
            ]
        }
    ],
    "materials" : [
        {
            "doubleSided" : true,
            "name" : "Default",
            "pbrMetallicRoughness" : {
                "baseColorFactor" : [
                    0.8274509906768799,
                    0.6588240265846252,
                    0.34509798884391785,
                    1
                ],
                "metallicFactor" : 0.6618182063102722,
                "roughnessFactor" : 0.23041367530822754
            }
        },
        {
            "doubleSided" : true,
            "name" : "Default.001",
            "pbrMetallicRoughness" : {
                "baseColorFactor" : [
                    0.8274509906768799,
                    0.6588240265846252,
                    0.34509798884391785,
                    1
                ],
                "metallicFactor" : 0.6618182063102722,
                "roughnessFactor" : 0.23041367530822754
            }
        },
        {
            "doubleSided" : true,
            "name" : "Default.002",
            "pbrMetallicRoughness" : {
                "baseColorFactor" : [
                    0.8274509906768799,
                    0.6588240265846252,
                    0.34509798884391785,
                    1
                ],
                "metallicFactor" : 0.6618182063102722,
                "roughnessFactor" : 0.23041367530822754
            }
        },
        {
            "doubleSided" : true,
            "name" : "Default.003",
            "pbrMetallicRoughness" : {
                "baseColorFactor" : [
                    0.8274509906768799,
                    0.6588240265846252,
                    0.34509798884391785,
                    1
                ],
                "metallicFactor" : 0.6618182063102722,
                "roughnessFactor" : 0.23041367530822754
            }
        },
        {
            "doubleSided" : true,
            "name" : "Default.004",
            "pbrMetallicRoughness" : {
                "baseColorFactor" : [
                    0.8274509906768799,
                    0.6588240265846252,
                    0.34509798884391785,
                    1
                ],
                "metallicFactor" : 0.6618182063102722,
                "roughnessFactor" : 0.23041367530822754
            }
        },
        {
            "doubleSided" : true,
            "name" : "Default.005",
            "pbrMetallicRoughness" : {
                "baseColorFactor" : [
                    0.8274509906768799,
                    0.6588240265846252,
                    0.34509798884391785,
                    1
                ],
                "metallicFactor" : 0.6618182063102722,
                "roughnessFactor" : 0.23041367530822754
            }
        }
    ],
    "meshes" : [
        {
            "name" : "3D Gold OBJ.obj",
            "primitives" : [
                {
                    "attributes" : {
                        "POSITION" : 0,
                        "NORMAL" : 1
                    },
                    "indices" : 2,
                    "material" : 0
                }
            ]
        },
        {
            "name" : "3D Gold OBJ.obj.001",
            "primitives" : [
                {
                    "attributes" : {
                        "POSITION" : 3,
                        "NORMAL" : 4
                    },
                    "indices" : 2,
                    "material" : 1
                }
            ]
        },
        {
            "name" : "3D Gold OBJ.obj.002",
            "primitives" : [
                {
                    "attributes" : {
                        "POSITION" : 5,
                        "NORMAL" : 6
                    },
                    "indices" : 2,
                    "material" : 2
                }
            ]
        },
        {
            "name" : "3D Gold OBJ.obj.003",
            "primitives" : [
                {
                    "attributes" : {
                        "POSITION" : 7,
                        "NORMAL" : 8
                    },
                    "indices" : 2,
                    "material" : 3
                }
            ]
        },
        {
            "name" : "3D Gold OBJ.obj.004",
            "primitives" : [
                {
                    "attributes" : {
                        "POSITION" : 9,
                        "NORMAL" : 10
                    },
                    "indices" : 2,
                    "material" : 4
                }
            ]
        },
        {
            "name" : "3D Gold OBJ.obj.005",
            "primitives" : [
                {
                    "attributes" : {
                        "POSITION" : 11,
                        "NORMAL" : 12
                    },
                    "indices" : 2,
                    "material" : 5
                }
            ]
        }
    ],
    "accessors" : [
        {
            "bufferView" : 0,
            "componentType" : 5126,
            "count" : 866,
            "max" : [
                2.539030075073242,
                0.979574978351593,
                0.475053995847702
            ],
            "min" : [
                -2.539030075073242,
                -0.979574978351593,
                -0.475053995847702
            ],
            "type" : "VEC3"
        },
        {
            "bufferView" : 1,
            "componentType" : 5126,
            "count" : 866,
            "type" : "VEC3"
        },
        {
            "bufferView" : 2,
            "componentType" : 5123,
            "count" : 5184,
            "type" : "SCALAR"
        },
        {
            "bufferView" : 3,
            "componentType" : 5126,
            "count" : 866,
            "max" : [
                2.539030075073242,
                0.979574978351593,
                0.475053995847702
            ],
            "min" : [
                -2.539030075073242,
                -0.979574978351593,
                -0.475053995847702
            ],
            "type" : "VEC3"
        },
        {
            "bufferView" : 4,
            "componentType" : 5126,
            "count" : 866,
            "type" : "VEC3"
        },
        {
            "bufferView" : 5,
            "componentType" : 5126,
            "count" : 866,
            "max" : [
                2.539030075073242,
                0.979574978351593,
                0.475053995847702
            ],
            "min" : [
                -2.539030075073242,
                -0.979574978351593,
                -0.475053995847702
            ],
            "type" : "VEC3"
        },
        {
            "bufferView" : 6,
            "componentType" : 5126,
            "count" : 866,
            "type" : "VEC3"
        },
        {
            "bufferView" : 7,
            "componentType" : 5126,
            "count" : 866,
            "max" : [
                2.539030075073242,
                0.979574978351593,
                0.475053995847702
            ],
            "min" : [
                -2.539030075073242,
                -0.979574978351593,
                -0.475053995847702
            ],
            "type" : "VEC3"
        },
        {
            "bufferView" : 8,
            "componentType" : 5126,
            "count" : 866,
            "type" : "VEC3"
        },
        {
            "bufferView" : 9,
            "componentType" : 5126,
            "count" : 866,
            "max" : [
                2.539030075073242,
                0.979574978351593,
                0.475053995847702
            ],
            "min" : [
                -2.539030075073242,
                -0.979574978351593,
                -0.475053995847702
            ],
            "type" : "VEC3"
        },
        {
            "bufferView" : 10,
            "componentType" : 5126,
            "count" : 866,
            "type" : "VEC3"
        },
        {
            "bufferView" : 11,
            "componentType" : 5126,
            "count" : 866,
            "max" : [
                2.539030075073242,
                0.979574978351593,
                0.475053995847702
            ],
            "min" : [
                -2.539030075073242,
                -0.979574978351593,
                -0.475053995847702
            ],
            "type" : "VEC3"
        },
        {
            "bufferView" : 12,
            "componentType" : 5126,
            "count" : 866,
            "type" : "VEC3"
        }
    ],
    "bufferViews" : [
        {
            "buffer" : 0,
            "byteLength" : 10392,
            "byteOffset" : 0
        },
        {
            "buffer" : 0,
            "byteLength" : 10392,
            "byteOffset" : 10392
        },
        {
            "buffer" : 0,
            "byteLength" : 10368,
            "byteOffset" : 20784
        },
        {
            "buffer" : 0,
            "byteLength" : 10392,
            "byteOffset" : 31152
        },
        {
            "buffer" : 0,
            "byteLength" : 10392,
            "byteOffset" : 41544
        },
        {
            "buffer" : 0,
            "byteLength" : 10392,
            "byteOffset" : 51936
        },
        {
            "buffer" : 0,
            "byteLength" : 10392,
            "byteOffset" : 62328
        },
        {
            "buffer" : 0,
            "byteLength" : 10392,
            "byteOffset" : 72720
        },
        {
            "buffer" : 0,
            "byteLength" : 10392,
            "byteOffset" : 83112
        },
        {
            "buffer" : 0,
            "byteLength" : 10392,
            "byteOffset" : 93504
        },
        {
            "buffer" : 0,
            "byteLength" : 10392,
            "byteOffset" : 103896
        },
        {
            "buffer" : 0,
            "byteLength" : 10392,
            "byteOffset" : 114288
        },
        {
            "buffer" : 0,
            "byteLength" : 10392,
            "byteOffset" : 124680
        }
    ],
    "buffers" : [
        {
            "byteLength" : 135072,
            "uri" : "data:application/octet-stream;base64,"
        }
    ]
}
