{
    "asset" : {
        "generator" : "Khronos glTF Blender I/O v1.0.5",
        "version" : "2.0"
    },
    "scene" : 0,
    "scenes" : [
        {
            "name" : "Scene",
            "nodes" : [
                0,
                1,
                2,
                3
            ]
        }
    ],
    "nodes" : [
        {
            "name" : "Light",
            "rotation" : [
                0.16907575726509094,
                0.7558803558349609,
                -0.27217137813568115,
                0.570947527885437
            ],
            "translation" : [
                4.076245307922363,
                5.474800109863281,
                -1.0054539442062378
            ]
        },
        {
            "mesh" : 0,
            "name" : "3D Gold OBJ.obj",
            "rotation" : [
                0,
                -0.7071067690849304,
                -0.7071067690849304,
                -3.0908619663705394e-08
            ],
            "translation" : [
                0,
                -0.4290617108345032,
                1.0227326154708862
            ]
        },
        {
            "mesh" : 1,
            "name" : "3D Gold OBJ.obj.001",
            "rotation" : [
                0,
                -0.7071067690849304,
                -0.7071067690849304,
                -3.0908619663705394e-08
            ],
            "translation" : [
                0,
                -0.4290617108345032,
                -1.0050331354141235
            ]
        },
        {
            "mesh" : 2,
            "name" : "3D Gold OBJ.obj.002",
            "rotation" : [
                0,
                -0.7071067690849304,
                -0.7071067690849304,
                -3.0908619663705394e-08
            ],
            "translation" : [
                0,
                0.5236659646034241,
                0.059794068336486816
            ]
        }
    ],
    "materials" : [
        {
            "doubleSided" : true,
            "name" : "Default",
            "normalTexture" : {
                "index" : 0,
                "texCoord" : 0
            },
            "pbrMetallicRoughness" : {
                "baseColorFactor" : [
                    0.8274509906768799,
                    0.6588240265846252,
                    0.34509798884391785,
                    1
                ],
                "metallicFactor" : 0,
                "roughnessFactor" : 0.528595507144928
            }
        },
        {
            "doubleSided" : true,
            "name" : "Default.001",
            "normalTexture" : {
                "index" : 1,
                "texCoord" : 0
            },
            "pbrMetallicRoughness" : {
                "baseColorFactor" : [
                    0.8274509906768799,
                    0.6588240265846252,
                    0.34509798884391785,
                    1
                ],
                "metallicFactor" : 0,
                "roughnessFactor" : 0.528595507144928
            }
        },
        {
            "doubleSided" : true,
            "name" : "Default.002",
            "normalTexture" : {
                "index" : 2,
                "texCoord" : 0
            },
            "pbrMetallicRoughness" : {
                "baseColorFactor" : [
                    0.8274509906768799,
                    0.6588240265846252,
                    0.34509798884391785,
                    1
                ],
                "metallicFactor" : 0,
                "roughnessFactor" : 0.528595507144928
            }
        }
    ],
    "meshes" : [
        {
            "name" : "3D Gold OBJ.obj",
            "primitives" : [
                {
                    "attributes" : {
                        "POSITION" : 0,
                        "NORMAL" : 1
                    },
                    "indices" : 2,
                    "material" : 0
                }
            ]
        },
        {
            "name" : "3D Gold OBJ.obj.001",
            "primitives" : [
                {
                    "attributes" : {
                        "POSITION" : 3,
                        "NORMAL" : 4
                    },
                    "indices" : 2,
                    "material" : 1
                }
            ]
        },
        {
            "name" : "3D Gold OBJ.obj.002",
            "primitives" : [
                {
                    "attributes" : {
                        "POSITION" : 5,
                        "NORMAL" : 6
                    },
                    "indices" : 2,
                    "material" : 2
                }
            ]
        }
    ],
    "textures" : [
        {
            "source" : 0
        },
        {
            "source" : 0
        },
        {
            "source" : 0
        }
    ],
    "images" : [
        {
            "bufferView" : 3,
            "mimeType" : "image/jpeg",
            "name" : "3D Gold Bump map"
        }
    ],
    "accessors" : [
        {
            "bufferView" : 0,
            "componentType" : 5126,
            "count" : 866,
            "max" : [
                2.539030075073242,
                0.979574978351593,
                0.475053995847702
            ],
            "min" : [
                -2.539030075073242,
                -0.979574978351593,
                -0.475053995847702
            ],
            "type" : "VEC3"
        },
        {
            "bufferView" : 1,
            "componentType" : 5126,
            "count" : 866,
            "type" : "VEC3"
        },
        {
            "bufferView" : 2,
            "componentType" : 5123,
            "count" : 5184,
            "type" : "SCALAR"
        },
        {
            "bufferView" : 4,
            "componentType" : 5126,
            "count" : 866,
            "max" : [
                2.539030075073242,
                0.979574978351593,
                0.475053995847702
            ],
            "min" : [
                -2.539030075073242,
                -0.979574978351593,
                -0.475053995847702
            ],
            "type" : "VEC3"
        },
        {
            "bufferView" : 5,
            "componentType" : 5126,
            "count" : 866,
            "type" : "VEC3"
        },
        {
            "bufferView" : 6,
            "componentType" : 5126,
            "count" : 866,
            "max" : [
                2.539030075073242,
                0.979574978351593,
                0.475053995847702
            ],
            "min" : [
                -2.539030075073242,
                -0.979574978351593,
                -0.475053995847702
            ],
            "type" : "VEC3"
        },
        {
            "bufferView" : 7,
            "componentType" : 5126,
            "count" : 866,
            "type" : "VEC3"
        }
    ],
    "bufferViews" : [
        {
            "buffer" : 0,
            "byteLength" : 10392,
            "byteOffset" : 0
        },
        {
            "buffer" : 0,
            "byteLength" : 10392,
            "byteOffset" : 10392
        },
        {
            "buffer" : 0,
            "byteLength" : 10368,
            "byteOffset" : 20784
        },
        {
            "buffer" : 0,
            "byteLength" : 72186,
            "byteOffset" : 31152
        },
        {
            "buffer" : 0,
            "byteLength" : 10392,
            "byteOffset" : 103340
        },
        {
            "buffer" : 0,
            "byteLength" : 10392,
            "byteOffset" : 113732
        },
        {
            "buffer" : 0,
            "byteLength" : 10392,
            "byteOffset" : 124124
        },
        {
            "buffer" : 0,
            "byteLength" : 10392,
            "byteOffset" : 134516
        }
    ],
    "buffers" : [
        {
            "byteLength" : 144908,
            "uri" : "data:application/octet-stream;base64,"
        }
    ]
}
