{
    "asset" : {
        "generator" : "Khronos glTF Blender I/O v1.0.5",
        "version" : "2.0"
    },
    "scene" : 0,
    "scenes" : [
        {
            "name" : "Scene",
            "nodes" : [
                0
            ]
        }
    ],
    "nodes" : [
        {
            "mesh" : 0,
            "name" : "Text 1",
            "translation" : [
                0,
                0,
                -0.7334047555923462
            ]
        }
    ],
    "materials" : [
        {
            "doubleSided" : true,
            "name" : "Material.005",
            "pbrMetallicRoughness" : {
                "baseColorFactor" : [
                    0.3813261389732361,
                    0.6172066926956177,
                    0.300543874502182,
                    1
                ],
                "metallicFactor" : 0,
                "roughnessFactor" : 0.5
            }
        }
    ],
    "meshes" : [
        {
            "name" : "Text.000",
            "primitives" : [
                {
                    "attributes" : {
                        "POSITION" : 0,
                        "NORMAL" : 1
                    },
                    "indices" : 2,
                    "material" : 0
                }
            ]
        }
    ],
    "accessors" : [
        {
            "bufferView" : 0,
            "componentType" : 5126,
            "count" : 14618,
            "max" : [
                4.253261089324951,
                0.05999999865889549,
                0.3394779860973358
            ],
            "min" : [
                -4.228315830230713,
                -0.05999999865889549,
                -0.3351013958454132
            ],
            "type" : "VEC3"
        },
        {
            "bufferView" : 1,
            "componentType" : 5126,
            "count" : 14618,
            "type" : "VEC3"
        },
        {
            "bufferView" : 2,
            "componentType" : 5123,
            "count" : 63324,
            "type" : "SCALAR"
        }
    ],
    "bufferViews" : [
        {
            "buffer" : 0,
            "byteLength" : 175416,
            "byteOffset" : 0
        },
        {
            "buffer" : 0,
            "byteLength" : 175416,
            "byteOffset" : 175416
        },
        {
            "buffer" : 0,
            "byteLength" : 126648,
            "byteOffset" : 350832
        }
    ],
    "buffers" : [
        {
            "byteLength" : 477480,
            "uri" : "data:application/octet-stream;base64,"
        }
    ]
}
