{
    "asset" : {
        "generator" : "Khronos glTF Blender I/O v1.0.5",
        "version" : "2.0"
    },
    "scene" : 0,
    "scenes" : [
        {
            "name" : "Scene",
            "nodes" : [
                0
            ]
        }
    ],
    "nodes" : [
        {
            "mesh" : 0,
            "name" : "Text 2",
            "translation" : [
                0,
                0,
                0.7389185428619385
            ]
        }
    ],
    "materials" : [
        {
            "doubleSided" : true,
            "name" : "Material.006",
            "pbrMetallicRoughness" : {
                "baseColorFactor" : [
                    0.03560132160782814,
                    0.19120173156261444,
                    0.07036013156175613,
                    1
                ],
                "metallicFactor" : 0,
                "roughnessFactor" : 0.5
            }
        }
    ],
    "meshes" : [
        {
            "name" : "Text.001",
            "primitives" : [
                {
                    "attributes" : {
                        "POSITION" : 0,
                        "NORMAL" : 1
                    },
                    "indices" : 2,
                    "material" : 0
                }
            ]
        }
    ],
    "accessors" : [
        {
            "bufferView" : 0,
            "componentType" : 5126,
            "count" : 42458,
            "max" : [
                3.4040307998657227,
                0.05999999865889549,
                0.33947989344596863
            ],
            "min" : [
                -3.416280508041382,
                -0.05999999865889549,
                -0.5070933699607849
            ],
            "type" : "VEC3"
        },
        {
            "bufferView" : 1,
            "componentType" : 5126,
            "count" : 42458,
            "type" : "VEC3"
        },
        {
            "bufferView" : 2,
            "componentType" : 5123,
            "count" : 183636,
            "type" : "SCALAR"
        }
    ],
    "bufferViews" : [
        {
            "buffer" : 0,
            "byteLength" : 509496,
            "byteOffset" : 0
        },
        {
            "buffer" : 0,
            "byteLength" : 509496,
            "byteOffset" : 509496
        },
        {
            "buffer" : 0,
            "byteLength" : 367272,
            "byteOffset" : 1018992
        }
    ],
    "buffers" : [
        {
            "byteLength" : 1386264,
            "uri" : "data:application/octet-stream;base64,"
        }
    ]
}
