{
    "asset" : {
        "generator" : "Khronos glTF Blender I/O v1.0.5",
        "version" : "2.0"
    },
    "scene" : 0,
    "scenes" : [
        {
            "name" : "Scene",
            "nodes" : [
                0
            ]
        }
    ],
    "nodes" : [
        {
            "mesh" : 0,
            "name" : "low_poly_earth",
            "rotation" : [
                0.1917908936738968,
                -0.25212928652763367,
                0.008196469396352768,
                -0.9484618306159973
            ]
        }
    ],
    "materials" : [
        {
            "doubleSided" : true,
            "name" : "Water",
            "pbrMetallicRoughness" : {
                "baseColorFactor" : [
                    0.0038369440007954836,
                    0.4976588189601898,
                    0.8000000715255737,
                    1
                ],
                "metallicFactor" : 0,
                "roughnessFactor" : 0.20000000298023224
            }
        },
        {
            "doubleSided" : true,
            "name" : "Earth",
            "pbrMetallicRoughness" : {
                "baseColorFactor" : [
                    0.16945913434028625,
                    0.9285440444946289,
                    0.05438399687409401,
                    1
                ],
                "metallicFactor" : 0,
                "roughnessFactor" : 0.07920792698860168
            }
        }
    ],
    "meshes" : [
        {
            "name" : "Sphere.004",
            "primitives" : [
                {
                    "attributes" : {
                        "POSITION" : 0,
                        "NORMAL" : 1
                    },
                    "indices" : 2,
                    "material" : 0
                },
                {
                    "attributes" : {
                        "POSITION" : 3,
                        "NORMAL" : 4
                    },
                    "indices" : 5,
                    "material" : 1
                }
            ]
        }
    ],
    "accessors" : [
        {
            "bufferView" : 0,
            "componentType" : 5126,
            "count" : 2276,
            "max" : [
                0.964901328086853,
                0.9753069281578064,
                0.9621639251708984
            ],
            "min" : [
                -0.9646192789077759,
                -0.9757384657859802,
                -0.9675606489181519
            ],
            "type" : "VEC3"
        },
        {
            "bufferView" : 1,
            "componentType" : 5126,
            "count" : 2276,
            "type" : "VEC3"
        },
        {
            "bufferView" : 2,
            "componentType" : 5123,
            "count" : 2292,
            "type" : "SCALAR"
        },
        {
            "bufferView" : 3,
            "componentType" : 5126,
            "count" : 11814,
            "max" : [
                0.9841111898422241,
                1.0133217573165894,
                0.9926793575286865
            ],
            "min" : [
                -0.9578160047531128,
                -0.9993601441383362,
                -1.001206398010254
            ],
            "type" : "VEC3"
        },
        {
            "bufferView" : 4,
            "componentType" : 5126,
            "count" : 11814,
            "type" : "VEC3"
        },
        {
            "bufferView" : 5,
            "componentType" : 5123,
            "count" : 13416,
            "type" : "SCALAR"
        }
    ],
    "bufferViews" : [
        {
            "buffer" : 0,
            "byteLength" : 27312,
            "byteOffset" : 0
        },
        {
            "buffer" : 0,
            "byteLength" : 27312,
            "byteOffset" : 27312
        },
        {
            "buffer" : 0,
            "byteLength" : 4584,
            "byteOffset" : 54624
        },
        {
            "buffer" : 0,
            "byteLength" : 141768,
            "byteOffset" : 59208
        },
        {
            "buffer" : 0,
            "byteLength" : 141768,
            "byteOffset" : 200976
        },
        {
            "buffer" : 0,
            "byteLength" : 26832,
            "byteOffset" : 342744
        }
    ],
    "buffers" : [
        {
            "byteLength" : 369576,
            "uri" : "data:application/octet-stream;base64,"
        }
    ]
}
