{
    "asset" : {
        "generator" : "Khronos glTF Blender I/O v1.0.5",
        "version" : "2.0"
    },
    "scene" : 0,
    "scenes" : [
        {
            "name" : "Scene",
            "nodes" : [
                0
            ]
        }
    ],
    "nodes" : [
        {
            "mesh" : 0,
            "name" : "Text2",
            "translation" : [
                0,
                0,
                0.9962207078933716
            ]
        }
    ],
    "materials" : [
        {
            "doubleSided" : true,
            "name" : "Material.002",
            "pbrMetallicRoughness" : {
                "baseColorFactor" : [
                    0,
                    1,
                    0.002717861207202077,
                    1
                ],
                "metallicFactor" : 0,
                "roughnessFactor" : 0.5
            }
        }
    ],
    "meshes" : [
        {
            "name" : "Text.001",
            "primitives" : [
                {
                    "attributes" : {
                        "POSITION" : 0,
                        "NORMAL" : 1,
                        "TEXCOORD_0" : 2
                    },
                    "indices" : 3,
                    "material" : 0
                }
            ]
        }
    ],
    "accessors" : [
        {
            "bufferView" : 0,
            "componentType" : 5126,
            "count" : 25077,
            "max" : [
                2.6743576526641846,
                0.09000000357627869,
                0.3214915692806244
            ],
            "min" : [
                -2.6429882049560547,
                -0.09000000357627869,
                -0.48326873779296875
            ],
            "type" : "VEC3"
        },
        {
            "bufferView" : 1,
            "componentType" : 5126,
            "count" : 25077,
            "type" : "VEC3"
        },
        {
            "bufferView" : 2,
            "componentType" : 5126,
            "count" : 25077,
            "type" : "VEC2"
        },
        {
            "bufferView" : 3,
            "componentType" : 5123,
            "count" : 107700,
            "type" : "SCALAR"
        }
    ],
    "bufferViews" : [
        {
            "buffer" : 0,
            "byteLength" : 300924,
            "byteOffset" : 0
        },
        {
            "buffer" : 0,
            "byteLength" : 300924,
            "byteOffset" : 300924
        },
        {
            "buffer" : 0,
            "byteLength" : 200616,
            "byteOffset" : 601848
        },
        {
            "buffer" : 0,
            "byteLength" : 215400,
            "byteOffset" : 802464
        }
    ],
    "buffers" : [
        {
            "byteLength" : 1017864,
            "uri" : "data:application/octet-stream;base64,"
        }
    ]
}
