{
    "asset" : {
        "generator" : "Khronos glTF Blender I/O v1.0.5",
        "version" : "2.0"
    },
    "scene" : 0,
    "scenes" : [
        {
            "name" : "Scene",
            "nodes" : [
                0
            ]
        }
    ],
    "nodes" : [
        {
            "mesh" : 0,
            "name" : "Text1"
        }
    ],
    "materials" : [
        {
            "doubleSided" : true,
            "name" : "Material.001",
            "pbrMetallicRoughness" : {
                "baseColorFactor" : [
                    0,
                    0.12697696685791016,
                    1,
                    1
                ],
                "metallicFactor" : 0,
                "roughnessFactor" : 0.5
            }
        }
    ],
    "meshes" : [
        {
            "name" : "Text",
            "primitives" : [
                {
                    "attributes" : {
                        "POSITION" : 0,
                        "NORMAL" : 1,
                        "TEXCOORD_0" : 2
                    },
                    "indices" : 3,
                    "material" : 0
                }
            ]
        }
    ],
    "accessors" : [
        {
            "bufferView" : 0,
            "componentType" : 5126,
            "count" : 21399,
            "max" : [
                2.834073543548584,
                0.09000000357627869,
                0.32148852944374084
            ],
            "min" : [
                -2.834073543548584,
                -0.09000000357627869,
                -0.31694847345352173
            ],
            "type" : "VEC3"
        },
        {
            "bufferView" : 1,
            "componentType" : 5126,
            "count" : 21399,
            "type" : "VEC3"
        },
        {
            "bufferView" : 2,
            "componentType" : 5126,
            "count" : 21399,
            "type" : "VEC2"
        },
        {
            "bufferView" : 3,
            "componentType" : 5123,
            "count" : 91572,
            "type" : "SCALAR"
        }
    ],
    "bufferViews" : [
        {
            "buffer" : 0,
            "byteLength" : 256788,
            "byteOffset" : 0
        },
        {
            "buffer" : 0,
            "byteLength" : 256788,
            "byteOffset" : 256788
        },
        {
            "buffer" : 0,
            "byteLength" : 171192,
            "byteOffset" : 513576
        },
        {
            "buffer" : 0,
            "byteLength" : 183144,
            "byteOffset" : 684768
        }
    ],
    "buffers" : [
        {
            "byteLength" : 867912,
            "uri" : "data:application/octet-stream;base64,"
        }
    ]
}
