<?xml version="1.0" encoding="utf-8"?>
<!-- Generator: Adobe Illustrator 24.0.2, SVG Export Plug-In . SVG Version: 6.00 Build 0)  -->
<svg version="1.1" id="Layer_1" xmlns="http://www.w3.org/2000/svg" xmlns:xlink="http://www.w3.org/1999/xlink" x="0px" y="0px"
	 viewBox="0 0 800 800" style="enable-background:new 0 0 800 800;" xml:space="preserve">
<g>
	<path d="M88.1,332.88H47.88v-32.55H88.1v-41.47h32.65v41.47h40.74v32.55h-40.74v41.47H88.1V332.88z"/>
	<path d="M201.48,383.33c-8.33-4.58-15.15-12.09-20.47-22.52l29.71-16.59c3.36,4.9,6.6,8.31,9.71,10.24
		c3.11,1.93,6.53,2.89,10.24,2.89c6.86,0,12.13-2.83,15.8-8.5c3.67-5.67,5.51-14,5.51-24.99c-2.87,3.22-7.05,5.77-12.55,7.66
		c-5.5,1.89-11.36,2.83-17.58,2.83c-8.89,0-16.75-1.87-23.57-5.62c-6.82-3.74-12.13-9.05-15.91-15.91
		c-3.78-6.86-5.67-14.8-5.67-23.83c0-10.71,2.4-19.9,7.19-27.56c4.79-7.66,11.39-13.49,19.79-17.48c8.4-3.99,17.92-5.98,28.56-5.98
		c12.25,0,22.83,2.73,31.76,8.19c8.92,5.46,15.82,13.72,20.68,24.78c4.86,11.06,7.3,24.74,7.3,41.05c0,16.66-2.4,30.83-7.19,42.52
		c-4.79,11.69-11.79,20.56-21,26.61c-9.2,6.06-20.39,9.08-33.54,9.08C219.4,390.2,209.81,387.91,201.48,383.33z M244.27,299.91
		c2.97-2.87,4.46-7,4.46-12.39c0-5.46-1.49-9.59-4.46-12.39c-2.98-2.8-6.84-4.2-11.6-4.2c-4.83,0-8.66,1.49-11.5,4.46
		c-2.83,2.98-4.25,7.02-4.25,12.13c0,5.11,1.33,9.17,3.99,12.18c2.66,3.01,6.58,4.51,11.76,4.51
		C237.42,304.22,241.29,302.78,244.27,299.91z"/>
	<path d="M329.25,383.33c-8.33-4.58-15.15-12.09-20.47-22.52l29.71-16.59c3.36,4.9,6.6,8.31,9.71,10.24
		c3.11,1.93,6.53,2.89,10.24,2.89c6.86,0,12.13-2.83,15.8-8.5c3.67-5.67,5.51-14,5.51-24.99c-2.87,3.22-7.05,5.77-12.55,7.66
		c-5.5,1.89-11.36,2.83-17.58,2.83c-8.89,0-16.75-1.87-23.57-5.62c-6.82-3.74-12.13-9.05-15.91-15.91
		c-3.78-6.86-5.67-14.8-5.67-23.83c0-10.71,2.4-19.9,7.19-27.56c4.79-7.66,11.39-13.49,19.79-17.48c8.4-3.99,17.92-5.98,28.56-5.98
		c12.25,0,22.83,2.73,31.76,8.19c8.92,5.46,15.82,13.72,20.68,24.78c4.86,11.06,7.3,24.74,7.3,41.05c0,16.66-2.4,30.83-7.19,42.52
		c-4.79,11.69-11.79,20.56-21,26.61c-9.2,6.06-20.39,9.08-33.54,9.08C347.17,390.2,337.58,387.91,329.25,383.33z M372.04,299.91
		c2.97-2.87,4.46-7,4.46-12.39c0-5.46-1.49-9.59-4.46-12.39c-2.98-2.8-6.84-4.2-11.6-4.2c-4.83,0-8.66,1.49-11.5,4.46
		c-2.83,2.98-4.25,7.02-4.25,12.13c0,5.11,1.33,9.17,3.99,12.18c2.66,3.01,6.58,4.51,11.76,4.51
		C365.2,304.22,369.06,302.78,372.04,299.91z"/>
	<path d="M444.43,383.22c-4.06-4.09-6.09-9.64-6.09-16.64c0-7,2.03-12.55,6.09-16.64c4.06-4.09,9.62-6.14,16.69-6.14
		c6.79,0,12.21,2.07,16.27,6.19c4.06,4.13,6.09,9.66,6.09,16.59c0,4.48-0.93,8.44-2.78,11.86c-1.86,3.43-4.46,6.11-7.82,8.03
		c-3.36,1.92-7.28,2.89-11.76,2.89C454.05,389.36,448.49,387.32,444.43,383.22z"/>
	<path d="M599.07,240.17v30.97L547,388.1h-41.47l53.33-115.49h-65.09v-32.44H599.07z"/>
	<path d="M623.01,230.52h40.84v82.73l30.97-42.31h47.35l-39.79,46.83l42.31,70.34h-47.56l-23.83-44.73l-9.45,9.03v35.7h-40.84
		V230.52z"/>
</g>
<g>
	<path d="M56.49,452.15h-7.47v-15.16h7.47v-3.66c0-5.59,1.74-9.98,5.21-13.17c3.48-3.19,8.98-4.78,16.51-4.78
		c4.23,0,8.44,0.41,12.63,1.24l-1.5,14.09c-1.86-0.65-3.78-0.97-5.75-0.97c-2.22,0-3.81,0.45-4.76,1.34
		c-0.95,0.9-1.42,2.38-1.42,4.46v1.45h12.15v15.16H77.4v44.84H56.49V452.15z"/>
	<path d="M100.57,492.23c-3.15-4.07-4.73-9.6-4.73-16.59v-38.66h20.91v32.69c0,3.51,0.61,6.19,1.83,8.04
		c1.22,1.85,3.24,2.77,6.08,2.77c3.19,0,5.6-1.06,7.23-3.17c1.63-2.11,2.45-5.14,2.45-9.09v-31.24h20.97v46.56
		c0,2.47,0.06,4.95,0.19,7.42c0.13,2.47,0.28,4.48,0.46,6.02h-20.16c-0.21-1.15-0.43-2.8-0.64-4.97c-0.21-2.17-0.32-3.77-0.32-4.81
		h-0.21c-2.08,3.84-4.68,6.65-7.8,8.44c-3.12,1.79-6.92,2.69-11.4,2.69C108.67,498.33,103.73,496.3,100.57,492.23z"/>
	<path d="M169.39,450.43c0-2.51-0.06-4.98-0.19-7.42s-0.28-4.44-0.46-6.02h20.16c0.21,1.15,0.43,2.81,0.64,4.97
		c0.22,2.17,0.32,3.77,0.32,4.81h0.21c2.08-3.76,4.69-6.52,7.82-8.28c3.14-1.76,6.91-2.63,11.32-2.63c6.81,0,11.78,2,14.92,6
		c3.14,4,4.7,9.49,4.7,16.48v38.66h-20.91V464.3c0-3.51-0.61-6.19-1.83-8.04c-1.22-1.85-3.26-2.77-6.13-2.77
		c-3.15,0-5.56,1.06-7.2,3.17c-1.65,2.12-2.47,5.13-2.47,9.03v31.29h-20.91V450.43z"/>
	<path d="M252.4,494.22c-4.66-2.56-8.19-6.17-10.59-10.81c-2.4-4.64-3.6-10.03-3.6-16.16c0-6.67,1.3-12.36,3.9-17.07
		c2.6-4.71,6.24-8.28,10.91-10.7c4.68-2.42,10.1-3.63,16.26-3.63c6.24,0,11.59,1.24,16.08,3.71c4.48,2.47,7.71,5.75,9.68,9.84
		l-14.62,9.35c-1.22-2.04-2.56-3.63-4.03-4.76c-1.47-1.13-3.35-1.69-5.65-1.69c-3.26,0-5.83,1.2-7.69,3.6s-2.79,5.9-2.79,10.48
		c0,4.84,0.94,8.5,2.82,11s4.4,3.74,7.55,3.74c1.94,0,3.63-0.28,5.08-0.83c1.45-0.56,2.68-1.25,3.68-2.1c1-0.84,2.11-1.93,3.33-3.25
		l12.31,11.13c-2.69,3.58-6.23,6.48-10.62,8.68s-9.47,3.31-15.24,3.31C262.65,498.06,257.06,496.78,252.4,494.22z"/>
	<path d="M306.57,431.58c-1.7-0.88-3.04-2.12-4-3.74c-0.97-1.61-1.45-3.46-1.45-5.54s0.48-3.94,1.45-5.59c0.97-1.65,2.3-2.94,4-3.87
		c1.7-0.93,3.63-1.4,5.78-1.4c2.08,0,3.96,0.47,5.65,1.4c1.68,0.93,3.01,2.22,3.98,3.87c0.97,1.65,1.45,3.51,1.45,5.59
		c0,2.04-0.48,3.86-1.45,5.46s-2.29,2.85-3.98,3.76s-3.57,1.37-5.65,1.37C310.2,432.9,308.27,432.46,306.57,431.58z M301.97,436.99
		h20.91v60h-20.91V436.99z"/>
	<path d="M347.22,493.87c-4.75-2.8-8.33-6.56-10.73-11.29c-2.4-4.73-3.6-9.98-3.6-15.75c0-5.59,1.17-10.73,3.5-15.43
		c2.33-4.7,5.89-8.46,10.67-11.29s10.71-4.25,17.77-4.25c7.45,0,13.56,1.41,18.31,4.22c4.75,2.81,8.21,6.54,10.38,11.18
		c2.17,4.64,3.25,9.83,3.25,15.57c0,5.7-1.19,10.91-3.58,15.64c-2.38,4.73-6,8.51-10.83,11.34c-4.84,2.83-10.79,4.25-17.85,4.25
		C357.73,498.06,351.96,496.67,347.22,493.87z M372.22,477.77c1.7-2.6,2.55-6.25,2.55-10.94c0-4.59-0.8-8.15-2.39-10.7
		c-1.6-2.54-4.04-3.82-7.34-3.82c-3.44,0-5.99,1.27-7.63,3.82c-1.65,2.54-2.47,6.11-2.47,10.7s0.81,8.21,2.42,10.86
		s3.96,3.98,7.04,3.98C367.91,481.67,370.51,480.37,372.22,477.77z"/>
	<path d="M407.14,450.43c0-2.51-0.06-4.98-0.19-7.42s-0.28-4.44-0.46-6.02h20.16c0.21,1.15,0.43,2.81,0.64,4.97
		c0.22,2.17,0.32,3.77,0.32,4.81h0.21c2.08-3.76,4.69-6.52,7.82-8.28c3.14-1.76,6.91-2.63,11.32-2.63c6.81,0,11.78,2,14.92,6
		c3.14,4,4.7,9.49,4.7,16.48v38.66h-20.91V464.3c0-3.51-0.61-6.19-1.83-8.04c-1.22-1.85-3.26-2.77-6.13-2.77
		c-3.15,0-5.56,1.06-7.2,3.17c-1.65,2.12-2.47,5.13-2.47,9.03v31.29h-20.91V450.43z"/>
	<path d="M484.15,495.64c-2.78-1.61-4.91-3.83-6.4-6.67c-1.49-2.83-2.23-6.08-2.23-9.73c0-6.16,1.94-10.82,5.81-13.98
		c3.87-3.15,9.57-4.84,17.1-5.05l11.77-0.32v-1.45c0-4.34-2.74-6.5-8.23-6.5c-2.72,0-5.2,0.59-7.42,1.77
		c-2.22,1.18-4.44,2.69-6.67,4.52l-8.82-12.74c3.3-2.69,7.09-4.93,11.37-6.72c4.28-1.79,9.33-2.69,15.13-2.69
		c8.53,0,15.04,1.91,19.52,5.73c4.48,3.82,6.72,10.03,6.72,18.63v13.44c0,9.28,0.18,16.99,0.54,23.12h-20.27
		c-0.29-2.94-0.43-5.57-0.43-7.9h-0.32c-1.76,2.76-4.01,4.95-6.75,6.56c-2.74,1.61-6.3,2.42-10.67,2.42
		C490.18,498.06,486.93,497.26,484.15,495.64z M506.2,481.67c1.27-1.04,2.26-2.45,2.96-4.22c0.7-1.77,1.05-3.7,1.05-5.78v-0.21
		h-6.34c-2.65,0-4.64,0.52-5.97,1.56c-1.33,1.04-1.99,2.49-1.99,4.35c0,1.86,0.52,3.31,1.56,4.33c1.04,1.02,2.51,1.53,4.41,1.53
		C503.48,483.22,504.92,482.71,506.2,481.67z M495.95,429.94l13.44-15.86h18.06v3.06l-18.17,15h-13.33V429.94z"/>
	<path d="M543.8,450.75c0-2.4-0.06-4.92-0.19-7.55c-0.13-2.63-0.28-4.7-0.46-6.21h19.68c0.22,1.08,0.42,2.56,0.62,4.46
		c0.2,1.9,0.29,3.39,0.29,4.46h0.22c1.58-3.23,3.52-5.71,5.83-7.45c2.31-1.74,5.31-2.61,9.01-2.61c1.97,0,3.82,0.34,5.54,1.02
		l-0.91,19.03c-1.11-0.29-2.17-0.52-3.17-0.7c-1-0.18-2.13-0.27-3.39-0.27c-3.76,0-6.75,1.1-8.95,3.31
		c-2.2,2.21-3.31,5.83-3.31,10.89v27.85H543.8V450.75z"/>
	<path d="M596.41,431.58c-1.7-0.88-3.04-2.12-4-3.74c-0.97-1.61-1.45-3.46-1.45-5.54s0.48-3.94,1.45-5.59c0.97-1.65,2.3-2.94,4-3.87
		c1.7-0.93,3.63-1.4,5.78-1.4c2.08,0,3.96,0.47,5.65,1.4c1.68,0.93,3.01,2.22,3.98,3.87c0.97,1.65,1.45,3.51,1.45,5.59
		c0,2.04-0.48,3.86-1.45,5.46s-2.29,2.85-3.98,3.76s-3.57,1.37-5.65,1.37C600.04,432.9,598.11,432.46,596.41,431.58z M591.81,436.99
		h20.91v60h-20.91V436.99z"/>
	<path d="M637.06,493.87c-4.75-2.8-8.33-6.56-10.73-11.29c-2.4-4.73-3.6-9.98-3.6-15.75c0-5.59,1.17-10.73,3.5-15.43
		c2.33-4.7,5.89-8.46,10.67-11.29s10.71-4.25,17.77-4.25c7.45,0,13.56,1.41,18.31,4.22c4.75,2.81,8.21,6.54,10.38,11.18
		c2.17,4.64,3.25,9.83,3.25,15.57c0,5.7-1.19,10.91-3.58,15.64c-2.38,4.73-6,8.51-10.83,11.34c-4.84,2.83-10.79,4.25-17.85,4.25
		C647.57,498.06,641.81,496.67,637.06,493.87z M662.06,477.77c1.7-2.6,2.55-6.25,2.55-10.94c0-4.59-0.8-8.15-2.39-10.7
		c-1.6-2.54-4.04-3.82-7.34-3.82c-3.44,0-5.99,1.27-7.63,3.82c-1.65,2.54-2.47,6.11-2.47,10.7s0.81,8.21,2.42,10.86
		s3.96,3.98,7.04,3.98C657.75,481.67,660.35,480.37,662.06,477.77z"/>
	<path d="M703.13,495.83c-4.46-1.49-8.31-3.56-11.53-6.21l8.33-13.66c2.97,2.19,5.81,3.89,8.5,5.11c2.69,1.22,5.77,1.83,9.25,1.83
		c4.26,0,6.4-1.02,6.4-3.06c0-0.93-0.4-1.69-1.21-2.29c-0.81-0.59-1.91-1.09-3.31-1.51c-1.4-0.41-3.6-0.96-6.61-1.64
		c-5.84-1.36-10.46-3.43-13.84-6.21c-3.39-2.78-5.08-6.91-5.08-12.39c0-3.98,0.97-7.47,2.9-10.48s4.79-5.34,8.58-6.99
		c3.78-1.65,8.36-2.47,13.74-2.47c9.71,0,17.85,2.8,24.41,8.39l-9.35,11.56c-4.66-3.51-9.28-5.27-13.87-5.27
		c-1.94,0-3.42,0.3-4.46,0.89c-1.04,0.59-1.56,1.42-1.56,2.5c0,0.82,0.3,1.49,0.91,1.99c0.61,0.5,1.5,0.92,2.69,1.26
		c1.18,0.34,2.96,0.76,5.32,1.26c4.48,1,8.21,2.16,11.18,3.47c2.97,1.31,5.38,3.2,7.2,5.67c1.83,2.47,2.74,5.74,2.74,9.79
		c0,4.34-1.04,8.06-3.12,11.16c-2.08,3.1-5.11,5.47-9.09,7.1s-8.76,2.45-14.36,2.45C712.51,498.06,707.59,497.32,703.13,495.83z"/>
</g>
<g>
	<path d="M56.96,552.42c0-3.09-0.08-6.13-0.23-9.13c-0.16-3-0.34-5.47-0.56-7.41h24.82c0.26,1.41,0.53,3.45,0.79,6.12
		c0.26,2.67,0.4,4.64,0.4,5.92h0.26c2.56-4.63,5.77-8.03,9.63-10.19c3.86-2.16,8.5-3.24,13.93-3.24c8.38,0,14.5,2.46,18.37,7.38
		c3.86,4.92,5.79,11.68,5.79,20.29v47.58h-25.74V569.5c0-4.32-0.75-7.62-2.25-9.89s-4.01-3.41-7.54-3.41c-3.88,0-6.84,1.3-8.87,3.91
		c-2.03,2.6-3.04,6.31-3.04,11.12v38.52H56.96V552.42z"/>
	<path d="M159.31,605.9c-5.85-3.44-10.25-8.07-13.2-13.9c-2.96-5.82-4.43-12.29-4.43-19.39c0-6.88,1.43-13.21,4.3-19
		c2.87-5.78,7.25-10.41,13.14-13.9c5.89-3.49,13.18-5.23,21.87-5.23c9.18,0,16.69,1.73,22.54,5.2c5.85,3.46,10.1,8.05,12.77,13.77
		c2.67,5.71,4,12.1,4,19.16c0,7.01-1.47,13.43-4.4,19.26c-2.93,5.82-7.38,10.48-13.34,13.96s-13.28,5.23-21.97,5.23
		C172.24,611.06,165.15,609.34,159.31,605.9z M190.08,586.08c2.1-3.2,3.14-7.69,3.14-13.47c0-5.65-0.98-10.04-2.94-13.17
		c-1.96-3.13-4.98-4.7-9.03-4.7c-4.24,0-7.37,1.57-9.4,4.7c-2.03,3.13-3.04,7.52-3.04,13.17s0.99,10.1,2.98,13.37
		c1.99,3.27,4.87,4.9,8.67,4.9C184.78,590.87,187.99,589.27,190.08,586.08z"/>
	<path d="M266.95,552.42c0-3.04-0.08-6.09-0.23-9.13c-0.16-3.04-0.34-5.51-0.56-7.41h24.95c0.26,1.5,0.49,3.42,0.66,5.76
		c0.18,2.34,0.31,4.43,0.4,6.29h0.26c2.25-4.37,5.12-7.7,8.6-9.99c3.48-2.29,8.12-3.44,13.9-3.44c5.38,0,9.68,1.11,12.91,3.34
		c3.22,2.23,5.56,5.55,7.02,9.96h0.4c2.12-4.32,5-7.62,8.64-9.89c3.64-2.27,8.17-3.41,13.6-3.41c7.5,0,13.13,2.37,16.88,7.11
		c3.75,4.74,5.63,11.28,5.63,19.62v48.51h-25.74V568.5c0-4.1-0.68-7.18-2.05-9.23c-1.37-2.05-3.49-3.08-6.35-3.08
		c-3,0-5.33,1.06-6.98,3.18c-1.65,2.12-2.48,5.27-2.48,9.46v40.9h-25.74V568.5c0-4.24-0.59-7.35-1.75-9.33
		c-1.17-1.99-3.25-2.98-6.25-2.98c-6.62,0-9.93,4.7-9.93,14.1v39.44h-25.75V552.42z"/>
	<path d="M400.77,603.88c-3.88-5.01-5.82-11.81-5.82-20.42v-47.58h25.75v40.24c0,4.33,0.75,7.62,2.25,9.89
		c1.5,2.27,3.99,3.41,7.48,3.41c3.93,0,6.89-1.3,8.9-3.9c2.01-2.6,3.01-6.33,3.01-11.18v-38.45h25.81v57.31
		c0,3.04,0.08,6.09,0.23,9.13c0.15,3.04,0.34,5.52,0.56,7.41h-24.82c-0.26-1.41-0.53-3.45-0.79-6.12c-0.26-2.67-0.4-4.64-0.4-5.92
		h-0.26c-2.56,4.72-5.76,8.18-9.6,10.39c-3.84,2.21-8.52,3.31-14.03,3.31C410.74,611.39,404.65,608.89,400.77,603.88z"/>
	<path d="M485.49,552.42c0-3.09-0.08-6.13-0.23-9.13c-0.16-3-0.34-5.47-0.56-7.41h24.82c0.26,1.41,0.53,3.45,0.79,6.12
		c0.26,2.67,0.4,4.64,0.4,5.92h0.26c2.56-4.63,5.77-8.03,9.63-10.19c3.86-2.16,8.5-3.24,13.93-3.24c8.38,0,14.5,2.46,18.37,7.38
		c3.86,4.92,5.79,11.68,5.79,20.29v47.58h-25.74V569.5c0-4.32-0.75-7.62-2.25-9.89s-4.01-3.41-7.54-3.41c-3.88,0-6.84,1.3-8.87,3.91
		c-2.03,2.6-3.04,6.31-3.04,11.12v38.52h-25.75V552.42z"/>
	<path d="M583.24,606.63c-4.19-2.96-7.41-7.2-9.66-12.74c-2.25-5.54-3.38-12.1-3.38-19.69c0-8.65,1.25-15.95,3.74-21.91
		c2.49-5.96,5.92-10.41,10.29-13.37c4.37-2.96,9.38-4.43,15.02-4.43c5.07,0,9.18,0.87,12.31,2.61c3.13,1.74,5.8,4.14,8.01,7.18h0.26
		c-0.09-1.81-0.13-4.61-0.13-8.41V510.4h25.74V592c0,5.47,0.18,11.38,0.53,17.74h-25.35c-0.44-3.31-0.66-6.55-0.66-9.73h-0.26
		c-1.99,3.31-4.78,5.98-8.37,8.01c-3.6,2.03-8.04,3.04-13.34,3.04C592.35,611.06,587.43,609.58,583.24,606.63z M616.79,586.37
		c2.12-2.91,3.18-7.54,3.18-13.9c0-5.78-0.99-10.18-2.98-13.2c-1.99-3.02-4.79-4.53-8.41-4.53c-3.22,0-5.9,1.45-8.04,4.33
		c-2.14,2.89-3.21,7.67-3.21,14.33c0,5.96,1.03,10.34,3.08,13.14c2.05,2.8,4.64,4.2,7.78,4.2
		C611.81,590.74,614.67,589.29,616.79,586.37z"/>
	<path d="M675.93,605.9c-5.85-3.44-10.25-8.07-13.2-13.9c-2.96-5.82-4.43-12.29-4.43-19.39c0-6.88,1.43-13.21,4.3-19
		c2.87-5.78,7.25-10.41,13.14-13.9c5.89-3.49,13.18-5.23,21.87-5.23c9.18,0,16.69,1.73,22.54,5.2c5.85,3.46,10.1,8.05,12.77,13.77
		c2.67,5.71,4,12.1,4,19.16c0,7.01-1.47,13.43-4.4,19.26c-2.93,5.82-7.38,10.48-13.34,13.96s-13.28,5.23-21.97,5.23
		C688.86,611.06,681.77,609.34,675.93,605.9z M706.7,586.08c2.1-3.2,3.14-7.69,3.14-13.47c0-5.65-0.98-10.04-2.94-13.17
		c-1.96-3.13-4.98-4.7-9.03-4.7c-4.24,0-7.37,1.57-9.4,4.7c-2.03,3.13-3.04,7.52-3.04,13.17s0.99,10.1,2.98,13.37
		c1.99,3.27,4.87,4.9,8.67,4.9C701.4,590.87,704.61,589.27,706.7,586.08z"/>
</g>
</svg>
