<?xml version="1.0" encoding="utf-8"?>
<!-- Generator: Adobe Illustrator 24.0.2, SVG Export Plug-In . SVG Version: 6.00 Build 0)  -->
<svg version="1.1" id="Layer_1" xmlns="http://www.w3.org/2000/svg" xmlns:xlink="http://www.w3.org/1999/xlink" x="0px" y="0px"
	 viewBox="0 0 800 800" style="enable-background:new 0 0 800 800;" xml:space="preserve">
<g>
	<path d="M48.49,619.57c0-3.73-0.09-7.42-0.28-11.04c-0.19-3.63-0.41-6.62-0.68-8.96h30.02c0.32,1.71,0.64,4.18,0.96,7.4
		s0.48,5.62,0.48,7.16h0.32c3.09-5.6,6.98-9.71,11.65-12.33c4.67-2.61,10.29-3.92,16.85-3.92c10.14,0,17.54,2.98,22.21,8.93
		c4.67,5.95,7,14.13,7,24.53v57.55h-31.14v-48.67c0-5.23-0.91-9.22-2.72-11.96c-1.81-2.75-4.86-4.12-9.12-4.12
		c-4.7,0-8.27,1.57-10.73,4.72c-2.46,3.15-3.68,7.63-3.68,13.45v46.58H48.49V619.57z"/>
	<path d="M172.27,684.25c-7.07-4.16-12.39-9.77-15.97-16.81c-3.58-7.04-5.36-14.86-5.36-23.45c0-8.32,1.73-15.98,5.2-22.97
		c3.47-6.99,8.76-12.59,15.89-16.81c7.12-4.21,15.94-6.32,26.45-6.32c11.1,0,20.18,2.1,27.25,6.28c7.07,4.19,12.22,9.74,15.45,16.65
		c3.23,6.91,4.84,14.63,4.84,23.17c0,8.48-1.78,16.25-5.32,23.29c-3.55,7.04-8.92,12.67-16.13,16.89
		c-7.2,4.21-16.06,6.32-26.57,6.32C187.92,690.49,179.34,688.41,172.27,684.25z M209.49,660.27c2.53-3.87,3.8-9.3,3.8-16.29
		c0-6.83-1.19-12.14-3.56-15.93c-2.38-3.79-6.02-5.68-10.93-5.68c-5.12,0-8.91,1.9-11.37,5.68c-2.45,3.79-3.68,9.1-3.68,15.93
		c0,6.83,1.2,12.22,3.6,16.17c2.4,3.95,5.9,5.92,10.49,5.92C203.07,666.08,206.95,664.14,209.49,660.27z"/>
	<path d="M301.02,576.11h53.87c14.25,0,24.87,2.36,31.86,7.08c6.99,4.72,10.49,11.86,10.49,21.41c0,7.04-1.67,12.58-5,16.61
		c-3.34,4.03-8.13,6.87-14.37,8.53c7.31,1.12,13.1,3.87,17.37,8.24c4.27,4.38,6.4,10.51,6.4,18.41c0,10.89-4.1,19.02-12.29,24.41
		c-8.19,5.39-19.33,8.08-33.42,8.08h-54.91V576.11z M349.36,619.09c5.01,0,8.59-0.72,10.73-2.16c2.13-1.44,3.2-3.95,3.2-7.52
		c0-3.47-1.03-5.87-3.08-7.21c-2.05-1.33-5.3-2-9.73-2h-16.73v18.89H349.36z M353.12,664.63c4.91,0,8.67-0.81,11.29-2.44
		c2.61-1.63,3.92-4.58,3.92-8.85c0-3.41-1.08-6.11-3.24-8.08c-2.16-1.97-5.51-2.96-10.04-2.96h-21.29v22.33H353.12z"/>
	<path d="M417.24,620.05c0-3.57-0.09-7.32-0.28-11.25c-0.19-3.92-0.41-7-0.68-9.24h29.3c0.32,1.6,0.63,3.82,0.92,6.64
		c0.29,2.83,0.44,5.04,0.44,6.64h0.32c2.35-4.8,5.24-8.5,8.68-11.09c3.44-2.59,7.91-3.88,13.41-3.88c2.93,0,5.68,0.51,8.24,1.52
		l-1.36,28.33c-1.65-0.43-3.23-0.77-4.72-1.04c-1.49-0.27-3.17-0.4-5.04-0.4c-5.6,0-10.05,1.64-13.33,4.92s-4.92,8.68-4.92,16.21
		v41.46h-30.98V620.05z"/>
	<path d="M493.88,686.89c-4.14-2.4-7.31-5.71-9.53-9.92c-2.21-4.21-3.32-9.04-3.32-14.49c0-9.18,2.88-16.12,8.64-20.81
		s14.25-7.2,25.45-7.52l17.53-0.48v-2.16c0-6.46-4.08-9.68-12.25-9.68c-4.06,0-7.74,0.88-11.04,2.64c-3.31,1.76-6.62,4-9.93,6.72
		l-13.13-18.97c4.91-4,10.55-7.34,16.93-10.01c6.38-2.67,13.89-4,22.53-4c12.7,0,22.38,2.84,29.05,8.53c6.67,5.68,10,14.93,10,27.73
		v20.01c0,13.82,0.27,25.29,0.8,34.42h-30.18c-0.43-4.38-0.64-8.3-0.64-11.77h-0.48c-2.62,4.11-5.96,7.36-10.04,9.76
		c-4.08,2.4-9.38,3.6-15.89,3.6C502.85,690.49,498.01,689.29,493.88,686.89z M526.69,666.08c1.89-1.55,3.36-3.64,4.4-6.28
		c1.04-2.64,1.56-5.51,1.56-8.6v-0.32h-9.45c-3.95,0-6.91,0.77-8.88,2.32c-1.97,1.55-2.96,3.71-2.96,6.48s0.77,4.92,2.32,6.44
		c1.55,1.52,3.73,2.28,6.56,2.28C522.65,668.4,524.8,667.62,526.69,666.08z"/>
	<path d="M591.69,687.17c-6.64-2.21-12.37-5.29-17.17-9.25l12.41-20.33c4.43,3.26,8.64,5.79,12.65,7.6c4,1.81,8.59,2.72,13.77,2.72
		c6.35,0,9.53-1.52,9.53-4.56c0-1.39-0.6-2.52-1.8-3.4c-1.2-0.88-2.84-1.63-4.92-2.24s-5.36-1.43-9.84-2.44
		c-8.7-2.03-15.57-5.11-20.61-9.25c-5.04-4.13-7.56-10.29-7.56-18.45c0-5.92,1.44-11.13,4.32-15.61s7.14-7.95,12.77-10.41
		c5.63-2.45,12.45-3.68,20.45-3.68c14.46,0,26.57,4.16,36.34,12.49l-13.93,17.21c-6.94-5.23-13.82-7.84-20.65-7.84
		c-2.88,0-5.1,0.44-6.64,1.32c-1.55,0.88-2.32,2.12-2.32,3.72c0,1.23,0.45,2.21,1.36,2.96c0.91,0.75,2.24,1.38,4,1.88
		c1.76,0.51,4.4,1.13,7.92,1.88c6.67,1.5,12.22,3.22,16.65,5.16c4.43,1.95,8,4.76,10.73,8.44c2.72,3.68,4.08,8.54,4.08,14.57
		c0,6.46-1.55,11.99-4.64,16.61c-3.1,4.62-7.6,8.14-13.53,10.57s-13.05,3.64-21.37,3.64C605.65,690.49,598.33,689.38,591.69,687.17z
		"/>
	<path d="M672.77,591.52c-2.54-1.31-4.52-3.16-5.96-5.56c-1.44-2.4-2.16-5.15-2.16-8.24c0-3.09,0.72-5.87,2.16-8.32
		c1.44-2.45,3.43-4.38,5.96-5.76c2.53-1.39,5.4-2.08,8.6-2.08c3.09,0,5.9,0.69,8.4,2.08c2.51,1.39,4.48,3.31,5.92,5.76
		c1.44,2.46,2.16,5.23,2.16,8.32c0,3.04-0.72,5.75-2.16,8.13s-3.42,4.24-5.92,5.6c-2.51,1.36-5.31,2.04-8.4,2.04
		C678.17,593.48,675.3,592.83,672.77,591.52z M665.92,599.56h31.14v89.33h-31.14V599.56z"/>
	<path d="M722.83,683.33c-4.38-4.46-6.56-11.01-6.56-19.65v-94.93h31.14v89.33c0,2.4,0.44,4.2,1.32,5.4c0.88,1.2,2.52,1.8,4.92,1.8
		c1.01,0,2.43-0.16,4.24-0.48l0.96,23.77c-4.91,0.96-10.03,1.44-15.37,1.44C734.09,690.01,727.21,687.78,722.83,683.33z"/>
</g>
<g>
	<path d="M110.26,287.97H55.21v-44.55h55.04v-56.77h44.7v56.77h55.76v44.55h-55.76v56.77h-44.7V287.97z"/>
	<path d="M242.19,320.89h48V212.52l-48.58,31.91v-50.45l51.16-32.91h54.76v159.82h44.12v42.68H242.19V320.89z"/>
	<path d="M431.9,352.22c-12.46-9.48-20.94-21.51-25.44-36.07l42.68-19.4c4.02,8.62,8.65,15.04,13.87,19.26
		c5.22,4.22,11.9,6.32,20.05,6.32c7.57,0,13.44-1.82,17.61-5.46c4.17-3.64,6.25-8.96,6.25-15.95c0-7.38-2.76-12.62-8.26-15.74
		c-5.51-3.11-12.19-4.67-20.05-4.67H461.8v-38.8h14.52c8.43,0,14.95-1.56,19.55-4.67c4.6-3.11,6.9-8.41,6.9-15.88
		c0-6.51-1.89-11.43-5.68-14.73c-3.79-3.31-9.08-4.96-15.88-4.96c-7.19,0-12.96,1.87-17.32,5.61c-4.36,3.74-8.55,9.39-12.58,16.96
		l-41.25-20.55c5.46-15.33,14.8-26.73,28.03-34.21c13.22-7.47,29.46-11.21,48.72-11.21c16,0,29.34,2.32,40.03,6.97
		c10.68,4.65,18.61,11.07,23.79,19.26c5.17,8.19,7.76,17.7,7.76,28.53c0,24.53-13.56,39.96-40.67,46.28v0.58
		c15.9,2.3,27.54,7.57,34.92,15.81c7.38,8.24,11.07,18.78,11.07,31.62c0,11.69-2.88,21.99-8.62,30.9
		c-5.75,8.91-14.42,15.88-26.01,20.91c-11.59,5.03-25.87,7.54-42.83,7.54C462.47,366.45,444.36,361.7,431.9,352.22z"/>
	<path d="M591.72,147.85h55.91V261.1l42.4-57.92h64.82l-54.47,64.1l57.92,96.29h-65.11l-32.62-61.22l-12.93,12.36v48.86h-55.91
		V147.85z"/>
</g>
<g>
	<path d="M67.57,527.87c-7.83-4.3-13.76-10.36-17.79-18.16c-4.04-7.8-6.05-16.85-6.05-27.14c0-11.2,2.18-20.76,6.55-28.68
		c4.37-7.92,10.48-13.91,18.34-17.97s16.97-6.1,27.32-6.1c10.48,0,19.48,2.08,27.01,6.23c7.53,4.15,12.95,9.67,16.26,16.53
		l-24.57,15.72c-2.05-3.43-4.31-6.1-6.77-7.99c-2.47-1.9-5.63-2.84-9.48-2.84c-5.48,0-9.79,2.02-12.92,6.05
		c-3.13,4.04-4.7,9.91-4.7,17.61c0,8.13,1.58,14.29,4.74,18.47c3.16,4.19,7.39,6.28,12.69,6.28c3.25,0,6.1-0.47,8.54-1.4
		c2.44-0.93,4.5-2.11,6.19-3.52c1.69-1.41,3.55-3.23,5.6-5.46l20.68,18.7c-4.52,6.02-10.46,10.88-17.84,14.59
		c-7.38,3.7-15.91,5.55-25.61,5.55C84.79,534.33,75.39,532.18,67.57,527.87z"/>
	<path d="M156.99,526.25c-4.94-5.03-7.41-12.42-7.41-22.18V396.94h35.14v100.8c0,2.71,0.5,4.74,1.49,6.1
		c0.99,1.36,2.85,2.03,5.55,2.03c1.14,0,2.74-0.18,4.79-0.54l1.08,26.83c-5.54,1.08-11.32,1.63-17.34,1.63
		C169.69,533.79,161.93,531.27,156.99,526.25z"/>
	<path d="M220.9,422.64c-2.86-1.47-5.1-3.57-6.73-6.28c-1.63-2.71-2.44-5.81-2.44-9.3s0.81-6.62,2.44-9.39
		c1.63-2.77,3.87-4.94,6.73-6.5c2.86-1.56,6.1-2.35,9.71-2.35c3.49,0,6.65,0.78,9.48,2.35c2.83,1.57,5.06,3.73,6.68,6.5
		c1.63,2.77,2.44,5.9,2.44,9.39c0,3.43-0.81,6.49-2.44,9.17s-3.85,4.79-6.68,6.32c-2.83,1.54-5.99,2.3-9.48,2.3
		C226.99,424.85,223.76,424.12,220.9,422.64z M213.17,431.72h35.14v100.8h-35.14V431.72z"/>
	<path d="M279.25,521.64c-9.42-8.46-14.14-21.36-14.14-38.71c0-11.92,2.21-21.84,6.64-29.76c4.43-7.92,10.51-13.79,18.25-17.61
		c7.74-3.82,16.6-5.74,26.6-5.74c16.14,0,27.91,4.56,35.32,13.68c7.41,9.12,11.11,21.21,11.11,36.27c0,3.25-0.18,7.02-0.54,11.29
		h-60.16c0.3,5.9,2.02,10.34,5.15,13.32c3.13,2.98,8.01,4.47,14.63,4.47c4.03,0,7.77-0.66,11.2-1.99s7.92-3.76,13.46-7.32
		l13.28,22.58c-5.96,3.86-12.04,6.85-18.25,8.99s-13.88,3.21-23.03,3.21C301.84,534.33,288.67,530.1,279.25,521.64z M329.15,469.66
		c-0.36-10.24-4.67-15.36-12.92-15.36c-4.04,0-7.26,1.29-9.67,3.88c-2.41,2.59-3.83,6.41-4.25,11.47H329.15z"/>
	<path d="M378.92,454.3c0-4.21-0.11-8.37-0.32-12.46c-0.21-4.09-0.47-7.47-0.77-10.12h33.87c0.36,1.93,0.72,4.71,1.08,8.36
		c0.36,3.64,0.54,6.34,0.54,8.08h0.36c3.49-6.32,7.87-10.96,13.14-13.91c5.27-2.95,11.61-4.43,19.01-4.43
		c11.44,0,19.79,3.36,25.07,10.07c5.27,6.71,7.9,15.94,7.9,27.68v64.95h-35.14v-54.92c0-5.9-1.03-10.4-3.07-13.5
		c-2.05-3.1-5.48-4.65-10.3-4.65c-5.3,0-9.33,1.78-12.1,5.33c-2.77,3.55-4.15,8.61-4.15,15.17v52.57h-35.14V454.3z"/>
	<path d="M509.94,526.79c-5.09-5.03-7.63-12.48-7.63-22.36v-47.24h-12.19v-25.47h14.09l1.63-23.12l31.7-2.44v25.56h17.7v25.47h-17.7
		v36.67c0,3.97,0.6,6.88,1.81,8.72c1.2,1.84,3.19,2.75,5.96,2.75c3.07,0,5.96-0.3,8.67-0.9l2.35,26.29
		c-4.46,1.21-8.66,2.11-12.6,2.71c-3.94,0.6-8.05,0.9-12.33,0.9C522.18,534.33,515.03,531.82,509.94,526.79z"/>
	<path d="M579.94,521.64c-9.42-8.46-14.14-21.36-14.14-38.71c0-11.92,2.21-21.84,6.64-29.76c4.43-7.92,10.51-13.79,18.25-17.61
		c7.74-3.82,16.6-5.74,26.6-5.74c16.14,0,27.91,4.56,35.32,13.68c7.41,9.12,11.11,21.21,11.11,36.27c0,3.25-0.18,7.02-0.54,11.29
		h-60.16c0.3,5.9,2.02,10.34,5.15,13.32c3.13,2.98,8.01,4.47,14.63,4.47c4.03,0,7.77-0.66,11.2-1.99s7.92-3.76,13.46-7.32
		l13.28,22.58c-5.96,3.86-12.04,6.85-18.25,8.99s-13.88,3.21-23.03,3.21C602.54,534.33,589.36,530.1,579.94,521.64z M629.85,469.66
		c-0.36-10.24-4.67-15.36-12.92-15.36c-4.04,0-7.26,1.29-9.67,3.88c-2.41,2.59-3.83,6.41-4.25,11.47H629.85z"/>
	<path d="M689.96,530.58c-7.5-2.5-13.96-5.97-19.38-10.43l14-22.94c5,3.67,9.75,6.54,14.27,8.58s9.69,3.07,15.54,3.07
		c7.17,0,10.75-1.72,10.75-5.15c0-1.56-0.68-2.85-2.03-3.84c-1.35-0.99-3.21-1.84-5.55-2.53s-6.05-1.61-11.11-2.76
		c-9.82-2.29-17.57-5.77-23.26-10.43s-8.54-11.61-8.54-20.82c0-6.69,1.63-12.56,4.88-17.61c3.25-5.06,8.05-8.97,14.41-11.74
		c6.35-2.77,14.05-4.15,23.08-4.15c16.32,0,29.99,4.7,41.01,14.09l-15.72,19.42c-7.83-5.9-15.6-8.85-23.3-8.85
		c-3.25,0-5.75,0.5-7.5,1.49c-1.75,0.99-2.62,2.39-2.62,4.2c0,1.39,0.51,2.5,1.54,3.34c1.02,0.84,2.53,1.55,4.52,2.12
		s4.97,1.28,8.94,2.12c7.53,1.69,13.79,3.63,18.79,5.83c5,2.2,9.03,5.37,12.1,9.53c3.07,4.15,4.61,9.63,4.61,16.44
		c0,7.29-1.75,13.53-5.24,18.74c-3.49,5.21-8.58,9.18-15.26,11.92c-6.68,2.74-14.72,4.11-24.12,4.11
		C705.72,534.33,697.45,533.08,689.96,530.58z"/>
</g>
</svg>
