<?xml version="1.0" encoding="utf-8"?>
<!-- Generator: Adobe Illustrator 24.0.2, SVG Export Plug-In . SVG Version: 6.00 Build 0)  -->
<svg version="1.1" id="Layer_1" xmlns="http://www.w3.org/2000/svg" xmlns:xlink="http://www.w3.org/1999/xlink" x="0px" y="0px"
	 viewBox="0 0 800 800" style="enable-background:new 0 0 800 800;" xml:space="preserve">
<g>
	<path d="M227.69,186.6v49.16l-82.66,185.64H79.2l84.66-183.31H60.54V186.6H227.69z"/>
	<path d="M297.43,416.33c-13.72-5.61-24.22-13.58-31.5-23.91c-7.28-10.33-10.92-22.5-10.92-36.5c0-10.78,2.08-20.27,6.25-28.5
		c4.17-8.22,9.67-14.77,16.5-19.66c6.83-4.89,14.19-7.94,22.08-9.17v-0.67c-11.89-2.78-21.41-8.8-28.58-18.08
		c-7.17-9.28-10.75-20.47-10.75-33.58c0-13,3.61-24.25,10.83-33.75c7.22-9.5,17.36-16.77,30.41-21.83
		c13.05-5.05,28.19-7.58,45.41-7.58c17.89,0,33.22,2.64,46,7.92c12.77,5.28,22.47,12.69,29.08,22.25c6.61,9.56,9.92,20.55,9.92,33
		c0,8.89-1.67,16.94-5,24.16c-3.33,7.22-8,13.22-14,18c-6,4.78-12.83,7.94-20.5,9.5v0.67c9,1.33,16.91,4.47,23.75,9.42
		c6.83,4.94,12.14,11.42,15.91,19.41c3.78,8,5.67,17.17,5.67,27.5c0,14.33-3.61,26.72-10.83,37.16
		c-7.22,10.44-17.72,18.5-31.5,24.16c-13.78,5.67-30.16,8.5-49.16,8.5C327.51,424.74,311.15,421.93,297.43,416.33z M364.84,373
		c4.44-4.5,6.67-11.02,6.67-19.58c0-8-2.06-14.52-6.17-19.58c-4.11-5.05-10.5-7.58-19.17-7.58c-8.67,0-15.03,2.53-19.08,7.58
		c-4.06,5.06-6.08,11.58-6.08,19.58c0,8.67,2.19,15.22,6.58,19.66c4.39,4.45,10.58,6.67,18.58,6.67S360.39,377.5,364.84,373z
		 M362.67,267.68c3.78-4.17,5.67-9.8,5.67-16.91c0-7.33-1.92-12.97-5.75-16.92c-3.83-3.94-9.31-5.92-16.42-5.92
		c-7.11,0-12.58,1.97-16.42,5.92c-3.83,3.95-5.75,9.58-5.75,16.92c0,7.11,1.89,12.75,5.67,16.91c3.78,4.17,9.28,6.25,16.5,6.25
		C353.39,273.93,358.89,271.84,362.67,267.68z"/>
	<path d="M468.16,310.84c-11.45-11.39-17.17-29.8-17.17-55.24c0-26.55,5.64-45.27,16.92-56.16c11.27-10.89,26.91-16.33,46.91-16.33
		c42.33,0,63.49,24.16,63.49,72.49c0,25.22-5.86,43.58-17.58,55.08c-11.72,11.5-27.25,17.25-46.58,17.25
		C494.93,327.92,479.6,322.23,468.16,310.84z M524.65,288.09c2.44-2,4.22-5.55,5.33-10.67c1.11-5.11,1.67-12.39,1.67-21.83
		c0-9.33-0.56-16.5-1.67-21.5c-1.11-5-2.86-8.47-5.25-10.42c-2.39-1.94-5.7-2.92-9.92-2.92c-4.67,0-8.25,1-10.75,3
		s-4.28,5.47-5.33,10.42c-1.06,4.95-1.58,12.08-1.58,21.42c0,9.33,0.55,16.53,1.67,21.58c1.11,5.06,2.89,8.64,5.33,10.75
		c2.44,2.11,5.89,3.17,10.33,3.17C518.82,291.09,522.21,290.09,524.65,288.09z M657.14,186.6h44.5L549.32,421.41h-44.33
		L657.14,186.6z M645.64,407.74c-11.44-11.33-17.16-29.77-17.16-55.33c0-26.55,5.64-45.24,16.91-56.08
		c11.28-10.83,26.91-16.25,46.91-16.25c19.33,0,34.75,5.47,46.25,16.41c11.5,10.94,17.25,29.58,17.25,55.91
		c0,25.22-5.86,43.58-17.58,55.08c-11.72,11.5-27.25,17.25-46.58,17.25C672.41,424.74,657.08,419.08,645.64,407.74z M702.13,384.91
		c2.44-2,4.22-5.55,5.33-10.67c1.11-5.11,1.67-12.39,1.67-21.83c0-9.33-0.56-16.5-1.67-21.5c-1.11-5-2.86-8.47-5.25-10.42
		c-2.39-1.94-5.7-2.92-9.92-2.92c-4.67,0-8.25,1-10.75,3s-4.28,5.47-5.33,10.42c-1.06,4.95-1.58,12.08-1.58,21.41
		s0.55,16.53,1.67,21.58c1.11,5.06,2.89,8.64,5.33,10.75c2.44,2.11,5.89,3.17,10.33,3.17C696.3,387.91,699.69,386.91,702.13,384.91z
		"/>
</g>
<g>
	<path d="M84.41,535.27c-3.99-2.82-7.06-6.86-9.21-12.14c-2.14-5.28-3.22-11.53-3.22-18.76c0-8.24,1.19-15.2,3.56-20.87
		c2.37-5.68,5.64-9.92,9.81-12.74s8.93-4.23,14.31-4.23c4.83,0,8.74,0.83,11.73,2.49c2.98,1.66,5.53,3.94,7.63,6.84h0.25
		c-0.08-1.72-0.13-4.39-0.13-8.01v-24.28h24.53v77.75c0,5.21,0.17,10.85,0.5,16.9h-24.15c-0.42-3.15-0.63-6.24-0.63-9.27h-0.25
		c-1.89,3.15-4.55,5.7-7.98,7.63c-3.43,1.93-7.66,2.9-12.71,2.9C93.09,539.49,88.4,538.08,84.41,535.27z M116.38,515.97
		c2.02-2.77,3.03-7.19,3.03-13.24c0-5.51-0.95-9.7-2.84-12.58c-1.89-2.88-4.56-4.32-8.01-4.32c-3.07,0-5.62,1.38-7.66,4.13
		c-2.04,2.75-3.06,7.3-3.06,13.65c0,5.68,0.98,9.85,2.93,12.52c1.95,2.67,4.42,4,7.41,4C111.63,520.13,114.36,518.74,116.38,515.97z
		"/>
	<path d="M165.53,536.65c-3.26-1.89-5.76-4.5-7.5-7.82c-1.75-3.32-2.62-7.13-2.62-11.41c0-7.23,2.27-12.7,6.81-16.39
		c4.54-3.7,11.22-5.67,20.05-5.93l13.81-0.38v-1.7c0-5.09-3.22-7.63-9.65-7.63c-3.2,0-6.1,0.69-8.7,2.08
		c-2.61,1.39-5.21,3.15-7.82,5.3l-10.34-14.94c3.87-3.15,8.31-5.78,13.34-7.88c5.02-2.1,10.94-3.15,17.75-3.15
		c10,0,17.63,2.24,22.89,6.71c5.25,4.48,7.88,11.76,7.88,21.85v15.76c0,10.89,0.21,19.93,0.63,27.11h-23.77
		c-0.34-3.45-0.5-6.54-0.5-9.27h-0.38c-2.06,3.24-4.7,5.8-7.91,7.69s-7.39,2.84-12.52,2.84
		C172.6,539.49,168.79,538.54,165.53,536.65z M191.38,520.26c1.49-1.22,2.65-2.87,3.47-4.95s1.23-4.34,1.23-6.78v-0.25h-7.44
		c-3.11,0-5.44,0.61-7,1.83c-1.56,1.22-2.33,2.92-2.33,5.11c0,2.19,0.61,3.88,1.83,5.08c1.22,1.2,2.94,1.8,5.17,1.8
		C188.2,522.09,189.89,521.48,191.38,520.26z"/>
	<path d="M279.88,534.98c-5.46-3-9.61-7.23-12.42-12.67c-2.82-5.44-4.23-11.76-4.23-18.95c0-7.82,1.52-14.49,4.57-20.02
		c3.05-5.53,7.31-9.71,12.8-12.55c5.49-2.84,11.84-4.26,19.07-4.26c7.31,0,13.6,1.45,18.85,4.35c5.25,2.9,9.04,6.75,11.35,11.54
		l-17.15,10.97c-1.43-2.4-3.01-4.26-4.73-5.58c-1.72-1.32-3.93-1.99-6.62-1.99c-3.83,0-6.83,1.41-9.02,4.22
		c-2.19,2.82-3.28,6.92-3.28,12.3c0,5.67,1.1,9.97,3.31,12.89c2.21,2.92,5.16,4.38,8.86,4.38c2.27,0,4.26-0.33,5.96-0.98
		c1.7-0.65,3.14-1.47,4.32-2.46c1.18-0.99,2.48-2.26,3.91-3.82l14.44,13.05c-3.15,4.2-7.3,7.6-12.45,10.18
		c-5.15,2.59-11.11,3.88-17.88,3.88C291.9,539.49,285.35,537.99,279.88,534.98z"/>
	<path d="M348.58,534.57c-5.57-3.28-9.76-7.69-12.58-13.24c-2.82-5.55-4.23-11.71-4.23-18.48c0-6.56,1.37-12.59,4.1-18.1
		c2.73-5.51,6.9-9.92,12.52-13.24c5.61-3.32,12.56-4.98,20.84-4.98c8.74,0,15.9,1.65,21.47,4.95c5.57,3.3,9.63,7.67,12.17,13.12
		c2.54,5.44,3.81,11.53,3.81,18.25c0,6.68-1.4,12.8-4.19,18.35c-2.8,5.55-7.03,9.98-12.71,13.3c-5.68,3.32-12.65,4.98-20.94,4.98
		C360.91,539.49,354.15,537.85,348.58,534.57z M377.9,515.69c2-3.05,3-7.32,3-12.83c0-5.38-0.94-9.56-2.81-12.55
		c-1.87-2.98-4.74-4.48-8.61-4.48c-4.04,0-7.02,1.49-8.95,4.48c-1.93,2.99-2.9,7.17-2.9,12.55c0,5.38,0.95,9.63,2.84,12.74
		s4.64,4.67,8.26,4.67C372.85,520.26,375.91,518.74,377.9,515.69z"/>
	<path d="M418.86,483.62c0-2.9-0.07-5.8-0.22-8.7c-0.15-2.9-0.33-5.25-0.54-7.06h23.77c0.25,1.43,0.46,3.26,0.63,5.49
		c0.17,2.23,0.29,4.22,0.38,5.99h0.25c2.14-4.16,4.88-7.33,8.2-9.52c3.32-2.19,7.73-3.28,13.24-3.28c5.13,0,9.23,1.06,12.3,3.18
		c3.07,2.12,5.3,5.29,6.68,9.49h0.38c2.02-4.12,4.76-7.26,8.23-9.43c3.47-2.17,7.79-3.25,12.96-3.25c7.15,0,12.51,2.26,16.08,6.78
		c3.57,4.52,5.36,10.75,5.36,18.7v46.22h-24.53v-39.28c0-3.91-0.65-6.84-1.96-8.8c-1.3-1.96-3.32-2.93-6.05-2.93
		c-2.86,0-5.08,1.01-6.65,3.03c-1.58,2.02-2.37,5.02-2.37,9.02v38.97h-24.53v-39.28c0-4.04-0.56-7-1.67-8.89s-3.1-2.84-5.96-2.84
		c-6.31,0-9.46,4.48-9.46,13.43v37.58h-24.53V483.62z"/>
	<path d="M547.21,461.52c-2-1.03-3.56-2.49-4.7-4.38c-1.14-1.89-1.7-4.06-1.7-6.49c0-2.44,0.57-4.62,1.7-6.56
		c1.13-1.93,2.7-3.45,4.7-4.54c2-1.09,4.26-1.64,6.78-1.64c2.44,0,4.64,0.55,6.62,1.64c1.98,1.09,3.53,2.61,4.67,4.54
		c1.14,1.93,1.7,4.12,1.7,6.56c0,2.4-0.57,4.53-1.7,6.4c-1.13,1.87-2.69,3.34-4.67,4.41c-1.98,1.07-4.18,1.61-6.62,1.61
		C551.47,463.07,549.21,462.55,547.21,461.52z M541.82,467.86h24.53v70.37h-24.53V467.86z"/>
	<path d="M590.5,535.27c-3.99-2.82-7.06-6.86-9.21-12.14c-2.14-5.28-3.22-11.53-3.22-18.76c0-8.24,1.19-15.2,3.56-20.87
		c2.37-5.68,5.64-9.92,9.81-12.74c4.16-2.82,8.93-4.23,14.31-4.23c4.83,0,8.74,0.83,11.73,2.49c2.98,1.66,5.53,3.94,7.63,6.84h0.25
		c-0.08-1.72-0.13-4.39-0.13-8.01v-24.28h24.53v77.75c0,5.21,0.17,10.85,0.5,16.9h-24.15c-0.42-3.15-0.63-6.24-0.63-9.27h-0.25
		c-1.89,3.15-4.55,5.7-7.98,7.63c-3.43,1.93-7.66,2.9-12.71,2.9C599.18,539.49,594.49,538.08,590.5,535.27z M622.47,515.97
		c2.02-2.77,3.03-7.19,3.03-13.24c0-5.51-0.95-9.7-2.84-12.58c-1.89-2.88-4.56-4.32-8.01-4.32c-3.07,0-5.62,1.38-7.66,4.13
		c-2.04,2.75-3.06,7.3-3.06,13.65c0,5.68,0.98,9.85,2.93,12.52c1.95,2.67,4.42,4,7.41,4C617.72,520.13,620.45,518.74,622.47,515.97z
		"/>
	<path d="M671.62,536.65c-3.26-1.89-5.76-4.5-7.5-7.82c-1.75-3.32-2.62-7.13-2.62-11.41c0-7.23,2.27-12.7,6.81-16.39
		c4.54-3.7,11.22-5.67,20.05-5.93l13.81-0.38v-1.7c0-5.09-3.22-7.63-9.65-7.63c-3.19,0-6.1,0.69-8.7,2.08
		c-2.61,1.39-5.21,3.15-7.82,5.3l-10.34-14.94c3.87-3.15,8.31-5.78,13.34-7.88c5.02-2.1,10.94-3.15,17.75-3.15
		c10,0,17.63,2.24,22.89,6.71c5.25,4.48,7.88,11.76,7.88,21.85v15.76c0,10.89,0.21,19.93,0.63,27.11h-23.77
		c-0.34-3.45-0.5-6.54-0.5-9.27h-0.38c-2.06,3.24-4.7,5.8-7.91,7.69s-7.39,2.84-12.52,2.84
		C678.69,539.49,674.88,538.54,671.62,536.65z M697.47,520.26c1.49-1.22,2.65-2.87,3.47-4.95c0.82-2.08,1.23-4.34,1.23-6.78v-0.25
		h-7.44c-3.11,0-5.44,0.61-7,1.83c-1.56,1.22-2.33,2.92-2.33,5.11c0,2.19,0.61,3.88,1.83,5.08c1.22,1.2,2.94,1.8,5.17,1.8
		C694.29,522.09,695.98,521.48,697.47,520.26z"/>
</g>
<g>
	<path d="M75.92,580.53h41.45l10.81,39.2c0.64,2.42,1.38,5.56,2.22,9.44c0.84,3.88,1.54,7.32,2.09,10.33
		c0.55-2.96,1.27-6.36,2.16-10.19c0.89-3.83,1.68-6.86,2.36-9.1l11.01-39.67h40.36v96.38h-25.92v-47.47
		c0-8.62,0.18-16.28,0.55-22.98c-1.5,6.25-3.88,15.03-7.11,26.34l-12.45,44.12h-22.85l-12.31-44.12
		c-3.28-11.31-5.63-20.09-7.05-26.34c0.27,8.53,0.41,16.19,0.41,22.98v47.47H75.92V580.53z"/>
	<path d="M213.62,668.3c-7.66-6.66-11.49-16.71-11.49-30.17v-57.6h28.05v55.61c0,6.02,1.42,10.6,4.28,13.75
		c2.85,3.15,7.13,4.72,12.83,4.72c5.84,0,10.24-1.65,13.2-4.96c2.96-3.31,4.45-8.04,4.45-14.19v-54.93h27.98v56.84
		c0,8.98-1.87,16.52-5.61,22.61c-3.74,6.09-9.09,10.66-16.04,13.71c-6.96,3.06-15.24,4.58-24.87,4.58
		C232.2,678.28,221.28,674.96,213.62,668.3z"/>
	<path d="M306.65,580.53h32.9l33.59,64.57c-0.55-4.06-0.82-12.08-0.82-24.08v-40.5h25.79v96.38h-33.31l-32.97-61.91
		c0.36,8.94,0.55,18.04,0.55,27.29v34.61h-25.72V580.53z"/>
	<path d="M413.56,580.53h40.02c16.96,0,29.92,3.9,38.85,11.7s13.41,19.72,13.41,35.78c0,10.35-2.11,19.2-6.33,26.54
		c-4.22,7.34-10.17,12.91-17.85,16.69c-7.68,3.79-16.61,5.68-26.78,5.68h-41.32V580.53z M453.58,653.66c7.71,0,13.55-2.17,17.55-6.5
		c3.99-4.33,5.98-10.63,5.98-18.88c0-7.89-1.97-13.94-5.92-18.16c-3.95-4.22-9.95-6.33-18.03-6.33h-11.63v49.87H453.58z"/>
	<path d="M517.81,580.53h27.98v96.38h-27.98V580.53z"/>
	<path d="M623.15,658.45h-33.31l-5.61,18.47h-28.18l33.45-96.38h34.48l33.38,96.38h-28.59L623.15,658.45z M616.79,637.38
		l-7.11-23.53c-1.6-5.06-2.67-8.89-3.21-11.49c-0.5,2.33-1.53,6.16-3.08,11.49l-7.12,23.53H616.79z"/>
	<path d="M667.14,580.53h27.98v73.12h40.49v23.26h-68.47V580.53z"/>
</g>
</svg>
