<?xml version="1.0" encoding="utf-8"?>
<!-- Generator: Adobe Illustrator 24.0.2, SVG Export Plug-In . SVG Version: 6.00 Build 0)  -->
<svg version="1.1" id="Layer_1" xmlns="http://www.w3.org/2000/svg" xmlns:xlink="http://www.w3.org/1999/xlink" x="0px" y="0px"
	 viewBox="0 0 800 800" style="enable-background:new 0 0 800 800;" xml:space="preserve">
<g>
	<path d="M76.08,312.42h44.16v-99.69l-44.69,29.35v-46.41l47.07-30.28h50.37v147.02h40.59v39.27H76.08V312.42z"/>
	<path d="M242.53,345.54c-5.11-5.16-7.67-12.14-7.67-20.96c0-8.81,2.56-15.8,7.67-20.96c5.11-5.16,12.12-7.73,21.02-7.73
		c8.55,0,15.38,2.6,20.49,7.8c5.11,5.2,7.67,12.16,7.67,20.89c0,5.64-1.17,10.62-3.5,14.94c-2.34,4.32-5.62,7.69-9.85,10.11
		c-4.23,2.42-9.17,3.64-14.81,3.64C254.65,353.27,247.64,350.69,242.53,345.54z"/>
	<path d="M347.97,347.65c-10.89-4.45-19.22-10.78-24.99-18.97c-5.77-8.2-8.66-17.85-8.66-28.95c0-8.55,1.65-16.08,4.96-22.61
		c3.31-6.52,7.67-11.72,13.09-15.6c5.42-3.88,11.26-6.3,17.52-7.27v-0.53c-9.43-2.2-16.99-6.98-22.67-14.34
		c-5.68-7.36-8.53-16.24-8.53-26.64c0-10.31,2.86-19.24,8.59-26.77c5.73-7.54,13.77-13.31,24.13-17.32
		c10.36-4.01,22.36-6.02,36.03-6.02c14.19,0,26.35,2.09,36.49,6.28c10.13,4.19,17.83,10.07,23.07,17.65
		c5.24,7.58,7.87,16.31,7.87,26.18c0,7.05-1.32,13.44-3.97,19.17c-2.64,5.73-6.35,10.49-11.11,14.28
		c-4.76,3.79-10.18,6.3-16.26,7.54v0.53c7.14,1.06,13.42,3.55,18.84,7.47c5.42,3.92,9.63,9.06,12.63,15.4
		c3,6.35,4.5,13.62,4.5,21.81c0,11.37-2.87,21.2-8.59,29.48c-5.73,8.29-14.06,14.67-24.99,19.17c-10.93,4.5-23.93,6.74-39,6.74
		C371.83,354.33,358.85,352.1,347.97,347.65z M401.45,313.28c3.52-3.57,5.29-8.75,5.29-15.53c0-6.35-1.63-11.52-4.89-15.54
		c-3.26-4.01-8.33-6.01-15.2-6.01c-6.88,0-11.92,2.01-15.14,6.01c-3.22,4.01-4.83,9.19-4.83,15.54c0,6.88,1.74,12.08,5.22,15.6
		c3.48,3.53,8.4,5.29,14.74,5.29C392.99,318.63,397.92,316.85,401.45,313.28z M399.73,229.72c3-3.31,4.5-7.78,4.5-13.42
		c0-5.82-1.52-10.29-4.56-13.42c-3.04-3.13-7.38-4.69-13.02-4.69c-5.64,0-9.98,1.57-13.02,4.69c-3.04,3.13-4.56,7.6-4.56,13.42
		c0,5.64,1.5,10.11,4.5,13.42c3,3.3,7.36,4.96,13.09,4.96C392.37,234.68,396.73,233.03,399.73,229.72z"/>
	<path d="M553.03,349.04c-6.21-3.52-11.57-8.42-16.06-14.67h-0.26c-0.35,7.23-0.88,13-1.59,17.32h-50.64
		c0.7-12.69,1.06-24.5,1.06-35.43V153.24h51.43v50.9c0,7.67-0.18,14.15-0.53,19.43h0.53c4.05-6.7,9.65-12.07,16.79-16.13
		c7.14-4.05,16-6.08,26.57-6.08c12.08,0,22.25,2.93,30.54,8.79c8.28,5.86,14.52,14.3,18.71,25.32c4.19,11.02,6.28,24.19,6.28,39.53
		c0,17.37-2.42,31.97-7.27,43.83c-4.85,11.86-11.63,20.74-20.36,26.64c-8.73,5.91-18.82,8.86-30.28,8.86
		C567.55,354.33,559.24,352.57,553.03,349.04z M575.24,305.35c4.27-5.77,6.41-15.31,6.41-28.62c0-11.9-2.05-20.65-6.15-26.24
		c-4.1-5.6-9.28-8.4-15.53-8.4c-7.23,0-12.96,2.91-17.19,8.73s-6.35,15.07-6.35,27.76c0,11.55,1.98,20.34,5.95,26.38
		c3.97,6.04,9.56,9.06,16.79,9.06C565.61,314.01,570.96,311.12,575.24,305.35z"/>
	<path d="M672.28,190.85c-4.19-2.16-7.47-5.22-9.85-9.19c-2.38-3.97-3.57-8.5-3.57-13.62c0-5.11,1.19-9.7,3.57-13.75
		c2.38-4.05,5.66-7.23,9.85-9.52c4.18-2.29,8.92-3.44,14.21-3.44c5.11,0,9.74,1.15,13.88,3.44c4.14,2.29,7.4,5.47,9.78,9.52
		c2.38,4.05,3.57,8.64,3.57,13.75c0,5.02-1.19,9.5-3.57,13.42c-2.38,3.92-5.64,7.01-9.78,9.25c-4.14,2.25-8.77,3.37-13.88,3.37
		C681.2,194.09,676.47,193.01,672.28,190.85z M660.98,204.14h51.43v147.55h-51.43V204.14z"/>
</g>
<g>
	<path d="M60.6,418.34c0-2.73-0.07-5.45-0.21-8.18c-0.14-2.73-0.31-4.94-0.5-6.64h22.35c0.24,1.34,0.43,3.06,0.59,5.16
		c0.16,2.09,0.28,3.97,0.36,5.63h0.24c2.02-3.91,4.58-6.9,7.71-8.95c3.12-2.05,7.27-3.08,12.45-3.08c4.82,0,8.67,1,11.56,2.99
		c2.88,2,4.98,4.97,6.28,8.92h0.36c1.9-3.87,4.48-6.83,7.74-8.86c3.26-2.04,7.32-3.05,12.18-3.05c6.72,0,11.76,2.13,15.12,6.37
		c3.36,4.25,5.04,10.11,5.04,17.58v43.45h-23.06v-36.93c0-3.68-0.61-6.43-1.84-8.27c-1.23-1.84-3.12-2.76-5.69-2.76
		c-2.69,0-4.77,0.95-6.25,2.84c-1.48,1.9-2.22,4.72-2.22,8.48v36.64H99.72v-36.93c0-3.79-0.52-6.58-1.57-8.36
		c-1.05-1.78-2.92-2.67-5.6-2.67c-5.93,0-8.89,4.21-8.89,12.63v35.33H60.6V418.34z"/>
	<path d="M181.44,462.54c-6.19-5.55-9.28-14.02-9.28-25.4c0-7.83,1.45-14.34,4.36-19.53c2.9-5.2,6.9-9.05,11.97-11.56
		c5.08-2.51,10.9-3.76,17.46-3.76c10.59,0,18.32,2.99,23.18,8.98c4.86,5.99,7.29,13.92,7.29,23.8c0,2.13-0.12,4.6-0.36,7.41h-39.48
		c0.2,3.87,1.32,6.79,3.38,8.74c2.05,1.96,5.26,2.93,9.6,2.93c2.65,0,5.1-0.43,7.35-1.3c2.25-0.87,5.2-2.47,8.83-4.8l8.71,14.82
		c-3.91,2.53-7.91,4.5-11.98,5.9s-9.11,2.1-15.12,2.1C196.27,470.87,187.63,468.09,181.44,462.54z M214.19,428.42
		c-0.24-6.72-3.06-10.08-8.48-10.08c-2.65,0-4.76,0.85-6.34,2.55c-1.58,1.7-2.51,4.21-2.79,7.53H214.19z"/>
	<path d="M246.86,418.34c0-2.77-0.07-5.49-0.21-8.18c-0.14-2.69-0.31-4.9-0.5-6.64h22.23c0.24,1.26,0.47,3.09,0.71,5.48
		c0.24,2.39,0.36,4.16,0.36,5.31h0.24c2.29-4.15,5.17-7.19,8.63-9.13c3.46-1.94,7.62-2.9,12.48-2.9c7.51,0,12.99,2.2,16.45,6.61
		c3.46,4.41,5.19,10.46,5.19,18.17v42.62h-23.06v-36.04c0-3.87-0.67-6.83-2.02-8.86c-1.34-2.04-3.6-3.05-6.76-3.05
		c-3.48,0-6.13,1.17-7.94,3.5c-1.82,2.33-2.73,5.65-2.73,9.96v34.5h-23.06V418.34z"/>
	<path d="M333.68,468.41c-4.92-1.64-9.16-3.92-12.72-6.85l9.19-15.06c3.28,2.41,6.4,4.29,9.37,5.63s6.36,2.02,10.2,2.02
		c4.7,0,7.05-1.13,7.05-3.38c0-1.03-0.44-1.87-1.33-2.52c-0.89-0.65-2.1-1.21-3.65-1.66c-1.54-0.45-3.97-1.06-7.29-1.81
		c-6.44-1.5-11.53-3.78-15.26-6.85c-3.73-3.06-5.6-7.62-5.6-13.66c0-4.39,1.07-8.24,3.2-11.56c2.13-3.32,5.29-5.89,9.46-7.71
		c4.17-1.82,9.22-2.73,15.15-2.73c10.71,0,19.68,3.08,26.91,9.25l-10.31,12.75c-5.14-3.87-10.24-5.81-15.29-5.81
		c-2.13,0-3.77,0.33-4.92,0.98c-1.15,0.65-1.72,1.57-1.72,2.76c0,0.91,0.34,1.64,1.01,2.19c0.67,0.55,1.66,1.02,2.96,1.39
		c1.3,0.38,3.26,0.84,5.87,1.39c4.94,1.11,9.05,2.38,12.33,3.82c3.28,1.44,5.93,3.53,7.94,6.25s3.02,6.32,3.02,10.79
		c0,4.78-1.15,8.88-3.44,12.3c-2.29,3.42-5.63,6.03-10.02,7.83s-9.66,2.7-15.83,2.7C344.02,470.87,338.6,470.05,333.68,468.41z"/>
	<path d="M393.67,468.2c-3.06-1.78-5.42-4.23-7.05-7.35c-1.64-3.12-2.46-6.7-2.46-10.73c0-6.8,2.13-11.94,6.4-15.41
		c4.27-3.48,10.55-5.34,18.85-5.57l12.98-0.36v-1.6c0-4.78-3.02-7.17-9.07-7.17c-3,0-5.73,0.65-8.18,1.96
		c-2.45,1.3-4.9,2.96-7.35,4.98l-9.72-14.05c3.64-2.96,7.81-5.43,12.54-7.41c4.72-1.98,10.29-2.96,16.69-2.96
		c9.41,0,16.58,2.1,21.52,6.31s7.41,11.06,7.41,20.54v14.82c0,10.24,0.2,18.73,0.59,25.49h-22.35c-0.32-3.24-0.47-6.14-0.47-8.71
		h-0.36c-1.94,3.04-4.42,5.45-7.44,7.23c-3.02,1.78-6.95,2.67-11.77,2.67C400.32,470.87,396.73,469.98,393.67,468.2z M417.97,452.79
		c1.4-1.15,2.49-2.7,3.26-4.65c0.77-1.96,1.16-4.08,1.16-6.37v-0.24h-7c-2.92,0-5.12,0.57-6.58,1.72c-1.46,1.15-2.19,2.75-2.19,4.8
		c0,2.06,0.57,3.65,1.72,4.77c1.15,1.13,2.77,1.69,4.86,1.69C414.98,454.5,416.57,453.93,417.97,452.79z"/>
	<path d="M523.05,413.25c-4.11,0-7.11,0.69-9.01,2.08c1.22,2.84,1.84,5.99,1.84,9.43c0,4.27-0.98,8.06-2.93,11.38
		c-1.96,3.32-5.09,5.96-9.4,7.91c-4.31,1.96-9.86,2.93-16.66,2.93c-3.48,0-6.72-0.28-9.72-0.83c-0.4,0.79-0.59,1.48-0.59,2.07
		c0,1.03,0.39,1.79,1.16,2.28c0.77,0.5,2,0.84,3.71,1.04c1.7,0.2,4.56,0.42,8.6,0.65c7.67,0.47,13.77,1.28,18.32,2.4
		c4.54,1.13,8.07,3.09,10.58,5.9c2.51,2.81,3.76,6.84,3.76,12.09c0,7.55-2.83,13.36-8.48,17.43c-5.65,4.07-14.96,6.11-27.92,6.11
		c-21.54,0-32.31-5.77-32.31-17.31c0-2.88,0.74-5.38,2.22-7.5c1.48-2.11,3.96-4.18,7.44-6.19c-3.44-2.45-5.16-6.18-5.16-11.2
		c0-2.33,0.6-4.55,1.81-6.67c1.21-2.11,2.95-4.06,5.25-5.84c-2.61-1.9-4.56-4.27-5.87-7.11c-1.3-2.85-1.96-6.07-1.96-9.66
		c0-6.64,2.31-12.02,6.94-16.15c4.62-4.13,11.99-6.19,22.11-6.19c7.11,0,12.98,1.13,17.61,3.38c2.29-2.85,4.85-4.99,7.68-6.43
		c2.83-1.44,6.21-2.16,10.17-2.16h0.47l0.83,16.18H523.05z M474.91,469.03c-0.91,1.46-1.36,3.1-1.36,4.92
		c0,2.33,1.04,4.11,3.11,5.33c2.08,1.22,5.72,1.84,10.94,1.84c4.82,0,8.17-0.5,10.05-1.48c1.88-0.99,2.82-2.41,2.82-4.27
		c0-1.07-0.32-1.94-0.95-2.61c-0.63-0.67-1.74-1.22-3.32-1.63c-1.58-0.42-3.79-0.7-6.64-0.86
		C482.84,469.92,477.96,469.5,474.91,469.03z M492.55,430.35c1.4-1.44,2.1-3.39,2.1-5.84c0-2.41-0.68-4.31-2.05-5.69
		c-1.36-1.38-3.27-2.08-5.72-2.08c-2.53,0-4.48,0.7-5.84,2.1c-1.36,1.4-2.04,3.33-2.04,5.78c0,2.41,0.67,4.33,2.02,5.75
		c1.34,1.42,3.26,2.13,5.75,2.13C489.22,432.51,491.15,431.79,492.55,430.35z"/>
	<path d="M535.82,462.54c-6.19-5.55-9.28-14.02-9.28-25.4c0-7.83,1.45-14.34,4.36-19.53c2.9-5.2,6.9-9.05,11.97-11.56
		c5.08-2.51,10.9-3.76,17.46-3.76c10.59,0,18.32,2.99,23.18,8.98c4.86,5.99,7.29,13.92,7.29,23.8c0,2.13-0.12,4.6-0.36,7.41h-39.48
		c0.2,3.87,1.32,6.79,3.38,8.74c2.05,1.96,5.26,2.93,9.6,2.93c2.65,0,5.1-0.43,7.35-1.3c2.25-0.87,5.2-2.47,8.83-4.8l8.71,14.82
		c-3.91,2.53-7.91,4.5-11.98,5.9s-9.11,2.1-15.12,2.1C550.65,470.87,542.01,468.09,535.82,462.54z M568.58,428.42
		c-0.24-6.72-3.06-10.08-8.48-10.08c-2.65,0-4.76,0.85-6.34,2.55c-1.58,1.7-2.51,4.21-2.79,7.53H568.58z"/>
	<path d="M601.24,418.34c0-2.77-0.07-5.49-0.21-8.18c-0.14-2.69-0.31-4.9-0.5-6.64h22.23c0.24,1.26,0.47,3.09,0.71,5.48
		c0.24,2.39,0.36,4.16,0.36,5.31h0.24c2.29-4.15,5.17-7.19,8.63-9.13c3.46-1.94,7.62-2.9,12.48-2.9c7.51,0,12.99,2.2,16.45,6.61
		c3.46,4.41,5.19,10.46,5.19,18.17v42.62h-23.06v-36.04c0-3.87-0.67-6.83-2.02-8.86c-1.34-2.04-3.6-3.05-6.76-3.05
		c-3.48,0-6.13,1.17-7.94,3.5c-1.82,2.33-2.73,5.65-2.73,9.96v34.5h-23.06V418.34z"/>
	<path d="M688.06,468.41c-4.92-1.64-9.16-3.92-12.72-6.85l9.19-15.06c3.28,2.41,6.4,4.29,9.37,5.63s6.36,2.02,10.2,2.02
		c4.7,0,7.05-1.13,7.05-3.38c0-1.03-0.44-1.87-1.33-2.52c-0.89-0.65-2.1-1.21-3.65-1.66c-1.54-0.45-3.97-1.06-7.29-1.81
		c-6.44-1.5-11.53-3.78-15.26-6.85c-3.73-3.06-5.6-7.62-5.6-13.66c0-4.39,1.07-8.24,3.2-11.56c2.13-3.32,5.29-5.89,9.46-7.71
		c4.17-1.82,9.22-2.73,15.15-2.73c10.71,0,19.68,3.08,26.91,9.25l-10.31,12.75c-5.14-3.87-10.24-5.81-15.29-5.81
		c-2.13,0-3.77,0.33-4.92,0.98c-1.15,0.65-1.72,1.57-1.72,2.76c0,0.91,0.34,1.64,1.01,2.19c0.67,0.55,1.66,1.02,2.96,1.39
		c1.3,0.38,3.26,0.84,5.87,1.39c4.94,1.11,9.05,2.38,12.33,3.82c3.28,1.44,5.93,3.53,7.94,6.25s3.02,6.32,3.02,10.79
		c0,4.78-1.15,8.88-3.44,12.3c-2.29,3.42-5.63,6.03-10.02,7.83s-9.66,2.7-15.83,2.7C698.4,470.87,692.98,470.05,688.06,468.41z"/>
</g>
<g>
	<path d="M66.72,574.27c0-7.78-0.38-16.19-1.13-25.22h35.86c0.31,1.26,0.64,3.31,0.99,6.17c0.34,2.86,0.52,5.22,0.52,7.11h0.38
		c3.07-4.39,7.2-8.03,12.38-10.92c5.18-2.88,11.47-4.33,18.87-4.33c8.34,0,15.44,2.09,21.27,6.26c5.84,4.17,10.27,10.28,13.32,18.31
		c3.04,8.03,4.56,17.79,4.56,29.27c0,11.61-1.65,21.54-4.94,29.79c-3.29,8.25-8.06,14.53-14.31,18.82
		c-6.24,4.3-13.73,6.45-22.45,6.45c-6.65,0-12.5-1.38-17.55-4.14c-5.05-2.76-8.77-6.05-11.15-9.88h-0.56
		c0.13,1.51,0.25,3.58,0.38,6.21c0.13,2.64,0.19,5.18,0.19,7.62v38.4H66.72V574.27z M130.67,621.1c2.98-4.11,4.47-10.84,4.47-20.19
		c0-5.96-0.72-10.81-2.17-14.54c-1.44-3.73-3.31-6.42-5.6-8.05c-2.29-1.63-4.79-2.45-7.48-2.45c-4.71,0-8.71,1.9-12,5.69
		c-3.29,3.8-4.94,10.49-4.94,20.09s1.55,16.27,4.66,20c3.11,3.73,7.14,5.6,12.09,5.6C124.03,627.26,127.69,625.21,130.67,621.1z"/>
	<path d="M210.3,648.63c-8.31-4.89-14.57-11.48-18.78-19.77c-4.21-8.28-6.31-17.47-6.31-27.58c0-9.79,2.04-18.79,6.12-27.01
		c4.08-8.22,10.31-14.81,18.68-19.77c8.38-4.96,18.75-7.44,31.11-7.44c13.05,0,23.73,2.46,32.05,7.39
		c8.31,4.93,14.37,11.45,18.17,19.58c3.79,8.13,5.69,17.21,5.69,27.25c0,9.98-2.09,19.11-6.26,27.39
		c-4.17,8.28-10.49,14.9-18.96,19.86c-8.47,4.96-18.89,7.44-31.25,7.44C228.7,655.97,218.61,653.52,210.3,648.63z M254.06,620.44
		c2.98-4.55,4.47-10.93,4.47-19.15c0-8.03-1.4-14.27-4.19-18.73c-2.79-4.46-7.08-6.68-12.85-6.68c-6.02,0-10.48,2.23-13.37,6.68
		c-2.89,4.46-4.33,10.7-4.33,18.73c0,8.03,1.41,14.37,4.24,19.01c2.82,4.64,6.93,6.96,12.33,6.96
		C246.52,627.26,251.08,624.99,254.06,620.44z"/>
	<path d="M315.38,573.14c0-4.2-0.11-8.61-0.33-13.22c-0.22-4.61-0.49-8.24-0.8-10.87h34.45c0.38,1.88,0.74,4.49,1.08,7.81
		c0.34,3.33,0.52,5.93,0.52,7.81h0.38c2.76-5.65,6.16-9.99,10.21-13.04c4.05-3.04,9.3-4.56,15.76-4.56c3.45,0,6.68,0.6,9.69,1.79
		l-1.6,33.32c-1.95-0.5-3.8-0.91-5.55-1.22c-1.76-0.31-3.73-0.47-5.93-0.47c-6.59,0-11.81,1.93-15.67,5.79
		c-3.86,3.86-5.79,10.21-5.79,19.06v48.75h-36.42V573.14z"/>
	<path d="M459.76,649.66c-5.96-4.2-10.54-10.24-13.74-18.12c-3.2-7.87-4.8-17.21-4.8-28c0-12.3,1.77-22.68,5.32-31.15
		c3.54-8.47,8.42-14.81,14.63-19.01c6.21-4.2,13.33-6.31,21.37-6.31c7.21,0,13.05,1.24,17.51,3.72c4.45,2.48,8.25,5.88,11.39,10.21
		h0.38c-0.13-2.57-0.19-6.56-0.19-11.95v-36.24h36.61v116.05c0,7.78,0.25,16.19,0.75,25.22h-36.05c-0.63-4.71-0.94-9.32-0.94-13.84
		h-0.38c-2.82,4.71-6.79,8.5-11.91,11.39c-5.12,2.89-11.44,4.33-18.97,4.33C472.72,655.97,465.72,653.87,459.76,649.66z
		 M507.48,620.86c3.01-4.14,4.52-10.73,4.52-19.76c0-8.22-1.41-14.48-4.24-18.78c-2.82-4.3-6.81-6.45-11.95-6.45
		c-4.58,0-8.39,2.06-11.44,6.17c-3.04,4.11-4.56,10.9-4.56,20.38c0,8.47,1.46,14.7,4.38,18.68c2.92,3.99,6.6,5.98,11.06,5.98
		C500.39,627.07,504.47,625,507.48,620.86z"/>
	<path d="M580.94,539.59c-2.98-1.54-5.32-3.72-7.01-6.54c-1.69-2.82-2.54-6.05-2.54-9.69c0-3.64,0.85-6.9,2.54-9.79
		c1.69-2.89,4.03-5.14,7.01-6.78c2.98-1.63,6.35-2.45,10.12-2.45c3.64,0,6.93,0.82,9.88,2.45c2.95,1.63,5.27,3.89,6.96,6.78
		c1.69,2.89,2.54,6.15,2.54,9.79c0,3.58-0.85,6.76-2.54,9.55c-1.69,2.79-4.02,4.99-6.96,6.59c-2.95,1.6-6.24,2.4-9.88,2.4
		C587.29,541.9,583.92,541.13,580.94,539.59z M572.89,549.05h36.61v105.04h-36.61V549.05z"/>
	<path d="M641.37,651.73c-4.86-2.82-8.6-6.71-11.2-11.67c-2.6-4.96-3.91-10.64-3.91-17.04c0-10.79,3.39-18.95,10.17-24.47
		c6.78-5.52,16.75-8.47,29.93-8.85l20.61-0.57v-2.54c0-7.59-4.8-11.39-14.4-11.39c-4.77,0-9.1,1.04-12.99,3.11
		c-3.89,2.07-7.78,4.71-11.67,7.91l-15.44-22.31c5.77-4.71,12.41-8.63,19.91-11.77c7.5-3.14,16.33-4.71,26.5-4.71
		c14.93,0,26.32,3.34,34.17,10.02c7.84,6.68,11.76,17.55,11.76,32.61v23.53c0,16.25,0.31,29.74,0.94,40.47h-35.48
		c-0.5-5.14-0.75-9.76-0.75-13.84h-0.56c-3.08,4.83-7.01,8.66-11.81,11.48c-4.8,2.82-11.03,4.24-18.68,4.24
		C651.92,655.97,646.23,654.56,641.37,651.73z M679.96,627.26c2.23-1.82,3.95-4.28,5.18-7.39c1.22-3.11,1.84-6.48,1.84-10.12v-0.38
		h-11.11c-4.64,0-8.13,0.91-10.45,2.73c-2.32,1.82-3.48,4.36-3.48,7.62s0.91,5.79,2.73,7.58c1.82,1.79,4.39,2.68,7.72,2.68
		C675.2,629.99,677.73,629.08,679.96,627.26z"/>
</g>
</svg>
