<?xml version="1.0" encoding="utf-8"?>
<!-- Generator: Adobe Illustrator 24.0.2, SVG Export Plug-In . SVG Version: 6.00 Build 0)  -->
<svg version="1.1" id="Layer_1" xmlns="http://www.w3.org/2000/svg" xmlns:xlink="http://www.w3.org/1999/xlink" x="0px" y="0px"
	 viewBox="0 0 800 800" style="enable-background:new 0 0 800 800;" xml:space="preserve">
<g>
	<path d="M377.18,357.08v77.78h-265.7v-66.18L230,263.99c14.32-12.67,24.65-23.62,30.99-32.84c6.33-9.22,9.51-19.18,9.51-29.88
		c0-10.04-2.84-18.35-8.52-24.94c-5.68-6.58-15.02-9.88-28.03-9.88c-11.36,0-22.19,2.92-32.47,8.77
		c-10.29,5.84-20.87,14.86-31.73,27.04l-58.77-59.76c13.99-18.77,32.47-33.58,55.44-44.45c22.96-10.87,49.34-16.3,79.14-16.3
		c28.31,0,51.81,4.73,70.5,14.2c18.68,9.47,32.43,22.02,41.24,37.66c8.8,15.64,13.21,32.76,13.21,51.36
		c0,17.78-3.13,34.2-9.38,49.26c-6.26,15.06-14.9,28.98-25.93,41.73c-11.03,12.76-24.86,26.14-41.48,40.13l-49.39,40.99H377.18z"/>
	<path d="M449.16,396.35c-23.3-28.97-34.94-74.16-34.94-135.57c0-43.62,5.39-78.65,16.17-105.07
		c10.78-26.42,26.01-45.35,45.68-56.79c19.67-11.44,43.67-17.16,71.98-17.16c87.41,0,131.12,59.68,131.12,179.03
		c0,41.16-5.56,75.07-16.67,101.74c-11.11,26.67-26.63,46.22-46.55,58.65c-19.92,12.43-43.38,18.64-70.38,18.64
		C504.6,439.81,472.45,425.32,449.16,396.35z M567.81,348.69c4.77-5.93,7.98-15.56,9.63-28.89c1.64-13.33,2.47-33,2.47-59.02
		c0-27-0.74-47.08-2.22-60.25c-1.48-13.17-4.49-22.59-9.01-28.27c-4.53-5.68-11.57-8.52-21.11-8.52c-10.7,0-18.48,2.88-23.33,8.64
		c-4.86,5.76-7.99,15.06-9.38,27.9c-1.4,12.84-2.1,33.01-2.1,60.5c0,26.67,0.7,46.51,2.1,59.51c1.4,13.01,4.44,22.47,9.14,28.4
		c4.69,5.93,12.06,8.89,22.1,8.89C555.79,357.58,563.03,354.62,567.81,348.69z"/>
</g>
<g>
	<path d="M132.43,687.1c-7.41-7.54-11.11-18.63-11.11-33.25V493.2h52.69v151.17c0,4.06,0.75,7.11,2.24,9.14s4.27,3.05,8.33,3.05
		c1.71,0,4.11-0.27,7.18-0.81l1.63,40.23c-8.31,1.63-16.98,2.44-26.01,2.44C151.49,698.41,139.84,694.64,132.43,687.1z"/>
	<path d="M232.33,693.13c-7-4.06-12.37-9.66-16.12-16.8c-3.75-7.13-5.62-15.31-5.62-24.52c0-15.53,4.88-27.27,14.63-35.22
		c9.75-7.95,24.11-12.19,43.07-12.73l29.66-0.81v-3.66c0-10.92-6.91-16.39-20.72-16.39c-6.86,0-13.09,1.49-18.69,4.47
		c-5.6,2.98-11.2,6.77-16.8,11.38l-22.21-32.1c8.31-6.77,17.86-12.42,28.65-16.93c10.79-4.51,23.5-6.77,38.13-6.77
		c21.49,0,37.88,4.81,49.17,14.43c11.29,9.62,16.93,25.26,16.93,46.93v33.86c0,23.39,0.45,42.8,1.35,58.25H302.7
		c-0.72-7.4-1.08-14.04-1.08-19.91h-0.81c-4.43,6.96-10.09,12.46-17,16.53c-6.91,4.06-15.87,6.1-26.89,6.1
		C247.52,699.22,239.33,697.19,232.33,693.13z M287.87,657.91c3.2-2.62,5.69-6.16,7.45-10.63c1.76-4.47,2.64-9.32,2.64-14.56v-0.54
		h-15.98c-6.68,0-11.7,1.31-15.04,3.93c-3.34,2.62-5.01,6.28-5.01,10.97c0,4.7,1.31,8.33,3.93,10.9c2.62,2.57,6.32,3.86,11.11,3.86
		C281.03,661.84,284.66,660.53,287.87,657.91z"/>
	<path d="M452.58,693.81c-6.37-3.61-11.85-8.62-16.46-15.04h-0.27c-0.36,7.41-0.9,13.32-1.63,17.74h-51.88
		c0.72-13,1.08-25.1,1.08-36.3V493.2h52.69v52.15c0,7.86-0.18,14.49-0.54,19.91h0.54c4.15-6.86,9.89-12.37,17.2-16.53
		c7.31-4.15,16.39-6.23,27.23-6.23c12.37,0,22.8,3,31.29,9.01c8.49,6.01,14.88,14.65,19.17,25.94c4.29,11.29,6.43,24.79,6.43,40.5
		c0,17.79-2.48,32.76-7.45,44.9c-4.97,12.15-11.92,21.25-20.86,27.29c-8.94,6.05-19.28,9.08-31.02,9.08
		C467.46,699.22,458.95,697.42,452.58,693.81z M475.34,649.04c4.38-5.91,6.57-15.69,6.57-29.33c0-12.19-2.1-21.15-6.3-26.89
		c-4.2-5.73-9.5-8.6-15.92-8.6c-7.41,0-13.27,2.98-17.61,8.94c-4.33,5.96-6.5,15.44-6.5,28.45c0,11.83,2.03,20.84,6.09,27.02
		c4.06,6.19,9.8,9.28,17.2,9.28C465.47,657.91,470.95,654.95,475.34,649.04z"/>
	<path d="M578.96,693.6c-11.24-3.75-20.93-8.96-29.05-15.65l21-34.41c7.49,5.51,14.63,9.8,21.4,12.87
		c6.77,3.07,14.54,4.61,23.3,4.61c10.75,0,16.12-2.57,16.12-7.72c0-2.35-1.02-4.27-3.05-5.76s-4.81-2.75-8.33-3.79
		c-3.52-1.04-9.08-2.42-16.66-4.13c-14.72-3.43-26.35-8.65-34.88-15.65c-8.53-7-12.8-17.41-12.8-31.22
		c0-10.02,2.44-18.83,7.31-26.41c4.88-7.58,12.08-13.45,21.6-17.61c9.53-4.15,21.06-6.23,34.61-6.23c24.47,0,44.97,7.04,61.5,21.13
		l-23.57,29.12c-11.74-8.85-23.39-13.27-34.95-13.27c-4.88,0-8.63,0.75-11.24,2.23c-2.62,1.49-3.93,3.59-3.93,6.3
		c0,2.08,0.77,3.75,2.3,5.01c1.53,1.27,3.79,2.33,6.77,3.18c2.98,0.86,7.45,1.92,13.41,3.18c11.29,2.53,20.68,5.44,28.17,8.74
		c7.49,3.3,13.54,8.06,18.15,14.29c4.61,6.23,6.91,14.45,6.91,24.65c0,10.93-2.62,20.3-7.86,28.11
		c-5.24,7.81-12.87,13.77-22.89,17.88s-22.08,6.16-36.17,6.16C602.6,699.22,590.2,697.35,578.96,693.6z"/>
</g>
</svg>
