<?xml version="1.0" encoding="utf-8"?>
<!-- Generator: Adobe Illustrator 24.0.2, SVG Export Plug-In . SVG Version: 6.00 Build 0)  -->
<svg version="1.1" id="Layer_1" xmlns="http://www.w3.org/2000/svg" xmlns:xlink="http://www.w3.org/1999/xlink" x="0px" y="0px"
	 viewBox="0 0 800 800" style="enable-background:new 0 0 800 800;" xml:space="preserve">
<g>
	<path d="M157.52,320.97v28.82H59.07v-24.52l43.92-38.79c5.31-4.7,9.13-8.75,11.48-12.17c2.35-3.42,3.52-7.1,3.52-11.07
		c0-3.72-1.05-6.8-3.16-9.24c-2.1-2.44-5.57-3.66-10.38-3.66c-4.21,0-8.22,1.08-12.03,3.25c-3.81,2.17-7.73,5.51-11.76,10.02
		l-21.78-22.14c5.18-6.95,12.03-12.44,20.54-16.47c8.51-4.03,18.28-6.04,29.33-6.04c10.49,0,19.2,1.75,26.12,5.26
		c6.92,3.51,12.02,8.16,15.28,13.95c3.26,5.8,4.89,12.14,4.89,19.03c0,6.59-1.16,12.67-3.48,18.25c-2.32,5.58-5.52,10.74-9.61,15.46
		c-4.09,4.73-9.21,9.68-15.37,14.87l-18.3,15.19H157.52z"/>
	<path d="M251.4,267.58c5.92,3.51,10.43,8.42,13.54,14.73c3.11,6.31,4.67,13.62,4.67,21.91c0,9.27-1.95,17.48-5.86,24.61
		c-3.9,7.14-9.73,12.72-17.48,16.74c-7.75,4.03-17.14,6.04-28.18,6.04c-12.93,0-23.39-2.64-31.38-7.91
		c-7.99-5.28-13.54-12.37-16.65-21.27l29.1-14.27c1.22,2.81,2.5,5.23,3.84,7.27c1.34,2.04,3.22,3.81,5.63,5.31
		c2.41,1.5,5.44,2.24,9.1,2.24c4.76,0,8.43-1.51,11.03-4.53c2.59-3.02,3.89-7.24,3.89-12.67c0-5.25-1.21-9.32-3.61-12.21
		c-2.41-2.9-5.93-4.35-10.57-4.35c-3.48,0-6.53,0.75-9.15,2.24c-2.62,1.5-5.12,4.07-7.5,7.73l-30.19-13.63l6.77-64.69h83.17v27.17
		h-53.89l-2.47,22.05c6.1-5.18,14.46-7.78,25.07-7.78C238.44,262.32,245.48,264.07,251.4,267.58z"/>
	<path d="M291.48,345.53c-3.54-3.57-5.31-8.4-5.31-14.5c0-6.1,1.77-10.93,5.31-14.5c3.54-3.57,8.39-5.35,14.55-5.35
		c5.92,0,10.64,1.8,14.18,5.4c3.54,3.6,5.31,8.42,5.31,14.46c0,3.9-0.81,7.35-2.42,10.34c-1.62,2.99-3.89,5.32-6.82,7
		c-2.93,1.68-6.34,2.52-10.25,2.52C299.86,350.89,295.01,349.1,291.48,345.53z"/>
	<path d="M362.02,345.63c-7.26-3.99-13.21-10.54-17.84-19.63l25.89-14.46c2.93,4.27,5.75,7.24,8.46,8.92
		c2.71,1.68,5.69,2.52,8.92,2.52c5.98,0,10.57-2.47,13.77-7.41c3.2-4.94,4.8-12.2,4.8-21.78c-2.5,2.81-6.15,5.03-10.93,6.68
		c-4.79,1.65-9.9,2.47-15.33,2.47c-7.75,0-14.59-1.63-20.54-4.9c-5.95-3.26-10.57-7.88-13.86-13.86c-3.29-5.98-4.94-12.9-4.94-20.77
		c0-9.33,2.09-17.34,6.27-24.02c4.18-6.68,9.93-11.76,17.25-15.23c7.32-3.48,15.61-5.22,24.89-5.22c10.67,0,19.9,2.38,27.68,7.14
		s13.78,11.96,18.03,21.59c4.24,9.64,6.36,21.56,6.36,35.78c0,14.52-2.09,26.87-6.27,37.06c-4.18,10.19-10.28,17.92-18.3,23.19
		c-8.02,5.28-17.77,7.91-29.23,7.91C377.63,351.62,369.28,349.62,362.02,345.63z M399.3,272.93c2.59-2.5,3.89-6.1,3.89-10.8
		c0-4.76-1.3-8.36-3.89-10.8c-2.59-2.44-5.96-3.66-10.11-3.66c-4.21,0-7.55,1.3-10.02,3.89c-2.47,2.59-3.71,6.12-3.71,10.57
		c0,4.45,1.16,7.99,3.48,10.61c2.32,2.62,5.73,3.93,10.25,3.93C393.34,276.68,396.71,275.43,399.3,272.93z"/>
	<path d="M476.16,344.48c-7.78-4.76-13.79-11.94-18.03-21.55c-4.24-9.61-6.36-21.52-6.36-35.73c0-14.52,2.09-26.88,6.27-37.1
		c4.18-10.22,10.28-17.96,18.3-23.24c8.02-5.28,17.76-7.91,29.23-7.91c9.52,0,17.89,2.01,25.12,6.04
		c7.23,4.03,13.16,10.58,17.8,19.67l-25.89,14.46c-2.93-4.27-5.75-7.24-8.46-8.92c-2.71-1.68-5.69-2.52-8.92-2.52
		c-5.98,0-10.57,2.47-13.77,7.41c-3.2,4.94-4.8,12.2-4.8,21.78c2.5-2.81,6.14-5.03,10.93-6.68c4.79-1.65,9.9-2.47,15.33-2.47
		c7.75,0,14.59,1.63,20.54,4.9c5.95,3.26,10.57,7.88,13.86,13.86c3.29,5.98,4.94,12.9,4.94,20.77c0,9.33-2.07,17.34-6.22,24.02
		c-4.15,6.68-9.88,11.74-17.2,15.19c-7.32,3.45-15.62,5.17-24.89,5.17C493.19,351.62,483.94,349.24,476.16,344.48z M513.54,319.09
		c2.44-2.59,3.66-6.11,3.66-10.57c0-4.45-1.16-7.99-3.48-10.61c-2.32-2.62-5.73-3.93-10.25-3.93c-4.09,0-7.44,1.25-10.06,3.75
		c-2.62,2.5-3.93,6.1-3.93,10.8c0,4.76,1.29,8.36,3.89,10.8c2.59,2.44,5.96,3.66,10.11,3.66
		C507.74,322.98,511.1,321.68,513.54,319.09z"/>
	<path d="M617.71,347.96c-4.3-2.44-8.01-5.82-11.12-10.16h-0.18c-0.24,5-0.61,9-1.1,11.99h-35.04c0.49-8.78,0.73-16.96,0.73-24.52
		V212.45h35.59v35.23c0,5.31-0.12,9.79-0.37,13.45h0.37c2.8-4.64,6.68-8.36,11.62-11.16c4.94-2.81,11.07-4.21,18.39-4.21
		c8.36,0,15.4,2.03,21.14,6.08c5.73,4.06,10.05,9.9,12.95,17.52c2.9,7.63,4.35,16.74,4.35,27.36c0,12.02-1.68,22.13-5.03,30.33
		c-3.36,8.2-8.05,14.35-14.09,18.44c-6.04,4.09-13.02,6.13-20.95,6.13C627.76,351.62,622.01,350.4,617.71,347.96z M633.08,317.72
		c2.96-3.99,4.44-10.6,4.44-19.81c0-8.23-1.42-14.29-4.25-18.16c-2.84-3.87-6.42-5.81-10.75-5.81c-5,0-8.97,2.01-11.89,6.04
		s-4.39,10.43-4.39,19.21c0,7.99,1.37,14.08,4.12,18.25c2.75,4.18,6.62,6.27,11.62,6.27C626.41,323.71,630.12,321.71,633.08,317.72z
		"/>
	<path d="M700.24,238.48c-2.9-1.49-5.17-3.61-6.82-6.36c-1.65-2.75-2.47-5.89-2.47-9.42c0-3.54,0.82-6.71,2.47-9.52
		c1.65-2.81,3.92-5,6.82-6.59c2.9-1.59,6.18-2.38,9.84-2.38c3.54,0,6.74,0.79,9.61,2.38c2.87,1.59,5.12,3.78,6.77,6.59
		c1.65,2.81,2.47,5.98,2.47,9.52c0,3.48-0.82,6.57-2.47,9.29c-1.65,2.71-3.9,4.85-6.77,6.4c-2.87,1.56-6.07,2.33-9.61,2.33
		C706.41,240.72,703.13,239.98,700.24,238.48z M692.41,247.68h35.59v102.11h-35.59V247.68z"/>
</g>
<g>
	<path d="M69.56,514.86c-12.81-11.49-19.21-29.02-19.21-52.59c0-16.2,3.01-29.68,9.02-40.44c6.01-10.76,14.28-18.74,24.79-23.93
		c10.51-5.19,22.56-7.79,36.14-7.79c21.93,0,37.92,6.2,47.99,18.59c10.06,12.39,15.09,28.82,15.09,49.27
		c0,4.42-0.25,9.53-0.74,15.34h-81.73c0.41,8.02,2.74,14.05,7,18.1c4.25,4.05,10.88,6.08,19.88,6.08c5.48,0,10.55-0.9,15.22-2.7
		c4.66-1.8,10.76-5.11,18.29-9.94l18.04,30.68c-8.1,5.24-16.36,9.31-24.79,12.21c-8.43,2.9-18.86,4.36-31.29,4.36
		C100.26,532.1,82.37,526.35,69.56,514.86z M137.37,444.23c-0.49-13.91-6.34-20.86-17.55-20.86c-5.48,0-9.86,1.76-13.13,5.28
		c-3.27,3.52-5.2,8.71-5.77,15.59H137.37z"/>
	<path d="M213.58,518.78c-7.2-9.28-10.8-21.91-10.8-37.86v-88.24h47.74v74.62c0,8.02,1.39,14.13,4.17,18.35
		c2.78,4.21,7.4,6.32,13.87,6.32c7.28,0,12.78-2.41,16.51-7.24c3.72-4.83,5.58-11.74,5.58-20.74v-71.3h47.86v106.28
		c0,5.64,0.14,11.29,0.43,16.94c0.29,5.65,0.63,10.23,1.04,13.75h-46.02c-0.49-2.62-0.98-6.4-1.47-11.35
		c-0.49-4.95-0.74-8.61-0.74-10.98h-0.49c-4.75,8.76-10.68,15.18-17.79,19.27c-7.12,4.09-15.79,6.14-26.02,6.14
		C232.07,532.71,220.78,528.07,213.58,518.78z"/>
	<path d="M370.91,424.1c0-5.48-0.14-11.23-0.43-17.24c-0.29-6.01-0.63-10.74-1.04-14.17h44.92c0.49,2.45,0.96,5.85,1.41,10.19
		c0.45,4.34,0.67,7.73,0.67,10.19h0.49c3.6-7.36,8.04-13.03,13.32-17c5.28-3.97,12.13-5.95,20.56-5.95c4.5,0,8.71,0.78,12.64,2.33
		l-2.09,43.44c-2.54-0.65-4.95-1.19-7.24-1.6c-2.29-0.41-4.87-0.61-7.73-0.61c-8.59,0-15.4,2.52-20.43,7.55
		c-5.03,5.03-7.55,13.32-7.55,24.85v63.57h-47.49V424.1z"/>
	<path d="M501.06,522.53c-10.84-6.38-19-14.97-24.48-25.77c-5.48-10.8-8.22-22.79-8.22-35.96c0-12.76,2.66-24.5,7.98-35.22
		c5.32-10.72,13.44-19.31,24.36-25.77c10.92-6.46,24.44-9.7,40.56-9.7c17.02,0,30.95,3.21,41.79,9.63
		c10.84,6.42,18.73,14.93,23.69,25.53c4.95,10.6,7.42,22.44,7.42,35.53c0,13.01-2.72,24.91-8.16,35.71
		c-5.44,10.8-13.68,19.43-24.73,25.9c-11.05,6.46-24.63,9.69-40.75,9.69C525.05,532.1,511.9,528.91,501.06,522.53z M558.13,485.77
		c3.88-5.93,5.83-14.25,5.83-24.97c0-10.47-1.82-18.61-5.46-24.42c-3.64-5.81-9.23-8.71-16.75-8.71c-7.85,0-13.66,2.91-17.43,8.71
		c-3.76,5.81-5.65,13.95-5.65,24.42c0,10.47,1.84,18.74,5.52,24.79c3.68,6.06,9.04,9.08,16.08,9.08
		C548.29,494.67,554.24,491.7,558.13,485.77z"/>
	<path d="M651.89,527.01c-10.19-3.39-18.96-8.12-26.32-14.17l19.02-31.17c6.79,4.99,13.25,8.88,19.39,11.66
		c6.14,2.78,13.17,4.17,21.11,4.17c9.74,0,14.6-2.33,14.6-7c0-2.13-0.92-3.87-2.76-5.21c-1.84-1.35-4.36-2.5-7.55-3.44
		c-3.19-0.94-8.22-2.19-15.1-3.74c-13.34-3.11-23.87-7.83-31.6-14.17c-7.73-6.34-11.6-15.77-11.6-28.29
		c0-9.08,2.21-17.06,6.63-23.93c4.42-6.87,10.94-12.19,19.57-15.95c8.63-3.76,19.08-5.65,31.36-5.65c22.17,0,40.74,6.38,55.72,19.14
		l-21.35,26.39c-10.64-8.02-21.19-12.03-31.66-12.03c-4.42,0-7.81,0.67-10.19,2.02c-2.37,1.35-3.56,3.25-3.56,5.71
		c0,1.88,0.69,3.4,2.09,4.54c1.39,1.15,3.44,2.11,6.14,2.88c2.7,0.78,6.75,1.74,12.15,2.88c10.23,2.29,18.73,4.93,25.53,7.92
		c6.79,2.99,12.27,7.3,16.45,12.95c4.17,5.65,6.26,13.09,6.26,22.34c0,9.9-2.37,18.39-7.12,25.46c-4.75,7.08-11.66,12.48-20.74,16.2
		c-9.08,3.72-20,5.58-32.77,5.58C673.3,532.1,662.07,530.4,651.89,527.01z"/>
</g>
<g>
	<path d="M60.19,638.94c-2.71-1.91-4.78-4.65-6.24-8.22c-1.45-3.57-2.18-7.81-2.18-12.71c0-5.58,0.8-10.29,2.41-14.14
		c1.61-3.84,3.82-6.72,6.64-8.63c2.82-1.91,6.05-2.86,9.7-2.86c3.27,0,5.92,0.56,7.94,1.69c2.02,1.13,3.74,2.67,5.17,4.63h0.17
		c-0.06-1.17-0.08-2.98-0.08-5.42v-16.44h16.61v52.66c0,3.53,0.11,7.35,0.34,11.45H84.33c-0.29-2.14-0.43-4.23-0.43-6.28h-0.17
		c-1.28,2.14-3.08,3.86-5.4,5.17c-2.32,1.31-5.19,1.96-8.61,1.96C66.07,641.8,62.9,640.85,60.19,638.94z M81.85,625.87
		c1.37-1.88,2.05-4.87,2.05-8.97c0-3.73-0.64-6.57-1.92-8.52s-3.09-2.93-5.42-2.93c-2.08,0-3.81,0.93-5.19,2.8s-2.07,4.95-2.07,9.25
		c0,3.84,0.66,6.67,1.99,8.48c1.32,1.81,3,2.71,5.02,2.71C78.63,628.69,80.48,627.75,81.85,625.87z"/>
	<path d="M115.31,635.8c-4.46-4-6.68-10.1-6.68-18.3c0-5.64,1.05-10.33,3.14-14.07c2.09-3.74,4.97-6.52,8.63-8.33
		c3.66-1.81,7.85-2.71,12.58-2.71c7.63,0,13.2,2.16,16.7,6.47c3.5,4.31,5.25,10.03,5.25,17.15c0,1.54-0.08,3.32-0.26,5.34h-28.45
		c0.14,2.79,0.95,4.89,2.43,6.3s3.79,2.11,6.92,2.11c1.91,0,3.67-0.31,5.3-0.94c1.62-0.63,3.74-1.78,6.36-3.46l6.28,10.68
		c-2.82,1.82-5.7,3.24-8.63,4.25s-6.56,1.52-10.89,1.52C126,641.8,119.77,639.8,115.31,635.8z M138.91,611.22
		c-0.17-4.84-2.21-7.26-6.11-7.26c-1.91,0-3.43,0.61-4.57,1.84c-1.14,1.22-1.81,3.03-2.01,5.42H138.91z"/>
	<path d="M184.4,604.22c0-1.91-0.05-3.91-0.15-6c-0.1-2.09-0.22-3.74-0.36-4.93h15.63c0.17,0.85,0.33,2.04,0.49,3.54
		c0.16,1.51,0.23,2.69,0.23,3.54h0.17c1.25-2.56,2.8-4.53,4.63-5.92c1.84-1.38,4.22-2.07,7.15-2.07c1.57,0,3.03,0.27,4.4,0.81
		l-0.73,15.12c-0.88-0.23-1.72-0.41-2.52-0.55s-1.69-0.21-2.69-0.21c-2.99,0-5.36,0.88-7.11,2.63s-2.63,4.63-2.63,8.65v22.13H184.4
		V604.22z"/>
	<path d="M225,635.8c-4.46-4-6.68-10.1-6.68-18.3c0-5.64,1.05-10.33,3.14-14.07c2.09-3.74,4.97-6.52,8.63-8.33
		c3.66-1.81,7.85-2.71,12.58-2.71c7.63,0,13.2,2.16,16.7,6.47c3.5,4.31,5.25,10.03,5.25,17.15c0,1.54-0.08,3.32-0.26,5.34h-28.45
		c0.14,2.79,0.95,4.89,2.43,6.3s3.79,2.11,6.92,2.11c1.91,0,3.67-0.31,5.3-0.94c1.62-0.63,3.74-1.78,6.36-3.46l6.28,10.68
		c-2.82,1.82-5.7,3.24-8.63,4.25s-6.56,1.52-10.89,1.52C235.68,641.8,229.45,639.8,225,635.8z M248.59,611.22
		c-0.17-4.84-2.21-7.26-6.11-7.26c-1.91,0-3.43,0.61-4.57,1.84c-1.14,1.22-1.81,3.03-2.01,5.42H248.59z"/>
	<path d="M280.41,638.75c-3.7-2.04-6.51-4.9-8.41-8.58c-1.91-3.69-2.86-7.97-2.86-12.83c0-5.3,1.03-9.82,3.1-13.56
		c2.06-3.74,4.95-6.58,8.67-8.5s8.02-2.88,12.92-2.88c4.95,0,9.21,0.98,12.77,2.95c3.56,1.96,6.12,4.57,7.69,7.82l-11.62,7.43
		c-0.97-1.62-2.04-2.88-3.2-3.78c-1.17-0.9-2.66-1.35-4.48-1.35c-2.59,0-4.63,0.95-6.11,2.86c-1.48,1.91-2.22,4.68-2.22,8.33
		c0,3.84,0.75,6.76,2.24,8.73c1.5,1.98,3.5,2.97,6,2.97c1.54,0,2.88-0.22,4.04-0.66s2.13-1,2.93-1.67c0.8-0.67,1.68-1.53,2.65-2.58
		l9.78,8.84c-2.13,2.85-4.95,5.15-8.44,6.9s-7.52,2.63-12.11,2.63C288.56,641.8,284.11,640.79,280.41,638.75z"/>
	<path d="M322.72,635.8c-4.46-4-6.68-10.1-6.68-18.3c0-5.64,1.05-10.33,3.14-14.07c2.09-3.74,4.97-6.52,8.63-8.33
		c3.66-1.81,7.85-2.71,12.58-2.71c7.63,0,13.2,2.16,16.7,6.47c3.5,4.31,5.25,10.03,5.25,17.15c0,1.54-0.08,3.32-0.26,5.34h-28.45
		c0.14,2.79,0.95,4.89,2.43,6.3s3.79,2.11,6.92,2.11c1.91,0,3.67-0.31,5.3-0.94c1.62-0.63,3.74-1.78,6.36-3.46l6.28,10.68
		c-2.82,1.82-5.7,3.24-8.63,4.25s-6.56,1.52-10.89,1.52C333.4,641.8,327.18,639.8,322.72,635.8z M346.32,611.22
		c-0.17-4.84-2.21-7.26-6.11-7.26c-1.91,0-3.43,0.61-4.57,1.84c-1.14,1.22-1.81,3.03-2.01,5.42H346.32z"/>
	<path d="M373.42,588.99c-1.35-0.7-2.41-1.69-3.18-2.97s-1.15-2.75-1.15-4.4s0.38-3.13,1.15-4.44c0.77-1.31,1.83-2.33,3.18-3.08
		c1.35-0.74,2.88-1.11,4.59-1.11c1.65,0,3.15,0.37,4.49,1.11c1.34,0.74,2.39,1.77,3.16,3.08c0.77,1.31,1.15,2.79,1.15,4.44
		c0,1.62-0.38,3.07-1.15,4.33c-0.77,1.27-1.82,2.26-3.16,2.99c-1.34,0.73-2.83,1.09-4.49,1.09
		C376.3,590.04,374.77,589.69,373.42,588.99z M369.77,593.28h16.62v47.67h-16.62V593.28z"/>
	<path d="M401.61,638.24c-2.41-2.38-3.61-5.9-3.61-10.57v-22.34h-5.77v-12.04h6.66l0.77-10.93l14.99-1.15v12.09h8.37v12.04h-8.37
		v17.34c0,1.88,0.28,3.25,0.85,4.12c0.57,0.87,1.51,1.3,2.82,1.3c1.45,0,2.82-0.14,4.1-0.43l1.11,12.43c-2.11,0.57-4.09,1-5.96,1.28
		s-3.81,0.43-5.83,0.43C407.39,641.8,404.01,640.62,401.61,638.24z"/>
	<path d="M433.56,639.88c-2.21-1.28-3.9-3.05-5.08-5.3c-1.18-2.25-1.77-4.83-1.77-7.73c0-4.9,1.54-8.6,4.61-11.11
		c3.08-2.5,7.6-3.84,13.58-4.01l9.35-0.26v-1.15c0-3.45-2.18-5.17-6.54-5.17c-2.16,0-4.13,0.47-5.89,1.41
		c-1.77,0.94-3.53,2.14-5.3,3.59l-7-10.12c2.62-2.13,5.63-3.91,9.03-5.34c3.4-1.42,7.41-2.14,12.02-2.14
		c6.78,0,11.94,1.52,15.5,4.55c3.56,3.03,5.34,7.97,5.34,14.8v10.68c0,7.38,0.14,13.5,0.43,18.37h-16.1
		c-0.23-2.33-0.34-4.43-0.34-6.28h-0.26c-1.4,2.19-3.18,3.93-5.36,5.21c-2.18,1.28-5,1.92-8.48,1.92
		C438.35,641.8,435.76,641.16,433.56,639.88z M451.07,628.78c1.01-0.83,1.79-1.94,2.35-3.35c0.56-1.41,0.83-2.94,0.83-4.59v-0.17
		h-5.04c-2.11,0-3.69,0.41-4.74,1.24s-1.58,1.98-1.58,3.46c0,1.48,0.41,2.63,1.24,3.44c0.83,0.81,1.99,1.22,3.5,1.22
		C448.91,630.01,450.06,629.6,451.07,628.78z"/>
	<path d="M506.25,639.88c-2.21-1.28-3.9-3.05-5.08-5.3c-1.18-2.25-1.77-4.83-1.77-7.73c0-4.9,1.54-8.6,4.61-11.11
		c3.08-2.5,7.6-3.84,13.58-4.01l9.35-0.26v-1.15c0-3.45-2.18-5.17-6.54-5.17c-2.16,0-4.13,0.47-5.89,1.41
		c-1.77,0.94-3.53,2.14-5.3,3.59l-7-10.12c2.62-2.13,5.63-3.91,9.03-5.34c3.4-1.42,7.41-2.14,12.02-2.14
		c6.78,0,11.94,1.52,15.5,4.55c3.56,3.03,5.34,7.97,5.34,14.8v10.68c0,7.38,0.14,13.5,0.43,18.37h-16.1
		c-0.23-2.33-0.34-4.43-0.34-6.28h-0.26c-1.4,2.19-3.18,3.93-5.36,5.21c-2.18,1.28-5,1.92-8.48,1.92
		C511.04,641.8,508.46,641.16,506.25,639.88z M523.76,628.78c1.01-0.83,1.79-1.94,2.35-3.35c0.56-1.41,0.83-2.94,0.83-4.59v-0.17
		h-5.04c-2.11,0-3.69,0.41-4.74,1.24s-1.58,1.98-1.58,3.46c0,1.48,0.41,2.63,1.24,3.44c0.83,0.81,1.99,1.22,3.5,1.22
		C521.61,630.01,522.75,629.6,523.76,628.78z"/>
	<path d="M553.55,603.96c0-1.99-0.05-3.96-0.15-5.89s-0.22-3.53-0.36-4.78h16.02c0.17,0.91,0.34,2.23,0.51,3.95s0.26,3,0.26,3.82
		H570c1.65-2.99,3.72-5.18,6.21-6.58c2.49-1.4,5.49-2.09,8.99-2.09c5.41,0,9.36,1.59,11.85,4.76c2.49,3.18,3.74,7.54,3.74,13.09
		v30.71h-16.61v-25.97c0-2.79-0.49-4.92-1.45-6.38c-0.97-1.47-2.59-2.2-4.87-2.2c-2.51,0-4.41,0.84-5.72,2.52
		c-1.31,1.68-1.96,4.07-1.96,7.17v24.86h-16.62V603.96z"/>
	<path d="M614.2,637.17c-2.51-3.23-3.76-7.62-3.76-13.18v-30.71h16.62v25.97c0,2.79,0.48,4.92,1.45,6.38
		c0.97,1.47,2.58,2.2,4.83,2.2c2.53,0,4.45-0.84,5.75-2.52c1.29-1.68,1.94-4.08,1.94-7.22v-24.82h16.66v36.99
		c0,1.96,0.05,3.93,0.15,5.89c0.1,1.96,0.22,3.56,0.36,4.78h-16.02c-0.17-0.91-0.34-2.23-0.51-3.95c-0.17-1.72-0.26-3-0.26-3.82
		h-0.17c-1.65,3.05-3.72,5.28-6.19,6.71c-2.48,1.42-5.5,2.13-9.05,2.13C620.64,642.02,616.71,640.4,614.2,637.17z"/>
	<path d="M672.4,639.88c-2.21-1.28-3.9-3.05-5.08-5.3c-1.18-2.25-1.77-4.83-1.77-7.73c0-4.9,1.54-8.6,4.61-11.11
		c3.08-2.5,7.6-3.84,13.58-4.01l9.35-0.26v-1.15c0-3.45-2.18-5.17-6.54-5.17c-2.16,0-4.13,0.47-5.89,1.41
		c-1.77,0.94-3.53,2.14-5.3,3.59l-7-10.12c2.62-2.13,5.63-3.91,9.03-5.34c3.4-1.42,7.41-2.14,12.02-2.14
		c6.78,0,11.94,1.52,15.5,4.55c3.56,3.03,5.34,7.97,5.34,14.8v10.68c0,7.38,0.14,13.5,0.43,18.37h-16.1
		c-0.23-2.33-0.34-4.43-0.34-6.28h-0.26c-1.4,2.19-3.18,3.93-5.36,5.21c-2.18,1.28-5,1.92-8.48,1.92
		C677.19,641.8,674.6,641.16,672.4,639.88z M689.91,628.78c1.01-0.83,1.79-1.94,2.35-3.35c0.56-1.41,0.83-2.94,0.83-4.59v-0.17
		h-5.04c-2.11,0-3.69,0.41-4.74,1.24s-1.58,1.98-1.58,3.46c0,1.48,0.41,2.63,1.24,3.44c0.83,0.81,1.99,1.22,3.5,1.22
		C687.75,630.01,688.9,629.6,689.91,628.78z"/>
	<path d="M722.52,637.98c-2.33-2.38-3.5-5.87-3.5-10.49v-50.66h16.61v47.67c0,1.28,0.24,2.24,0.71,2.88s1.35,0.96,2.63,0.96
		c0.54,0,1.29-0.09,2.26-0.26l0.51,12.69c-2.62,0.51-5.35,0.77-8.2,0.77C728.53,641.55,724.85,640.36,722.52,637.98z"/>
</g>
</svg>
