<?xml version="1.0" encoding="utf-8"?>
<!-- Generator: Adobe Illustrator 24.0.2, SVG Export Plug-In . SVG Version: 6.00 Build 0)  -->
<svg version="1.1" id="Layer_1" xmlns="http://www.w3.org/2000/svg" xmlns:xlink="http://www.w3.org/1999/xlink" x="0px" y="0px"
	 viewBox="0 0 800 800" style="enable-background:new 0 0 800 800;" xml:space="preserve">
<g>
	<path d="M46.53,606.72c0-3.73-0.09-7.42-0.28-11.05c-0.19-3.63-0.41-6.62-0.68-8.96h30.02c0.32,1.71,0.64,4.18,0.96,7.4
		s0.48,5.62,0.48,7.16h0.32c3.09-5.6,6.98-9.71,11.65-12.33c4.67-2.61,10.29-3.92,16.85-3.92c10.14,0,17.54,2.97,22.21,8.92
		c4.67,5.95,7,14.13,7,24.53v57.55h-31.14v-48.66c0-5.23-0.91-9.22-2.72-11.97c-1.81-2.75-4.86-4.12-9.12-4.12
		c-4.7,0-8.27,1.57-10.73,4.72c-2.46,3.15-3.68,7.63-3.68,13.45v46.58H46.53V606.72z"/>
	<path d="M170.31,671.4c-7.07-4.16-12.39-9.76-15.97-16.81c-3.58-7.04-5.36-14.86-5.36-23.45c0-8.32,1.73-15.98,5.2-22.97
		c3.47-6.99,8.76-12.59,15.89-16.81c7.12-4.21,15.94-6.32,26.45-6.32c11.1,0,20.18,2.09,27.25,6.28
		c7.07,4.19,12.22,9.74,15.45,16.65c3.23,6.91,4.84,14.63,4.84,23.17c0,8.48-1.78,16.25-5.32,23.29
		c-3.55,7.04-8.92,12.67-16.13,16.89c-7.2,4.22-16.06,6.32-26.57,6.32C185.96,677.64,177.38,675.56,170.31,671.4z M207.53,647.43
		c2.53-3.87,3.8-9.3,3.8-16.29c0-6.83-1.19-12.14-3.56-15.93c-2.38-3.79-6.02-5.68-10.93-5.68c-5.12,0-8.91,1.89-11.37,5.68
		s-3.68,9.1-3.68,15.93s1.2,12.22,3.6,16.17c2.4,3.95,5.9,5.92,10.49,5.92C201.12,653.23,205,651.29,207.53,647.43z"/>
	<path d="M299.06,563.26h53.87c14.25,0,24.87,2.36,31.86,7.08c6.99,4.72,10.49,11.86,10.49,21.41c0,7.04-1.67,12.58-5,16.61
		c-3.34,4.03-8.13,6.87-14.37,8.52c7.31,1.12,13.1,3.87,17.37,8.24c4.27,4.38,6.4,10.51,6.4,18.41c0,10.88-4.1,19.02-12.29,24.41
		c-8.19,5.39-19.33,8.08-33.42,8.08h-54.91V563.26z M347.41,606.24c5.01,0,8.59-0.72,10.73-2.16c2.13-1.44,3.2-3.95,3.2-7.52
		c0-3.47-1.03-5.87-3.08-7.2c-2.05-1.33-5.3-2-9.73-2H331.8v18.89H347.41z M351.17,651.79c4.91,0,8.67-0.81,11.29-2.44
		c2.61-1.63,3.92-4.57,3.92-8.84c0-3.41-1.08-6.11-3.24-8.08s-5.51-2.96-10.04-2.96H331.8v22.33H351.17z"/>
	<path d="M415.28,607.2c0-3.58-0.09-7.32-0.28-11.25c-0.19-3.92-0.41-7-0.68-9.25h29.3c0.32,1.6,0.63,3.82,0.92,6.64
		c0.29,2.83,0.44,5.04,0.44,6.64h0.32c2.35-4.8,5.24-8.5,8.68-11.09c3.44-2.59,7.91-3.88,13.41-3.88c2.93,0,5.68,0.51,8.24,1.52
		l-1.36,28.34c-1.65-0.43-3.23-0.77-4.72-1.04c-1.49-0.27-3.17-0.4-5.04-0.4c-5.6,0-10.05,1.64-13.33,4.92
		c-3.28,3.28-4.92,8.69-4.92,16.21v41.46h-30.98V607.2z"/>
	<path d="M491.92,674.04c-4.14-2.4-7.31-5.71-9.53-9.93c-2.21-4.21-3.32-9.04-3.32-14.49c0-9.18,2.88-16.11,8.64-20.81
		c5.76-4.69,14.25-7.2,25.45-7.52l17.53-0.48v-2.16c0-6.46-4.08-9.69-12.25-9.69c-4.06,0-7.74,0.88-11.04,2.64
		c-3.31,1.76-6.62,4-9.93,6.72l-13.13-18.97c4.91-4,10.55-7.34,16.93-10c6.38-2.67,13.89-4,22.53-4c12.7,0,22.38,2.84,29.05,8.52
		c6.67,5.68,10,14.93,10,27.73v20.01c0,13.82,0.27,25.29,0.8,34.42H533.5c-0.43-4.38-0.64-8.3-0.64-11.77h-0.48
		c-2.62,4.11-5.96,7.36-10.04,9.77c-4.08,2.4-9.38,3.6-15.89,3.6C500.9,677.64,496.06,676.44,491.92,674.04z M524.74,653.23
		c1.89-1.55,3.36-3.64,4.4-6.28c1.04-2.64,1.56-5.51,1.56-8.61v-0.32h-9.45c-3.95,0-6.91,0.78-8.88,2.32
		c-1.97,1.55-2.96,3.71-2.96,6.48c0,2.78,0.77,4.92,2.32,6.44c1.55,1.52,3.73,2.28,6.56,2.28
		C520.69,655.55,522.84,654.78,524.74,653.23z"/>
	<path d="M589.73,674.32c-6.64-2.21-12.37-5.29-17.17-9.24l12.41-20.33c4.43,3.25,8.64,5.79,12.65,7.6s8.59,2.72,13.77,2.72
		c6.35,0,9.53-1.52,9.53-4.56c0-1.39-0.6-2.52-1.8-3.4c-1.2-0.88-2.84-1.63-4.92-2.24c-2.08-0.61-5.36-1.43-9.84-2.44
		c-8.7-2.03-15.57-5.11-20.61-9.24c-5.04-4.13-7.56-10.29-7.56-18.45c0-5.92,1.44-11.13,4.32-15.61s7.14-7.95,12.77-10.4
		c5.63-2.45,12.45-3.68,20.45-3.68c14.46,0,26.57,4.16,36.34,12.49l-13.93,17.21c-6.94-5.23-13.82-7.84-20.65-7.84
		c-2.88,0-5.1,0.44-6.64,1.32c-1.55,0.88-2.32,2.12-2.32,3.72c0,1.23,0.45,2.21,1.36,2.96c0.91,0.75,2.24,1.37,4,1.88
		s4.4,1.13,7.92,1.88c6.67,1.49,12.22,3.21,16.65,5.16c4.43,1.95,8,4.76,10.73,8.45c2.72,3.68,4.08,8.54,4.08,14.57
		c0,6.46-1.55,11.99-4.64,16.61c-3.1,4.62-7.6,8.14-13.53,10.56s-13.05,3.64-21.37,3.64C603.7,677.64,596.37,676.53,589.73,674.32z"
		/>
	<path d="M670.81,578.67c-2.54-1.31-4.52-3.16-5.96-5.56c-1.44-2.4-2.16-5.15-2.16-8.24c0-3.1,0.72-5.87,2.16-8.33
		c1.44-2.45,3.43-4.37,5.96-5.76c2.53-1.39,5.4-2.08,8.6-2.08c3.09,0,5.9,0.7,8.4,2.08c2.51,1.39,4.48,3.31,5.92,5.76
		c1.44,2.46,2.16,5.23,2.16,8.33c0,3.04-0.72,5.75-2.16,8.12c-1.44,2.38-3.42,4.24-5.92,5.6c-2.51,1.36-5.31,2.04-8.4,2.04
		C676.21,580.63,673.35,579.98,670.81,578.67z M663.97,586.71h31.14v89.33h-31.14V586.71z"/>
	<path d="M720.88,670.48c-4.38-4.46-6.56-11.01-6.56-19.65V555.9h31.14v89.33c0,2.4,0.44,4.2,1.32,5.4c0.88,1.2,2.52,1.8,4.92,1.8
		c1.01,0,2.43-0.16,4.24-0.48l0.96,23.77c-4.91,0.96-10.03,1.44-15.37,1.44C732.14,677.16,725.25,674.93,720.88,670.48z"/>
</g>
<g>
	<path d="M134.74,302.04H63.1v-57.98h71.64v-73.88h58.17v73.88h72.57v57.98h-72.57v73.88h-58.17V302.04z"/>
	<path d="M495.72,341.5v58.92H294.47v-50.13l89.78-79.3c10.85-9.6,18.67-17.89,23.47-24.88c4.8-6.98,7.2-14.53,7.2-22.63
		c0-7.6-2.15-13.9-6.45-18.89c-4.3-4.99-11.38-7.48-21.23-7.48c-8.6,0-16.8,2.22-24.6,6.64c-7.79,4.43-15.81,11.25-24.04,20.48
		l-44.52-45.26c10.6-14.21,24.6-25.44,41.99-33.67c17.4-8.23,37.38-12.34,59.95-12.34c21.45,0,39.25,3.59,53.4,10.75
		c14.15,7.17,24.56,16.68,31.24,28.52c6.67,11.85,10.01,24.81,10.01,38.9c0,13.47-2.37,25.91-7.11,37.31
		c-4.74,11.41-11.29,21.95-19.64,31.61c-8.35,9.67-18.83,19.8-31.42,30.39L395.1,341.5H495.72z"/>
	<path d="M533.69,119.67h72.76v147.39l55.18-75.38h84.35L675.1,275.1l75.38,125.32h-84.73l-42.46-79.68l-16.83,16.08v63.59h-72.76
		V119.67z"/>
</g>
<g>
	<path d="M49.31,471.99h-7.67v-15.56h7.67v-3.75c0-5.74,1.78-10.24,5.35-13.52c3.57-3.27,9.21-4.91,16.94-4.91
		c4.34,0,8.66,0.42,12.97,1.27l-1.54,14.46c-1.91-0.66-3.88-0.99-5.9-0.99c-2.28,0-3.91,0.46-4.88,1.38
		c-0.97,0.92-1.46,2.45-1.46,4.58v1.49h12.47v15.56H70.77v46.02H49.31V471.99z"/>
	<path d="M94.55,513.13c-3.24-4.17-4.86-9.85-4.86-17.02v-39.67h21.46v33.55c0,3.61,0.63,6.35,1.88,8.25
		c1.25,1.9,3.33,2.84,6.24,2.84c3.27,0,5.75-1.08,7.42-3.25c1.67-2.17,2.51-5.28,2.51-9.33v-32.06h21.52v47.78
		c0,2.54,0.06,5.08,0.19,7.61s0.29,4.6,0.47,6.18h-20.69c-0.22-1.18-0.44-2.88-0.66-5.1s-0.33-3.87-0.33-4.94h-0.22
		c-2.13,3.94-4.8,6.82-8,8.66c-3.2,1.84-7.1,2.76-11.7,2.76C102.87,519.39,97.79,517.3,94.55,513.13z"/>
	<path d="M165.18,470.23c0-2.57-0.07-5.11-0.19-7.61c-0.13-2.5-0.29-4.56-0.47-6.18h20.69c0.22,1.18,0.44,2.88,0.66,5.1
		c0.22,2.23,0.33,3.87,0.33,4.94h0.22c2.13-3.86,4.81-6.69,8.03-8.5c3.22-1.8,7.09-2.7,11.62-2.7c6.99,0,12.09,2.05,15.31,6.15
		c3.22,4.1,4.83,9.74,4.83,16.91v39.67h-21.46v-33.55c0-3.6-0.63-6.35-1.88-8.25c-1.25-1.89-3.35-2.84-6.29-2.84
		c-3.24,0-5.7,1.08-7.39,3.25c-1.69,2.17-2.54,5.26-2.54,9.27v32.11h-21.46V470.23z"/>
	<path d="M250.37,515.17c-4.78-2.63-8.41-6.33-10.87-11.09c-2.46-4.76-3.7-10.29-3.7-16.58c0-6.84,1.33-12.68,4-17.52
		c2.67-4.84,6.4-8.5,11.2-10.98c4.8-2.48,10.36-3.72,16.69-3.72c6.4,0,11.9,1.27,16.5,3.81c4.6,2.54,7.91,5.9,9.93,10.1l-15.01,9.6
		c-1.25-2.1-2.63-3.72-4.14-4.88c-1.51-1.16-3.44-1.74-5.79-1.74c-3.35,0-5.98,1.23-7.89,3.7c-1.91,2.46-2.87,6.05-2.87,10.76
		c0,4.97,0.97,8.73,2.9,11.28c1.93,2.56,4.52,3.83,7.75,3.83c1.99,0,3.72-0.28,5.21-0.86c1.49-0.57,2.75-1.29,3.78-2.15
		c1.03-0.86,2.17-1.98,3.42-3.34l12.64,11.42c-2.76,3.68-6.39,6.65-10.9,8.91c-4.51,2.26-9.72,3.39-15.64,3.39
		C260.89,519.12,255.15,517.8,250.37,515.17z"/>
	<path d="M305.96,450.89c-1.75-0.9-3.12-2.18-4.11-3.83s-1.49-3.55-1.49-5.68c0-2.13,0.5-4.05,1.49-5.74
		c0.99-1.69,2.36-3.02,4.11-3.97c1.75-0.96,3.72-1.43,5.93-1.43c2.13,0,4.06,0.48,5.79,1.43c1.73,0.96,3.09,2.28,4.08,3.97
		c0.99,1.69,1.49,3.61,1.49,5.74c0,2.1-0.5,3.96-1.49,5.6c-0.99,1.64-2.35,2.92-4.08,3.86c-1.73,0.94-3.66,1.41-5.79,1.41
		C309.69,452.24,307.71,451.79,305.96,450.89z M301.25,456.44h21.46v61.58h-21.46V456.44z"/>
	<path d="M347.68,514.81c-4.87-2.87-8.54-6.73-11.01-11.59c-2.46-4.86-3.7-10.24-3.7-16.17c0-5.74,1.19-11.02,3.59-15.84
		c2.39-4.82,6.04-8.68,10.95-11.59c4.91-2.91,10.99-4.36,18.24-4.36c7.65,0,13.91,1.44,18.79,4.33c4.87,2.89,8.42,6.71,10.65,11.48
		c2.23,4.76,3.34,10.09,3.34,15.97c0,5.85-1.22,11.2-3.67,16.06s-6.15,8.74-11.12,11.64c-4.97,2.91-11.07,4.36-18.32,4.36
		C358.46,519.12,352.55,517.68,347.68,514.81z M373.33,498.29c1.75-2.67,2.62-6.41,2.62-11.23c0-4.71-0.82-8.37-2.46-10.98
		c-1.64-2.61-4.15-3.92-7.53-3.92c-3.53,0-6.14,1.31-7.83,3.92c-1.69,2.61-2.54,6.27-2.54,10.98c0,4.71,0.83,8.42,2.48,11.15
		c1.66,2.72,4.06,4.08,7.23,4.08C368.91,502.29,371.59,500.95,373.33,498.29z"/>
	<path d="M409.17,470.23c0-2.57-0.07-5.11-0.19-7.61c-0.13-2.5-0.29-4.56-0.47-6.18h20.69c0.22,1.18,0.44,2.88,0.66,5.1
		c0.22,2.23,0.33,3.87,0.33,4.94h0.22c2.13-3.86,4.81-6.69,8.03-8.5c3.22-1.8,7.09-2.7,11.62-2.7c6.99,0,12.09,2.05,15.31,6.15
		c3.22,4.1,4.83,9.74,4.83,16.91v39.67h-21.46v-33.55c0-3.6-0.63-6.35-1.88-8.25c-1.25-1.89-3.35-2.84-6.29-2.84
		c-3.24,0-5.7,1.08-7.39,3.25c-1.69,2.17-2.54,5.26-2.54,9.27v32.11h-21.46V470.23z"/>
	<path d="M488.21,516.63c-2.85-1.66-5.04-3.94-6.57-6.84c-1.53-2.91-2.29-6.23-2.29-9.99c0-6.33,1.99-11.11,5.96-14.35
		c3.97-3.24,9.82-4.97,17.55-5.19l12.08-0.33v-1.49c0-4.45-2.81-6.68-8.44-6.68c-2.8,0-5.33,0.61-7.61,1.82
		c-2.28,1.21-4.56,2.76-6.84,4.63L483,465.15c3.38-2.76,7.27-5.06,11.67-6.9c4.39-1.84,9.57-2.76,15.53-2.76
		c8.75,0,15.43,1.96,20.03,5.88c4.6,3.92,6.9,10.29,6.9,19.12v13.79c0,9.53,0.18,17.44,0.55,23.73h-20.8
		c-0.29-3.02-0.44-5.72-0.44-8.11h-0.33c-1.8,2.83-4.11,5.08-6.92,6.73c-2.81,1.66-6.46,2.48-10.95,2.48
		C494.4,519.12,491.06,518.29,488.21,516.63z M510.83,502.29c1.31-1.07,2.32-2.51,3.04-4.33c0.72-1.82,1.08-3.8,1.08-5.93v-0.22
		h-6.51c-2.72,0-4.76,0.53-6.13,1.6c-1.36,1.07-2.04,2.56-2.04,4.47c0,1.91,0.53,3.39,1.6,4.44c1.07,1.05,2.57,1.57,4.52,1.57
		C508.05,503.89,509.53,503.35,510.83,502.29z M500.32,449.21l13.79-16.28h18.54v3.14l-18.65,15.39h-13.68V449.21z"/>
	<path d="M549.43,470.56c0-2.46-0.07-5.05-0.19-7.75c-0.13-2.7-0.29-4.83-0.47-6.37h20.19c0.22,1.1,0.43,2.63,0.63,4.58
		c0.2,1.95,0.3,3.48,0.3,4.58h0.22c1.62-3.31,3.61-5.86,5.99-7.64c2.37-1.78,5.45-2.68,9.24-2.68c2.02,0,3.92,0.35,5.68,1.05
		l-0.94,19.53c-1.14-0.29-2.23-0.53-3.26-0.72c-1.03-0.18-2.19-0.28-3.48-0.28c-3.86,0-6.92,1.13-9.19,3.39
		c-2.26,2.26-3.39,5.99-3.39,11.17v28.58h-21.35V470.56z"/>
	<path d="M603.42,450.89c-1.75-0.9-3.12-2.18-4.11-3.83s-1.49-3.55-1.49-5.68c0-2.13,0.5-4.05,1.49-5.74
		c0.99-1.69,2.36-3.02,4.11-3.97c1.75-0.96,3.72-1.43,5.93-1.43c2.13,0,4.06,0.48,5.79,1.43c1.73,0.96,3.09,2.28,4.08,3.97
		c0.99,1.69,1.49,3.61,1.49,5.74c0,2.1-0.5,3.96-1.49,5.6c-0.99,1.64-2.35,2.92-4.08,3.86c-1.73,0.94-3.66,1.41-5.79,1.41
		C607.14,452.24,605.17,451.79,603.42,450.89z M598.7,456.44h21.46v61.58H598.7V456.44z"/>
	<path d="M645.13,514.81c-4.87-2.87-8.54-6.73-11.01-11.59c-2.46-4.86-3.7-10.24-3.7-16.17c0-5.74,1.19-11.02,3.59-15.84
		c2.39-4.82,6.04-8.68,10.95-11.59c4.91-2.91,10.99-4.36,18.24-4.36c7.65,0,13.91,1.44,18.79,4.33c4.87,2.89,8.42,6.71,10.65,11.48
		c2.23,4.76,3.34,10.09,3.34,15.97c0,5.85-1.22,11.2-3.67,16.06s-6.15,8.74-11.12,11.64c-4.97,2.91-11.07,4.36-18.32,4.36
		C655.92,519.12,650.01,517.68,645.13,514.81z M670.79,498.29c1.75-2.67,2.62-6.41,2.62-11.23c0-4.71-0.82-8.37-2.46-10.98
		c-1.64-2.61-4.15-3.92-7.53-3.92c-3.53,0-6.14,1.31-7.83,3.92c-1.69,2.61-2.54,6.27-2.54,10.98c0,4.71,0.83,8.42,2.48,11.15
		c1.66,2.72,4.06,4.08,7.23,4.08C666.37,502.29,669.04,500.95,670.79,498.29z"/>
	<path d="M712.94,516.83c-4.58-1.53-8.52-3.65-11.83-6.37l8.55-14.01c3.05,2.24,5.96,3.99,8.72,5.24c2.76,1.25,5.92,1.88,9.49,1.88
		c4.38,0,6.57-1.05,6.57-3.15c0-0.96-0.41-1.74-1.24-2.34c-0.83-0.61-1.96-1.12-3.39-1.54s-3.7-0.98-6.79-1.68
		c-6-1.4-10.73-3.52-14.21-6.37c-3.48-2.85-5.21-7.09-5.21-12.72c0-4.08,0.99-7.67,2.98-10.76s4.92-5.48,8.8-7.17
		s8.58-2.54,14.1-2.54c9.97,0,18.32,2.87,25.05,8.61l-9.6,11.86c-4.78-3.6-9.53-5.41-14.24-5.41c-1.99,0-3.51,0.3-4.58,0.91
		c-1.07,0.61-1.6,1.46-1.6,2.57c0,0.85,0.31,1.53,0.94,2.04c0.63,0.52,1.54,0.95,2.76,1.3c1.21,0.35,3.04,0.78,5.46,1.3
		c4.6,1.03,8.42,2.22,11.48,3.56c3.05,1.34,5.52,3.28,7.39,5.82s2.81,5.89,2.81,10.04c0,4.45-1.07,8.27-3.2,11.45
		c-2.13,3.18-5.24,5.61-9.33,7.28c-4.08,1.67-8.99,2.51-14.73,2.51C722.57,519.12,717.52,518.35,712.94,516.83z"/>
</g>
</svg>
