<?xml version="1.0" encoding="utf-8"?>
<!-- Generator: Adobe Illustrator 24.0.2, SVG Export Plug-In . SVG Version: 6.00 Build 0)  -->
<svg version="1.1" id="Layer_1" xmlns="http://www.w3.org/2000/svg" xmlns:xlink="http://www.w3.org/1999/xlink" x="0px" y="0px"
	 viewBox="0 0 800 800" style="enable-background:new 0 0 800 800;" xml:space="preserve">
<g>
	<path d="M233.25,195.43v47.58l-80,179.67H89.55l81.93-177.41h-100v-49.84H233.25z"/>
	<path d="M429.54,195.43v47.58l-80,179.67h-63.71l81.93-177.41h-100v-49.84H429.54z"/>
	<path d="M465.99,315.67c-11.08-11.02-16.61-28.84-16.61-53.47c0-25.7,5.46-43.81,16.37-54.35c10.91-10.54,26.05-15.81,45.4-15.81
		c40.97,0,61.45,23.39,61.45,70.16c0,24.41-5.67,42.18-17.02,53.31c-11.35,11.13-26.37,16.69-45.08,16.69
		C491.9,332.2,477.06,326.7,465.99,315.67z M520.66,293.66c2.36-1.94,4.08-5.38,5.16-10.32c1.07-4.94,1.61-11.99,1.61-21.13
		c0-9.03-0.54-15.97-1.61-20.81c-1.08-4.84-2.77-8.2-5.08-10.08c-2.31-1.88-5.51-2.82-9.6-2.82c-4.52,0-7.98,0.97-10.4,2.9
		c-2.42,1.94-4.14,5.3-5.16,10.08c-1.02,4.79-1.53,11.69-1.53,20.72c0,9.03,0.54,16,1.61,20.89c1.07,4.89,2.79,8.36,5.16,10.4
		c2.36,2.04,5.7,3.06,10,3.06C515.02,296.56,518.3,295.59,520.66,293.66z M648.89,195.43h43.06L544.53,422.69h-42.9L648.89,195.43z
		 M637.76,409.46c-11.08-10.97-16.61-28.81-16.61-53.55c0-25.7,5.46-43.79,16.37-54.27c10.91-10.48,26.05-15.73,45.4-15.73
		c18.71,0,33.63,5.3,44.76,15.89c11.13,10.59,16.69,28.63,16.69,54.11c0,24.41-5.67,42.18-17.02,53.3
		c-11.34,11.13-26.37,16.69-45.08,16.69C663.67,425.91,648.83,420.43,637.76,409.46z M692.43,387.37c2.36-1.94,4.08-5.38,5.16-10.32
		c1.07-4.94,1.61-11.99,1.61-21.13c0-9.03-0.54-15.97-1.61-20.81c-1.08-4.84-2.77-8.2-5.08-10.08c-2.31-1.88-5.51-2.82-9.6-2.82
		c-4.52,0-7.98,0.97-10.4,2.9s-4.14,5.3-5.16,10.08c-1.02,4.79-1.53,11.69-1.53,20.72s0.54,16,1.61,20.89
		c1.07,4.89,2.79,8.36,5.16,10.4c2.36,2.04,5.7,3.06,10,3.06C686.79,390.27,690.07,389.3,692.43,387.37z"/>
</g>
<g>
	<path d="M66.51,512.79c-2.9-2.04-5.12-4.98-6.68-8.8s-2.33-8.36-2.33-13.61c0-5.98,0.86-11.02,2.58-15.14
		c1.72-4.12,4.09-7.2,7.11-9.24s6.48-3.07,10.38-3.07c3.51,0,6.34,0.6,8.51,1.81c2.17,1.21,4.01,2.86,5.54,4.96h0.18
		c-0.06-1.25-0.09-3.19-0.09-5.81v-17.61h17.79v56.4c0,3.78,0.12,7.87,0.37,12.26H92.36c-0.31-2.29-0.46-4.53-0.46-6.72h-0.18
		c-1.37,2.29-3.3,4.13-5.79,5.54c-2.49,1.4-5.56,2.1-9.22,2.1C72.81,515.85,69.41,514.83,66.51,512.79z M89.71,498.79
		c1.46-2.01,2.2-5.21,2.2-9.61c0-4-0.69-7.04-2.06-9.13c-1.37-2.09-3.31-3.13-5.81-3.13c-2.23,0-4.08,1-5.56,3
		c-1.48,2-2.22,5.3-2.22,9.9c0,4.12,0.71,7.14,2.13,9.08c1.42,1.94,3.21,2.91,5.38,2.91C86.26,501.81,88.24,500.8,89.71,498.79z"/>
	<path d="M125.36,513.79c-2.36-1.37-4.18-3.26-5.44-5.67c-1.27-2.41-1.9-5.17-1.9-8.28c0-5.25,1.65-9.21,4.94-11.89
		c3.29-2.68,8.14-4.12,14.55-4.3l10.02-0.27v-1.24c0-3.69-2.33-5.53-7-5.53c-2.32,0-4.42,0.5-6.31,1.51
		c-1.89,1.01-3.78,2.29-5.67,3.84l-7.5-10.84c2.81-2.29,6.03-4.19,9.67-5.72c3.64-1.53,7.94-2.29,12.88-2.29
		c7.26,0,12.79,1.62,16.6,4.87c3.81,3.25,5.72,8.53,5.72,15.85v11.44c0,7.9,0.15,14.45,0.46,19.67h-17.25
		c-0.24-2.5-0.37-4.74-0.37-6.72h-0.27c-1.49,2.35-3.41,4.21-5.74,5.58s-5.36,2.06-9.08,2.06
		C130.49,515.85,127.73,515.16,125.36,513.79z M144.12,501.9c1.08-0.88,1.92-2.08,2.52-3.59c0.59-1.51,0.89-3.15,0.89-4.92v-0.18
		h-5.4c-2.26,0-3.95,0.44-5.08,1.33c-1.13,0.88-1.69,2.12-1.69,3.71c0,1.59,0.44,2.81,1.33,3.68c0.88,0.87,2.13,1.3,3.75,1.3
		C141.81,503.23,143.03,502.78,144.12,501.9z"/>
	<path d="M181.26,513.95c-3.8-1.27-7.07-3.03-9.81-5.28l7.09-11.62c2.53,1.86,4.94,3.31,7.23,4.35c2.29,1.04,4.91,1.56,7.87,1.56
		c3.63,0,5.44-0.87,5.44-2.61c0-0.79-0.34-1.44-1.03-1.94s-1.62-0.93-2.81-1.28c-1.19-0.35-3.06-0.82-5.63-1.4
		c-4.97-1.16-8.9-2.92-11.78-5.28s-4.32-5.88-4.32-10.54c0-3.38,0.82-6.36,2.47-8.92c1.65-2.56,4.08-4.54,7.3-5.95
		c3.22-1.4,7.11-2.1,11.69-2.1c8.26,0,15.19,2.38,20.77,7.14l-7.96,9.83c-3.96-2.99-7.9-4.48-11.8-4.48c-1.65,0-2.91,0.25-3.8,0.75
		c-0.88,0.5-1.33,1.21-1.33,2.13c0,0.7,0.26,1.27,0.78,1.69c0.52,0.43,1.28,0.79,2.29,1.08s2.52,0.65,4.53,1.07
		c3.81,0.85,6.98,1.84,9.51,2.95c2.53,1.11,4.57,2.72,6.13,4.83c1.56,2.1,2.33,4.88,2.33,8.33c0,3.69-0.88,6.85-2.65,9.49
		c-1.77,2.64-4.35,4.65-7.73,6.04c-3.38,1.39-7.46,2.08-12.21,2.08C189.24,515.85,185.06,515.22,181.26,513.95z"/>
	<path d="M251.8,512.03c-2.58-2.55-3.87-6.32-3.87-11.32v-23.92h-6.18v-12.9h7.14l0.82-11.71l16.06-1.24v12.95h8.97v12.9h-8.97
		v18.57c0,2.01,0.3,3.48,0.91,4.41c0.61,0.93,1.62,1.4,3.02,1.4c1.56,0,3.02-0.15,4.39-0.46l1.19,13.31
		c-2.26,0.61-4.38,1.07-6.38,1.37c-2,0.3-4.08,0.46-6.24,0.46C257.99,515.85,254.37,514.58,251.8,512.03z"/>
	<path d="M282.33,475.6c0-2.04-0.05-4.19-0.16-6.43c-0.11-2.24-0.24-4-0.39-5.28h16.74c0.18,0.92,0.36,2.18,0.53,3.8
		c0.17,1.62,0.25,2.88,0.25,3.8h0.18c1.34-2.74,3-4.86,4.96-6.33c1.97-1.48,4.52-2.22,7.66-2.22c1.68,0,3.25,0.29,4.71,0.87
		l-0.78,16.19c-0.95-0.24-1.85-0.44-2.7-0.59c-0.85-0.15-1.81-0.23-2.88-0.23c-3.2,0-5.74,0.94-7.62,2.81
		c-1.88,1.88-2.81,4.96-2.81,9.26v23.69h-17.7V475.6z"/>
	<path d="M326.13,513.79c-2.36-1.37-4.18-3.26-5.44-5.67c-1.27-2.41-1.9-5.17-1.9-8.28c0-5.25,1.65-9.21,4.94-11.89
		c3.29-2.68,8.14-4.12,14.55-4.3l10.02-0.27v-1.24c0-3.69-2.33-5.53-7-5.53c-2.32,0-4.42,0.5-6.31,1.51
		c-1.89,1.01-3.78,2.29-5.67,3.84l-7.5-10.84c2.81-2.29,6.03-4.19,9.67-5.72c3.64-1.53,7.94-2.29,12.88-2.29
		c7.26,0,12.79,1.62,16.6,4.87c3.81,3.25,5.72,8.53,5.72,15.85v11.44c0,7.9,0.15,14.45,0.46,19.67h-17.25
		c-0.24-2.5-0.37-4.74-0.37-6.72h-0.27c-1.49,2.35-3.41,4.21-5.74,5.58s-5.36,2.06-9.08,2.06
		C331.26,515.85,328.49,515.16,326.13,513.79z M344.88,501.9c1.08-0.88,1.92-2.08,2.52-3.59c0.59-1.51,0.89-3.15,0.89-4.92v-0.18
		h-5.4c-2.26,0-3.95,0.44-5.08,1.33c-1.13,0.88-1.69,2.12-1.69,3.71c0,1.59,0.44,2.81,1.33,3.68c0.88,0.87,2.13,1.3,3.75,1.3
		C342.57,503.23,343.8,502.78,344.88,501.9z"/>
	<path d="M376.79,475.32c0-2.13-0.05-4.24-0.16-6.31c-0.11-2.07-0.24-3.78-0.39-5.12h17.15c0.18,0.98,0.37,2.39,0.55,4.23
		c0.18,1.84,0.27,3.21,0.27,4.09h0.18c1.77-3.2,3.99-5.55,6.66-7.04c2.67-1.49,5.88-2.24,9.63-2.24c5.79,0,10.02,1.7,12.69,5.1
		c2.67,3.4,4,8.07,4,14.02v32.89h-17.79v-27.81c0-2.99-0.52-5.27-1.56-6.84c-1.04-1.57-2.78-2.36-5.21-2.36
		c-2.68,0-4.73,0.9-6.13,2.7c-1.4,1.8-2.1,4.36-2.1,7.68v26.62h-17.79V475.32z"/>
	<path d="M443.78,513.95c-3.8-1.27-7.07-3.03-9.81-5.28l7.09-11.62c2.53,1.86,4.94,3.31,7.23,4.35c2.29,1.04,4.91,1.56,7.87,1.56
		c3.63,0,5.44-0.87,5.44-2.61c0-0.79-0.34-1.44-1.03-1.94c-0.69-0.5-1.62-0.93-2.81-1.28s-3.06-0.82-5.63-1.4
		c-4.97-1.16-8.9-2.92-11.78-5.28s-4.32-5.88-4.32-10.54c0-3.38,0.82-6.36,2.47-8.92c1.65-2.56,4.08-4.54,7.3-5.95
		c3.22-1.4,7.11-2.1,11.69-2.1c8.26,0,15.19,2.38,20.77,7.14l-7.96,9.83c-3.96-2.99-7.9-4.48-11.8-4.48c-1.65,0-2.91,0.25-3.8,0.75
		c-0.88,0.5-1.33,1.21-1.33,2.13c0,0.7,0.26,1.27,0.78,1.69c0.52,0.43,1.28,0.79,2.29,1.08c1.01,0.29,2.52,0.65,4.53,1.07
		c3.81,0.85,6.98,1.84,9.51,2.95c2.53,1.11,4.57,2.72,6.13,4.83c1.55,2.1,2.33,4.88,2.33,8.33c0,3.69-0.88,6.85-2.65,9.49
		c-1.77,2.64-4.35,4.65-7.73,6.04c-3.39,1.39-7.46,2.08-12.21,2.08C451.76,515.85,447.57,515.22,443.78,513.95z"/>
	<path d="M490.07,513.79c-2.36-1.37-4.18-3.26-5.44-5.67s-1.9-5.17-1.9-8.28c0-5.25,1.65-9.21,4.94-11.89
		c3.29-2.68,8.14-4.12,14.55-4.3l10.02-0.27v-1.24c0-3.69-2.33-5.53-7-5.53c-2.32,0-4.42,0.5-6.31,1.51
		c-1.89,1.01-3.78,2.29-5.67,3.84l-7.5-10.84c2.81-2.29,6.03-4.19,9.67-5.72c3.64-1.53,7.94-2.29,12.88-2.29
		c7.26,0,12.79,1.62,16.61,4.87c3.81,3.25,5.72,8.53,5.72,15.85v11.44c0,7.9,0.15,14.45,0.46,19.67h-17.25
		c-0.24-2.5-0.37-4.74-0.37-6.72h-0.27c-1.49,2.35-3.41,4.21-5.74,5.58s-5.36,2.06-9.08,2.06
		C495.2,515.85,492.43,515.16,490.07,513.79z M508.82,501.9c1.08-0.88,1.92-2.08,2.52-3.59c0.59-1.51,0.89-3.15,0.89-4.92v-0.18
		h-5.4c-2.26,0-3.95,0.44-5.08,1.33c-1.13,0.88-1.69,2.12-1.69,3.71c0,1.59,0.44,2.81,1.33,3.68c0.88,0.87,2.13,1.3,3.75,1.3
		C506.51,503.23,507.74,502.78,508.82,501.9z"/>
	<path d="M549.6,512.58c-3.96-2.18-6.97-5.25-9.01-9.19c-2.04-3.95-3.07-8.53-3.07-13.75c0-5.67,1.11-10.51,3.32-14.52
		c2.21-4.01,5.31-7.04,9.29-9.1s8.59-3.09,13.84-3.09c5.31,0,9.87,1.05,13.68,3.16c3.81,2.1,6.56,4.89,8.23,8.37l-12.44,7.96
		c-1.04-1.74-2.18-3.09-3.43-4.05c-1.25-0.96-2.85-1.44-4.8-1.44c-2.78,0-4.96,1.02-6.54,3.07c-1.59,2.04-2.38,5.02-2.38,8.92
		c0,4.12,0.8,7.24,2.4,9.35s3.74,3.18,6.43,3.18c1.65,0,3.09-0.24,4.32-0.71c1.23-0.47,2.28-1.07,3.13-1.78
		c0.85-0.72,1.8-1.64,2.84-2.77l10.48,9.47c-2.29,3.05-5.3,5.51-9.03,7.39c-3.74,1.88-8.06,2.81-12.97,2.81
		C558.33,515.85,553.57,514.76,549.6,512.58z M575.4,525.14c0,2.75-1.06,4.98-3.18,6.7c-2.12,1.72-5.92,2.58-11.41,2.58
		c-1.92,0-3.83-0.09-5.72-0.27v-6.68c0.64,0.09,1.42,0.17,2.33,0.23c0.92,0.06,1.66,0.09,2.24,0.09c1.83,0,3.1-0.22,3.82-0.66
		c0.72-0.44,1.08-1.08,1.08-1.9c0-0.98-0.37-1.69-1.12-2.13c-0.75-0.44-2.1-0.66-4.05-0.66h-1.88l2.7-7.5h8.37l-1.28,3.06
		C572.7,518.82,575.4,521.2,575.4,525.14z"/>
	<path d="M599.44,512.28c-4.04-2.38-7.08-5.58-9.13-9.61c-2.04-4.03-3.07-8.49-3.07-13.4c0-4.76,0.99-9.13,2.97-13.13
		c1.98-3.99,5.01-7.2,9.08-9.61s9.11-3.61,15.12-3.61c6.34,0,11.53,1.2,15.58,3.59c4.04,2.39,6.98,5.57,8.83,9.51
		c1.84,3.95,2.77,8.36,2.77,13.24c0,4.85-1.01,9.29-3.04,13.31c-2.03,4.03-5.1,7.24-9.22,9.65c-4.12,2.41-9.18,3.61-15.19,3.61
		C608.38,515.85,603.48,514.66,599.44,512.28z M595.23,452.86c0.47-2.2,1.53-4.15,3.18-5.88c1.65-1.72,4.1-2.58,7.37-2.58
		c1.46,0,2.92,0.27,4.37,0.8c1.45,0.53,3.24,1.32,5.38,2.36c1.55,0.76,2.74,1.3,3.57,1.62c0.82,0.32,1.57,0.48,2.24,0.48
		c1.28,0,2.2-0.4,2.74-1.21c0.55-0.81,0.99-2.16,1.33-4.05h7.96c0,4.21-0.73,7.9-2.2,11.07c-1.46,3.17-4.51,4.76-9.15,4.76
		c-1.37,0-2.75-0.26-4.14-0.78c-1.39-0.52-3.15-1.28-5.28-2.29c-1.46-0.73-2.66-1.28-3.59-1.65c-0.93-0.37-1.75-0.55-2.45-0.55
		c-0.98,0-1.72,0.19-2.24,0.57c-0.52,0.38-0.9,0.92-1.14,1.6c-0.24,0.69-0.49,1.71-0.73,3.09h-8.05
		C594.48,457.51,594.76,455.06,595.23,452.86z M620.71,498.58c1.45-2.21,2.17-5.31,2.17-9.31c0-3.9-0.68-6.94-2.04-9.1
		c-1.36-2.17-3.44-3.25-6.24-3.25c-2.93,0-5.09,1.08-6.5,3.25c-1.4,2.17-2.1,5.2-2.1,9.1c0,3.9,0.69,6.98,2.06,9.24
		c1.37,2.26,3.37,3.38,5.99,3.38C617.04,501.9,619.26,500.79,620.71,498.58z"/>
	<path d="M654.38,509.42c-4.77-4.28-7.16-10.82-7.16-19.6c0-6.04,1.12-11.06,3.36-15.07s5.32-6.98,9.24-8.92
		c3.92-1.94,8.41-2.91,13.47-2.91c8.17,0,14.13,2.31,17.89,6.93c3.75,4.62,5.63,10.74,5.63,18.37c0,1.65-0.09,3.55-0.28,5.72h-30.46
		c0.15,2.99,1.02,5.24,2.61,6.75c1.58,1.51,4.05,2.26,7.41,2.26c2.04,0,3.93-0.33,5.67-1.01c1.74-0.67,4.01-1.91,6.82-3.71
		l6.72,11.44c-3.02,1.95-6.1,3.47-9.24,4.55c-3.14,1.08-7.03,1.62-11.66,1.62C665.82,515.85,659.15,513.71,654.38,509.42z
		 M679.65,483.1c-0.18-5.18-2.36-7.78-6.54-7.78c-2.04,0-3.67,0.66-4.89,1.97c-1.22,1.31-1.94,3.25-2.15,5.81H679.65z"/>
	<path d="M710.09,513.95c-3.8-1.27-7.07-3.03-9.81-5.28l7.09-11.62c2.53,1.86,4.94,3.31,7.23,4.35c2.29,1.04,4.91,1.56,7.87,1.56
		c3.63,0,5.44-0.87,5.44-2.61c0-0.79-0.34-1.44-1.03-1.94c-0.69-0.5-1.62-0.93-2.81-1.28s-3.06-0.82-5.63-1.4
		c-4.97-1.16-8.9-2.92-11.78-5.28s-4.32-5.88-4.32-10.54c0-3.38,0.82-6.36,2.47-8.92c1.65-2.56,4.08-4.54,7.3-5.95
		c3.22-1.4,7.11-2.1,11.69-2.1c8.26,0,15.19,2.38,20.77,7.14l-7.96,9.83c-3.96-2.99-7.9-4.48-11.8-4.48c-1.65,0-2.91,0.25-3.8,0.75
		c-0.88,0.5-1.33,1.21-1.33,2.13c0,0.7,0.26,1.27,0.78,1.69c0.52,0.43,1.28,0.79,2.29,1.08c1.01,0.29,2.52,0.65,4.53,1.07
		c3.81,0.85,6.98,1.84,9.51,2.95c2.53,1.11,4.57,2.72,6.13,4.83c1.55,2.1,2.33,4.88,2.33,8.33c0,3.69-0.88,6.85-2.65,9.49
		c-1.77,2.64-4.35,4.65-7.73,6.04c-3.39,1.39-7.46,2.08-12.21,2.08C718.08,515.85,713.89,515.22,710.09,513.95z"/>
</g>
<g>
	<path d="M57.04,556.69h40.12l10.46,37.93c0.62,2.34,1.33,5.39,2.15,9.14c0.82,3.75,1.49,7.08,2.02,10
		c0.53-2.87,1.22-6.16,2.09-9.86c0.86-3.71,1.62-6.64,2.28-8.8l10.66-38.4h39.06v93.28h-25.09v-45.95c0-8.34,0.18-15.76,0.53-22.24
		c-1.46,6.05-3.75,14.54-6.89,25.49l-12.05,42.7h-22.11l-11.92-42.7c-3.18-10.95-5.45-19.44-6.82-25.49
		c0.26,8.25,0.4,15.67,0.4,22.24v45.95H57.04V556.69z"/>
	<path d="M190.3,641.63c-7.42-6.44-11.12-16.17-11.12-29.2v-55.74h27.14v53.82c0,5.83,1.38,10.26,4.14,13.31
		c2.76,3.04,6.9,4.57,12.41,4.57c5.65,0,9.91-1.6,12.78-4.8c2.87-3.2,4.3-7.78,4.3-13.74v-53.16h27.08v55.02
		c0,8.7-1.81,15.99-5.43,21.88c-3.62,5.89-8.79,10.32-15.52,13.27c-6.73,2.96-14.75,4.44-24.06,4.44
		C208.29,651.3,197.72,648.08,190.3,641.63z"/>
	<path d="M280.34,556.69h31.84l32.51,62.5c-0.53-3.93-0.79-11.7-0.79-23.3v-39.19h24.96v93.28h-32.24l-31.91-59.91
		c0.35,8.65,0.53,17.46,0.53,26.42v33.5h-24.89V556.69z"/>
	<path d="M383.82,556.69h38.73c16.42,0,28.95,3.77,37.6,11.32c8.65,7.55,12.98,19.09,12.98,34.62c0,10.02-2.04,18.58-6.12,25.69
		c-4.08,7.11-9.84,12.49-17.28,16.15c-7.44,3.66-16.08,5.5-25.92,5.5h-39.99V556.69z M422.55,627.47c7.46,0,13.12-2.1,16.98-6.29
		c3.86-4.19,5.79-10.28,5.79-18.27c0-7.63-1.91-13.49-5.73-17.58c-3.82-4.08-9.63-6.12-17.45-6.12h-11.25v48.26H422.55z"/>
	<path d="M484.71,556.69h27.08v93.28h-27.08V556.69z"/>
	<path d="M586.67,632.1h-32.24L549,649.97h-27.28l32.37-93.28h33.37l32.31,93.28h-27.67L586.67,632.1z M580.51,611.71l-6.88-22.77
		c-1.55-4.9-2.58-8.61-3.11-11.12c-0.49,2.25-1.48,5.96-2.98,11.12l-6.89,22.77H580.51z"/>
	<path d="M629.23,556.69h27.08v93.28h-27.08V556.69z"/>
	<path d="M684.41,646.96c-7.26-2.89-13.23-7.14-17.91-12.74l16.29-16.35c3.53,3.8,7.4,6.78,11.62,8.94
		c4.21,2.16,9.37,3.24,15.46,3.24c4.24,0,7.36-0.51,9.37-1.52c2.01-1.01,3.01-2.67,3.01-4.96c0-1.81-0.74-3.31-2.22-4.5
		c-1.48-1.19-3.53-2.2-6.16-3.01c-2.63-0.82-6.34-1.75-11.16-2.81c-6.09-1.37-11.35-3.06-15.79-5.06
		c-4.44-2.01-8.09-4.95-10.96-8.84c-2.87-3.88-4.3-8.92-4.3-15.09c0-6.31,1.57-11.63,4.7-15.96c3.13-4.33,7.57-7.57,13.31-9.73
		c5.74-2.16,12.47-3.24,20.19-3.24c7.77,0,14.82,1.12,21.15,3.34c6.33,2.23,11.66,5.68,15.99,10.36l-15.16,16.15
		c-3.49-3.13-7.04-5.5-10.66-7.08c-3.62-1.59-7.66-2.38-12.12-2.38c-7.15,0-10.72,2.16-10.72,6.49c0,1.63,0.61,2.94,1.82,3.91
		c1.21,0.97,2.9,1.77,5.06,2.38c2.16,0.62,5.38,1.37,9.67,2.25c7.06,1.46,12.93,3.13,17.61,5.03c4.68,1.9,8.54,4.86,11.58,8.87
		c3.05,4.02,4.57,9.47,4.57,16.35c0,6.27-1.46,11.67-4.37,16.22c-2.91,4.55-7.29,8.03-13.14,10.46c-5.85,2.43-13.08,3.64-21.68,3.64
		C700.03,651.3,691.67,649.85,684.41,646.96z"/>
</g>
</svg>
