<?xml version="1.0" encoding="utf-8"?>
<!-- Generator: Adobe Illustrator 24.0.2, SVG Export Plug-In . SVG Version: 6.00 Build 0)  -->
<svg version="1.1" id="Layer_1" xmlns="http://www.w3.org/2000/svg" xmlns:xlink="http://www.w3.org/1999/xlink" x="0px" y="0px"
	 viewBox="0 0 800 800" style="enable-background:new 0 0 800 800;" xml:space="preserve">
<g>
	<path d="M98.46,244.83H49.51v-39.62h48.95v-50.48h39.75v50.48h49.59v39.62h-49.59v50.48H98.46V244.83z"/>
	<path d="M239.88,308.15c-10.52-4.3-18.58-10.42-24.15-18.34c-5.58-7.92-8.37-17.25-8.37-27.99c0-8.26,1.6-15.55,4.79-21.85
		c3.2-6.3,7.41-11.33,12.65-15.08c5.24-3.75,10.88-6.09,16.93-7.03v-0.51c-9.12-2.13-16.42-6.75-21.92-13.87
		c-5.5-7.11-8.24-15.7-8.24-25.75c0-9.97,2.77-18.6,8.31-25.88c5.54-7.28,13.31-12.86,23.32-16.74c10.01-3.88,21.62-5.81,34.83-5.81
		c13.72,0,25.47,2.02,35.28,6.07c9.8,4.05,17.23,9.74,22.3,17.06c5.07,7.33,7.61,15.76,7.61,25.31c0,6.82-1.28,12.99-3.83,18.53
		c-2.56,5.54-6.13,10.14-10.74,13.8c-4.6,3.66-9.84,6.09-15.72,7.29v0.51c6.9,1.02,12.97,3.43,18.21,7.22
		c5.24,3.79,9.31,8.75,12.21,14.89s4.35,13.16,4.35,21.09c0,10.99-2.77,20.49-8.31,28.5c-5.54,8.01-13.59,14.19-24.16,18.53
		c-10.57,4.35-23.13,6.52-37.7,6.52S250.4,312.46,239.88,308.15z M291.58,274.92c3.41-3.45,5.11-8.46,5.11-15.02
		c0-6.13-1.58-11.14-4.73-15.02c-3.15-3.88-8.05-5.82-14.7-5.82c-6.64,0-11.52,1.94-14.63,5.82c-3.11,3.88-4.67,8.88-4.67,15.02
		c0,6.65,1.68,11.67,5.05,15.08c3.37,3.41,8.12,5.11,14.25,5.11S288.17,278.38,291.58,274.92z M289.92,194.15
		c2.89-3.2,4.35-7.52,4.35-12.97c0-5.62-1.47-9.95-4.41-12.97c-2.94-3.02-7.14-4.54-12.59-4.54s-9.65,1.51-12.59,4.54
		c-2.94,3.03-4.41,7.35-4.41,12.97c0,5.45,1.45,9.78,4.35,12.97c2.9,3.19,7.11,4.79,12.65,4.79S287.02,197.35,289.92,194.15z"/>
	<path d="M500.67,271.79v40.26H363.15V277.8l61.35-54.19c7.41-6.56,12.76-12.23,16.04-17c3.28-4.77,4.92-9.92,4.92-15.46
		c0-5.2-1.47-9.5-4.41-12.91c-2.94-3.41-7.78-5.11-14.51-5.11c-5.88,0-11.48,1.51-16.81,4.54c-5.33,3.03-10.8,7.69-16.42,14
		l-30.42-30.93c7.24-9.71,16.81-17.38,28.69-23.01s25.54-8.44,40.96-8.44c14.65,0,26.82,2.45,36.49,7.35
		c9.67,4.9,16.78,11.4,21.34,19.49c4.56,8.1,6.84,16.96,6.84,26.58c0,9.2-1.62,17.7-4.86,25.5c-3.24,7.8-7.71,15-13.42,21.6
		c-5.71,6.6-12.87,13.53-21.47,20.77l-25.56,21.22H500.67z"/>
	<path d="M526.36,227.25c-8.78-8.73-13.16-22.85-13.16-42.37c0-20.36,4.32-34.72,12.97-43.07c8.65-8.35,20.64-12.52,35.98-12.52
		c32.46,0,48.7,18.53,48.7,55.6c0,19.34-4.5,33.42-13.48,42.24c-8.99,8.82-20.9,13.23-35.72,13.23
		C546.89,240.35,535.13,235.99,526.36,227.25z M569.68,209.81c1.87-1.53,3.24-4.26,4.09-8.18c0.85-3.92,1.28-9.5,1.28-16.74
		c0-7.16-0.43-12.65-1.28-16.49c-0.85-3.83-2.2-6.5-4.03-7.99c-1.83-1.49-4.37-2.24-7.61-2.24c-3.58,0-6.33,0.77-8.24,2.3
		c-1.92,1.53-3.28,4.2-4.09,7.99c-0.81,3.79-1.21,9.27-1.21,16.42s0.43,12.67,1.28,16.55c0.85,3.88,2.21,6.63,4.09,8.24
		c1.87,1.62,4.52,2.43,7.92,2.43C565.21,212.11,567.81,211.34,569.68,209.81z M671.29,131.97h34.13L588.6,312.05h-34L671.29,131.97z
		 M662.47,301.57c-8.78-8.69-13.16-22.83-13.16-42.43c0-20.36,4.32-34.7,12.97-43.01c8.65-8.31,20.64-12.46,35.98-12.46
		c14.82,0,26.65,4.2,35.46,12.59c8.82,8.39,13.23,22.69,13.23,42.88c0,19.34-4.49,33.42-13.48,42.24
		c-8.99,8.82-20.9,13.23-35.72,13.23C683.01,314.61,671.25,310.26,662.47,301.57z M705.8,284.06c1.87-1.53,3.24-4.26,4.09-8.18
		c0.85-3.92,1.28-9.5,1.28-16.74c0-7.16-0.43-12.65-1.28-16.49s-2.19-6.5-4.03-7.99c-1.83-1.49-4.37-2.24-7.6-2.24
		c-3.58,0-6.33,0.77-8.24,2.3s-3.28,4.2-4.09,7.99c-0.81,3.79-1.21,9.27-1.21,16.42c0,7.16,0.43,12.67,1.28,16.55
		c0.85,3.88,2.21,6.63,4.09,8.24c1.87,1.62,4.51,2.43,7.92,2.43C701.33,286.36,703.92,285.6,705.8,284.06z"/>
</g>
<g>
	<path d="M51.38,408.06c-2.83-1.99-5-4.85-6.51-8.58c-1.52-3.73-2.28-8.16-2.28-13.27c0-5.83,0.84-10.75,2.52-14.76
		c1.68-4.01,3.99-7.02,6.94-9.01c2.95-1.99,6.32-2.99,10.13-2.99c3.42,0,6.19,0.59,8.3,1.76s3.91,2.79,5.4,4.84h0.18
		c-0.06-1.22-0.09-3.11-0.09-5.66v-17.17H93.3v54.99c0,3.69,0.12,7.67,0.36,11.95H76.58c-0.3-2.23-0.45-4.42-0.45-6.56h-0.18
		c-1.34,2.23-3.22,4.03-5.64,5.4c-2.42,1.37-5.42,2.05-8.99,2.05C57.52,411.04,54.2,410.05,51.38,408.06z M73.99,394.41
		c1.43-1.96,2.14-5.08,2.14-9.37c0-3.9-0.67-6.86-2.01-8.9c-1.34-2.04-3.23-3.05-5.66-3.05c-2.17,0-3.98,0.97-5.42,2.92
		c-1.44,1.95-2.16,5.17-2.16,9.66c0,4.01,0.69,6.97,2.07,8.85c1.38,1.89,3.13,2.83,5.24,2.83
		C70.63,397.35,72.56,396.37,73.99,394.41z"/>
	<path d="M108.76,409.04c-2.3-1.34-4.07-3.18-5.31-5.53c-1.23-2.35-1.85-5.04-1.85-8.07c0-5.11,1.61-8.98,4.82-11.6
		c3.21-2.62,7.94-4.01,14.18-4.19l9.77-0.27v-1.2c0-3.6-2.27-5.4-6.82-5.4c-2.26,0-4.31,0.49-6.15,1.47s-3.69,2.23-5.53,3.75
		l-7.31-10.57c2.74-2.23,5.88-4.09,9.43-5.58c3.55-1.49,7.74-2.23,12.55-2.23c7.08,0,12.47,1.58,16.19,4.75
		c3.72,3.17,5.57,8.32,5.57,15.45v11.15c0,7.7,0.15,14.09,0.45,19.18h-16.81c-0.24-2.44-0.36-4.62-0.36-6.56h-0.27
		c-1.46,2.29-3.32,4.1-5.6,5.44s-5.23,2.01-8.85,2.01C113.76,411.04,111.06,410.38,108.76,409.04z M127.04,397.44
		c1.05-0.86,1.87-2.03,2.45-3.5s0.87-3.07,0.87-4.79v-0.18h-5.26c-2.2,0-3.85,0.43-4.95,1.29c-1.1,0.86-1.65,2.07-1.65,3.61
		s0.43,2.74,1.29,3.59c0.86,0.85,2.08,1.27,3.66,1.27C124.79,398.73,125.99,398.3,127.04,397.44z"/>
	<path d="M180.72,372.33c0-3.69-0.18-7.67-0.54-11.95h16.99c0.15,0.59,0.3,1.57,0.47,2.92c0.16,1.35,0.24,2.47,0.24,3.37h0.18
		c1.46-2.08,3.41-3.81,5.87-5.17c2.45-1.37,5.43-2.05,8.94-2.05c3.96,0,7.31,0.99,10.08,2.97c2.77,1.98,4.87,4.87,6.31,8.67
		c1.44,3.81,2.16,8.43,2.16,13.87c0,5.5-0.78,10.21-2.34,14.12c-1.56,3.91-3.82,6.88-6.78,8.92c-2.96,2.04-6.51,3.05-10.64,3.05
		c-3.15,0-5.92-0.65-8.32-1.96c-2.39-1.31-4.16-2.87-5.29-4.68h-0.27c0.06,0.71,0.12,1.7,0.18,2.94c0.06,1.25,0.09,2.45,0.09,3.61
		v18.2h-17.35V372.33z M211.03,394.52c1.41-1.95,2.12-5.14,2.12-9.57c0-2.82-0.34-5.12-1.03-6.89c-0.69-1.77-1.57-3.04-2.65-3.81
		c-1.09-0.77-2.27-1.16-3.54-1.16c-2.23,0-4.13,0.9-5.69,2.7s-2.34,4.97-2.34,9.52c0,4.55,0.74,7.71,2.21,9.48
		c1.47,1.77,3.38,2.65,5.73,2.65C207.88,397.44,209.62,396.47,211.03,394.52z"/>
	<path d="M240.09,371.8c0-1.99-0.05-4.08-0.16-6.27c-0.11-2.19-0.23-3.9-0.38-5.15h16.32c0.18,0.89,0.35,2.13,0.51,3.7
		c0.16,1.58,0.24,2.81,0.24,3.7h0.18c1.31-2.68,2.92-4.74,4.84-6.18s4.41-2.16,7.47-2.16c1.63,0,3.17,0.28,4.59,0.85l-0.76,15.79
		c-0.92-0.24-1.8-0.43-2.63-0.58c-0.83-0.15-1.77-0.22-2.81-0.22c-3.12,0-5.6,0.92-7.43,2.74c-1.83,1.83-2.74,4.84-2.74,9.03v23.1
		h-17.26V371.8z"/>
	<path d="M287.39,407.57c-3.94-2.32-6.91-5.44-8.9-9.37c-1.99-3.92-2.99-8.28-2.99-13.07c0-4.64,0.96-8.91,2.9-12.8
		c1.93-3.89,4.88-7.02,8.85-9.37c3.97-2.35,8.88-3.52,14.74-3.52c6.19,0,11.25,1.17,15.19,3.5c3.94,2.33,6.81,5.43,8.61,9.28
		s2.7,8.16,2.7,12.91c0,4.73-0.99,9.05-2.97,12.98c-1.98,3.92-4.97,7.06-8.99,9.41c-4.01,2.35-8.95,3.52-14.81,3.52
		C296.11,411.04,291.33,409.88,287.39,407.57z M308.13,394.21c1.41-2.16,2.12-5.18,2.12-9.08c0-3.81-0.66-6.76-1.98-8.88
		c-1.32-2.11-3.35-3.17-6.09-3.17c-2.86,0-4.97,1.06-6.33,3.17c-1.37,2.11-2.05,5.07-2.05,8.88c0,3.81,0.67,6.81,2.01,9.01
		s3.29,3.3,5.84,3.3C304.55,397.44,306.71,396.36,308.13,394.21z"/>
	<path d="M342.76,408.06c-2.82-1.99-4.99-4.85-6.51-8.58c-1.52-3.73-2.27-8.16-2.27-13.27c0-5.83,0.84-10.75,2.52-14.76
		c1.68-4.01,3.99-7.02,6.94-9.01s6.32-2.99,10.13-2.99c3.42,0,6.18,0.59,8.29,1.76s3.91,2.79,5.4,4.84h0.18
		c-0.06-1.22-0.09-3.11-0.09-5.66v-17.17h17.35v54.99c0,3.69,0.12,7.67,0.36,11.95h-17.08c-0.3-2.23-0.45-4.42-0.45-6.56h-0.18
		c-1.34,2.23-3.22,4.03-5.64,5.4c-2.42,1.37-5.42,2.05-8.99,2.05C348.9,411.04,345.59,410.05,342.76,408.06z M365.37,394.41
		c1.43-1.96,2.14-5.08,2.14-9.37c0-3.9-0.67-6.86-2.01-8.9c-1.34-2.04-3.23-3.05-5.66-3.05c-2.17,0-3.98,0.97-5.42,2.92
		c-1.44,1.95-2.16,5.17-2.16,9.66c0,4.01,0.69,6.97,2.07,8.85c1.38,1.89,3.13,2.83,5.24,2.83
		C362.01,397.35,363.95,396.37,365.37,394.41z"/>
	<path d="M399.58,406.21c-2.62-3.37-3.93-7.96-3.93-13.76v-32.07h17.35v27.12c0,2.91,0.51,5.14,1.52,6.67
		c1.01,1.53,2.69,2.3,5.04,2.3c2.65,0,4.65-0.88,6-2.63c1.35-1.75,2.03-4.27,2.03-7.54v-25.91h17.39V399c0,2.05,0.05,4.1,0.16,6.15
		c0.1,2.05,0.23,3.72,0.38,5H428.8c-0.18-0.95-0.36-2.33-0.54-4.13c-0.18-1.8-0.27-3.13-0.27-3.99h-0.18
		c-1.72,3.18-3.88,5.52-6.47,7c-2.59,1.49-5.74,2.23-9.46,2.23C406.3,411.27,402.2,409.58,399.58,406.21z"/>
	<path d="M465.33,407.86c-3.87-2.13-6.79-5.11-8.79-8.96c-1.99-3.85-2.99-8.32-2.99-13.4c0-5.53,1.08-10.25,3.23-14.16
		c2.15-3.91,5.17-6.87,9.05-8.88c3.88-2.01,8.38-3.01,13.49-3.01c5.17,0,9.62,1.03,13.34,3.08s6.39,4.77,8.03,8.16l-12.13,7.76
		c-1.01-1.69-2.13-3.01-3.35-3.95c-1.22-0.94-2.78-1.4-4.68-1.4c-2.71,0-4.83,1-6.38,2.99c-1.54,1.99-2.32,4.89-2.32,8.7
		c0,4.01,0.78,7.05,2.34,9.12s3.65,3.1,6.27,3.1c1.61,0,3.01-0.23,4.21-0.69c1.21-0.46,2.22-1.04,3.06-1.74
		c0.83-0.7,1.75-1.6,2.76-2.7l10.21,9.23c-2.23,2.97-5.17,5.37-8.81,7.2c-3.64,1.83-7.86,2.74-12.64,2.74
		C473.83,411.04,469.19,409.98,465.33,407.86z M490.48,420.1c0,2.68-1.03,4.85-3.1,6.53c-2.07,1.68-5.78,2.52-11.13,2.52
		c-1.87,0-3.73-0.09-5.58-0.27v-6.51c0.63,0.09,1.38,0.16,2.28,0.22s1.62,0.09,2.19,0.09c1.78,0,3.03-0.22,3.72-0.65
		c0.7-0.43,1.05-1.05,1.05-1.85c0-0.95-0.36-1.64-1.09-2.07s-2.04-0.65-3.95-0.65h-1.83l2.63-7.31h8.16l-1.25,2.99
		C487.85,413.94,490.48,416.26,490.48,420.1z"/>
	<path d="M510.22,409.04c-2.3-1.34-4.07-3.18-5.31-5.53c-1.23-2.35-1.85-5.04-1.85-8.07c0-5.11,1.61-8.98,4.82-11.6
		c3.21-2.62,7.94-4.01,14.18-4.19l9.77-0.27v-1.2c0-3.6-2.27-5.4-6.82-5.4c-2.26,0-4.31,0.49-6.15,1.47s-3.69,2.23-5.53,3.75
		L506,367.42c2.74-2.23,5.88-4.09,9.43-5.58c3.55-1.49,7.74-2.23,12.55-2.23c7.08,0,12.47,1.58,16.19,4.75
		c3.72,3.17,5.57,8.32,5.57,15.45v11.15c0,7.7,0.15,14.09,0.45,19.18h-16.81c-0.24-2.44-0.36-4.62-0.36-6.56h-0.27
		c-1.46,2.29-3.32,4.1-5.6,5.44s-5.23,2.01-8.85,2.01C515.22,411.04,512.52,410.38,510.22,409.04z M509.37,349.63
		c0.46-2.14,1.49-4.05,3.1-5.73c1.61-1.68,4-2.52,7.18-2.52c1.43,0,2.85,0.26,4.26,0.78c1.41,0.52,3.16,1.29,5.24,2.3
		c1.52,0.74,2.68,1.27,3.48,1.58c0.8,0.31,1.53,0.47,2.19,0.47c1.25,0,2.14-0.39,2.68-1.18c0.54-0.79,0.97-2.1,1.29-3.95h7.76
		c0,4.1-0.71,7.7-2.14,10.79c-1.43,3.09-4.4,4.64-8.92,4.64c-1.34,0-2.68-0.25-4.04-0.76s-3.07-1.25-5.15-2.23
		c-1.43-0.71-2.6-1.25-3.5-1.61c-0.91-0.36-1.7-0.54-2.39-0.54c-0.95,0-1.68,0.19-2.19,0.56s-0.88,0.89-1.12,1.56
		s-0.47,1.67-0.71,3.01h-7.85C508.63,354.16,508.91,351.77,509.37,349.63z M528.5,397.44c1.05-0.86,1.87-2.03,2.45-3.5
		s0.87-3.07,0.87-4.79v-0.18h-5.26c-2.2,0-3.85,0.43-4.95,1.29c-1.1,0.86-1.65,2.07-1.65,3.61s0.43,2.74,1.29,3.59
		c0.86,0.85,2.08,1.27,3.66,1.27C526.25,398.73,527.45,398.3,528.5,397.44z"/>
	<path d="M568.38,407.57c-3.94-2.32-6.91-5.44-8.9-9.37c-1.99-3.92-2.99-8.28-2.99-13.07c0-4.64,0.96-8.91,2.9-12.8
		c1.93-3.89,4.88-7.02,8.85-9.37c3.97-2.35,8.88-3.52,14.74-3.52c6.19,0,11.25,1.17,15.19,3.5c3.94,2.33,6.81,5.43,8.61,9.28
		s2.7,8.16,2.7,12.91c0,4.73-0.99,9.05-2.97,12.98c-1.98,3.92-4.97,7.06-8.99,9.41c-4.01,2.35-8.95,3.52-14.81,3.52
		C577.1,411.04,572.32,409.88,568.38,407.57z M589.12,394.21c1.41-2.16,2.12-5.18,2.12-9.08c0-3.81-0.66-6.76-1.98-8.88
		c-1.32-2.11-3.35-3.17-6.09-3.17c-2.86,0-4.97,1.06-6.33,3.17c-1.37,2.11-2.05,5.07-2.05,8.88c0,3.81,0.67,6.81,2.01,9.01
		s3.29,3.3,5.84,3.3C585.54,397.44,587.7,396.36,589.12,394.21z"/>
	<path d="M646.59,408.06c-2.82-1.99-4.99-4.85-6.51-8.58c-1.52-3.73-2.27-8.16-2.27-13.27c0-5.83,0.84-10.75,2.52-14.76
		c1.68-4.01,3.99-7.02,6.94-9.01s6.32-2.99,10.13-2.99c3.42,0,6.18,0.59,8.29,1.76s3.91,2.79,5.4,4.84h0.18
		c-0.06-1.22-0.09-3.11-0.09-5.66v-17.17h17.35v54.99c0,3.69,0.12,7.67,0.36,11.95h-17.08c-0.3-2.23-0.45-4.42-0.45-6.56h-0.18
		c-1.34,2.23-3.22,4.03-5.64,5.4c-2.42,1.37-5.42,2.05-8.99,2.05C652.73,411.04,649.41,410.05,646.59,408.06z M669.2,394.41
		c1.43-1.96,2.14-5.08,2.14-9.37c0-3.9-0.67-6.86-2.01-8.9c-1.34-2.04-3.23-3.05-5.66-3.05c-2.17,0-3.98,0.97-5.42,2.92
		c-1.44,1.95-2.16,5.17-2.16,9.66c0,4.01,0.69,6.97,2.07,8.85c1.38,1.89,3.13,2.83,5.24,2.83
		C665.84,397.35,667.77,396.37,669.2,394.41z"/>
	<path d="M704.15,404.78c-4.65-4.18-6.98-10.55-6.98-19.11c0-5.89,1.09-10.79,3.28-14.7c2.19-3.91,5.19-6.81,9.01-8.7
		c3.82-1.89,8.2-2.83,13.13-2.83c7.97,0,13.78,2.25,17.44,6.76c3.66,4.5,5.49,10.47,5.49,17.91c0,1.61-0.09,3.46-0.27,5.58h-29.71
		c0.15,2.91,1,5.11,2.54,6.58c1.54,1.47,3.95,2.21,7.22,2.21c1.99,0,3.84-0.33,5.53-0.98c1.7-0.65,3.91-1.86,6.65-3.61l6.55,11.15
		c-2.94,1.9-5.95,3.38-9.01,4.44c-3.06,1.06-6.86,1.58-11.38,1.58C715.3,411.04,708.8,408.96,704.15,404.78z M728.79,379.11
		c-0.18-5.05-2.3-7.58-6.38-7.58c-1.99,0-3.58,0.64-4.77,1.92s-1.89,3.17-2.1,5.66H728.79z"/>
</g>
<g>
	<path d="M45.25,533.34c-3.48-2.46-6.16-5.98-8.03-10.58c-1.87-4.6-2.8-10.05-2.8-16.36c0-7.18,1.04-13.25,3.11-18.2
		c2.07-4.95,4.92-8.65,8.55-11.11c3.63-2.46,7.79-3.68,12.48-3.68c4.21,0,7.62,0.72,10.23,2.17c2.6,1.45,4.82,3.44,6.65,5.96h0.22
		c-0.07-1.5-0.11-3.83-0.11-6.98V453.4h21.39v67.79c0,4.54,0.15,9.46,0.44,14.73H76.32c-0.37-2.75-0.55-5.44-0.55-8.08h-0.22
		c-1.65,2.75-3.97,4.97-6.95,6.65c-2.99,1.69-6.68,2.53-11.08,2.53C52.82,537.02,48.74,535.79,45.25,533.34z M73.13,516.52
		c1.76-2.42,2.64-6.27,2.64-11.55c0-4.8-0.83-8.46-2.47-10.97c-1.65-2.51-3.98-3.77-6.98-3.77c-2.68,0-4.9,1.2-6.68,3.6
		c-1.78,2.4-2.67,6.37-2.67,11.9c0,4.95,0.85,8.58,2.56,10.91c1.7,2.33,3.86,3.49,6.46,3.49C68.99,520.14,71.37,518.93,73.13,516.52
		z"/>
	<path d="M116.2,529.3c-5.74-5.15-8.6-13-8.6-23.56c0-7.26,1.35-13.29,4.04-18.12c2.69-4.82,6.4-8.39,11.11-10.72
		c4.71-2.33,10.11-3.49,16.19-3.49c9.82,0,16.99,2.78,21.5,8.33c4.51,5.55,6.76,12.91,6.76,22.07c0,1.98-0.11,4.27-0.33,6.87h-36.61
		c0.18,3.59,1.23,6.29,3.13,8.11c1.91,1.81,4.87,2.72,8.91,2.72c2.46,0,4.73-0.4,6.82-1.21c2.09-0.81,4.82-2.29,8.19-4.45
		l8.08,13.74c-3.63,2.35-7.33,4.17-11.11,5.47c-3.78,1.3-8.45,1.95-14.02,1.95C129.95,537.02,121.94,534.45,116.2,529.3z
		 M146.58,497.66c-0.22-6.23-2.84-9.35-7.86-9.35c-2.46,0-4.42,0.79-5.88,2.36c-1.47,1.58-2.33,3.9-2.58,6.98H146.58z"/>
	<path d="M215.68,533.09c-4.76-2.62-8.38-6.3-10.83-11.05c-2.46-4.75-3.68-10.25-3.68-16.52c0-6.82,1.33-12.63,3.99-17.46
		c2.66-4.82,6.38-8.47,11.16-10.94c4.78-2.47,10.33-3.71,16.63-3.71c6.38,0,11.86,1.26,16.44,3.79c4.58,2.53,7.88,5.88,9.9,10.06
		l-14.95,9.57c-1.25-2.09-2.62-3.71-4.12-4.87c-1.5-1.15-3.43-1.73-5.77-1.73c-3.33,0-5.96,1.23-7.86,3.68
		c-1.91,2.46-2.86,6.03-2.86,10.72c0,4.95,0.96,8.7,2.89,11.24c1.92,2.55,4.5,3.82,7.72,3.82c1.98,0,3.71-0.28,5.19-0.85
		c1.48-0.57,2.74-1.28,3.77-2.14c1.03-0.86,2.16-1.97,3.41-3.33l12.59,11.38c-2.75,3.67-6.37,6.63-10.86,8.88s-9.68,3.38-15.58,3.38
		C226.16,537.02,220.45,535.71,215.68,533.09z"/>
	<path d="M271.01,534.55c-2.84-1.65-5.02-3.92-6.54-6.82c-1.52-2.89-2.28-6.21-2.28-9.95c0-6.3,1.98-11.07,5.94-14.29
		c3.96-3.22,9.79-4.95,17.48-5.17l12.04-0.33v-1.48c0-4.43-2.8-6.65-8.41-6.65c-2.79,0-5.31,0.6-7.59,1.81
		c-2.27,1.21-4.54,2.75-6.82,4.62l-9.02-13.03c3.37-2.75,7.25-5.04,11.63-6.87c4.38-1.83,9.54-2.75,15.48-2.75
		c8.72,0,15.38,1.95,19.96,5.85c4.58,3.9,6.87,10.25,6.87,19.05v13.74c0,9.49,0.18,17.37,0.55,23.64h-20.73
		c-0.29-3-0.44-5.7-0.44-8.08h-0.33c-1.8,2.82-4.1,5.06-6.9,6.71c-2.8,1.65-6.44,2.47-10.91,2.47
		C277.18,537.02,273.85,536.2,271.01,534.55z M293.56,520.25c1.3-1.06,2.31-2.5,3.02-4.32c0.71-1.81,1.07-3.78,1.07-5.91v-0.22
		h-6.49c-2.71,0-4.75,0.53-6.1,1.59c-1.36,1.06-2.03,2.55-2.03,4.45c0,1.91,0.53,3.38,1.59,4.43c1.06,1.04,2.57,1.57,4.51,1.57
		C290.78,521.85,292.25,521.32,293.56,520.25z"/>
	<path d="M334.6,490.07h-7.64v-15.5h7.64v-3.74c0-5.72,1.78-10.21,5.33-13.47c3.55-3.26,9.18-4.89,16.88-4.89
		c4.32,0,8.63,0.42,12.92,1.26l-1.54,14.4c-1.91-0.66-3.87-0.99-5.88-0.99c-2.27,0-3.89,0.46-4.87,1.37
		c-0.97,0.92-1.46,2.44-1.46,4.56v1.48h12.42v15.5h-12.42v45.85H334.6V490.07z"/>
	<path d="M380.03,529.3c-5.74-5.15-8.6-13-8.6-23.56c0-7.26,1.35-13.29,4.04-18.12c2.69-4.82,6.4-8.39,11.11-10.72
		c4.71-2.33,10.11-3.49,16.19-3.49c9.82,0,16.99,2.78,21.5,8.33c4.51,5.55,6.76,12.91,6.76,22.07c0,1.98-0.11,4.27-0.33,6.87h-36.61
		c0.18,3.59,1.23,6.29,3.13,8.11c1.91,1.81,4.87,2.72,8.91,2.72c2.46,0,4.73-0.4,6.82-1.21c2.09-0.81,4.82-2.29,8.19-4.45
		l8.08,13.74c-3.63,2.35-7.33,4.17-11.11,5.47c-3.78,1.3-8.45,1.95-14.02,1.95C393.79,537.02,385.77,534.45,380.03,529.3z
		 M392.1,467.37l13.74-16.22h18.47v3.13l-18.58,15.34H392.1V467.37z M410.41,497.66c-0.22-6.23-2.84-9.35-7.86-9.35
		c-2.46,0-4.42,0.79-5.88,2.36c-1.47,1.58-2.33,3.9-2.58,6.98H410.41z"/>
	<path d="M473.6,529.3c-5.74-5.15-8.6-13-8.6-23.56c0-7.26,1.35-13.29,4.04-18.12c2.69-4.82,6.4-8.39,11.11-10.72
		c4.71-2.33,10.11-3.49,16.19-3.49c9.82,0,16.99,2.78,21.5,8.33c4.51,5.55,6.76,12.91,6.76,22.07c0,1.98-0.11,4.27-0.33,6.87h-36.61
		c0.18,3.59,1.23,6.29,3.13,8.11c1.91,1.81,4.87,2.72,8.91,2.72c2.46,0,4.73-0.4,6.82-1.21c2.09-0.81,4.82-2.29,8.19-4.45
		l8.08,13.74c-3.63,2.35-7.33,4.17-11.11,5.47c-3.78,1.3-8.45,1.95-14.02,1.95C487.36,537.02,479.34,534.45,473.6,529.3z
		 M503.98,497.66c-0.22-6.23-2.84-9.35-7.86-9.35c-2.46,0-4.42,0.79-5.88,2.36c-1.47,1.58-2.33,3.9-2.58,6.98H503.98z"/>
	<path d="M573.08,533.09c-4.76-2.62-8.38-6.3-10.83-11.05c-2.46-4.75-3.68-10.25-3.68-16.52c0-6.82,1.33-12.63,3.99-17.46
		c2.66-4.82,6.38-8.47,11.16-10.94c4.78-2.47,10.33-3.71,16.63-3.71c6.38,0,11.86,1.26,16.44,3.79c4.58,2.53,7.88,5.88,9.9,10.06
		l-14.95,9.57c-1.25-2.09-2.62-3.71-4.12-4.87c-1.5-1.15-3.43-1.73-5.77-1.73c-3.33,0-5.96,1.23-7.86,3.68
		c-1.91,2.46-2.86,6.03-2.86,10.72c0,4.95,0.96,8.7,2.89,11.24c1.92,2.55,4.5,3.82,7.72,3.82c1.98,0,3.71-0.28,5.19-0.85
		c1.48-0.57,2.74-1.28,3.77-2.14c1.03-0.86,2.16-1.97,3.41-3.33l12.59,11.38c-2.75,3.67-6.37,6.63-10.86,8.88s-9.68,3.38-15.58,3.38
		C583.56,537.02,577.85,535.71,573.08,533.09z"/>
	<path d="M623.88,453.4h21.39v21.61c0,3.59-0.11,6.52-0.33,8.8h0.22c2.02-3.48,4.61-6.08,7.78-7.81c3.17-1.72,7.06-2.58,11.68-2.58
		c7.04,0,12.14,2.03,15.31,6.1s4.76,9.7,4.76,16.88v39.53H663.3V502.5c0-3.59-0.62-6.33-1.87-8.22c-1.25-1.89-3.34-2.83-6.27-2.83
		c-3.23,0-5.68,1.08-7.37,3.24c-1.69,2.16-2.53,5.24-2.53,9.24v32h-21.39V453.4z"/>
	<path d="M702.64,534.55c-2.84-1.65-5.02-3.92-6.54-6.82c-1.52-2.89-2.28-6.21-2.28-9.95c0-6.3,1.98-11.07,5.94-14.29
		c3.96-3.22,9.79-4.95,17.48-5.17l12.04-0.33v-1.48c0-4.43-2.8-6.65-8.41-6.65c-2.79,0-5.31,0.6-7.59,1.81
		c-2.27,1.21-4.54,2.75-6.82,4.62l-9.02-13.03c3.37-2.75,7.25-5.04,11.63-6.87c4.38-1.83,9.54-2.75,15.48-2.75
		c8.72,0,15.38,1.95,19.96,5.85c4.58,3.9,6.87,10.25,6.87,19.05v13.74c0,9.49,0.18,17.37,0.55,23.64H731.2
		c-0.29-3-0.44-5.7-0.44-8.08h-0.33c-1.8,2.82-4.1,5.06-6.9,6.71c-2.8,1.65-6.44,2.47-10.91,2.47
		C708.8,537.02,705.48,536.2,702.64,534.55z M725.18,520.25c1.3-1.06,2.31-2.5,3.02-4.32c0.71-1.81,1.07-3.78,1.07-5.91v-0.22h-6.49
		c-2.71,0-4.75,0.53-6.1,1.59c-1.36,1.06-2.03,2.55-2.03,4.45c0,1.91,0.53,3.38,1.59,4.43c1.06,1.04,2.57,1.57,4.51,1.57
		C722.4,521.85,723.88,521.32,725.18,520.25z M714.7,467.37l13.74-16.22h18.47v3.13l-18.58,15.34H714.7V467.37z"/>
</g>
<g>
	<path d="M41.79,577.88h44.75l11.67,42.31c0.69,2.61,1.49,6.01,2.4,10.19c0.91,4.18,1.66,7.9,2.25,11.15c0.59-3.2,1.37-6.87,2.33-11
		c0.96-4.13,1.81-7.41,2.55-9.82l11.89-42.83h43.57v104.05H135.2v-51.25c0-9.3,0.2-17.57,0.59-24.81
		c-1.63,6.75-4.19,16.22-7.68,28.43l-13.44,47.63H90.01l-13.29-47.63c-3.54-12.21-6.08-21.68-7.61-28.43
		c0.29,9.21,0.44,17.48,0.44,24.81v51.25H41.79V577.88z"/>
	<path d="M190.44,672.62c-8.27-7.19-12.41-18.04-12.41-32.56v-62.18h30.28v60.04c0,6.5,1.54,11.45,4.62,14.84
		c3.08,3.4,7.69,5.09,13.85,5.09c6.3,0,11.05-1.78,14.25-5.35c3.2-3.57,4.8-8.68,4.8-15.32v-59.3h30.2v61.36
		c0,9.7-2.02,17.83-6.06,24.41c-4.04,6.57-9.81,11.51-17.32,14.81c-7.51,3.3-16.46,4.95-26.84,4.95
		C210.5,683.4,198.71,679.81,190.44,672.62z"/>
	<path d="M290.87,577.88h35.52l36.26,69.71c-0.59-4.38-0.89-13.04-0.89-25.99v-43.72h27.84v104.05h-35.96l-35.59-66.83
		c0.39,9.65,0.59,19.47,0.59,29.46v37.37h-27.76V577.88z"/>
	<path d="M406.28,577.88h43.2c18.31,0,32.29,4.21,41.94,12.63c9.65,8.42,14.47,21.29,14.47,38.62c0,11.18-2.28,20.73-6.83,28.65
		c-4.55,7.93-10.98,13.93-19.27,18.02c-8.3,4.09-17.93,6.13-28.91,6.13h-44.6V577.88z M449.48,656.82c8.32,0,14.63-2.34,18.94-7.02
		c4.31-4.68,6.46-11.47,6.46-20.38c0-8.52-2.13-15.05-6.39-19.61c-4.26-4.55-10.74-6.83-19.46-6.83h-12.55v53.83H449.48z"/>
	<path d="M518.82,577.88h30.2v104.05h-30.2V577.88z"/>
	<path d="M632.54,661.99h-35.96l-6.05,19.94H560.1l36.11-104.05h37.22l36.04,104.05H638.6L632.54,661.99z M625.67,639.24l-7.68-25.4
		c-1.72-5.46-2.88-9.6-3.47-12.41c-0.54,2.51-1.65,6.65-3.32,12.41l-7.68,25.4H625.67z"/>
	<path d="M680.02,577.88h30.2v78.94h43.71v25.11h-73.92V577.88z"/>
</g>
</svg>
