<?xml version="1.0" encoding="utf-8"?>
<!-- Generator: Adobe Illustrator 24.0.2, SVG Export Plug-In . SVG Version: 6.00 Build 0)  -->
<svg version="1.1" id="Layer_1" xmlns="http://www.w3.org/2000/svg" xmlns:xlink="http://www.w3.org/1999/xlink" x="0px" y="0px"
	 viewBox="0 0 800 800" style="enable-background:new 0 0 800 800;" xml:space="preserve">
<g>
	<path d="M80.4,328.71H34.79v-36.92H80.4v-47.05h37.04v47.05h46.21v36.92h-46.21v47.05H80.4V328.71z"/>
	<path d="M250.73,364.09h-73.13v-37.16l66.82-103.38h49.43v104.69h19.77v35.85h-19.77v27.28h-43.12V364.09z M250.73,328.24v-36.68
		c0-3.33,0.08-7.46,0.24-12.39c0.16-4.92,0.4-8.73,0.71-11.43c-1.19,2.54-2.7,5.46-4.53,8.75c-1.83,3.3-3.5,6.13-5,8.52
		l-20.96,33.23c-2.14,3.65-4.33,6.99-6.55,10H250.73z"/>
	<path d="M346.96,381.95c-10.32-7.86-17.35-17.83-21.08-29.9l35.38-16.08c3.33,7.15,7.17,12.47,11.49,15.96
		c4.33,3.5,9.87,5.24,16.62,5.24c6.27,0,11.14-1.51,14.59-4.53c3.45-3.02,5.18-7.42,5.18-13.22c0-6.11-2.28-10.46-6.85-13.04
		c-4.57-2.58-10.1-3.87-16.62-3.87h-13.93v-32.16h12.03c6.99,0,12.39-1.29,16.2-3.87c3.81-2.58,5.72-6.97,5.72-13.16
		c0-5.4-1.57-9.47-4.7-12.21c-3.14-2.74-7.52-4.11-13.16-4.11c-5.96,0-10.74,1.55-14.35,4.65c-3.61,3.1-7.09,7.78-10.42,14.05
		l-34.18-17.03c4.53-12.7,12.27-22.15,23.23-28.35c10.96-6.19,24.42-9.29,40.38-9.29c13.26,0,24.32,1.93,33.17,5.78
		c8.85,3.85,15.42,9.17,19.71,15.96c4.29,6.79,6.43,14.67,6.43,23.64c0,20.33-11.24,33.11-33.71,38.35v0.48
		c13.18,1.91,22.83,6.27,28.94,13.1c6.11,6.83,9.17,15.56,9.17,26.2c0,9.69-2.38,18.22-7.15,25.61
		c-4.76,7.38-11.95,13.16-21.56,17.33c-9.61,4.17-21.44,6.25-35.49,6.25C372.29,393.75,357.29,389.81,346.96,381.95z"/>
	<path d="M597.21,223.54v35.14l-59.08,132.68h-47.05l60.51-131.02h-73.85v-36.8H597.21z"/>
	<path d="M624.36,212.58h46.33v93.86l35.14-48h53.72l-45.14,53.12l48,79.8h-53.96l-27.04-50.74l-10.72,10.24v40.5h-46.33V212.58z"/>
</g>
<g>
	<path d="M49.1,558.15c-8.17-4.49-14.35-10.8-18.56-18.94c-4.21-8.13-6.31-17.57-6.31-28.31c0-11.68,2.28-21.65,6.83-29.92
		c4.55-8.26,10.93-14.51,19.13-18.75c8.2-4.24,17.7-6.36,28.5-6.36c10.93,0,20.32,2.17,28.17,6.5c7.85,4.33,13.5,10.08,16.96,17.24
		l-25.63,16.39c-2.14-3.58-4.49-6.36-7.07-8.34c-2.58-1.98-5.87-2.97-9.89-2.97c-5.72,0-10.21,2.11-13.47,6.31
		c-3.27,4.21-4.9,10.33-4.9,18.37c0,8.48,1.65,14.9,4.95,19.27c3.3,4.37,7.71,6.55,13.24,6.55c3.39,0,6.36-0.49,8.9-1.46
		c2.54-0.97,4.69-2.2,6.45-3.67c1.76-1.47,3.71-3.38,5.84-5.7l21.58,19.5c-4.71,6.28-10.91,11.35-18.61,15.22
		c-7.7,3.86-16.6,5.79-26.71,5.79C67.06,564.89,57.26,562.64,49.1,558.15z"/>
	<path d="M142.37,556.46c-5.15-5.24-7.73-12.96-7.73-23.13V421.58h36.65v105.15c0,2.83,0.52,4.95,1.55,6.36
		c1.04,1.41,2.97,2.12,5.79,2.12c1.19,0,2.86-0.19,4.99-0.56l1.13,27.98c-5.78,1.13-11.81,1.7-18.09,1.7
		C155.62,564.32,147.52,561.7,142.37,556.46z"/>
	<path d="M209.03,448.39c-2.98-1.54-5.32-3.72-7.02-6.55c-1.7-2.83-2.54-6.06-2.54-9.7c0-3.64,0.85-6.91,2.54-9.8
		c1.7-2.89,4.04-5.15,7.02-6.78c2.98-1.63,6.36-2.45,10.13-2.45c3.64,0,6.94,0.82,9.89,2.45c2.95,1.63,5.28,3.9,6.97,6.78
		c1.7,2.89,2.54,6.16,2.54,9.8c0,3.58-0.85,6.77-2.54,9.56c-1.7,2.8-4.02,4.99-6.97,6.6c-2.95,1.6-6.25,2.4-9.89,2.4
		C215.39,450.69,212.01,449.93,209.03,448.39z M200.98,457.86h36.65V563h-36.65V457.86z"/>
	<path d="M269.9,551.65c-9.83-8.82-14.75-22.28-14.75-40.37c0-12.44,2.31-22.79,6.93-31.04c4.62-8.26,10.96-14.38,19.03-18.37
		c8.07-3.99,17.32-5.98,27.75-5.98c16.83,0,29.11,4.76,36.84,14.27c7.73,9.52,11.59,22.13,11.59,37.83c0,3.39-0.19,7.32-0.57,11.78
		h-62.75c0.31,6.16,2.1,10.79,5.37,13.9c3.27,3.11,8.35,4.66,15.26,4.66c4.21,0,8.1-0.69,11.68-2.07c3.58-1.38,8.26-3.92,14.04-7.63
		l13.85,23.55c-6.22,4.02-12.56,7.15-19.03,9.38c-6.47,2.23-14.48,3.34-24.03,3.34C293.47,564.89,279.73,560.48,269.9,551.65z
		 M321.95,497.43c-0.38-10.68-4.87-16.02-13.47-16.02c-4.21,0-7.57,1.35-10.08,4.05c-2.51,2.7-3.99,6.69-4.43,11.97H321.95z"/>
	<path d="M373.87,481.41c0-4.4-0.11-8.73-0.33-13c-0.22-4.27-0.49-7.79-0.8-10.55h35.33c0.38,2.01,0.75,4.92,1.13,8.71
		c0.38,3.8,0.57,6.61,0.57,8.43h0.38c3.64-6.6,8.21-11.43,13.71-14.51c5.5-3.08,12.11-4.62,19.83-4.62
		c11.93,0,20.65,3.5,26.15,10.51c5.5,7,8.24,16.63,8.24,28.88V563h-36.65v-57.29c0-6.16-1.07-10.85-3.2-14.08
		c-2.14-3.23-5.72-4.85-10.74-4.85c-5.53,0-9.74,1.85-12.63,5.56c-2.89,3.71-4.33,8.98-4.33,15.83V563h-36.65V481.41z"/>
	<path d="M510.53,557.02c-5.31-5.24-7.96-13.02-7.96-23.32v-49.28h-12.72v-26.57h14.7l1.7-24.12l33.07-2.54v26.66h18.47v26.57
		h-18.47v38.25c0,4.15,0.63,7.18,1.88,9.09c1.26,1.92,3.33,2.87,6.22,2.87c3.2,0,6.22-0.31,9.04-0.94l2.45,27.42
		c-4.65,1.26-9.03,2.2-13.14,2.83c-4.12,0.63-8.4,0.94-12.86,0.94C523.3,564.89,515.84,562.27,510.53,557.02z"/>
	<path d="M583.55,551.65c-9.83-8.82-14.75-22.28-14.75-40.37c0-12.44,2.31-22.79,6.93-31.04c4.62-8.26,10.96-14.38,19.03-18.37
		c8.07-3.99,17.32-5.98,27.75-5.98c16.83,0,29.11,4.76,36.84,14.27c7.73,9.52,11.59,22.13,11.59,37.83c0,3.39-0.19,7.32-0.57,11.78
		h-62.75c0.31,6.16,2.1,10.79,5.37,13.9c3.27,3.11,8.35,4.66,15.26,4.66c4.21,0,8.1-0.69,11.68-2.07c3.58-1.38,8.26-3.92,14.04-7.63
		l13.85,23.55c-6.22,4.02-12.56,7.15-19.03,9.38c-6.47,2.23-14.48,3.34-24.03,3.34C607.12,564.89,593.38,560.48,583.55,551.65z
		 M635.61,497.43c-0.38-10.68-4.87-16.02-13.47-16.02c-4.21,0-7.57,1.35-10.08,4.05c-2.51,2.7-3.99,6.69-4.43,11.97H635.61z"/>
	<path d="M698.31,560.98c-7.82-2.61-14.56-6.23-20.21-10.88l14.6-23.93c5.21,3.83,10.18,6.82,14.89,8.95
		c4.71,2.14,10.11,3.2,16.21,3.2c7.47,0,11.21-1.79,11.21-5.37c0-1.63-0.71-2.97-2.12-4c-1.41-1.04-3.34-1.92-5.79-2.64
		c-2.45-0.72-6.31-1.68-11.59-2.87c-10.24-2.39-18.33-6.01-24.26-10.88c-5.94-4.87-8.9-12.11-8.9-21.72c0-6.97,1.7-13.1,5.09-18.37
		c3.39-5.28,8.4-9.36,15.03-12.25c6.63-2.89,14.65-4.33,24.07-4.33c17.02,0,31.28,4.9,42.78,14.7l-16.39,20.26
		c-8.17-6.15-16.27-9.23-24.31-9.23c-3.39,0-6,0.52-7.82,1.55c-1.82,1.04-2.73,2.5-2.73,4.38c0,1.45,0.53,2.61,1.6,3.49
		c1.07,0.88,2.64,1.62,4.71,2.21c2.07,0.6,5.18,1.33,9.33,2.21c7.85,1.76,14.38,3.79,19.6,6.08c5.21,2.29,9.42,5.61,12.63,9.94
		c3.2,4.33,4.81,10.05,4.81,17.15c0,7.6-1.82,14.12-5.46,19.55c-3.64,5.43-8.95,9.58-15.92,12.44c-6.97,2.86-15.36,4.29-25.16,4.29
		C714.75,564.89,706.13,563.58,698.31,560.98z"/>
</g>
</svg>
