<?xml version="1.0" encoding="utf-8"?>
<!-- Generator: Adobe Illustrator 24.0.2, SVG Export Plug-In . SVG Version: 6.00 Build 0)  -->
<svg version="1.1" id="Layer_1" xmlns="http://www.w3.org/2000/svg" xmlns:xlink="http://www.w3.org/1999/xlink" x="0px" y="0px"
	 viewBox="0 0 800 800" style="enable-background:new 0 0 800 800;" xml:space="preserve">
<g>
	<path d="M231.65,434.25H52.81v-90.88l163.4-252.82h120.88v256.03h48.35v87.67h-48.35v66.7H231.65V434.25z M231.65,346.58v-89.71
		c0-8.16,0.19-18.25,0.58-30.29c0.39-12.04,0.97-21.36,1.75-27.96c-2.91,6.22-6.6,13.35-11.07,21.41c-4.47,8.06-8.55,15-12.23,20.83
		l-51.26,81.26c-5.24,8.93-10.59,17.09-16.02,24.47H231.65z"/>
	<path d="M724.47,90.55v85.92L580,500.95H464.95l147.96-320.4H432.33v-90H724.47z"/>
</g>
<g>
	<path d="M65,613.03c-2.18-1.26-3.85-3.01-5.02-5.23c-1.17-2.22-1.75-4.76-1.75-7.63c0-4.83,1.52-8.49,4.55-10.96
		c3.03-2.47,7.5-3.79,13.4-3.96l9.23-0.25v-1.14c0-3.4-2.15-5.1-6.45-5.1c-2.14,0-4.07,0.46-5.82,1.39
		c-1.74,0.93-3.48,2.11-5.23,3.54l-6.91-9.99c2.58-2.11,5.56-3.86,8.92-5.27c3.36-1.41,7.31-2.11,11.87-2.11
		c6.69,0,11.79,1.5,15.3,4.49c3.51,2.99,5.27,7.86,5.27,14.61v10.54c0,7.28,0.14,13.32,0.42,18.13H86.9
		c-0.23-2.3-0.34-4.37-0.34-6.2h-0.25c-1.38,2.16-3.14,3.88-5.29,5.14s-4.94,1.9-8.37,1.9C69.73,614.93,67.18,614.3,65,613.03z
		 M82.28,602.07c1-0.81,1.77-1.92,2.32-3.31s0.82-2.9,0.82-4.53v-0.17h-4.97c-2.08,0-3.64,0.41-4.68,1.22
		c-1.04,0.82-1.56,1.95-1.56,3.41c0,1.46,0.41,2.59,1.22,3.39c0.81,0.8,1.97,1.2,3.46,1.2C80.15,603.3,81.28,602.89,82.28,602.07z"
		/>
	<path d="M111.68,577.58c0-1.97-0.05-3.91-0.15-5.82c-0.1-1.91-0.22-3.48-0.36-4.72h15.81c0.17,0.9,0.34,2.2,0.51,3.9
		c0.17,1.7,0.25,2.96,0.25,3.77h0.17c1.63-2.95,3.67-5.11,6.13-6.49c2.46-1.38,5.42-2.07,8.87-2.07c5.34,0,9.24,1.57,11.7,4.7
		c2.46,3.13,3.69,7.44,3.69,12.92v30.31h-16.4v-25.63c0-2.75-0.48-4.85-1.43-6.3c-0.96-1.45-2.56-2.17-4.81-2.17
		c-2.47,0-4.36,0.83-5.65,2.49c-1.29,1.66-1.94,4.02-1.94,7.08v24.53h-16.4V577.58z"/>
	<path d="M176.87,611.64c-3.72-2.19-6.53-5.14-8.41-8.85c-1.88-3.71-2.82-7.83-2.82-12.35c0-4.38,0.91-8.42,2.74-12.1
		c1.83-3.68,4.62-6.63,8.37-8.85c3.75-2.22,8.4-3.33,13.93-3.33c5.84,0,10.63,1.1,14.35,3.31c3.72,2.21,6.44,5.13,8.14,8.77
		c1.7,3.64,2.55,7.71,2.55,12.2c0,4.47-0.93,8.56-2.8,12.27c-1.87,3.71-4.7,6.67-8.49,8.89c-3.79,2.22-8.46,3.33-13.99,3.33
		C185.11,614.93,180.59,613.83,176.87,611.64z M196.47,599.02c1.33-2.04,2-4.9,2-8.58c0-3.6-0.63-6.39-1.88-8.39
		c-1.25-2-3.17-2.99-5.75-2.99c-2.7,0-4.69,1-5.99,2.99c-1.29,2-1.94,4.79-1.94,8.39c0,3.6,0.63,6.44,1.9,8.51
		c1.26,2.08,3.1,3.12,5.52,3.12C193.09,602.07,195.13,601.06,196.47,599.02z"/>
	<path d="M228.67,613.18c-3.5-1.17-6.51-2.79-9.04-4.87l6.53-10.71c2.33,1.71,4.55,3.05,6.66,4c2.11,0.96,4.52,1.43,7.25,1.43
		c3.34,0,5.02-0.8,5.02-2.4c0-0.73-0.32-1.33-0.95-1.79c-0.63-0.46-1.5-0.86-2.59-1.18c-1.1-0.32-2.82-0.75-5.18-1.29
		c-4.58-1.07-8.2-2.69-10.85-4.87c-2.66-2.18-3.98-5.42-3.98-9.72c0-3.12,0.76-5.86,2.28-8.22c1.52-2.36,3.76-4.19,6.72-5.48
		c2.96-1.29,6.55-1.94,10.77-1.94c7.62,0,13.99,2.19,19.14,6.58l-7.33,9.06c-3.65-2.75-7.28-4.13-10.88-4.13
		c-1.52,0-2.68,0.23-3.5,0.7c-0.82,0.46-1.22,1.12-1.22,1.96c0,0.65,0.24,1.17,0.72,1.56c0.48,0.39,1.18,0.72,2.11,0.99
		c0.93,0.27,2.32,0.6,4.17,0.99c3.51,0.79,6.43,1.69,8.77,2.72c2.33,1.03,4.22,2.51,5.65,4.45c1.43,1.94,2.15,4.5,2.15,7.67
		c0,3.4-0.81,6.32-2.44,8.75c-1.63,2.43-4,4.29-7.12,5.56s-6.87,1.92-11.25,1.92C236.03,614.93,232.17,614.35,228.67,613.18z"/>
	<path d="M294.79,612.11c-2.67-1.88-4.72-4.59-6.15-8.11c-1.43-3.53-2.15-7.71-2.15-12.54c0-5.51,0.79-10.16,2.38-13.95
		c1.59-3.79,3.77-6.63,6.55-8.51c2.78-1.88,5.97-2.82,9.57-2.82c3.23,0,5.84,0.56,7.84,1.67c2,1.11,3.69,2.63,5.1,4.57h0.17
		c-0.06-1.15-0.08-2.94-0.08-5.35v-16.23h16.4v51.97c0,3.49,0.11,7.25,0.34,11.3H318.6c-0.28-2.11-0.42-4.17-0.42-6.2h-0.17
		c-1.26,2.11-3.04,3.81-5.33,5.1c-2.29,1.29-5.12,1.94-8.49,1.94C300.59,614.93,297.46,613.99,294.79,612.11z M316.16,599.21
		c1.35-1.85,2.02-4.8,2.02-8.85c0-3.68-0.63-6.48-1.9-8.41s-3.05-2.89-5.35-2.89c-2.05,0-3.76,0.92-5.12,2.76
		c-1.36,1.84-2.04,4.88-2.04,9.13c0,3.79,0.65,6.58,1.96,8.37c1.31,1.79,2.96,2.68,4.95,2.68
		C312.98,601.99,314.81,601.06,316.16,599.21z"/>
	<path d="M349.19,609.01c-4.4-3.95-6.6-9.97-6.6-18.06c0-5.56,1.03-10.19,3.1-13.89s4.9-6.43,8.51-8.22
		c3.61-1.78,7.75-2.68,12.41-2.68c7.53,0,13.02,2.13,16.48,6.39c3.46,4.26,5.18,9.9,5.18,16.92c0,1.52-0.08,3.27-0.25,5.27h-28.07
		c0.14,2.75,0.94,4.83,2.4,6.22c1.46,1.39,3.74,2.09,6.83,2.09c1.88,0,3.63-0.31,5.23-0.93c1.6-0.62,3.69-1.76,6.28-3.42l6.2,10.54
		c-2.78,1.8-5.62,3.2-8.52,4.19c-2.89,1-6.48,1.5-10.75,1.5C359.73,614.93,353.58,612.96,349.19,609.01z M372.48,584.75
		c-0.17-4.78-2.18-7.17-6.03-7.17c-1.88,0-3.39,0.61-4.51,1.81c-1.12,1.21-1.78,2.99-1.98,5.35H372.48z"/>
	<path d="M417.28,550.82h16.4v16.57c0,2.75-0.08,5-0.25,6.74h0.17c1.54-2.67,3.53-4.66,5.96-5.99c2.43-1.32,5.42-1.98,8.96-1.98
		c5.39,0,9.31,1.56,11.74,4.68c2.43,3.12,3.65,7.43,3.65,12.94v30.31h-16.4v-25.63c0-2.75-0.48-4.85-1.43-6.3
		c-0.96-1.45-2.56-2.17-4.81-2.17c-2.47,0-4.36,0.83-5.65,2.49c-1.29,1.66-1.94,4.02-1.94,7.08v24.53h-16.4V550.82z"/>
	<path d="M477.71,562.81c-1.34-0.69-2.38-1.67-3.14-2.93s-1.14-2.71-1.14-4.34s0.38-3.09,1.14-4.38c0.76-1.29,1.8-2.3,3.14-3.04
		c1.33-0.73,2.84-1.1,4.53-1.1c1.63,0,3.1,0.37,4.43,1.1c1.32,0.73,2.36,1.74,3.12,3.04c0.76,1.29,1.14,2.75,1.14,4.38
		c0,1.6-0.38,3.03-1.14,4.28c-0.76,1.25-1.8,2.23-3.12,2.95c-1.32,0.72-2.8,1.08-4.43,1.08
		C480.55,563.84,479.04,563.5,477.71,562.81z M474.1,567.05h16.4v47.04h-16.4V567.05z"/>
	<path d="M506.12,613.18c-3.5-1.17-6.51-2.79-9.04-4.87l6.53-10.71c2.33,1.71,4.55,3.05,6.66,4s4.52,1.43,7.25,1.43
		c3.34,0,5.02-0.8,5.02-2.4c0-0.73-0.32-1.33-0.95-1.79c-0.63-0.46-1.5-0.86-2.59-1.18s-2.82-0.75-5.18-1.29
		c-4.58-1.07-8.2-2.69-10.85-4.87c-2.66-2.18-3.98-5.42-3.98-9.72c0-3.12,0.76-5.86,2.28-8.22s3.76-4.19,6.72-5.48
		c2.96-1.29,6.55-1.94,10.77-1.94c7.62,0,13.99,2.19,19.14,6.58l-7.33,9.06c-3.65-2.75-7.28-4.13-10.88-4.13
		c-1.52,0-2.68,0.23-3.5,0.7c-0.82,0.46-1.22,1.12-1.22,1.96c0,0.65,0.24,1.17,0.72,1.56s1.18,0.72,2.11,0.99
		c0.93,0.27,2.32,0.6,4.17,0.99c3.51,0.79,6.43,1.69,8.77,2.72c2.33,1.03,4.22,2.51,5.65,4.45c1.43,1.94,2.15,4.5,2.15,7.67
		c0,3.4-0.82,6.32-2.45,8.75s-4,4.29-7.12,5.56s-6.87,1.92-11.25,1.92C513.47,614.93,509.62,614.35,506.12,613.18z"/>
	<path d="M550.38,611.41c-2.38-2.35-3.56-5.82-3.56-10.43v-22.04h-5.69v-11.89h6.58l0.76-10.79l14.8-1.14v11.93h8.26v11.89h-8.26
		v17.11c0,1.85,0.28,3.21,0.84,4.07c0.56,0.86,1.49,1.29,2.78,1.29c1.43,0,2.78-0.14,4.05-0.42l1.1,12.27
		c-2.08,0.56-4.04,0.98-5.88,1.26c-1.84,0.28-3.76,0.42-5.75,0.42C556.09,614.93,552.75,613.76,550.38,611.41z"/>
	<path d="M587.47,611.64c-3.72-2.19-6.53-5.14-8.41-8.85c-1.88-3.71-2.82-7.83-2.82-12.35c0-4.38,0.91-8.42,2.74-12.1
		c1.83-3.68,4.62-6.63,8.37-8.85c3.75-2.22,8.39-3.33,13.93-3.33c5.84,0,10.63,1.1,14.35,3.31c3.72,2.21,6.43,5.13,8.14,8.77
		c1.7,3.64,2.55,7.71,2.55,12.2c0,4.47-0.93,8.56-2.8,12.27c-1.87,3.71-4.7,6.67-8.49,8.89c-3.79,2.22-8.46,3.33-13.99,3.33
		C595.71,614.93,591.19,613.83,587.47,611.64z M607.07,599.02c1.33-2.04,2-4.9,2-8.58c0-3.6-0.63-6.39-1.88-8.39
		c-1.25-2-3.17-2.99-5.75-2.99c-2.7,0-4.69,1-5.99,2.99c-1.29,2-1.94,4.79-1.94,8.39c0,3.6,0.63,6.44,1.9,8.51
		c1.26,2.08,3.11,3.12,5.52,3.12C603.69,602.07,605.74,601.06,607.07,599.02z M593.64,561.52l10.54-12.43h14.16v2.4l-14.25,11.76
		h-10.45V561.52z"/>
	<path d="M634.53,577.84c0-1.88-0.05-3.86-0.15-5.92c-0.1-2.07-0.22-3.69-0.36-4.87h15.43c0.17,0.84,0.33,2.01,0.48,3.5
		c0.15,1.49,0.23,2.66,0.23,3.5h0.17c1.24-2.53,2.76-4.47,4.57-5.84s4.17-2.04,7.06-2.04c1.54,0,2.99,0.27,4.34,0.8l-0.72,14.92
		c-0.87-0.22-1.7-0.41-2.49-0.55c-0.79-0.14-1.67-0.21-2.66-0.21c-2.95,0-5.29,0.86-7.02,2.59c-1.73,1.73-2.59,4.57-2.59,8.54v21.83
		h-16.31V577.84z"/>
	<path d="M675.78,562.81c-1.34-0.69-2.38-1.67-3.14-2.93s-1.14-2.71-1.14-4.34s0.38-3.09,1.14-4.38c0.76-1.29,1.8-2.3,3.14-3.04
		c1.33-0.73,2.84-1.1,4.53-1.1c1.63,0,3.1,0.37,4.43,1.1c1.32,0.73,2.36,1.74,3.12,3.04c0.76,1.29,1.14,2.75,1.14,4.38
		c0,1.6-0.38,3.03-1.14,4.28c-0.76,1.25-1.8,2.23-3.12,2.95c-1.32,0.72-2.8,1.08-4.43,1.08
		C678.62,563.84,677.11,563.5,675.78,562.81z M672.17,567.05h16.4v47.04h-16.4V567.05z"/>
	<path d="M702.84,613.03c-2.18-1.26-3.85-3.01-5.02-5.23s-1.75-4.76-1.75-7.63c0-4.83,1.52-8.49,4.55-10.96
		c3.04-2.47,7.5-3.79,13.4-3.96l9.23-0.25v-1.14c0-3.4-2.15-5.1-6.45-5.1c-2.14,0-4.08,0.46-5.82,1.39
		c-1.74,0.93-3.49,2.11-5.23,3.54l-6.91-9.99c2.59-2.11,5.56-3.86,8.92-5.27c3.36-1.41,7.31-2.11,11.87-2.11
		c6.69,0,11.79,1.5,15.3,4.49c3.51,2.99,5.27,7.86,5.27,14.61v10.54c0,7.28,0.14,13.32,0.42,18.13h-15.89
		c-0.23-2.3-0.34-4.37-0.34-6.2h-0.25c-1.38,2.16-3.14,3.88-5.29,5.14c-2.15,1.26-4.94,1.9-8.37,1.9
		C707.57,614.93,705.02,614.3,702.84,613.03z M720.12,602.07c1-0.81,1.77-1.92,2.32-3.31c0.55-1.39,0.82-2.9,0.82-4.53v-0.17h-4.97
		c-2.08,0-3.64,0.41-4.68,1.22c-1.04,0.82-1.56,1.95-1.56,3.41c0,1.46,0.41,2.59,1.22,3.39s1.97,1.2,3.46,1.2
		C717.99,603.3,719.12,602.89,720.12,602.07z"/>
</g>
<g>
	<path d="M70.19,738.95c-6.52-5.85-9.77-14.77-9.77-26.76c0-8.24,1.53-15.1,4.59-20.58c3.06-5.47,7.27-9.53,12.62-12.18
		c5.35-2.64,11.48-3.97,18.39-3.97c11.16,0,19.3,3.15,24.42,9.46s7.68,14.67,7.68,25.08c0,2.25-0.13,4.85-0.38,7.81h-41.6
		c0.21,4.08,1.39,7.15,3.56,9.21c2.16,2.06,5.54,3.09,10.12,3.09c2.79,0,5.37-0.46,7.75-1.37c2.37-0.92,5.47-2.6,9.31-5.06
		l9.18,15.61c-4.12,2.67-8.33,4.74-12.62,6.21c-4.29,1.48-9.6,2.22-15.93,2.22C85.81,747.73,76.71,744.8,70.19,738.95z
		 M104.7,703.01c-0.25-7.08-3.23-10.62-8.93-10.62c-2.79,0-5.02,0.9-6.68,2.69c-1.67,1.79-2.65,4.43-2.94,7.93H104.7z"/>
	<path d="M176.31,670.5c-1.98-1.02-3.53-2.47-4.65-4.34c-1.12-1.87-1.69-4.02-1.69-6.43c0-2.41,0.56-4.58,1.69-6.5
		c1.12-1.92,2.67-3.41,4.65-4.5c1.98-1.08,4.22-1.62,6.71-1.62c2.41,0,4.6,0.54,6.56,1.62c1.96,1.08,3.5,2.58,4.62,4.5
		c1.12,1.92,1.69,4.08,1.69,6.5c0,2.37-0.56,4.49-1.69,6.34c-1.12,1.85-2.67,3.31-4.62,4.37c-1.96,1.06-4.14,1.59-6.56,1.59
		C180.52,672.03,178.28,671.52,176.31,670.5z M170.97,676.78h24.3v69.7h-24.3V676.78z"/>
	<path d="M211.25,692.39c0-2.91-0.07-5.79-0.22-8.62c-0.15-2.83-0.32-5.16-0.53-7h23.42c0.25,1.33,0.5,3.26,0.75,5.78
		s0.37,4.38,0.37,5.59h0.25c2.41-4.37,5.44-7.58,9.09-9.62c3.64-2.04,8.03-3.06,13.15-3.06c7.91,0,13.69,2.32,17.33,6.96
		c3.64,4.64,5.47,11.02,5.47,19.14v44.91h-24.3V708.5c0-4.08-0.71-7.19-2.12-9.34c-1.42-2.14-3.79-3.22-7.12-3.22
		c-3.66,0-6.45,1.23-8.37,3.69c-1.92,2.46-2.87,5.96-2.87,10.49v36.35h-24.3V692.39z"/>
	<path d="M307.84,742.86c-5.52-3.25-9.67-7.62-12.46-13.12c-2.79-5.5-4.18-11.6-4.18-18.3c0-6.5,1.35-12.47,4.06-17.93
		c2.71-5.45,6.84-9.83,12.4-13.12c5.56-3.29,12.44-4.93,20.64-4.93c8.66,0,15.75,1.63,21.27,4.9c5.52,3.27,9.53,7.6,12.05,12.99
		c2.52,5.39,3.78,11.42,3.78,18.08c0,6.62-1.38,12.68-4.15,18.17c-2.77,5.5-6.96,9.89-12.59,13.18c-5.62,3.29-12.53,4.93-20.74,4.93
		C320.05,747.73,313.36,746.1,307.84,742.86z M336.89,724.15c1.98-3.02,2.97-7.25,2.97-12.71c0-5.33-0.93-9.47-2.78-12.43
		c-1.85-2.96-4.69-4.43-8.53-4.43c-4,0-6.95,1.48-8.87,4.43c-1.92,2.96-2.87,7.1-2.87,12.43c0,5.33,0.94,9.54,2.81,12.62
		c1.87,3.08,4.6,4.62,8.18,4.62C331.88,728.68,334.91,727.17,336.89,724.15z"/>
	<path d="M367.21,676.78h25.98l8.31,32.35c1.71,6.87,2.94,12.37,3.68,16.49c0.33-2.12,0.8-4.4,1.41-6.84s1.43-5.57,2.47-9.4
		l8.68-32.6h25.79l-23.73,69.7h-29.85L367.21,676.78z"/>
	<path d="M456.37,744.92c-3.23-1.87-5.71-4.46-7.43-7.75c-1.73-3.29-2.59-7.06-2.59-11.3c0-7.16,2.25-12.57,6.75-16.24
		c4.5-3.66,11.12-5.62,19.86-5.87l13.68-0.38v-1.69c0-5.04-3.19-7.56-9.56-7.56c-3.17,0-6.04,0.69-8.62,2.06
		c-2.58,1.37-5.16,3.12-7.75,5.25l-10.24-14.8c3.83-3.12,8.23-5.72,13.21-7.81c4.98-2.08,10.84-3.12,17.58-3.12
		c9.91,0,17.47,2.22,22.67,6.65s7.81,11.65,7.81,21.64v15.61c0,10.79,0.21,19.74,0.63,26.86h-23.55c-0.33-3.41-0.5-6.47-0.5-9.18
		h-0.38c-2.04,3.21-4.65,5.75-7.84,7.62s-7.32,2.81-12.4,2.81C463.37,747.73,459.6,746.79,456.37,744.92z M481.98,728.68
		c1.48-1.21,2.62-2.84,3.44-4.9c0.81-2.06,1.22-4.3,1.22-6.71v-0.25h-7.37c-3.08,0-5.39,0.6-6.93,1.81
		c-1.54,1.21-2.31,2.89-2.31,5.06s0.6,3.84,1.81,5.03s2.91,1.78,5.12,1.78C478.82,730.49,480.5,729.89,481.98,728.68z"/>
	<path d="M537.66,743.26c-5.41-2.98-9.51-7.16-12.3-12.55c-2.79-5.39-4.19-11.65-4.19-18.77c0-7.75,1.51-14.36,4.53-19.83
		c3.02-5.47,7.25-9.62,12.68-12.43c5.43-2.81,11.73-4.22,18.89-4.22c7.25,0,13.47,1.44,18.67,4.31c5.21,2.87,8.95,6.68,11.24,11.43
		l-16.99,10.87c-1.42-2.37-2.98-4.22-4.68-5.53c-1.71-1.31-3.89-1.97-6.56-1.97c-3.79,0-6.77,1.4-8.93,4.19
		c-2.17,2.79-3.25,6.85-3.25,12.18c0,5.62,1.09,9.88,3.28,12.77c2.19,2.89,5.11,4.34,8.78,4.34c2.25,0,4.22-0.32,5.9-0.97
		c1.69-0.64,3.11-1.46,4.28-2.44c1.17-0.98,2.46-2.24,3.87-3.78l14.3,12.93c-3.12,4.16-7.24,7.53-12.33,10.09
		c-5.1,2.56-11,3.84-17.71,3.84C549.57,747.73,543.07,746.24,537.66,743.26z M572.88,760.41c0,3.75-1.45,6.8-4.34,9.15
		c-2.89,2.35-8.09,3.53-15.58,3.53c-2.62,0-5.23-0.13-7.81-0.38v-9.12c0.87,0.13,1.94,0.23,3.19,0.31c1.25,0.08,2.27,0.13,3.06,0.13
		c2.5,0,4.24-0.3,5.21-0.91c0.98-0.6,1.47-1.47,1.47-2.59c0-1.33-0.51-2.3-1.53-2.9s-2.86-0.91-5.53-0.91h-2.56l3.68-10.24h11.43
		l-1.75,4.18C569.2,751.79,572.88,755.04,572.88,760.41z"/>
	<path d="M600.52,744.92c-3.23-1.87-5.71-4.46-7.43-7.75c-1.73-3.29-2.59-7.06-2.59-11.3c0-7.16,2.25-12.57,6.75-16.24
		c4.5-3.66,11.12-5.62,19.86-5.87l13.68-0.38v-1.69c0-5.04-3.19-7.56-9.56-7.56c-3.17,0-6.04,0.69-8.62,2.06
		c-2.58,1.37-5.16,3.12-7.75,5.25l-10.24-14.8c3.83-3.12,8.23-5.72,13.21-7.81c4.98-2.08,10.84-3.12,17.58-3.12
		c9.91,0,17.47,2.22,22.67,6.65s7.81,11.65,7.81,21.64v15.61c0,10.79,0.21,19.74,0.63,26.86h-23.55c-0.33-3.41-0.5-6.47-0.5-9.18
		h-0.38c-2.04,3.21-4.65,5.75-7.84,7.62s-7.32,2.81-12.4,2.81C607.53,747.73,603.75,746.79,600.52,744.92z M599.34,661.72
		c0.64-3,2.09-5.67,4.34-8.03c2.25-2.35,5.6-3.53,10.06-3.53c2,0,3.99,0.36,5.96,1.09c1.98,0.73,4.42,1.8,7.34,3.22
		c2.12,1.04,3.75,1.78,4.87,2.22c1.12,0.44,2.14,0.66,3.06,0.66c1.75,0,3-0.55,3.75-1.66c0.75-1.1,1.35-2.95,1.81-5.53h10.87
		c0,5.75-1,10.78-3,15.11c-2,4.33-6.16,6.5-12.49,6.5c-1.87,0-3.76-0.35-5.65-1.06c-1.9-0.71-4.3-1.75-7.21-3.12
		c-2-1-3.63-1.75-4.9-2.25c-1.27-0.5-2.38-0.75-3.34-0.75c-1.33,0-2.35,0.26-3.06,0.78c-0.71,0.52-1.23,1.25-1.56,2.19
		c-0.33,0.94-0.67,2.34-1,4.22h-10.99C598.31,668.07,598.69,664.72,599.34,661.72z M626.13,728.68c1.48-1.21,2.62-2.84,3.44-4.9
		c0.81-2.06,1.22-4.3,1.22-6.71v-0.25h-7.37c-3.08,0-5.39,0.6-6.93,1.81c-1.54,1.21-2.31,2.89-2.31,5.06s0.6,3.84,1.81,5.03
		s2.91,1.78,5.12,1.78C622.98,730.49,624.65,729.89,626.13,728.68z"/>
	<path d="M681.97,742.86c-5.52-3.25-9.67-7.62-12.46-13.12c-2.79-5.5-4.19-11.6-4.19-18.3c0-6.5,1.35-12.47,4.06-17.93
		c2.71-5.45,6.84-9.83,12.4-13.12c5.56-3.29,12.44-4.93,20.64-4.93c8.66,0,15.75,1.63,21.27,4.9c5.52,3.27,9.53,7.6,12.05,12.99
		c2.52,5.39,3.78,11.42,3.78,18.08c0,6.62-1.38,12.68-4.15,18.17c-2.77,5.5-6.96,9.89-12.59,13.18s-12.53,4.93-20.74,4.93
		C694.18,747.73,687.49,746.1,681.97,742.86z M711.01,724.15c1.98-3.02,2.97-7.25,2.97-12.71c0-5.33-0.93-9.47-2.78-12.43
		c-1.85-2.96-4.7-4.43-8.53-4.43c-4,0-6.95,1.48-8.87,4.43c-1.92,2.96-2.87,7.1-2.87,12.43c0,5.33,0.94,9.54,2.81,12.62
		c1.87,3.08,4.6,4.62,8.18,4.62C706,728.68,709.03,727.17,711.01,724.15z"/>
</g>
</svg>
