<?xml version="1.0" encoding="utf-8"?>
<!-- Generator: Adobe Illustrator 24.0.2, SVG Export Plug-In . SVG Version: 6.00 Build 0)  -->
<svg version="1.1" id="Layer_1" xmlns="http://www.w3.org/2000/svg" xmlns:xlink="http://www.w3.org/1999/xlink" x="0px" y="0px"
	 viewBox="0 0 800 800" style="enable-background:new 0 0 800 800;" xml:space="preserve">
<g>
	<path d="M377.96,351.41v76.15H117.83v-64.79l116.04-102.5c14.02-12.41,24.13-23.13,30.34-32.15c6.2-9.02,9.31-18.77,9.31-29.25
		c0-9.83-2.78-17.97-8.34-24.42c-5.56-6.44-14.71-9.67-27.44-9.67c-11.12,0-21.72,2.86-31.79,8.58
		c-10.08,5.72-20.43,14.55-31.07,26.47l-57.54-58.5c13.7-18.37,31.79-32.88,54.27-43.52c22.48-10.64,48.31-15.96,77.48-15.96
		c27.72,0,50.73,4.64,69.02,13.9c18.29,9.27,31.75,21.56,40.37,36.87c8.62,15.31,12.93,32.07,12.93,50.29
		c0,17.41-3.06,33.48-9.19,48.23c-6.13,14.75-14.59,28.37-25.38,40.86c-10.8,12.49-24.34,25.59-40.62,39.29l-48.35,40.13H377.96z"/>
	<path d="M551.3,372.21H402.86v-75.43L538.49,86.93h100.33v212.5h40.13v72.77h-40.13v55.36H551.3V372.21z M551.3,299.44v-74.46
		c0-6.77,0.16-15.15,0.48-25.14c0.32-9.99,0.8-17.73,1.45-23.21c-2.42,5.16-5.48,11.08-9.19,17.77
		c-3.71,6.69-7.09,12.45-10.15,17.29l-42.55,67.45c-4.35,7.42-8.79,14.18-13.3,20.31H551.3z"/>
</g>
<g>
	<path d="M129,595.12c-6.19-3.6-10.95-8.55-14.27-14.87c-3.32-6.31-4.98-13.55-4.98-21.7c0-13.75,4.32-24.14,12.95-31.17
		c8.63-7.03,21.34-10.79,38.12-11.27l26.25-0.72v-3.24c0-9.67-6.11-14.5-18.34-14.5c-6.07,0-11.59,1.32-16.54,3.96
		c-4.96,2.64-9.91,5.99-14.87,10.07l-19.66-28.41c7.35-5.99,15.8-10.99,25.36-14.99c9.55-4,20.8-5.99,33.75-5.99
		c19.02,0,33.53,4.26,43.52,12.77c9.99,8.51,14.99,22.36,14.99,41.54v29.97c0,20.7,0.4,37.88,1.2,51.55h-45.19
		c-0.64-6.55-0.96-12.43-0.96-17.62h-0.72c-3.92,6.15-8.93,11.03-15.04,14.63s-14.05,5.39-23.8,5.39
		C142.45,600.52,135.2,598.72,129,595.12z M178.16,563.96c2.84-2.32,5.04-5.46,6.59-9.41c1.56-3.96,2.34-8.25,2.34-12.89v-0.48
		h-14.15c-5.92,0-10.35,1.16-13.31,3.48c-2.96,2.32-4.44,5.56-4.44,9.71c0,4.16,1.16,7.37,3.48,9.65c2.32,2.28,5.59,3.42,9.83,3.42
		C172.1,567.43,175.32,566.28,178.16,563.96z"/>
	<path d="M261.77,494.31c0-5.59-0.14-11.11-0.42-16.54c-0.28-5.43-0.62-9.91-1.02-13.43h44.96c0.48,2.56,0.96,6.25,1.44,11.09
		c0.48,4.84,0.72,8.41,0.72,10.73h0.48c4.63-8.39,10.45-14.54,17.44-18.46c6.99-3.92,15.41-5.87,25.24-5.87
		c15.18,0,26.27,4.46,33.27,13.37c6.99,8.91,10.49,21.16,10.49,36.74v86.19h-46.63v-72.89c0-7.83-1.36-13.8-4.08-17.92
		c-2.72-4.12-7.27-6.17-13.67-6.17c-7.03,0-12.39,2.36-16.06,7.07c-3.68,4.72-5.51,11.43-5.51,20.14v69.77h-46.63V494.31z"/>
	<path d="M447.17,591.17c-10.59-6.23-18.56-14.63-23.92-25.17c-5.36-10.55-8.03-22.26-8.03-35.13c0-12.47,2.6-23.94,7.79-34.41
		c5.19-10.47,13.13-18.86,23.8-25.17c10.67-6.31,23.88-9.47,39.62-9.47c16.62,0,30.23,3.14,40.82,9.41
		c10.59,6.27,18.3,14.59,23.14,24.93c4.83,10.35,7.25,21.92,7.25,34.71c0,12.71-2.66,24.34-7.97,34.88
		c-5.32,10.55-13.37,18.98-24.16,25.29c-10.79,6.31-24.06,9.47-39.8,9.47C470.6,600.52,457.76,597.4,447.17,591.17z M502.91,555.26
		c3.79-5.79,5.69-13.92,5.69-24.4c0-10.23-1.78-18.18-5.33-23.86c-3.56-5.67-9.01-8.51-16.36-8.51c-7.67,0-13.35,2.84-17.02,8.51
		c-3.68,5.68-5.51,13.63-5.51,23.86c0,10.23,1.8,18.3,5.39,24.22c3.6,5.92,8.83,8.87,15.7,8.87
		C493.3,563.96,499.12,561.06,502.91,555.26z"/>
	<path d="M594.5,595.54c-9.95-3.32-18.52-7.93-25.71-13.85l18.58-30.45c6.63,4.88,12.95,8.67,18.94,11.39
		c5.99,2.72,12.87,4.08,20.62,4.08c9.51,0,14.27-2.28,14.27-6.83c0-2.08-0.9-3.78-2.7-5.09c-1.8-1.32-4.26-2.44-7.37-3.36
		c-3.12-0.92-8.03-2.14-14.75-3.66c-13.03-3.04-23.32-7.65-30.87-13.85c-7.55-6.19-11.33-15.4-11.33-27.63
		c0-8.87,2.16-16.66,6.47-23.38c4.32-6.71,10.69-11.91,19.12-15.58c8.43-3.67,18.64-5.51,30.63-5.51c21.66,0,39.8,6.23,54.43,18.7
		l-20.86,25.77c-10.39-7.83-20.7-11.75-30.93-11.75c-4.32,0-7.63,0.66-9.95,1.98c-2.32,1.32-3.48,3.18-3.48,5.57
		c0,1.84,0.68,3.32,2.04,4.44c1.36,1.12,3.36,2.06,5.99,2.82c2.64,0.76,6.59,1.7,11.87,2.82c9.99,2.24,18.3,4.82,24.93,7.73
		c6.63,2.92,11.99,7.13,16.06,12.65s6.11,12.79,6.11,21.82c0,9.67-2.32,17.96-6.95,24.88c-4.64,6.91-11.39,12.19-20.26,15.82
		s-19.54,5.45-32.01,5.45C615.42,600.52,604.45,598.86,594.5,595.54z"/>
</g>
<g>
	<path d="M108.08,672.06c0-3.07-0.08-6.09-0.23-9.07s-0.34-5.43-0.56-7.36h24.64c0.26,1.4,0.53,3.43,0.79,6.08
		c0.26,2.65,0.39,4.61,0.39,5.88h0.26c2.54-4.6,5.73-7.97,9.56-10.12c3.83-2.15,8.45-3.22,13.83-3.22c8.32,0,14.4,2.44,18.24,7.33
		c3.83,4.89,5.75,11.6,5.75,20.14v47.25H155.2v-39.96c0-4.29-0.75-7.57-2.23-9.83c-1.49-2.26-3.99-3.38-7.49-3.38
		c-3.86,0-6.79,1.29-8.81,3.88c-2.02,2.59-3.02,6.27-3.02,11.04v38.25h-25.56V672.06z"/>
	<path d="M209.72,725.16c-5.81-3.42-10.18-8.02-13.11-13.8c-2.94-5.78-4.4-12.2-4.4-19.26c0-6.83,1.42-13.12,4.27-18.86
		c2.85-5.74,7.2-10.34,13.05-13.8c5.85-3.46,13.09-5.19,21.72-5.19c9.11,0,16.57,1.72,22.38,5.16c5.8,3.44,10.03,8,12.68,13.67
		c2.65,5.67,3.98,12.02,3.98,19.03c0,6.97-1.46,13.34-4.37,19.12s-7.33,10.41-13.24,13.87c-5.91,3.46-13.19,5.19-21.82,5.19
		C222.57,730.29,215.52,728.58,209.72,725.16z M240.28,705.48c2.08-3.18,3.12-7.63,3.12-13.37c0-5.61-0.98-9.97-2.92-13.08
		c-1.95-3.11-4.94-4.67-8.97-4.67c-4.21,0-7.32,1.56-9.33,4.67c-2.02,3.11-3.02,7.47-3.02,13.08c0,5.61,0.99,10.03,2.96,13.28
		s4.84,4.86,8.61,4.86C235.01,710.25,238.2,708.66,240.28,705.48z"/>
	<path d="M315.42,636.38h44.23c11.7,0,20.42,1.94,26.16,5.82c5.74,3.88,8.61,9.74,8.61,17.58c0,5.78-1.37,10.33-4.11,13.64
		c-2.74,3.31-6.67,5.64-11.8,7c6,0.92,10.75,3.18,14.26,6.77c3.5,3.59,5.26,8.63,5.26,15.12c0,8.94-3.36,15.62-10.09,20.04
		c-6.73,4.43-15.87,6.64-27.44,6.64h-45.08V636.38z M355.12,671.67c4.12,0,7.05-0.59,8.81-1.77c1.75-1.18,2.63-3.24,2.63-6.18
		c0-2.85-0.84-4.82-2.53-5.92c-1.69-1.09-4.35-1.64-7.99-1.64H342.3v15.51H355.12z M358.21,709.06c4.03,0,7.12-0.67,9.27-2
		c2.15-1.34,3.22-3.76,3.22-7.26c0-2.8-0.89-5.02-2.66-6.64s-4.52-2.43-8.25-2.43H342.3v18.33H358.21z"/>
	<path d="M410.85,672.46c0-2.93-0.08-6.01-0.23-9.23c-0.15-3.22-0.34-5.75-0.56-7.59h24.05c0.26,1.31,0.51,3.13,0.76,5.45
		c0.24,2.32,0.36,4.14,0.36,5.46h0.26c1.93-3.94,4.3-6.98,7.13-9.1c2.83-2.12,6.5-3.19,11.01-3.19c2.41,0,4.67,0.42,6.77,1.25
		l-1.12,23.26c-1.36-0.35-2.65-0.63-3.88-0.85c-1.23-0.22-2.61-0.33-4.14-0.33c-4.6,0-8.25,1.35-10.94,4.04
		c-2.7,2.69-4.04,7.13-4.04,13.31v34.04h-25.43V672.46z"/>
	<path d="M473.77,727.33c-3.4-1.97-6-4.69-7.82-8.15c-1.82-3.46-2.73-7.43-2.73-11.9c0-7.54,2.37-13.23,7.1-17.09
		c4.73-3.85,11.7-5.91,20.9-6.18l14.39-0.39v-1.77c0-5.3-3.35-7.95-10.06-7.95c-3.33,0-6.35,0.72-9.07,2.17
		c-2.72,1.45-5.43,3.29-8.15,5.52l-10.78-15.58c4.03-3.29,8.66-6.02,13.9-8.21c5.24-2.19,11.4-3.29,18.5-3.29
		c10.43,0,18.38,2.33,23.86,7c5.48,4.67,8.21,12.26,8.21,22.77v16.43c0,11.35,0.22,20.77,0.66,28.26h-24.78
		c-0.35-3.59-0.53-6.81-0.53-9.66h-0.39c-2.15,3.38-4.9,6.05-8.25,8.02c-3.35,1.97-7.7,2.96-13.04,2.96
		C481.14,730.29,477.17,729.3,473.77,727.33z M500.72,710.25c1.55-1.27,2.76-2.99,3.61-5.16s1.28-4.52,1.28-7.06v-0.26h-7.75
		c-3.24,0-5.67,0.64-7.29,1.91c-1.62,1.27-2.43,3.05-2.43,5.32c0,2.28,0.63,4.04,1.91,5.29c1.27,1.25,3.07,1.87,5.39,1.87
		C497.4,712.15,499.16,711.52,500.72,710.25z"/>
	<path d="M554.08,727.56c-5.45-1.82-10.15-4.35-14.1-7.59l10.19-16.69c3.64,2.67,7.1,4.75,10.38,6.24c3.29,1.49,7.05,2.23,11.3,2.23
		c5.21,0,7.82-1.25,7.82-3.75c0-1.14-0.49-2.07-1.48-2.79c-0.99-0.72-2.33-1.34-4.04-1.84c-1.71-0.5-4.4-1.17-8.08-2
		c-7.14-1.67-12.78-4.2-16.92-7.59c-4.14-3.39-6.21-8.45-6.21-15.15c0-4.86,1.18-9.13,3.55-12.81c2.37-3.68,5.86-6.53,10.48-8.54
		c4.62-2.01,10.22-3.02,16.79-3.02c11.87,0,21.82,3.42,29.84,10.25l-11.44,14.13c-5.7-4.29-11.35-6.44-16.96-6.44
		c-2.37,0-4.18,0.36-5.46,1.08c-1.27,0.72-1.91,1.74-1.91,3.06c0,1.01,0.37,1.82,1.12,2.43c0.74,0.61,1.84,1.13,3.29,1.54
		c1.45,0.42,3.62,0.93,6.51,1.54c5.48,1.23,10.03,2.64,13.67,4.24c3.64,1.6,6.57,3.91,8.81,6.93c2.23,3.02,3.35,7.01,3.35,11.96
		c0,5.3-1.27,9.85-3.81,13.64c-2.54,3.79-6.24,6.68-11.11,8.67s-10.71,2.99-17.55,2.99C565.55,730.29,559.54,729.38,554.08,727.56z"
		/>
	<path d="M620.66,649.03c-2.08-1.07-3.71-2.6-4.9-4.57c-1.18-1.97-1.77-4.23-1.77-6.77c0-2.54,0.59-4.82,1.77-6.83
		c1.18-2.01,2.82-3.59,4.9-4.73c2.08-1.14,4.44-1.71,7.06-1.71c2.54,0,4.84,0.57,6.9,1.71c2.06,1.14,3.68,2.72,4.86,4.73
		c1.18,2.02,1.77,4.29,1.77,6.83c0,2.5-0.59,4.72-1.77,6.67c-1.18,1.95-2.8,3.48-4.86,4.6s-4.36,1.68-6.9,1.68
		C625.09,650.64,622.74,650.1,620.66,649.03z M615.04,655.63h25.56v73.34h-25.56V655.63z"/>
	<path d="M661.76,724.41c-3.59-3.66-5.39-9.04-5.39-16.13v-77.94h25.56v73.34c0,1.97,0.36,3.45,1.08,4.44
		c0.72,0.99,2.07,1.48,4.04,1.48c0.83,0,1.99-0.13,3.48-0.39l0.79,19.52c-4.03,0.79-8.24,1.18-12.62,1.18
		C671.01,729.9,665.35,728.07,661.76,724.41z"/>
</g>
</svg>
