<?xml version="1.0" encoding="utf-8"?>
<!-- Generator: Adobe Illustrator 24.0.2, SVG Export Plug-In . SVG Version: 6.00 Build 0)  -->
<svg version="1.1" id="Layer_1" xmlns="http://www.w3.org/2000/svg" xmlns:xlink="http://www.w3.org/1999/xlink" x="0px" y="0px"
	 viewBox="0 0 800 800" style="enable-background:new 0 0 800 800;" xml:space="preserve">
<g>
	<path d="M227.02,170.09v49.16L144.36,404.9H78.54l84.66-183.31H59.87v-51.49H227.02z"/>
	<path d="M429.83,170.09v49.16L347.17,404.9h-65.83L366,221.59H262.68v-51.49H429.83z"/>
	<path d="M467.49,294.33c-11.44-11.39-17.16-29.8-17.16-55.24c0-26.55,5.64-45.27,16.91-56.16c11.28-10.89,26.91-16.33,46.91-16.33
		c42.33,0,63.49,24.16,63.49,72.49c0,25.22-5.86,43.58-17.58,55.08c-11.72,11.5-27.25,17.25-46.58,17.25
		C494.26,311.41,478.93,305.72,467.49,294.33z M523.99,271.58c2.44-2,4.22-5.55,5.33-10.67c1.11-5.11,1.67-12.39,1.67-21.83
		c0-9.33-0.56-16.5-1.67-21.5c-1.11-5-2.86-8.47-5.25-10.42c-2.39-1.94-5.69-2.92-9.91-2.92c-4.67,0-8.25,1-10.75,3
		s-4.28,5.47-5.33,10.41c-1.06,4.95-1.58,12.08-1.58,21.42c0,9.33,0.55,16.53,1.67,21.58c1.11,5.06,2.89,8.64,5.33,10.75
		c2.44,2.11,5.89,3.17,10.33,3.17C518.15,274.58,521.54,273.58,523.99,271.58z M656.47,170.09h44.49L548.65,404.9h-44.33
		L656.47,170.09z M644.97,391.23c-11.44-11.33-17.16-29.77-17.16-55.33c0-26.55,5.64-45.24,16.91-56.08
		c11.28-10.83,26.91-16.25,46.91-16.25c19.33,0,34.75,5.47,46.24,16.41c11.5,10.95,17.25,29.58,17.25,55.91
		c0,25.22-5.86,43.58-17.58,55.08c-11.72,11.5-27.25,17.25-46.58,17.25C671.74,408.23,656.41,402.57,644.97,391.23z M701.46,368.4
		c2.44-2,4.22-5.55,5.33-10.66c1.11-5.11,1.67-12.39,1.67-21.83c0-9.33-0.56-16.5-1.67-21.5c-1.11-5-2.86-8.47-5.25-10.42
		c-2.39-1.94-5.7-2.92-9.92-2.92c-4.67,0-8.25,1-10.75,3c-2.5,2-4.28,5.47-5.33,10.41c-1.06,4.95-1.58,12.08-1.58,21.41
		s0.55,16.53,1.67,21.58c1.11,5.06,2.89,8.64,5.33,10.75c2.44,2.11,5.89,3.17,10.33,3.17C695.63,371.4,699.02,370.4,701.46,368.4z"
		/>
</g>
<g>
	<path d="M58.77,512.22c-3.6-2.54-6.37-6.19-8.3-10.94c-1.93-4.76-2.9-10.39-2.9-16.91c0-7.43,1.07-13.7,3.21-18.81
		c2.14-5.12,5.09-8.94,8.84-11.48s8.05-3.81,12.9-3.81c4.36,0,7.88,0.75,10.57,2.24c2.69,1.5,4.98,3.55,6.88,6.17h0.23
		c-0.08-1.55-0.11-3.96-0.11-7.22v-21.88h22.11v70.09c0,4.7,0.15,9.78,0.46,15.23H90.89c-0.38-2.84-0.57-5.63-0.57-8.36H90.1
		c-1.71,2.84-4.1,5.13-7.19,6.88c-3.09,1.74-6.91,2.61-11.46,2.61C66.6,516.03,62.37,514.76,58.77,512.22z M87.6,494.82
		c1.82-2.5,2.73-6.48,2.73-11.94c0-4.96-0.85-8.74-2.56-11.34s-4.11-3.89-7.22-3.89c-2.77,0-5.07,1.24-6.91,3.72
		s-2.76,6.58-2.76,12.31c0,5.12,0.88,8.88,2.64,11.28c1.76,2.41,3.99,3.61,6.68,3.61C83.31,498.58,85.77,497.32,87.6,494.82z"/>
	<path d="M131.9,513.47c-2.94-1.71-5.19-4.05-6.76-7.05c-1.57-2.99-2.36-6.42-2.36-10.29c0-6.52,2.04-11.44,6.14-14.78
		c4.09-3.33,10.12-5.12,18.08-5.34l12.45-0.34v-1.54c0-4.58-2.9-6.88-8.7-6.88c-2.88,0-5.5,0.63-7.85,1.88s-4.7,2.84-7.05,4.78
		l-9.32-13.47c3.48-2.84,7.49-5.21,12.02-7.11c4.53-1.89,9.86-2.84,16-2.84c9.02,0,15.9,2.02,20.63,6.05
		c4.74,4.04,7.11,10.6,7.11,19.7v14.21c0,9.81,0.19,17.96,0.57,24.44h-21.43c-0.3-3.11-0.46-5.89-0.46-8.36h-0.34
		c-1.86,2.92-4.23,5.23-7.13,6.94c-2.9,1.71-6.66,2.56-11.28,2.56C138.28,516.03,134.84,515.17,131.9,513.47z M155.21,498.69
		c1.35-1.1,2.39-2.59,3.13-4.46c0.74-1.88,1.11-3.91,1.11-6.11v-0.23h-6.71c-2.8,0-4.91,0.55-6.31,1.65c-1.4,1.1-2.1,2.63-2.1,4.61
		s0.55,3.49,1.65,4.57c1.1,1.08,2.65,1.62,4.66,1.62C152.34,500.34,153.86,499.79,155.21,498.69z"/>
	<path d="M201.36,513.67c-4.72-1.57-8.78-3.76-12.19-6.57l8.81-14.44c3.14,2.31,6.14,4.11,8.98,5.4s6.1,1.93,9.78,1.93
		c4.51,0,6.76-1.08,6.76-3.24c0-0.98-0.43-1.79-1.28-2.42c-0.85-0.63-2.02-1.15-3.49-1.59c-1.48-0.44-3.81-1.01-6.99-1.73
		c-6.18-1.44-11.06-3.63-14.64-6.57c-3.58-2.94-5.37-7.3-5.37-13.1c0-4.21,1.02-7.9,3.07-11.08s5.07-5.65,9.07-7.39
		c4-1.74,8.84-2.62,14.52-2.62c10.27,0,18.87,2.96,25.81,8.87l-9.89,12.22c-4.93-3.71-9.81-5.57-14.67-5.57
		c-2.04,0-3.62,0.31-4.72,0.94c-1.1,0.63-1.65,1.51-1.65,2.64c0,0.87,0.32,1.57,0.96,2.1c0.64,0.53,1.59,0.98,2.84,1.34
		c1.25,0.36,3.13,0.81,5.63,1.34c4.74,1.06,8.68,2.28,11.82,3.67c3.15,1.38,5.69,3.38,7.62,6c1.93,2.62,2.9,6.06,2.9,10.35
		c0,4.58-1.1,8.52-3.3,11.79c-2.2,3.28-5.4,5.78-9.61,7.5c-4.21,1.72-9.27,2.59-15.18,2.59
		C211.28,516.03,206.08,515.24,201.36,513.67z"/>
	<path d="M294.33,511.96c-4.93-2.71-8.66-6.52-11.2-11.42s-3.81-10.6-3.81-17.08c0-7.05,1.37-13.06,4.12-18.05
		s6.59-8.75,11.54-11.31c4.95-2.56,10.68-3.84,17.2-3.84c6.59,0,12.26,1.31,17,3.92c4.74,2.62,8.15,6.08,10.23,10.4l-15.46,9.89
		c-1.29-2.16-2.71-3.84-4.26-5.03c-1.55-1.19-3.54-1.79-5.97-1.79c-3.45,0-6.16,1.27-8.13,3.81c-1.97,2.54-2.96,6.23-2.96,11.09
		c0,5.12,1,8.99,2.98,11.62c1.99,2.63,4.65,3.95,7.99,3.95c2.05,0,3.84-0.29,5.37-0.88c1.53-0.59,2.83-1.33,3.89-2.22
		s2.24-2.04,3.53-3.44l13.02,11.77c-2.84,3.79-6.58,6.85-11.23,9.18c-4.64,2.33-10.01,3.5-16.11,3.5
		C305.17,516.03,299.26,514.67,294.33,511.96z"/>
	<path d="M350.63,508.04c-5.93-5.32-8.9-13.44-8.9-24.36c0-7.5,1.39-13.75,4.18-18.73c2.79-4.98,6.61-8.68,11.48-11.08
		s10.45-3.61,16.74-3.61c10.15,0,17.56,2.87,22.22,8.61c4.66,5.74,6.99,13.35,6.99,22.82c0,2.05-0.11,4.41-0.34,7.11h-37.86
		c0.19,3.71,1.27,6.51,3.24,8.38c1.97,1.88,5.04,2.81,9.21,2.81c2.54,0,4.89-0.42,7.05-1.25s4.98-2.37,8.47-4.6l8.36,14.21
		c-3.75,2.43-7.58,4.31-11.48,5.66c-3.9,1.35-8.74,2.02-14.5,2.02C364.85,516.03,356.56,513.36,350.63,508.04z M382.04,475.33
		c-0.23-6.44-2.94-9.66-8.13-9.66c-2.54,0-4.57,0.81-6.08,2.44c-1.52,1.63-2.41,4.04-2.67,7.22H382.04z"/>
	<path d="M413.47,466c0-2.54-0.07-5.2-0.2-7.99c-0.13-2.79-0.29-4.97-0.48-6.56h20.8c0.23,1.14,0.45,2.71,0.65,4.72
		c0.21,2.01,0.31,3.58,0.31,4.72h0.23c1.67-3.41,3.72-6.03,6.17-7.87c2.44-1.84,5.62-2.76,9.52-2.76c2.08,0,4.04,0.36,5.85,1.08
		l-0.96,20.12c-1.18-0.3-2.29-0.55-3.36-0.74s-2.25-0.28-3.58-0.28c-3.98,0-7.13,1.16-9.46,3.49c-2.33,2.33-3.5,6.17-3.5,11.51
		v29.44h-22V466z"/>
	<path d="M457.47,451.45h23.65l7.56,29.45c1.55,6.25,2.67,11.25,3.35,15.01c0.3-1.93,0.73-4.01,1.28-6.22s1.3-5.07,2.25-8.55
		l7.9-29.67h23.48l-21.6,63.44h-27.17L457.47,451.45z"/>
	<path d="M537.07,508.04c-5.93-5.32-8.89-13.44-8.89-24.36c0-7.5,1.39-13.75,4.18-18.73c2.79-4.98,6.61-8.68,11.48-11.08
		s10.45-3.61,16.74-3.61c10.16,0,17.56,2.87,22.23,8.61c4.66,5.74,6.99,13.35,6.99,22.82c0,2.05-0.11,4.41-0.34,7.11H551.6
		c0.19,3.71,1.27,6.51,3.24,8.38c1.97,1.88,5.04,2.81,9.21,2.81c2.54,0,4.89-0.42,7.05-1.25c2.16-0.83,4.98-2.37,8.47-4.6
		l8.36,14.21c-3.75,2.43-7.58,4.31-11.48,5.66c-3.9,1.35-8.73,2.02-14.49,2.02C551.29,516.03,543,513.36,537.07,508.04z
		 M568.48,475.33c-0.23-6.44-2.94-9.66-8.13-9.66c-2.54,0-4.57,0.81-6.08,2.44c-1.52,1.63-2.41,4.04-2.67,7.22H568.48z"/>
	<path d="M587.92,538.99l1.42-16.65c1.02,0.38,2.25,0.57,3.69,0.57c2.16,0,3.77-0.62,4.83-1.85c1.06-1.23,1.59-3.21,1.59-5.94
		v-63.66h22.11v66.68c0,4.81-0.92,8.88-2.76,12.19c-1.84,3.31-4.41,5.8-7.7,7.45s-7.14,2.47-11.54,2.47
		C595.4,540.24,591.52,539.82,587.92,538.99z M604.55,445.74c-1.8-0.93-3.21-2.24-4.23-3.95c-1.02-1.71-1.54-3.66-1.54-5.86
		s0.51-4.17,1.54-5.91c1.02-1.74,2.43-3.11,4.23-4.09c1.8-0.99,3.84-1.48,6.11-1.48c2.2,0,4.19,0.49,5.97,1.48
		c1.78,0.98,3.18,2.35,4.21,4.09c1.02,1.74,1.54,3.71,1.54,5.91c0,2.16-0.51,4.08-1.54,5.77s-2.43,3.01-4.21,3.98
		s-3.77,1.45-5.97,1.45C608.38,447.13,606.35,446.67,604.55,445.74z"/>
	<path d="M641.04,513.47c-2.94-1.71-5.19-4.05-6.76-7.05s-2.36-6.42-2.36-10.29c0-6.52,2.05-11.44,6.14-14.78
		c4.09-3.33,10.12-5.12,18.08-5.34l12.45-0.34v-1.54c0-4.58-2.9-6.88-8.7-6.88c-2.88,0-5.49,0.63-7.84,1.88s-4.7,2.84-7.05,4.78
		l-9.32-13.47c3.49-2.84,7.49-5.21,12.02-7.11c4.53-1.89,9.86-2.84,16-2.84c9.02,0,15.9,2.02,20.63,6.05
		c4.74,4.04,7.11,10.6,7.11,19.7v14.21c0,9.81,0.19,17.96,0.57,24.44h-21.43c-0.3-3.11-0.45-5.89-0.45-8.36h-0.34
		c-1.86,2.92-4.23,5.23-7.13,6.94c-2.9,1.71-6.66,2.56-11.28,2.56C647.41,516.03,643.98,515.17,641.04,513.47z M664.35,498.69
		c1.34-1.1,2.39-2.59,3.13-4.46c0.74-1.88,1.11-3.91,1.11-6.11v-0.23h-6.71c-2.8,0-4.91,0.55-6.31,1.65c-1.4,1.1-2.1,2.63-2.1,4.61
		s0.55,3.49,1.65,4.57s2.65,1.62,4.66,1.62C661.47,500.34,663,499.79,664.35,498.69z"/>
	<path d="M710.5,513.67c-4.72-1.57-8.78-3.76-12.19-6.57l8.81-14.44c3.15,2.31,6.14,4.11,8.98,5.4s6.1,1.93,9.78,1.93
		c4.51,0,6.76-1.08,6.76-3.24c0-0.98-0.43-1.79-1.28-2.42c-0.85-0.63-2.02-1.15-3.5-1.59s-3.81-1.01-6.99-1.73
		c-6.18-1.44-11.05-3.63-14.64-6.57c-3.58-2.94-5.37-7.3-5.37-13.1c0-4.21,1.02-7.9,3.07-11.08c2.04-3.18,5.07-5.65,9.07-7.39
		c4-1.74,8.84-2.62,14.52-2.62c10.27,0,18.87,2.96,25.8,8.87l-9.89,12.22c-4.93-3.71-9.81-5.57-14.66-5.57
		c-2.05,0-3.62,0.31-4.72,0.94s-1.65,1.51-1.65,2.64c0,0.87,0.32,1.57,0.97,2.1c0.64,0.53,1.59,0.98,2.84,1.34
		c1.25,0.36,3.13,0.81,5.63,1.34c4.74,1.06,8.68,2.28,11.82,3.67c3.14,1.38,5.68,3.38,7.62,6c1.93,2.62,2.9,6.06,2.9,10.35
		c0,4.58-1.1,8.52-3.3,11.79c-2.2,3.28-5.4,5.78-9.61,7.5c-4.21,1.72-9.26,2.59-15.18,2.59
		C720.42,516.03,715.22,515.24,710.5,513.67z"/>
</g>
<g>
	<path d="M44.95,564.03H86.4l10.81,39.2c0.64,2.42,1.38,5.56,2.22,9.44c0.84,3.88,1.54,7.32,2.09,10.33
		c0.55-2.96,1.27-6.36,2.15-10.19c0.89-3.83,1.68-6.86,2.36-9.1l11.01-39.68h40.36v96.38h-25.93v-47.47
		c0-8.62,0.18-16.28,0.55-22.98c-1.5,6.25-3.88,15.03-7.11,26.34l-12.45,44.12H89.61L77.3,616.29c-3.28-11.31-5.63-20.09-7.05-26.34
		c0.27,8.53,0.41,16.19,0.41,22.98v47.47H44.95V564.03z"/>
	<path d="M182.64,651.79c-7.66-6.66-11.49-16.71-11.49-30.17v-57.6h28.05v55.61c0,6.02,1.42,10.6,4.28,13.75
		c2.85,3.15,7.13,4.72,12.83,4.72c5.84,0,10.24-1.65,13.2-4.96c2.96-3.31,4.45-8.04,4.45-14.19v-54.93h27.98v56.84
		c0,8.98-1.87,16.52-5.61,22.61c-3.74,6.09-9.09,10.66-16.04,13.71c-6.96,3.05-15.24,4.58-24.87,4.58
		C201.23,661.78,190.31,658.45,182.64,651.79z"/>
	<path d="M275.68,564.03h32.9l33.59,64.57c-0.55-4.06-0.82-12.08-0.82-24.08v-40.5h25.79v96.38h-33.31l-32.97-61.91
		c0.37,8.94,0.55,18.04,0.55,27.29v34.61h-25.72V564.03z"/>
	<path d="M382.59,564.03h40.02c16.96,0,29.92,3.9,38.85,11.7c8.94,7.8,13.41,19.72,13.41,35.78c0,10.35-2.11,19.2-6.33,26.54
		c-4.22,7.34-10.17,12.91-17.85,16.69s-16.61,5.68-26.78,5.68h-41.32V564.03z M422.61,637.15c7.71,0,13.55-2.17,17.55-6.5
		c3.99-4.33,5.98-10.63,5.98-18.88c0-7.89-1.97-13.94-5.92-18.16c-3.95-4.22-9.95-6.33-18.03-6.33h-11.63v49.87H422.61z"/>
	<path d="M486.84,564.03h27.98v96.38h-27.98V564.03z"/>
	<path d="M592.18,641.94h-33.31l-5.61,18.47h-28.18l33.45-96.38H593l33.38,96.38h-28.59L592.18,641.94z M585.82,620.87l-7.11-23.53
		c-1.6-5.06-2.67-8.89-3.21-11.49c-0.5,2.32-1.53,6.16-3.08,11.49l-7.12,23.53H585.82z"/>
	<path d="M636.17,564.03h27.98v96.38h-27.98V564.03z"/>
	<path d="M693.18,657.29c-7.5-2.99-13.67-7.38-18.5-13.17l16.83-16.89c3.65,3.92,7.65,7,12,9.23s9.68,3.35,15.97,3.35
		c4.38,0,7.6-0.52,9.68-1.57c2.07-1.05,3.11-2.76,3.11-5.13c0-1.87-0.77-3.42-2.29-4.65s-3.65-2.27-6.36-3.11
		c-2.71-0.84-6.56-1.81-11.53-2.91c-6.29-1.41-11.73-3.16-16.31-5.23c-4.58-2.08-8.36-5.12-11.32-9.13
		c-2.96-4.01-4.45-9.21-4.45-15.6c0-6.52,1.62-12.02,4.86-16.49c3.24-4.47,7.82-7.82,13.75-10.05s12.88-3.35,20.86-3.35
		c8.03,0,15.31,1.15,21.86,3.45c6.54,2.3,12.05,5.87,16.52,10.71l-15.66,16.69c-3.6-3.24-7.28-5.68-11.01-7.32
		c-3.74-1.64-7.91-2.46-12.52-2.46c-7.39,0-11.08,2.23-11.08,6.7c0,1.69,0.63,3.03,1.88,4.04c1.25,1,3,1.83,5.23,2.46
		c2.23,0.64,5.56,1.41,9.99,2.33c7.29,1.51,13.36,3.24,18.2,5.2s8.82,5.02,11.97,9.17c3.15,4.15,4.72,9.78,4.72,16.9
		c0,6.47-1.51,12.06-4.52,16.76c-3.01,4.7-7.54,8.3-13.58,10.81s-13.51,3.76-22.4,3.76C709.31,661.78,700.68,660.28,693.18,657.29z"
		/>
</g>
</svg>
