<?xml version="1.0" encoding="utf-8"?>
<!-- Generator: Adobe Illustrator 24.0.2, SVG Export Plug-In . SVG Version: 6.00 Build 0)  -->
<svg version="1.1" id="Layer_1" xmlns="http://www.w3.org/2000/svg" xmlns:xlink="http://www.w3.org/1999/xlink" x="0px" y="0px"
	 viewBox="0 0 800 800" style="enable-background:new 0 0 800 800;" xml:space="preserve">
<g>
	<path d="M50.01,350.32h44.38V250.14l-44.91,29.5V233l47.3-30.43h50.62v147.75h40.79v39.46H50.01V350.32z"/>
	<path d="M223.21,369.06c-12.54-15.59-18.8-39.9-18.8-72.94c0-23.47,2.9-42.32,8.7-56.54c5.8-14.22,14-24.4,24.58-30.56
		c10.58-6.16,23.49-9.23,38.73-9.23c47.04,0,70.55,32.11,70.55,96.33c0,22.14-2.99,40.39-8.97,54.74
		c-5.98,14.35-14.33,24.87-25.05,31.56c-10.72,6.69-23.34,10.03-37.87,10.03C253.04,392.44,235.74,384.65,223.21,369.06z
		 M287.05,343.41c2.57-3.19,4.29-8.37,5.18-15.55c0.88-7.17,1.33-17.76,1.33-31.75c0-14.53-0.4-25.33-1.2-32.42
		c-0.8-7.08-2.41-12.16-4.85-15.21c-2.44-3.06-6.22-4.58-11.36-4.58c-5.76,0-9.94,1.55-12.56,4.65c-2.61,3.1-4.3,8.1-5.05,15.01
		c-0.75,6.91-1.13,17.76-1.13,32.55c0,14.35,0.38,25.02,1.13,32.02c0.75,7,2.39,12.09,4.92,15.28s6.49,4.78,11.89,4.78
		C280.58,348.2,284.48,346.6,287.05,343.41z"/>
	<path d="M384.91,369.06c-12.54-15.59-18.8-39.9-18.8-72.94c0-23.47,2.9-42.32,8.7-56.54c5.8-14.22,14-24.4,24.58-30.56
		c10.58-6.16,23.49-9.23,38.73-9.23c47.04,0,70.55,32.11,70.55,96.33c0,22.14-2.99,40.39-8.97,54.74
		c-5.98,14.35-14.33,24.87-25.05,31.56c-10.72,6.69-23.34,10.03-37.87,10.03C414.74,392.44,397.44,384.65,384.91,369.06z
		 M448.75,343.41c2.57-3.19,4.29-8.37,5.18-15.55c0.88-7.17,1.33-17.76,1.33-31.75c0-14.53-0.4-25.33-1.2-32.42
		c-0.8-7.08-2.41-12.16-4.85-15.21c-2.44-3.06-6.22-4.58-11.36-4.58c-5.76,0-9.94,1.55-12.56,4.65c-2.61,3.1-4.3,8.1-5.05,15.01
		c-0.75,6.91-1.13,17.76-1.13,32.55c0,14.35,0.38,25.02,1.13,32.02c0.75,7,2.39,12.09,4.92,15.28s6.49,4.78,11.89,4.78
		C442.28,348.2,446.18,346.6,448.75,343.41z"/>
	<path d="M537.24,301.63c-9.12-9.08-13.69-23.76-13.69-44.05c0-21.17,4.5-36.09,13.49-44.78c8.99-8.68,21.46-13.02,37.4-13.02
		c33.75,0,50.62,19.27,50.62,57.8c0,20.11-4.67,34.75-14.02,43.91c-9.35,9.17-21.72,13.75-37.14,13.75
		C558.59,315.24,546.36,310.71,537.24,301.63z M582.28,283.49c1.95-1.59,3.37-4.43,4.25-8.5c0.88-4.07,1.33-9.88,1.33-17.41
		c0-7.44-0.44-13.15-1.33-17.14c-0.89-3.99-2.28-6.75-4.18-8.3c-1.91-1.55-4.54-2.33-7.91-2.33c-3.72,0-6.58,0.8-8.57,2.39
		c-1.99,1.59-3.41,4.36-4.25,8.3c-0.84,3.94-1.26,9.63-1.26,17.07c0,7.44,0.44,13.18,1.33,17.21c0.88,4.03,2.3,6.89,4.25,8.57
		c1.95,1.68,4.69,2.52,8.24,2.52C577.63,285.88,580.33,285.08,582.28,283.49z M687.91,202.57h35.48L601.95,389.78h-35.34
		L687.91,202.57z M678.75,378.89c-9.12-9.04-13.69-23.74-13.69-44.11c0-21.17,4.5-36.07,13.49-44.71
		c8.99-8.64,21.46-12.96,37.4-12.96c15.41,0,27.7,4.36,36.87,13.09c9.17,8.73,13.75,23.58,13.75,44.58
		c0,20.11-4.67,34.75-14.02,43.91c-9.35,9.17-21.72,13.75-37.14,13.75C700.09,392.44,687.87,387.92,678.75,378.89z M723.79,360.69
		c1.95-1.59,3.37-4.43,4.25-8.5c0.88-4.07,1.33-9.88,1.33-17.41c0-7.44-0.44-13.15-1.33-17.14c-0.89-3.99-2.28-6.75-4.19-8.3
		c-1.91-1.55-4.54-2.33-7.91-2.33c-3.72,0-6.58,0.8-8.57,2.39c-1.99,1.59-3.41,4.36-4.25,8.3c-0.84,3.94-1.26,9.63-1.26,17.07
		s0.44,13.18,1.33,17.21c0.88,4.03,2.3,6.89,4.25,8.57c1.95,1.68,4.69,2.52,8.24,2.52C719.14,363.08,721.84,362.28,723.79,360.69z"
		/>
</g>
<g>
	<path d="M44.58,491.78c-4.17-3.74-6.25-9.44-6.25-17.11c0-5.27,0.98-9.66,2.94-13.16c1.96-3.5,4.64-6.1,8.07-7.79
		s7.34-2.54,11.76-2.54c7.13,0,12.34,2.02,15.61,6.05s4.91,9.38,4.91,16.03c0,1.44-0.08,3.1-0.24,4.99H54.78
		c0.13,2.61,0.89,4.57,2.28,5.89c1.38,1.32,3.54,1.98,6.47,1.98c1.78,0,3.43-0.29,4.95-0.88c1.52-0.58,3.5-1.66,5.95-3.23L80.3,492
		c-2.64,1.7-5.33,3.03-8.07,3.97c-2.74,0.95-6.14,1.42-10.18,1.42C54.57,497.39,48.75,495.52,44.58,491.78z M66.64,468.8
		c-0.16-4.53-2.06-6.79-5.71-6.79c-1.78,0-3.21,0.57-4.27,1.72c-1.07,1.14-1.69,2.83-1.88,5.07H66.64z"/>
	<path d="M88.65,462.01c0-1.86-0.05-3.7-0.14-5.51c-0.09-1.81-0.21-3.3-0.34-4.47h14.97c0.16,0.85,0.32,2.08,0.48,3.69
		c0.16,1.61,0.24,2.8,0.24,3.57h0.16c1.54-2.8,3.48-4.84,5.81-6.15c2.33-1.3,5.13-1.96,8.41-1.96c5.06,0,8.75,1.48,11.08,4.45
		c2.33,2.97,3.49,7.05,3.49,12.24v28.71h-15.53v-24.28c0-2.61-0.45-4.6-1.36-5.97s-2.42-2.06-4.55-2.06c-2.34,0-4.13,0.79-5.35,2.36
		c-1.22,1.57-1.84,3.81-1.84,6.71v23.24H88.65V462.01z"/>
	<path d="M146.01,491.78c-4.17-3.74-6.25-9.44-6.25-17.11c0-5.27,0.98-9.66,2.94-13.16c1.96-3.5,4.64-6.1,8.07-7.79
		s7.34-2.54,11.76-2.54c7.13,0,12.34,2.02,15.61,6.05s4.91,9.38,4.91,16.03c0,1.44-0.08,3.1-0.24,4.99h-26.59
		c0.13,2.61,0.89,4.57,2.28,5.89c1.38,1.32,3.54,1.98,6.47,1.98c1.78,0,3.43-0.29,4.95-0.88c1.52-0.58,3.5-1.66,5.95-3.23l5.87,9.98
		c-2.64,1.7-5.33,3.03-8.07,3.97c-2.74,0.95-6.14,1.42-10.18,1.42C156,497.39,150.17,495.52,146.01,491.78z M168.07,468.8
		c-0.16-4.53-2.06-6.79-5.71-6.79c-1.78,0-3.21,0.57-4.27,1.72c-1.07,1.14-1.69,2.83-1.88,5.07H168.07z"/>
	<path d="M190.15,462.25c0-1.78-0.05-3.65-0.14-5.61c-0.09-1.96-0.21-3.49-0.34-4.61h14.61c0.16,0.8,0.31,1.9,0.46,3.31
		c0.15,1.41,0.22,2.52,0.22,3.31h0.16c1.17-2.4,2.62-4.24,4.33-5.53c1.72-1.29,3.95-1.94,6.69-1.94c1.46,0,2.83,0.25,4.11,0.76
		l-0.68,14.14c-0.83-0.21-1.61-0.39-2.36-0.52c-0.75-0.13-1.58-0.2-2.52-0.2c-2.8,0-5.01,0.82-6.65,2.46
		c-1.64,1.64-2.46,4.33-2.46,8.09v20.68h-15.45V462.25z"/>
	<path d="M268.02,458.58c-2.77,0-4.79,0.47-6.07,1.4c0.83,1.92,1.24,4.03,1.24,6.35c0,2.88-0.66,5.43-1.98,7.67
		c-1.32,2.24-3.43,4.01-6.33,5.33c-2.9,1.32-6.64,1.98-11.22,1.98c-2.34,0-4.53-0.19-6.55-0.56c-0.27,0.53-0.4,1-0.4,1.4
		c0,0.69,0.26,1.21,0.78,1.54c0.52,0.33,1.35,0.57,2.5,0.7c1.14,0.13,3.07,0.28,5.79,0.44c5.16,0.32,9.28,0.86,12.34,1.62
		c3.06,0.76,5.44,2.08,7.13,3.97c1.69,1.89,2.54,4.61,2.54,8.15c0,5.08-1.9,9-5.71,11.74c-3.81,2.74-10.08,4.11-18.81,4.11
		c-14.51,0-21.76-3.89-21.76-11.66c0-1.94,0.5-3.63,1.5-5.05s2.67-2.81,5.01-4.17c-2.32-1.65-3.47-4.17-3.47-7.55
		c0-1.57,0.41-3.07,1.22-4.49c0.81-1.42,1.99-2.74,3.53-3.93c-1.76-1.28-3.07-2.88-3.95-4.79c-0.88-1.92-1.32-4.09-1.32-6.51
		c0-4.47,1.56-8.1,4.67-10.88c3.11-2.78,8.08-4.17,14.89-4.17c4.79,0,8.75,0.76,11.86,2.28c1.54-1.92,3.27-3.36,5.17-4.33
		c1.9-0.97,4.19-1.46,6.85-1.46h0.32l0.56,10.9H268.02z M235.59,496.16c-0.61,0.98-0.92,2.09-0.92,3.31c0,1.57,0.7,2.77,2.1,3.59
		s3.85,1.24,7.37,1.24c3.25,0,5.5-0.33,6.77-1c1.26-0.67,1.9-1.63,1.9-2.88c0-0.72-0.21-1.3-0.64-1.76
		c-0.43-0.45-1.17-0.82-2.24-1.1s-2.56-0.47-4.47-0.58C240.93,496.75,237.64,496.47,235.59,496.16z M247.47,470.1
		c0.95-0.97,1.42-2.28,1.42-3.93c0-1.62-0.46-2.9-1.38-3.83c-0.92-0.93-2.2-1.4-3.85-1.4c-1.7,0-3.01,0.47-3.93,1.42
		c-0.92,0.95-1.38,2.24-1.38,3.89c0,1.62,0.45,2.92,1.36,3.87s2.2,1.44,3.87,1.44C245.23,471.56,246.53,471.07,247.47,470.1z"/>
	<path d="M276.5,448.02c-1.26-0.65-2.26-1.58-2.97-2.78c-0.72-1.2-1.08-2.57-1.08-4.11s0.36-2.93,1.08-4.15
		c0.72-1.22,1.71-2.18,2.97-2.88c1.26-0.69,2.7-1.04,4.29-1.04c1.54,0,2.94,0.35,4.19,1.04c1.25,0.69,2.24,1.65,2.96,2.88
		c0.72,1.22,1.08,2.61,1.08,4.15c0,1.52-0.36,2.87-1.08,4.05s-1.7,2.12-2.96,2.79c-1.25,0.68-2.65,1.02-4.19,1.02
		C279.2,449,277.77,448.67,276.5,448.02z M273.09,452.03h15.53v44.56h-15.53V452.03z"/>
	<path d="M302.14,495.6c-2.06-1.2-3.65-2.85-4.75-4.95c-1.1-2.1-1.66-4.51-1.66-7.23c0-4.58,1.44-8.04,4.31-10.38
		s7.11-3.59,12.7-3.75l8.75-0.24v-1.08c0-3.22-2.04-4.83-6.11-4.83c-2.02,0-3.86,0.44-5.51,1.32c-1.65,0.88-3.3,2-4.95,3.35
		l-6.55-9.46c2.45-2,5.26-3.66,8.45-4.99c3.18-1.33,6.93-2,11.24-2c6.33,0,11.17,1.42,14.5,4.25c3.33,2.84,4.99,7.45,4.99,13.84
		v9.98c0,6.9,0.13,12.62,0.4,17.17h-15.05c-0.21-2.18-0.32-4.14-0.32-5.87h-0.24c-1.3,2.05-2.97,3.67-5.01,4.87
		c-2.04,1.2-4.68,1.8-7.93,1.8C306.62,497.39,304.2,496.79,302.14,495.6z M318.51,485.21c0.94-0.77,1.68-1.82,2.2-3.13
		c0.52-1.32,0.78-2.75,0.78-4.29v-0.16h-4.71c-1.97,0-3.45,0.39-4.43,1.16c-0.98,0.77-1.48,1.85-1.48,3.23
		c0,1.38,0.39,2.46,1.16,3.21s1.86,1.14,3.27,1.14C316.5,486.37,317.57,485.99,318.51,485.21z"/>
	<path d="M366.89,462.25c0-1.78-0.05-3.65-0.14-5.61c-0.09-1.96-0.21-3.49-0.34-4.61h14.61c0.16,0.8,0.31,1.9,0.46,3.31
		c0.15,1.41,0.22,2.52,0.22,3.31h0.16c1.17-2.4,2.62-4.24,4.33-5.53c1.72-1.29,3.95-1.94,6.69-1.94c1.46,0,2.83,0.25,4.11,0.76
		l-0.68,14.14c-0.83-0.21-1.61-0.39-2.36-0.52c-0.75-0.13-1.58-0.2-2.52-0.2c-2.8,0-5.01,0.82-6.65,2.46
		c-1.64,1.64-2.46,4.33-2.46,8.09v20.68h-15.45V462.25z"/>
	<path d="M404.84,491.78c-4.17-3.74-6.25-9.44-6.25-17.11c0-5.27,0.98-9.66,2.94-13.16c1.96-3.5,4.64-6.1,8.07-7.79
		s7.34-2.54,11.76-2.54c7.13,0,12.34,2.02,15.61,6.05s4.91,9.38,4.91,16.03c0,1.44-0.08,3.1-0.24,4.99h-26.59
		c0.13,2.61,0.89,4.57,2.28,5.89c1.38,1.32,3.54,1.98,6.47,1.98c1.78,0,3.43-0.29,4.95-0.88c1.52-0.58,3.5-1.66,5.95-3.23l5.87,9.98
		c-2.64,1.7-5.33,3.03-8.07,3.97c-2.74,0.95-6.14,1.42-10.18,1.42C414.83,497.39,409.01,495.52,404.84,491.78z M426.91,468.8
		c-0.16-4.53-2.06-6.79-5.71-6.79c-1.78,0-3.21,0.57-4.27,1.72c-1.07,1.14-1.69,2.83-1.88,5.07H426.91z"/>
	<path d="M448.91,462.01c0-1.86-0.05-3.7-0.14-5.51c-0.09-1.81-0.21-3.3-0.34-4.47h14.97c0.16,0.85,0.32,2.08,0.48,3.69
		c0.16,1.61,0.24,2.8,0.24,3.57h0.16c1.54-2.8,3.48-4.84,5.81-6.15c2.33-1.3,5.13-1.96,8.41-1.96c5.06,0,8.75,1.48,11.08,4.45
		c2.33,2.97,3.49,7.05,3.49,12.24v28.71h-15.53v-24.28c0-2.61-0.45-4.6-1.36-5.97s-2.42-2.06-4.55-2.06c-2.34,0-4.13,0.79-5.35,2.36
		c-1.22,1.57-1.84,3.81-1.84,6.71v23.24h-15.53V462.01z"/>
	<path d="M510.66,494.28c-3.53-2.08-6.18-4.87-7.97-8.39c-1.78-3.51-2.68-7.41-2.68-11.7c0-4.15,0.87-7.97,2.6-11.46
		c1.73-3.49,4.37-6.28,7.93-8.39c3.55-2.1,7.95-3.15,13.2-3.15c5.54,0,10.07,1.04,13.6,3.13s6.1,4.86,7.71,8.31
		c1.61,3.45,2.42,7.3,2.42,11.56c0,4.23-0.89,8.11-2.66,11.62c-1.77,3.51-4.45,6.32-8.05,8.42c-3.59,2.1-8.01,3.16-13.26,3.16
		C518.47,497.39,514.19,496.36,510.66,494.28z M529.23,482.32c1.26-1.93,1.9-4.64,1.9-8.13c0-3.41-0.59-6.06-1.78-7.95
		c-1.18-1.89-3-2.84-5.45-2.84c-2.56,0-4.45,0.95-5.67,2.84c-1.22,1.89-1.84,4.54-1.84,7.95s0.6,6.1,1.8,8.07
		c1.2,1.97,2.94,2.96,5.23,2.96C526.03,485.21,527.97,484.25,529.23,482.32z"/>
	<path d="M548.62,452.03h16.61l5.31,20.68c1.09,4.39,1.88,7.91,2.36,10.54c0.21-1.36,0.51-2.82,0.9-4.37
		c0.39-1.56,0.91-3.56,1.58-6.01l5.55-20.84h16.49l-15.17,44.56h-19.09L548.62,452.03z"/>
	<path d="M605.22,495.6c-2.06-1.2-3.65-2.85-4.75-4.95c-1.1-2.1-1.66-4.51-1.66-7.23c0-4.58,1.44-8.04,4.31-10.38
		s7.11-3.59,12.7-3.75l8.75-0.24v-1.08c0-3.22-2.04-4.83-6.11-4.83c-2.02,0-3.86,0.44-5.51,1.32c-1.65,0.88-3.3,2-4.95,3.35
		l-6.55-9.46c2.45-2,5.26-3.66,8.45-4.99c3.18-1.33,6.93-2,11.24-2c6.33,0,11.17,1.42,14.5,4.25c3.33,2.84,4.99,7.45,4.99,13.84
		v9.98c0,6.9,0.13,12.62,0.4,17.17h-15.05c-0.21-2.18-0.32-4.14-0.32-5.87h-0.24c-1.3,2.05-2.97,3.67-5.01,4.87
		c-2.04,1.2-4.68,1.8-7.93,1.8C609.7,497.39,607.28,496.79,605.22,495.6z M621.59,485.21c0.94-0.77,1.68-1.82,2.2-3.13
		c0.52-1.32,0.78-2.75,0.78-4.29v-0.16h-4.71c-1.97,0-3.45,0.39-4.43,1.16c-0.98,0.77-1.48,1.85-1.48,3.23
		c0,1.38,0.39,2.46,1.16,3.21s1.86,1.14,3.27,1.14C619.58,486.37,620.65,485.99,621.59,485.21z M613.99,446.8l9.98-11.78h13.42v2.28
		l-13.5,11.14h-9.9V446.8z"/>
	<path d="M644.29,452.03h16.61l5.31,20.68c1.09,4.39,1.88,7.91,2.36,10.54c0.21-1.36,0.51-2.82,0.9-4.37
		c0.39-1.56,0.91-3.56,1.58-6.01l5.55-20.84h16.49l-15.17,44.56h-19.09L644.29,452.03z"/>
	<path d="M700.22,491.78c-4.17-3.74-6.25-9.44-6.25-17.11c0-5.27,0.98-9.66,2.94-13.16c1.96-3.5,4.64-6.1,8.07-7.79
		s7.34-2.54,11.76-2.54c7.13,0,12.34,2.02,15.61,6.05s4.91,9.38,4.91,16.03c0,1.44-0.08,3.1-0.24,4.99h-26.59
		c0.13,2.61,0.89,4.57,2.28,5.89c1.38,1.32,3.54,1.98,6.47,1.98c1.78,0,3.43-0.29,4.95-0.88c1.52-0.58,3.5-1.66,5.95-3.23l5.87,9.98
		c-2.64,1.7-5.33,3.03-8.07,3.97c-2.74,0.95-6.14,1.42-10.18,1.42C710.21,497.39,704.38,495.52,700.22,491.78z M722.28,468.8
		c-0.16-4.53-2.06-6.79-5.71-6.79c-1.78,0-3.21,0.57-4.27,1.72c-1.07,1.14-1.69,2.83-1.88,5.07H722.28z"/>
	<path d="M746.92,493.82c-2.18-2.22-3.27-5.49-3.27-9.8v-47.36h15.53v44.56c0,1.2,0.22,2.1,0.66,2.7c0.44,0.6,1.26,0.9,2.46,0.9
		c0.5,0,1.21-0.08,2.12-0.24l0.48,11.86c-2.45,0.48-5,0.72-7.67,0.72C752.54,497.15,749.1,496.04,746.92,493.82z"/>
</g>
<g>
	<path d="M44.66,581.6c0-3.66-0.09-7.27-0.27-10.83c-0.18-3.56-0.41-6.48-0.67-8.79h29.42c0.31,1.67,0.63,4.09,0.94,7.26
		c0.31,3.17,0.47,5.5,0.47,7.02h0.31c3.03-5.49,6.84-9.52,11.42-12.08c4.58-2.56,10.08-3.84,16.52-3.84
		c9.94,0,17.19,2.92,21.77,8.75c4.58,5.83,6.87,13.85,6.87,24.05v56.41h-30.52v-47.7c0-5.13-0.89-9.03-2.67-11.73
		c-1.78-2.69-4.76-4.04-8.94-4.04c-4.6,0-8.11,1.54-10.51,4.63c-2.41,3.09-3.61,7.48-3.61,13.18v45.66H44.66V581.6z"/>
	<path d="M165.99,644.99c-6.93-4.08-12.15-9.57-15.65-16.48c-3.5-6.91-5.26-14.57-5.26-22.99c0-8.16,1.7-15.67,5.1-22.52
		c3.4-6.85,8.59-12.34,15.57-16.48c6.98-4.13,15.63-6.2,25.93-6.2c10.88,0,19.78,2.05,26.71,6.16c6.93,4.11,11.98,9.55,15.14,16.32
		c3.16,6.77,4.75,14.35,4.75,22.71c0,8.32-1.74,15.93-5.22,22.83c-3.48,6.9-8.75,12.42-15.81,16.55c-7.06,4.13-15.74,6.2-26.05,6.2
		C181.33,651.11,172.92,649.07,165.99,644.99z M202.48,621.49c2.48-3.79,3.73-9.11,3.73-15.97c0-6.7-1.17-11.9-3.49-15.61
		c-2.33-3.71-5.9-5.57-10.71-5.57c-5.02,0-8.74,1.86-11.14,5.57c-2.41,3.71-3.61,8.92-3.61,15.61s1.18,11.98,3.53,15.85
		c2.35,3.87,5.78,5.81,10.28,5.81C196.19,627.18,199.99,625.29,202.48,621.49z"/>
	<path d="M314.99,643.82c-8.92-4.86-15.63-11.61-20.13-20.24c-4.5-8.63-6.75-18.57-6.75-29.81c0-11.4,2.43-21.35,7.3-29.85
		c4.86-8.5,11.78-15.05,20.75-19.65c8.97-4.6,19.44-6.9,31.42-6.9c12.6,0,23.03,2.45,31.27,7.34c8.24,4.89,14.74,12.15,19.5,21.77
		l-26.52,12.55c-2.25-4.24-5.37-7.7-9.38-10.4c-4-2.69-8.85-4.04-14.55-4.04c-5.33,0-10.03,1.2-14.08,3.61
		c-4.05,2.41-7.19,5.82-9.42,10.24c-2.22,4.42-3.33,9.53-3.33,15.34c0,9.21,2.24,16.49,6.71,21.85c4.47,5.36,11.13,8.04,19.97,8.04
		c6.59,0,12.03-1.65,16.32-4.94c4.29-3.29,7.53-7.32,9.73-12.08l26.21,13.5c-3.82,9.1-9.98,16.54-18.48,22.32
		c-8.5,5.78-19.76,8.67-33.78,8.67C334.82,651.11,323.9,648.68,314.99,643.82z"/>
	<path d="M416.24,644.09c-4.29-4.37-6.43-10.79-6.43-19.26v-93.05h30.52v87.56c0,2.35,0.43,4.12,1.29,5.3
		c0.86,1.18,2.47,1.76,4.83,1.76c0.99,0,2.38-0.16,4.16-0.47l0.94,23.3c-4.81,0.94-9.83,1.41-15.06,1.41
		C427.27,650.64,420.52,648.46,416.24,644.09z"/>
	<path d="M480.61,644.99c-6.93-4.08-12.15-9.57-15.65-16.48c-3.5-6.91-5.26-14.57-5.26-22.99c0-8.16,1.7-15.67,5.1-22.52
		c3.4-6.85,8.59-12.34,15.57-16.48c6.98-4.13,15.63-6.2,25.93-6.2c10.88,0,19.78,2.05,26.71,6.16c6.93,4.11,11.98,9.55,15.14,16.32
		c3.16,6.77,4.75,14.35,4.75,22.71c0,8.32-1.74,15.93-5.22,22.83c-3.48,6.9-8.75,12.42-15.81,16.55c-7.06,4.13-15.74,6.2-26.05,6.2
		C495.95,651.11,487.54,649.07,480.61,644.99z M517.09,621.49c2.48-3.79,3.73-9.11,3.73-15.97c0-6.7-1.17-11.9-3.49-15.61
		c-2.33-3.71-5.9-5.57-10.71-5.57c-5.02,0-8.74,1.86-11.14,5.57c-2.41,3.71-3.61,8.92-3.61,15.61s1.18,11.98,3.53,15.85
		c2.35,3.87,5.78,5.81,10.28,5.81C510.8,627.18,514.61,625.29,517.09,621.49z"/>
	<path d="M573.54,642.6c-4.6-5.94-6.9-14-6.9-24.21v-56.41h30.52v47.7c0,5.13,0.89,9.04,2.67,11.73c1.78,2.69,4.73,4.04,8.87,4.04
		c4.65,0,8.17-1.54,10.55-4.63c2.38-3.09,3.57-7.5,3.57-13.26v-45.58h30.6v67.95c0,3.61,0.09,7.22,0.27,10.83
		c0.18,3.61,0.41,6.54,0.67,8.79h-29.42c-0.31-1.67-0.63-4.09-0.94-7.26c-0.31-3.16-0.47-5.5-0.47-7.02h-0.31
		c-3.03,5.6-6.83,9.7-11.38,12.32c-4.55,2.62-10.09,3.92-16.63,3.92C585.37,651.5,578.15,648.54,573.54,642.6z"/>
	<path d="M683.94,645.86c-4.97-3.5-8.79-8.54-11.46-15.1c-2.67-6.56-4-14.34-4-23.34c0-10.25,1.48-18.91,4.43-25.97
		c2.95-7.06,7.02-12.34,12.2-15.85c5.18-3.5,11.11-5.26,17.81-5.26c6.01,0,10.88,1.03,14.59,3.1c3.71,2.07,6.88,4.9,9.49,8.51h0.31
		c-0.11-2.14-0.16-5.46-0.16-9.96v-30.21h30.52v96.74c0,6.49,0.21,13.49,0.63,21.03h-30.05c-0.52-3.92-0.78-7.77-0.78-11.53h-0.31
		c-2.35,3.92-5.66,7.09-9.92,9.49c-4.26,2.41-9.53,3.61-15.81,3.61C694.74,651.11,688.9,649.36,683.94,645.86z M723.71,621.85
		c2.51-3.45,3.77-8.94,3.77-16.48c0-6.85-1.18-12.07-3.53-15.65c-2.35-3.58-5.68-5.38-9.96-5.38c-3.82,0-7,1.71-9.53,5.14
		s-3.8,9.09-3.8,16.99c0,7.06,1.22,12.25,3.65,15.57c2.43,3.32,5.5,4.98,9.22,4.98C717.8,627.03,721.2,625.3,723.71,621.85z"/>
</g>
</svg>
