<?xml version="1.0" encoding="utf-8"?>
<!-- Generator: Adobe Illustrator 24.0.2, SVG Export Plug-In . SVG Version: 6.00 Build 0)  -->
<svg version="1.1" id="Layer_1" xmlns="http://www.w3.org/2000/svg" xmlns:xlink="http://www.w3.org/1999/xlink" x="0px" y="0px"
	 viewBox="0 0 800 800" style="enable-background:new 0 0 800 800;" xml:space="preserve">
<g>
	<path d="M101.78,314.95H44.15v-46.65h57.63v-59.44h46.8v59.44h58.38v46.65h-58.38v59.44h-46.8V314.95z"/>
	<path d="M239.92,349.41h50.26V235.95l-50.86,33.41v-52.82l53.57-34.46h57.33v167.33h46.2v44.69h-156.5V349.41z"/>
	<path d="M436.06,370.63c-14.2-17.66-21.29-45.19-21.29-82.61c0-26.58,3.29-47.93,9.86-64.03c6.57-16.1,15.85-27.64,27.84-34.61
		c11.99-6.97,26.61-10.46,43.86-10.46c53.27,0,79.9,36.37,79.9,109.1c0,25.08-3.39,45.74-10.16,62s-16.23,28.17-28.36,35.74
		c-12.14,7.58-26.43,11.36-42.89,11.36C469.85,397.12,450.26,388.29,436.06,370.63z M508.37,341.59c2.91-3.61,4.86-9.48,5.87-17.61
		c1-8.13,1.5-20.11,1.5-35.96c0-16.45-0.45-28.69-1.35-36.72c-0.9-8.02-2.73-13.77-5.49-17.23c-2.76-3.46-7.05-5.19-12.87-5.19
		c-6.52,0-11.26,1.76-14.22,5.27c-2.96,3.51-4.87,9.18-5.72,17c-0.85,7.82-1.28,20.11-1.28,36.87c0,16.25,0.43,28.34,1.28,36.26
		c0.85,7.93,2.71,13.69,5.57,17.3c2.86,3.61,7.35,5.42,13.47,5.42C501.04,347.01,505.46,345.2,508.37,341.59z"/>
	<path d="M619.2,370.63c-14.2-17.66-21.29-45.19-21.29-82.61c0-26.58,3.29-47.93,9.86-64.03c6.57-16.1,15.85-27.64,27.84-34.61
		c11.99-6.97,26.61-10.46,43.86-10.46c53.27,0,79.9,36.37,79.9,109.1c0,25.08-3.39,45.74-10.16,62s-16.23,28.17-28.36,35.74
		c-12.14,7.58-26.43,11.36-42.89,11.36C652.98,397.12,633.39,388.29,619.2,370.63z M691.5,341.59c2.91-3.61,4.86-9.48,5.87-17.61
		c1-8.13,1.5-20.11,1.5-35.96c0-16.45-0.45-28.69-1.35-36.72c-0.9-8.02-2.73-13.77-5.49-17.23c-2.76-3.46-7.05-5.19-12.87-5.19
		c-6.52,0-11.26,1.76-14.22,5.27c-2.96,3.51-4.87,9.18-5.72,17c-0.85,7.82-1.28,20.11-1.28,36.87c0,16.25,0.43,28.34,1.28,36.26
		c0.85,7.93,2.71,13.69,5.57,17.3c2.86,3.61,7.35,5.42,13.47,5.42C684.18,347.01,688.59,345.2,691.5,341.59z"/>
</g>
<g>
	<path d="M69.26,537.05c-5.8-3.19-10.2-7.67-13.19-13.45c-2.99-5.78-4.48-12.48-4.48-20.11c0-8.3,1.62-15.38,4.85-21.25
		c3.24-5.87,7.76-10.31,13.59-13.32c5.82-3.01,12.57-4.52,20.25-4.52c7.76,0,14.44,1.54,20.01,4.62s9.59,7.16,12.05,12.25
		l-18.21,11.65c-1.52-2.54-3.19-4.52-5.02-5.92c-1.83-1.41-4.17-2.11-7.03-2.11c-4.06,0-7.25,1.5-9.57,4.48
		c-2.32,2.99-3.48,7.34-3.48,13.05c0,6.02,1.17,10.59,3.51,13.69s5.48,4.65,9.4,4.65c2.41,0,4.52-0.34,6.33-1.04
		c1.81-0.69,3.33-1.56,4.58-2.61c1.25-1.05,2.63-2.4,4.15-4.05l15.33,13.86c-3.35,4.46-7.75,8.07-13.22,10.81
		c-5.47,2.74-11.79,4.12-18.98,4.12C82.02,541.83,75.06,540.24,69.26,537.05z"/>
	<path d="M135.56,532.43c-6.98-6.27-10.48-15.83-10.48-28.68c0-8.84,1.64-16.19,4.92-22.06c3.28-5.87,7.79-10.22,13.52-13.05
		c5.73-2.83,12.3-4.25,19.71-4.25c11.96,0,20.68,3.38,26.17,10.14c5.49,6.76,8.23,15.72,8.23,26.88c0,2.41-0.13,5.2-0.4,8.37h-44.58
		c0.22,4.37,1.5,7.66,3.82,9.87s5.93,3.31,10.84,3.31c2.99,0,5.76-0.49,8.3-1.47c2.54-0.98,5.87-2.79,9.97-5.42l9.84,16.73
		c-4.42,2.86-8.92,5.08-13.52,6.66c-4.6,1.58-10.29,2.38-17.07,2.38C152.3,541.83,142.54,538.7,135.56,532.43z M172.54,493.91
		c-0.27-7.59-3.46-11.38-9.57-11.38c-2.99,0-5.38,0.96-7.16,2.88c-1.79,1.92-2.83,4.75-3.15,8.5H172.54z"/>
	<path d="M209.42,482.53c0-3.12-0.08-6.2-0.23-9.24c-0.16-3.03-0.35-5.53-0.57-7.5h25.1c0.27,1.43,0.54,3.49,0.8,6.19
		c0.27,2.7,0.4,4.7,0.4,5.99h0.27c2.59-4.69,5.83-8.12,9.74-10.31c3.9-2.19,8.6-3.28,14.09-3.28c8.48,0,14.67,2.49,18.58,7.46
		c3.9,4.98,5.86,11.81,5.86,20.52v48.13h-26.04v-40.7c0-4.37-0.76-7.71-2.28-10.01c-1.52-2.3-4.06-3.45-7.63-3.45
		c-3.93,0-6.92,1.32-8.97,3.95c-2.05,2.63-3.08,6.38-3.08,11.25v38.96h-26.04V482.53z"/>
	<path d="M306.51,536.25c-3.77-3.73-5.66-9.25-5.66-16.57v-35.01h-9.04V465.8h10.44l1.21-17.13l23.49-1.81v18.94h13.12v18.88h-13.12
		v27.18c0,2.95,0.45,5.1,1.34,6.46c0.89,1.36,2.36,2.04,4.42,2.04c2.28,0,4.42-0.22,6.43-0.67l1.74,19.48
		c-3.3,0.89-6.42,1.56-9.34,2.01c-2.92,0.45-5.97,0.67-9.14,0.67C315.58,541.83,310.28,539.97,306.51,536.25z"/>
	<path d="M351.19,482.93c0-2.99-0.08-6.13-0.23-9.4c-0.16-3.28-0.35-5.86-0.57-7.73h24.5c0.27,1.34,0.52,3.19,0.77,5.56
		c0.25,2.37,0.37,4.22,0.37,5.56h0.27c1.96-4.02,4.38-7.11,7.26-9.27c2.88-2.16,6.62-3.25,11.21-3.25c2.45,0,4.75,0.42,6.89,1.27
		l-1.14,23.7c-1.38-0.36-2.7-0.65-3.95-0.87c-1.25-0.22-2.66-0.33-4.22-0.33c-4.69,0-8.4,1.37-11.14,4.12
		c-2.74,2.74-4.12,7.26-4.12,13.55v34.67h-25.9V482.93z"/>
	<path d="M422.17,536.61c-5.91-3.48-10.36-8.17-13.35-14.06c-2.99-5.89-4.48-12.43-4.48-19.61c0-6.96,1.45-13.36,4.35-19.21
		c2.9-5.85,7.33-10.53,13.29-14.06c5.96-3.52,13.33-5.29,22.12-5.29c9.28,0,16.88,1.75,22.79,5.25c5.91,3.5,10.22,8.14,12.92,13.92
		c2.7,5.78,4.05,12.24,4.05,19.38c0,7.09-1.48,13.59-4.45,19.48c-2.97,5.89-7.46,10.6-13.49,14.12c-6.02,3.53-13.43,5.29-22.22,5.29
		C435.26,541.83,428.09,540.09,422.17,536.61z M453.3,516.57c2.12-3.23,3.18-7.77,3.18-13.62c0-5.71-0.99-10.15-2.98-13.32
		c-1.99-3.17-5.03-4.75-9.14-4.75c-4.28,0-7.45,1.58-9.5,4.75c-2.05,3.17-3.08,7.61-3.08,13.32c0,5.71,1,10.22,3.01,13.52
		c2.01,3.3,4.93,4.95,8.77,4.95C447.93,521.42,451.18,519.8,453.3,516.57z"/>
	<path d="M504.44,539.06c-5.56-1.85-10.34-4.43-14.36-7.73l10.38-17c3.7,2.72,7.23,4.84,10.58,6.36c3.35,1.52,7.18,2.28,11.51,2.28
		c5.31,0,7.96-1.27,7.96-3.82c0-1.16-0.5-2.11-1.51-2.84s-2.38-1.36-4.12-1.87c-1.74-0.51-4.49-1.19-8.23-2.04
		c-7.27-1.7-13.02-4.27-17.24-7.73c-4.22-3.46-6.33-8.6-6.33-15.43c0-4.95,1.21-9.3,3.61-13.05c2.41-3.75,5.97-6.65,10.68-8.7
		c4.71-2.05,10.41-3.08,17.1-3.08c12.09,0,22.22,3.48,30.39,10.44l-11.65,14.39c-5.8-4.37-11.56-6.56-17.27-6.56
		c-2.41,0-4.26,0.37-5.56,1.1c-1.29,0.74-1.94,1.77-1.94,3.11c0,1.03,0.38,1.85,1.14,2.48c0.76,0.63,1.87,1.15,3.35,1.57
		c1.47,0.42,3.68,0.95,6.63,1.57c5.58,1.25,10.22,2.69,13.92,4.32c3.7,1.63,6.69,3.98,8.97,7.06c2.28,3.08,3.41,7.14,3.41,12.18
		c0,5.4-1.29,10.03-3.88,13.89c-2.59,3.86-6.36,6.8-11.31,8.83s-10.91,3.05-17.87,3.05C516.12,541.83,509.99,540.91,504.44,539.06z"
		/>
	<path d="M609.43,537.35c-4.24-2.99-7.5-7.29-9.77-12.89c-2.28-5.6-3.41-12.24-3.41-19.91c0-8.75,1.26-16.13,3.78-22.16
		c2.52-6.02,5.99-10.53,10.41-13.52c4.42-2.99,9.48-4.48,15.19-4.48c5.13,0,9.28,0.88,12.45,2.64c3.17,1.76,5.87,4.18,8.1,7.26h0.27
		c-0.09-1.83-0.13-4.66-0.13-8.5v-25.77h26.04v82.53c0,5.53,0.18,11.51,0.54,17.94h-25.64c-0.45-3.35-0.67-6.63-0.67-9.84h-0.27
		c-2.01,3.35-4.83,6.05-8.47,8.1c-3.64,2.05-8.13,3.08-13.49,3.08C618.64,541.83,613.67,540.34,609.43,537.35z M643.36,516.87
		c2.14-2.95,3.21-7.63,3.21-14.06c0-5.85-1-10.3-3.01-13.35c-2.01-3.06-4.84-4.58-8.5-4.58c-3.26,0-5.97,1.46-8.13,4.38
		c-2.16,2.92-3.25,7.75-3.25,14.49c0,6.02,1.04,10.45,3.11,13.29c2.08,2.83,4.7,4.25,7.87,4.25
		C638.32,521.29,641.22,519.81,643.36,516.87z"/>
	<path d="M695.81,532.43c-6.98-6.27-10.48-15.83-10.48-28.68c0-8.84,1.64-16.19,4.92-22.06c3.28-5.87,7.79-10.22,13.52-13.05
		c5.73-2.83,12.3-4.25,19.71-4.25c11.96,0,20.68,3.38,26.17,10.14c5.49,6.76,8.23,15.72,8.23,26.88c0,2.41-0.13,5.2-0.4,8.37h-44.58
		c0.22,4.37,1.5,7.66,3.82,9.87s5.93,3.31,10.84,3.31c2.99,0,5.76-0.49,8.3-1.47c2.54-0.98,5.87-2.79,9.97-5.42l9.84,16.73
		c-4.42,2.86-8.92,5.08-13.52,6.66c-4.6,1.58-10.29,2.38-17.07,2.38C712.55,541.83,702.79,538.7,695.81,532.43z M732.79,493.91
		c-0.27-7.59-3.46-11.38-9.57-11.38c-2.99,0-5.38,0.96-7.16,2.88c-1.79,1.92-2.83,4.75-3.15,8.5H732.79z"/>
</g>
<g>
	<path d="M61.65,641.73c-2.53-1.78-4.47-4.35-5.83-7.69c-1.36-3.34-2.04-7.3-2.04-11.88c0-5.22,0.75-9.62,2.26-13.22
		c1.5-3.59,3.57-6.28,6.21-8.07c2.64-1.78,5.66-2.68,9.06-2.68c3.06,0,5.54,0.53,7.43,1.58c1.89,1.05,3.5,2.5,4.83,4.33h0.16
		c-0.05-1.09-0.08-2.78-0.08-5.07v-15.38h15.53v49.24c0,3.3,0.11,6.87,0.32,10.7H84.21c-0.27-2-0.4-3.95-0.4-5.87h-0.16
		c-1.2,2-2.88,3.61-5.05,4.83c-2.17,1.22-4.85,1.84-8.05,1.84C67.14,644.41,64.18,643.52,61.65,641.73z M81.89,629.51
		c1.28-1.76,1.92-4.55,1.92-8.39c0-3.49-0.6-6.14-1.8-7.97c-1.2-1.82-2.89-2.74-5.07-2.74c-1.94,0-3.56,0.87-4.85,2.62
		c-1.29,1.74-1.94,4.63-1.94,8.65c0,3.59,0.62,6.24,1.86,7.93c1.24,1.69,2.8,2.54,4.69,2.54C78.88,632.15,80.62,631.27,81.89,629.51
		z"/>
	<path d="M113.18,638.8c-4.17-3.74-6.25-9.44-6.25-17.11c0-5.27,0.98-9.66,2.94-13.16s4.65-6.1,8.07-7.79s7.34-2.54,11.76-2.54
		c7.13,0,12.34,2.02,15.61,6.05s4.91,9.38,4.91,16.03c0,1.44-0.08,3.1-0.24,4.99h-26.6c0.13,2.61,0.89,4.57,2.28,5.89
		c1.38,1.32,3.54,1.98,6.47,1.98c1.78,0,3.43-0.29,4.95-0.88c1.52-0.59,3.5-1.66,5.95-3.24l5.87,9.98c-2.64,1.7-5.33,3.03-8.07,3.97
		c-2.74,0.95-6.14,1.42-10.18,1.42C123.17,644.41,117.35,642.54,113.18,638.8z M135.25,615.82c-0.16-4.53-2.06-6.79-5.71-6.79
		c-1.78,0-3.21,0.57-4.27,1.72c-1.07,1.15-1.69,2.84-1.88,5.07H135.25z"/>
	<path d="M161.82,642.75c-3.31-1.1-6.17-2.64-8.57-4.61l6.19-10.14c2.21,1.62,4.31,2.89,6.31,3.79s4.29,1.36,6.87,1.36
		c3.17,0,4.75-0.76,4.75-2.28c0-0.69-0.3-1.26-0.9-1.7c-0.6-0.44-1.42-0.81-2.46-1.12c-1.04-0.31-2.68-0.71-4.91-1.22
		c-4.34-1.01-7.77-2.55-10.28-4.61c-2.52-2.06-3.77-5.13-3.77-9.21c0-2.96,0.72-5.55,2.16-7.79s3.56-3.97,6.37-5.19
		c2.81-1.22,6.21-1.84,10.2-1.84c7.21,0,13.26,2.08,18.13,6.23l-6.95,8.59c-3.46-2.61-6.9-3.91-10.3-3.91
		c-1.44,0-2.54,0.22-3.31,0.66c-0.77,0.44-1.16,1.06-1.16,1.86c0,0.61,0.23,1.11,0.68,1.48c0.45,0.37,1.12,0.69,2,0.94
		s2.2,0.57,3.95,0.94c3.33,0.75,6.1,1.6,8.31,2.58c2.21,0.97,3.99,2.38,5.35,4.21c1.36,1.84,2.04,4.26,2.04,7.27
		c0,3.22-0.77,5.98-2.32,8.29c-1.54,2.3-3.79,4.06-6.75,5.27c-2.96,1.21-6.51,1.82-10.66,1.82
		C168.79,644.41,165.14,643.86,161.82,642.75z"/>
	<path d="M202.39,638.8c-4.17-3.74-6.25-9.44-6.25-17.11c0-5.27,0.98-9.66,2.94-13.16s4.65-6.1,8.07-7.79s7.34-2.54,11.76-2.54
		c7.13,0,12.34,2.02,15.61,6.05s4.91,9.38,4.91,16.03c0,1.44-0.08,3.1-0.24,4.99h-26.6c0.13,2.61,0.89,4.57,2.28,5.89
		c1.38,1.32,3.54,1.98,6.47,1.98c1.78,0,3.43-0.29,4.95-0.88c1.52-0.59,3.5-1.66,5.95-3.24l5.87,9.98c-2.64,1.7-5.33,3.03-8.07,3.97
		c-2.74,0.95-6.14,1.42-10.18,1.42C212.38,644.41,206.56,642.54,202.39,638.8z M224.46,615.82c-0.16-4.53-2.06-6.79-5.71-6.79
		c-1.78,0-3.21,0.57-4.27,1.72c-1.07,1.15-1.69,2.84-1.88,5.07H224.46z"/>
	<path d="M246.46,609.03c0-1.86-0.05-3.7-0.14-5.51c-0.09-1.81-0.21-3.3-0.34-4.47h14.98c0.16,0.85,0.32,2.08,0.48,3.69
		c0.16,1.61,0.24,2.8,0.24,3.57h0.16c1.54-2.79,3.48-4.84,5.81-6.15c2.33-1.3,5.13-1.96,8.41-1.96c5.06,0,8.75,1.48,11.08,4.45
		c2.33,2.97,3.49,7.05,3.49,12.24v28.71h-15.53v-24.28c0-2.61-0.45-4.6-1.36-5.97c-0.91-1.37-2.42-2.06-4.55-2.06
		c-2.34,0-4.13,0.79-5.35,2.36c-1.22,1.57-1.84,3.81-1.84,6.71v23.24h-15.53V609.03z"/>
	<path d="M293.59,599.04h16.61l5.31,20.69c1.09,4.39,1.88,7.91,2.36,10.54c0.21-1.36,0.51-2.82,0.9-4.37
		c0.39-1.56,0.91-3.56,1.58-6.01l5.55-20.85h16.49l-15.18,44.57h-19.09L293.59,599.04z"/>
	<path d="M353.35,641.29c-3.53-2.08-6.18-4.87-7.97-8.39c-1.78-3.51-2.68-7.41-2.68-11.7c0-4.15,0.87-7.97,2.6-11.46
		c1.73-3.49,4.37-6.28,7.93-8.39c3.55-2.1,7.95-3.16,13.2-3.16c5.54,0,10.07,1.04,13.6,3.13c3.53,2.09,6.1,4.86,7.71,8.31
		c1.61,3.45,2.42,7.3,2.42,11.56c0,4.23-0.89,8.11-2.66,11.62c-1.77,3.51-4.45,6.32-8.05,8.43c-3.59,2.1-8.01,3.16-13.26,3.16
		C361.15,644.41,356.87,643.37,353.35,641.29z M371.92,629.33c1.26-1.93,1.9-4.64,1.9-8.13c0-3.41-0.59-6.06-1.78-7.95
		s-3-2.84-5.45-2.84c-2.56,0-4.45,0.95-5.67,2.84s-1.84,4.54-1.84,7.95c0,3.41,0.6,6.1,1.8,8.07c1.2,1.97,2.94,2.96,5.23,2.96
		C368.71,632.23,370.65,631.26,371.92,629.33z"/>
	<path d="M400.49,640.83c-2.18-2.22-3.27-5.49-3.27-9.8v-47.36h15.53v44.57c0,1.2,0.22,2.1,0.66,2.7c0.44,0.6,1.26,0.9,2.46,0.9
		c0.51,0,1.21-0.08,2.12-0.24l0.48,11.86c-2.45,0.48-5.01,0.72-7.67,0.72C406.11,644.17,402.67,643.06,400.49,640.83z"/>
	<path d="M419.86,599.04h16.61l5.31,20.69c1.09,4.39,1.88,7.91,2.36,10.54c0.21-1.36,0.51-2.82,0.9-4.37
		c0.39-1.56,0.91-3.56,1.58-6.01l5.55-20.85h16.49l-15.18,44.57h-19.09L419.86,599.04z"/>
	<path d="M476.9,595.03c-1.26-0.65-2.26-1.58-2.97-2.78s-1.08-2.57-1.08-4.11c0-1.54,0.36-2.93,1.08-4.15
		c0.72-1.22,1.71-2.18,2.97-2.88s2.7-1.04,4.29-1.04c1.54,0,2.94,0.35,4.19,1.04c1.25,0.69,2.24,1.65,2.96,2.88
		c0.72,1.23,1.08,2.61,1.08,4.15c0,1.52-0.36,2.87-1.08,4.05s-1.7,2.12-2.96,2.79c-1.25,0.68-2.65,1.02-4.19,1.02
		C479.6,596.01,478.17,595.68,476.9,595.03z M473.49,599.04h15.53v44.57h-15.53V599.04z"/>
	<path d="M499.25,609.03c0-1.84-0.05-3.67-0.14-5.51c-0.09-1.84-0.21-3.33-0.34-4.47h15.06c0.16,0.91,0.29,2.06,0.4,3.47
		c0.11,1.41,0.19,2.67,0.24,3.79h0.16c1.36-2.64,3.09-4.65,5.19-6.03c2.1-1.38,4.9-2.08,8.39-2.08c3.25,0,5.84,0.67,7.79,2.02
		c1.94,1.34,3.35,3.35,4.23,6.01h0.24c1.28-2.61,3.01-4.6,5.21-5.97c2.2-1.37,4.93-2.06,8.21-2.06c4.53,0,7.92,1.43,10.18,4.29
		c2.26,2.86,3.39,6.81,3.39,11.84v29.27h-15.53v-24.88c0-2.48-0.41-4.33-1.24-5.57c-0.83-1.24-2.1-1.86-3.83-1.86
		c-1.81,0-3.21,0.64-4.21,1.92c-1,1.28-1.5,3.18-1.5,5.71v24.68H525.6v-24.88c0-2.56-0.35-4.43-1.06-5.63s-1.96-1.8-3.77-1.8
		c-3.99,0-5.99,2.83-5.99,8.51v23.8h-15.53V609.03z"/>
	<path d="M580.65,638.8c-4.17-3.74-6.25-9.44-6.25-17.11c0-5.27,0.98-9.66,2.94-13.16s4.65-6.1,8.07-7.79s7.34-2.54,11.76-2.54
		c7.13,0,12.34,2.02,15.61,6.05s4.91,9.38,4.91,16.03c0,1.44-0.08,3.1-0.24,4.99h-26.6c0.13,2.61,0.89,4.57,2.28,5.89
		c1.38,1.32,3.54,1.98,6.47,1.98c1.78,0,3.43-0.29,4.95-0.88c1.52-0.59,3.5-1.66,5.95-3.24l5.87,9.98c-2.64,1.7-5.33,3.03-8.07,3.97
		c-2.74,0.95-6.14,1.42-10.18,1.42C590.64,644.41,584.82,642.54,580.65,638.8z M602.71,615.82c-0.16-4.53-2.06-6.79-5.71-6.79
		c-1.78,0-3.21,0.57-4.27,1.72c-1.07,1.15-1.69,2.84-1.88,5.07H602.71z"/>
	<path d="M624.72,609.03c0-1.86-0.05-3.7-0.14-5.51c-0.09-1.81-0.21-3.3-0.34-4.47h14.98c0.16,0.85,0.32,2.08,0.48,3.69
		c0.16,1.61,0.24,2.8,0.24,3.57h0.16c1.54-2.79,3.48-4.84,5.81-6.15c2.33-1.3,5.13-1.96,8.41-1.96c5.06,0,8.75,1.48,11.08,4.45
		c2.33,2.97,3.49,7.05,3.49,12.24v28.71h-15.53v-24.28c0-2.61-0.45-4.6-1.36-5.97c-0.91-1.37-2.42-2.06-4.55-2.06
		c-2.34,0-4.13,0.79-5.35,2.36c-1.22,1.57-1.84,3.81-1.84,6.71v23.24h-15.53V609.03z"/>
	<path d="M682.64,641.07c-2.25-2.22-3.38-5.52-3.38-9.88V610.3h-5.39v-11.26h6.23l0.72-10.22l14.02-1.08v11.3h7.83v11.26h-7.83
		v16.21c0,1.76,0.27,3.04,0.8,3.85c0.53,0.81,1.41,1.22,2.64,1.22c1.36,0,2.64-0.13,3.83-0.4l1.04,11.62
		c-1.97,0.53-3.83,0.93-5.57,1.2c-1.74,0.27-3.56,0.4-5.45,0.4C688.05,644.41,684.89,643.3,682.64,641.07z"/>
	<path d="M717.79,641.29c-3.53-2.08-6.18-4.87-7.97-8.39c-1.78-3.51-2.68-7.41-2.68-11.7c0-4.15,0.87-7.97,2.6-11.46
		c1.73-3.49,4.37-6.28,7.93-8.39c3.55-2.1,7.95-3.16,13.2-3.16c5.54,0,10.07,1.04,13.6,3.13c3.53,2.09,6.1,4.86,7.71,8.31
		c1.61,3.45,2.42,7.3,2.42,11.56c0,4.23-0.89,8.11-2.66,11.62c-1.77,3.51-4.45,6.32-8.05,8.43c-3.59,2.1-8.01,3.16-13.26,3.16
		C725.59,644.41,721.31,643.37,717.79,641.29z M736.35,629.33c1.26-1.93,1.9-4.64,1.9-8.13c0-3.41-0.59-6.06-1.78-7.95
		s-3-2.84-5.45-2.84c-2.56,0-4.45,0.95-5.67,2.84s-1.84,4.54-1.84,7.95c0,3.41,0.6,6.1,1.8,8.07c1.2,1.97,2.94,2.96,5.23,2.96
		C733.15,632.23,735.09,631.26,736.35,629.33z"/>
</g>
</svg>
